<?xml version="1.0" encoding="UTF-8" standalone="no"?>
<!DOCTYPE svg PUBLIC "-//W3C//DTD SVG 1.1//EN"
 "http://www.w3.org/Graphics/SVG/1.1/DTD/svg11.dtd">
<!-- Generated by graphviz version 8.1.0 (20230707.0739)
 -->
<!-- Title: g Pages: 1 -->
<svg width="248pt" height="496pt"
 viewBox="0.00 0.00 248.12 495.50" xmlns="http://www.w3.org/2000/svg" xmlns:xlink="http://www.w3.org/1999/xlink">
<g id="graph0" class="graph" transform="scale(1 1) rotate(0) translate(4 491.5)">
<title>g</title>
<polygon fill="white" stroke="none" points="-4,4 -4,-491.5 244.12,-491.5 244.12,4 -4,4"/>
<!-- success -->
<g id="node1" class="node">
<title>success</title>
<text text-anchor="middle" x="55.62" y="-470.2" font-family="Times,serif" font-size="14.00">Success</text>
<text text-anchor="middle" x="55.62" y="-453.7" font-family="Times,serif" font-size="14.00">Path</text>
</g>
<!-- init -->
<g id="node3" class="node">
<title>init</title>
<polygon fill="none" stroke="black" points="111.25,-409.5 0,-409.5 0,-373.5 111.25,-373.5 111.25,-409.5"/>
<text text-anchor="middle" x="55.62" y="-386.45" font-family="Times,serif" font-size="14.00">Random Number</text>
</g>
<!-- success&#45;&gt;init -->
<!-- error -->
<g id="node2" class="node">
<title>error</title>
<text text-anchor="middle" x="176.62" y="-470.2" font-family="Times,serif" font-size="14.00">Error</text>
<text text-anchor="middle" x="176.62" y="-453.7" font-family="Times,serif" font-size="14.00">Path</text>
</g>
<!-- invis -->
<!-- error&#45;&gt;invis -->
<!-- func1 -->
<g id="node4" class="node">
<title>func1</title>
<polygon fill="none" stroke="black" points="107.12,-301.5 4.12,-301.5 4.12,-265.5 107.12,-265.5 107.12,-301.5"/>
<text text-anchor="middle" x="55.62" y="-278.45" font-family="Times,serif" font-size="14.00">Assert not Even</text>
</g>
<!-- init&#45;&gt;func1 -->
<g id="edge4" class="edge">
<title>init&#45;&gt;func1</title>
<path fill="none" stroke="black" d="M55.62,-373.47C55.62,-357.11 55.62,-332.09 55.62,-312.74"/>
<polygon fill="black" stroke="black" points="59.13,-312.84 55.62,-302.84 52.13,-312.84 59.13,-312.84"/>
<text text-anchor="middle" x="75.5" y="-332.45" font-family="Times,serif" font-size="14.00"> &#160;return</text>
</g>
<!-- func2 -->
<g id="node5" class="node">
<title>func2</title>
<polygon fill="none" stroke="black" points="82.62,-124.5 28.62,-124.5 28.62,-88.5 82.62,-88.5 82.62,-124.5"/>
<text text-anchor="middle" x="55.62" y="-101.45" font-family="Times,serif" font-size="14.00">Add 1</text>
</g>
<!-- func1&#45;&gt;func2 -->
<g id="edge5" class="edge">
<title>func1&#45;&gt;func2</title>
<path fill="none" stroke="black" d="M55.62,-265.08C55.62,-234.81 55.62,-172.26 55.62,-135.72"/>
<polygon fill="black" stroke="black" points="59.13,-135.85 55.62,-125.85 52.13,-135.85 59.13,-135.85"/>
<text text-anchor="middle" x="75.5" y="-189.95" font-family="Times,serif" font-size="14.00"> &#160;return</text>
</g>
<!-- err1 -->
<g id="node7" class="node">
<title>err1</title>
<polygon fill="none" stroke="black" points="240.12,-213 113.12,-213 113.12,-177 240.12,-177 240.12,-213"/>
<text text-anchor="middle" x="176.62" y="-189.95" font-family="Times,serif" font-size="14.00">Return 9998 if not 4</text>
</g>
<!-- func1&#45;&gt;err1 -->
<g id="edge8" class="edge">
<title>func1&#45;&gt;err1</title>
<path fill="none" stroke="black" d="M77.71,-265.2C90.89,-255.03 108.03,-242.04 123.62,-231 129.06,-227.15 134.88,-223.18 140.6,-219.34"/>
<polygon fill="black" stroke="black" points="142.04,-221.92 148.44,-213.47 138.17,-216.09 142.04,-221.92"/>
<text text-anchor="middle" x="143.12" y="-234.2" font-family="Times,serif" font-size="14.00"> &#160;throw</text>
</g>
<!-- func3 -->
<g id="node6" class="node">
<title>func3</title>
<polygon fill="none" stroke="black" points="92.88,-36 18.38,-36 18.38,0 92.88,0 92.88,-36"/>
<text text-anchor="middle" x="55.62" y="-12.95" font-family="Times,serif" font-size="14.00">Multiply 2</text>
</g>
<!-- func2&#45;&gt;func3 -->
<g id="edge6" class="edge">
<title>func2&#45;&gt;func3</title>
<path fill="none" stroke="black" d="M55.62,-88.41C55.62,-76.64 55.62,-60.73 55.62,-47.11"/>
<polygon fill="black" stroke="black" points="59.13,-47.35 55.62,-37.35 52.13,-47.35 59.13,-47.35"/>
<text text-anchor="middle" x="75.5" y="-57.2" font-family="Times,serif" font-size="14.00"> &#160;return</text>
</g>
<!-- err1&#45;&gt;func2 -->
<g id="edge9" class="edge">
<title>err1&#45;&gt;func2</title>
<path fill="none" stroke="black" d="M152.43,-176.7C134.13,-163.62 108.79,-145.51 88.63,-131.1"/>
<polygon fill="black" stroke="black" points="90.95,-127.74 80.78,-124.77 86.88,-133.43 90.95,-127.74"/>
<text text-anchor="middle" x="147.5" y="-145.7" font-family="Times,serif" font-size="14.00"> &#160;return</text>
</g>
<!-- err2 -->
<g id="node8" class="node">
<title>err2</title>
<polygon fill="none" stroke="black" points="220.62,-124.5 132.62,-124.5 132.62,-88.5 220.62,-88.5 220.62,-124.5"/>
<text text-anchor="middle" x="176.62" y="-101.45" font-family="Times,serif" font-size="14.00">Return &#45;1001</text>
</g>
<!-- err1&#45;&gt;err2 -->
<g id="edge7" class="edge">
<title>err1&#45;&gt;err2</title>
<path fill="none" stroke="black" d="M176.62,-176.91C176.62,-165.14 176.62,-149.23 176.62,-135.61"/>
<polygon fill="black" stroke="black" points="180.13,-135.85 176.62,-125.85 173.13,-135.85 180.13,-135.85"/>
<text text-anchor="middle" x="196.12" y="-145.7" font-family="Times,serif" font-size="14.00"> &#160;throw</text>
</g>
<!-- err2&#45;&gt;func3 -->
<g id="edge10" class="edge">
<title>err2&#45;&gt;func3</title>
<path fill="none" stroke="black" d="M152.43,-88.2C134.13,-75.12 108.79,-57.01 88.63,-42.6"/>
<polygon fill="black" stroke="black" points="90.95,-39.24 80.78,-36.27 86.88,-44.93 90.95,-39.24"/>
<text text-anchor="middle" x="147.5" y="-57.2" font-family="Times,serif" font-size="14.00"> &#160;return</text>
</g>
<!-- invis&#45;&gt;err1 -->
</g>
</svg>
