<?xml version="1.0" encoding="UTF-8" standalone="no"?>
<!DOCTYPE svg PUBLIC "-//W3C//DTD SVG 1.1//EN"
 "http://www.w3.org/Graphics/SVG/1.1/DTD/svg11.dtd">
<!-- Generated by graphviz version 2.43.0 (0)
 -->
<!-- Title: g Pages: 1 -->
<svg width="312pt" height="488pt"
 viewBox="0.00 0.00 312.00 488.00" xmlns="http://www.w3.org/2000/svg" xmlns:xlink="http://www.w3.org/1999/xlink">
<g id="graph0" class="graph" transform="scale(1 1) rotate(0) translate(4 484)">
<title>g</title>
<polygon fill="white" stroke="transparent" points="-4,4 -4,-484 308,-484 308,4 -4,4"/>
<!-- success -->
<g id="node1" class="node">
<title>success</title>
<text text-anchor="middle" x="69" y="-464.8" font-family="Times,serif" font-size="14.00">Success</text>
<text text-anchor="middle" x="69" y="-449.8" font-family="Times,serif" font-size="14.00">Path</text>
</g>
<!-- init -->
<g id="node3" class="node">
<title>init</title>
<polygon fill="none" stroke="black" points="138,-405 0,-405 0,-369 138,-369 138,-405"/>
<text text-anchor="middle" x="69" y="-383.3" font-family="Times,serif" font-size="14.00">Random Number</text>
</g>
<!-- success&#45;&gt;init -->
<!-- error -->
<g id="node2" class="node">
<title>error</title>
<text text-anchor="middle" x="223" y="-464.8" font-family="Times,serif" font-size="14.00">Error</text>
<text text-anchor="middle" x="223" y="-449.8" font-family="Times,serif" font-size="14.00">Path</text>
</g>
<!-- invis -->
<!-- error&#45;&gt;invis -->
<!-- func1 -->
<g id="node4" class="node">
<title>func1</title>
<polygon fill="none" stroke="black" points="134.5,-297 3.5,-297 3.5,-261 134.5,-261 134.5,-297"/>
<text text-anchor="middle" x="69" y="-275.3" font-family="Times,serif" font-size="14.00">Assert not Even</text>
</g>
<!-- init&#45;&gt;func1 -->
<g id="edge4" class="edge">
<title>init&#45;&gt;func1</title>
<path fill="none" stroke="black" d="M69,-368.97C69,-352.38 69,-326.88 69,-307.43"/>
<polygon fill="black" stroke="black" points="72.5,-307.34 69,-297.34 65.5,-307.34 72.5,-307.34"/>
<text text-anchor="middle" x="96.5" y="-329.3" font-family="Times,serif" font-size="14.00"> &#160;return</text>
</g>
<!-- func2 -->
<g id="node5" class="node">
<title>func2</title>
<polygon fill="none" stroke="black" points="98,-123 40,-123 40,-87 98,-87 98,-123"/>
<text text-anchor="middle" x="69" y="-101.3" font-family="Times,serif" font-size="14.00">Add 1</text>
</g>
<!-- func1&#45;&gt;func2 -->
<g id="edge5" class="edge">
<title>func1&#45;&gt;func2</title>
<path fill="none" stroke="black" d="M69,-260.88C69,-231 69,-169.11 69,-133.27"/>
<polygon fill="black" stroke="black" points="72.5,-133.05 69,-123.05 65.5,-133.05 72.5,-133.05"/>
<text text-anchor="middle" x="96.5" y="-188.3" font-family="Times,serif" font-size="14.00"> &#160;return</text>
</g>
<!-- err1 -->
<g id="node7" class="node">
<title>err1</title>
<polygon fill="none" stroke="black" points="304,-210 142,-210 142,-174 304,-174 304,-210"/>
<text text-anchor="middle" x="223" y="-188.3" font-family="Times,serif" font-size="14.00">Return 9998 if not 4</text>
</g>
<!-- func1&#45;&gt;err1 -->
<g id="edge8" class="edge">
<title>func1&#45;&gt;err1</title>
<path fill="none" stroke="black" d="M98.61,-260.89C115.63,-251.13 137.44,-238.74 157,-228 164.85,-223.69 173.26,-219.16 181.36,-214.84"/>
<polygon fill="black" stroke="black" points="183.14,-217.86 190.34,-210.08 179.86,-211.68 183.14,-217.86"/>
<text text-anchor="middle" x="183" y="-231.8" font-family="Times,serif" font-size="14.00"> &#160;throw</text>
</g>
<!-- func3 -->
<g id="node6" class="node">
<title>func3</title>
<polygon fill="none" stroke="black" points="114,-36 24,-36 24,0 114,0 114,-36"/>
<text text-anchor="middle" x="69" y="-14.3" font-family="Times,serif" font-size="14.00">Multiply 2</text>
</g>
<!-- func2&#45;&gt;func3 -->
<g id="edge6" class="edge">
<title>func2&#45;&gt;func3</title>
<path fill="none" stroke="black" d="M69,-86.8C69,-75.16 69,-59.55 69,-46.24"/>
<polygon fill="black" stroke="black" points="72.5,-46.18 69,-36.18 65.5,-46.18 72.5,-46.18"/>
<text text-anchor="middle" x="96.5" y="-57.8" font-family="Times,serif" font-size="14.00"> &#160;return</text>
</g>
<!-- err1&#45;&gt;func2 -->
<g id="edge9" class="edge">
<title>err1&#45;&gt;func2</title>
<path fill="none" stroke="black" d="M191.84,-173.8C167.31,-160.26 133.02,-141.34 106.9,-126.92"/>
<polygon fill="black" stroke="black" points="108.48,-123.79 98.03,-122.03 105.1,-129.92 108.48,-123.79"/>
<text text-anchor="middle" x="183.5" y="-144.8" font-family="Times,serif" font-size="14.00"> &#160;return</text>
</g>
<!-- err2 -->
<g id="node8" class="node">
<title>err2</title>
<polygon fill="none" stroke="black" points="278.5,-123 167.5,-123 167.5,-87 278.5,-87 278.5,-123"/>
<text text-anchor="middle" x="223" y="-101.3" font-family="Times,serif" font-size="14.00">Return &#45;1001</text>
</g>
<!-- err1&#45;&gt;err2 -->
<g id="edge7" class="edge">
<title>err1&#45;&gt;err2</title>
<path fill="none" stroke="black" d="M223,-173.8C223,-162.16 223,-146.55 223,-133.24"/>
<polygon fill="black" stroke="black" points="226.5,-133.18 223,-123.18 219.5,-133.18 226.5,-133.18"/>
<text text-anchor="middle" x="249" y="-144.8" font-family="Times,serif" font-size="14.00"> &#160;throw</text>
</g>
<!-- err2&#45;&gt;func3 -->
<g id="edge10" class="edge">
<title>err2&#45;&gt;func3</title>
<path fill="none" stroke="black" d="M191.84,-86.8C167.86,-73.56 134.55,-55.18 108.67,-40.9"/>
<polygon fill="black" stroke="black" points="110.3,-37.8 99.85,-36.03 106.92,-43.93 110.3,-37.8"/>
<text text-anchor="middle" x="183.5" y="-57.8" font-family="Times,serif" font-size="14.00"> &#160;return</text>
</g>
<!-- invis&#45;&gt;err1 -->
</g>
</svg>
