<?xml version="1.0" encoding="UTF-8" standalone="no"?>
<!DOCTYPE svg PUBLIC "-//W3C//DTD SVG 1.1//EN"
 "http://www.w3.org/Graphics/SVG/1.1/DTD/svg11.dtd">
<!-- Generated by graphviz version 9.0.0 (20230911.1827)
 -->
<!-- Title: g Pages: 1 -->
<svg width="248pt" height="496pt"
 viewBox="0.00 0.00 248.12 495.50" xmlns="http://www.w3.org/2000/svg" xmlns:xlink="http://www.w3.org/1999/xlink">
<g id="graph0" class="graph" transform="scale(1 1) rotate(0) translate(4 491.5)">
<title>g</title>
<polygon fill="white" stroke="none" points="-4,4 -4,-491.5 244.12,-491.5 244.12,4 -4,4"/>
<!-- success -->
<g id="node1" class="node">
<title>success</title>
<text text-anchor="middle" x="55.62" y="-470.2" font-family="Times,serif" font-size="14.00">Success</text>
<text text-anchor="middle" x="55.62" y="-453.7" font-family="Times,serif" font-size="14.00">Path</text>
</g>
<!-- init -->
<g id="node3" class="node">
<title>init</title>
<polygon fill="none" stroke="black" points="111.25,-409.5 0,-409.5 0,-373.5 111.25,-373.5 111.25,-409.5"/>
<text text-anchor="middle" x="55.62" y="-386.45" font-family="Times,serif" font-size="14.00">Random Number</text>
</g>
<!-- success&#45;&gt;init -->
<!-- error -->
<g id="node2" class="node">
<title>error</title>
<text text-anchor="middle" x="176.62" y="-470.2" font-family="Times,serif" font-size="14.00">Error</text>
<text text-anchor="middle" x="176.62" y="-453.7" font-family="Times,serif" font-size="14.00">Path</text>
</g>
<!-- invis -->
<!-- error&#45;&gt;invis -->
<!-- func1 -->
<g id="node4" class="node">
<title>func1</title>
<polygon fill="none" stroke="black" points="107.12,-301.5 4.12,-301.5 4.12,-265.5 107.12,-265.5 107.12,-301.5"/>
<text text-anchor="middle" x="55.62" y="-278.45" font-family="Times,serif" font-size="14.00">Assert not Even</text>
</g>
<!-- init&#45;&gt;func1 -->
<g id="edge4" class="edge">
<title>init&#45;&gt;func1</title>
<path fill="none" stroke="black" d="M55.62,-373.47C55.62,-357.26 55.62,-332.56 55.62,-313.29"/>
<polygon fill="black" stroke="black" points="59.13,-313.35 55.63,-303.35 52.13,-313.35 59.13,-313.35"/>
<text text-anchor="middle" x="75.5" y="-332.45" font-family="Times,serif" font-size="14.00"> &#160;return</text>
</g>
<!-- func2 -->
<g id="node5" class="node">
<title>func2</title>
<polygon fill="none" stroke="black" points="82.62,-124.5 28.62,-124.5 28.62,-88.5 82.62,-88.5 82.62,-124.5"/>
<text text-anchor="middle" x="55.62" y="-101.45" font-family="Times,serif" font-size="14.00">Add 1</text>
</g>
<!-- func1&#45;&gt;func2 -->
<g id="edge5" class="edge">
<title>func1&#45;&gt;func2</title>
<path fill="none" stroke="black" d="M55.62,-265.08C55.62,-234.94 55.62,-172.8 55.62,-136.2"/>
<polygon fill="black" stroke="black" points="59.13,-136.36 55.63,-126.36 52.13,-136.36 59.13,-136.36"/>
<text text-anchor="middle" x="75.5" y="-189.95" font-family="Times,serif" font-size="14.00"> &#160;return</text>
</g>
<!-- err1 -->
<g id="node7" class="node">
<title>err1</title>
<polygon fill="none" stroke="black" points="240.12,-213 113.12,-213 113.12,-177 240.12,-177 240.12,-213"/>
<text text-anchor="middle" x="176.62" y="-189.95" font-family="Times,serif" font-size="14.00">Return 9998 if not 4</text>
</g>
<!-- func1&#45;&gt;err1 -->
<g id="edge8" class="edge">
<title>func1&#45;&gt;err1</title>
<path fill="none" stroke="black" d="M77.71,-265.2C90.89,-255.03 108.03,-242.04 123.62,-231 128.93,-227.25 134.6,-223.36 140.19,-219.61"/>
<polygon fill="black" stroke="black" points="141.78,-222.76 148.17,-214.31 137.91,-216.93 141.78,-222.76"/>
<text text-anchor="middle" x="143.12" y="-234.2" font-family="Times,serif" font-size="14.00"> &#160;throw</text>
</g>
<!-- func3 -->
<g id="node6" class="node">
<title>func3</title>
<polygon fill="none" stroke="black" points="92.88,-36 18.38,-36 18.38,0 92.88,0 92.88,-36"/>
<text text-anchor="middle" x="55.62" y="-12.95" font-family="Times,serif" font-size="14.00">Multiply 2</text>
</g>
<!-- func2&#45;&gt;func3 -->
<g id="edge6" class="edge">
<title>func2&#45;&gt;func3</title>
<path fill="none" stroke="black" d="M55.62,-88.41C55.62,-76.76 55.62,-61.05 55.62,-47.52"/>
<polygon fill="black" stroke="black" points="59.13,-47.86 55.63,-37.86 52.13,-47.86 59.13,-47.86"/>
<text text-anchor="middle" x="75.5" y="-57.2" font-family="Times,serif" font-size="14.00"> &#160;return</text>
</g>
<!-- err1&#45;&gt;func2 -->
<g id="edge9" class="edge">
<title>err1&#45;&gt;func2</title>
<path fill="none" stroke="black" d="M152.43,-176.7C134.21,-163.68 109.02,-145.67 88.91,-131.29"/>
<polygon fill="black" stroke="black" points="91.18,-128.62 81.01,-125.65 87.11,-134.31 91.18,-128.62"/>
<text text-anchor="middle" x="147.5" y="-145.7" font-family="Times,serif" font-size="14.00"> &#160;return</text>
</g>
<!-- err2 -->
<g id="node8" class="node">
<title>err2</title>
<polygon fill="none" stroke="black" points="220.62,-124.5 132.62,-124.5 132.62,-88.5 220.62,-88.5 220.62,-124.5"/>
<text text-anchor="middle" x="176.62" y="-101.45" font-family="Times,serif" font-size="14.00">Return &#45;1001</text>
</g>
<!-- err1&#45;&gt;err2 -->
<g id="edge7" class="edge">
<title>err1&#45;&gt;err2</title>
<path fill="none" stroke="black" d="M176.62,-176.91C176.62,-165.26 176.62,-149.55 176.62,-136.02"/>
<polygon fill="black" stroke="black" points="180.13,-136.36 176.63,-126.36 173.13,-136.36 180.13,-136.36"/>
<text text-anchor="middle" x="196.12" y="-145.7" font-family="Times,serif" font-size="14.00"> &#160;throw</text>
</g>
<!-- err2&#45;&gt;func3 -->
<g id="edge10" class="edge">
<title>err2&#45;&gt;func3</title>
<path fill="none" stroke="black" d="M152.43,-88.2C134.21,-75.18 109.02,-57.17 88.91,-42.79"/>
<polygon fill="black" stroke="black" points="91.18,-40.12 81.01,-37.15 87.11,-45.81 91.18,-40.12"/>
<text text-anchor="middle" x="147.5" y="-57.2" font-family="Times,serif" font-size="14.00"> &#160;return</text>
</g>
<!-- invis&#45;&gt;err1 -->
</g>
</svg>
