<?xml version="1.0" standalone="no"?>
<!DOCTYPE svg PUBLIC "-//W3C//DTD SVG 1.1//EN" "http://www.w3.org/Graphics/SVG/1.1/DTD/svg11.dtd" >
<svg xmlns="http://www.w3.org/2000/svg" xmlns:xlink="http://www.w3.org/1999/xlink" version="1.1">
<metadata>
Created by FontForge 20170731 at Sat Dec  4 21:08:22 2021
 By Aleksey,,,
Copyright (c) 2019 by Abbie Gonzalez. All rights reserved.
</metadata>
<defs>
<font id="OpenDyslexic-Regular" horiz-adv-x="0" >
  <font-face 
    font-family="OpenDyslexic"
    font-weight="400"
    font-stretch="normal"
    units-per-em="2048"
    panose-1="0 0 5 0 0 0 0 0 0 0"
    ascent="1638"
    descent="-410"
    x-height="1120"
    cap-height="1493"
    bbox="-2099 -838 4076 2544"
    underline-thickness="102"
    underline-position="-307"
    unicode-range="U+0020-FB02"
  />
<missing-glyph horiz-adv-x="1259" 
d="M1032 1966v-2519h-799v2519h799zM840 1798h-416v-84h164v-94h-168v-82h420v82h-168v94h168v84zM672 1473h-252v-263h420v86h-168v177zM588 1386v-90h-84v90h84zM840 1143h-420v-84h168v-92h-168v-84h252v176h168v84zM840 991h-84v-166h-336v-86h420v252zM840 684h-252
v-141h84v57h84v-117h-252v201h-84v-285h420v285zM840 248h-420v-285h420v285zM756 166v-119h-252v119h252zM840 -94h-420v-84h178l-178 -119v-82h420v82h-258l176 119h82v84z" />
    <glyph glyph-name="fi" unicode="fi" horiz-adv-x="1568" 
d="M299 -2l31 940h-166v182h166q0 130 13 221t36.5 147t64 87t87 42t114.5 11h164v-153h-166q-52 0 -85.5 -30t-46 -72.5t-14.5 -96t2 -92t11 -68.5l317 4v-182h-292l30 -940h-266zM1184 1323l30 233h123l31 -233h-184zM1155 0q39 568 39 1128h164q-27 -651 47 -1128h-250z
" />
    <glyph glyph-name="fl" unicode="fl" horiz-adv-x="1789" 
d="M299 -2l31 940h-166v182h166q0 130 13 221t36.5 147t64 87t87 42t114.5 11h164v-153h-166q-52 0 -85.5 -30t-46 -72.5t-14.5 -96t2 -92t11 -68.5l317 4v-182h-292l30 -940h-266zM1155 0q-21 188 3 697t83 909h174q-46 -408 -62.5 -719t-2.5 -660h243l33 -227h-471z" />
    <glyph glyph-name="f_f" unicode="ff" horiz-adv-x="1982" 
d="M299 -2l31 940h-166v182h166q0 130 13 221t36.5 147t64 87t87 42t114.5 11h164v-153h-166q-52 0 -85.5 -30t-46 -72.5t-14.5 -96t2 -92t11 -68.5l317 4v-182h-292l30 -940h-266zM1290 -2l31 940h-166v182h166q0 130 13 221t36.5 147t64 87t87 42t114.5 11h164v-153h-166
q-52 0 -85.5 -30t-46 -72.5t-14.5 -96t2 -92t11 -68.5l318 4v-182h-293l30 -940h-266z" />
    <glyph glyph-name="f_f_i" unicode="ffi" horiz-adv-x="2560" 
d="M299 -2l31 940h-166v182h166q0 130 13 221t36.5 147t64 87t87 42t114.5 11h164v-153h-166q-52 0 -85.5 -30t-46 -72.5t-14.5 -96t2 -92t11 -68.5l317 4v-182h-292l30 -940h-266zM1290 -2l31 940h-166v182h166q0 130 13 221t36.5 147t64 87t87 42t114.5 11h164v-153h-166
q-52 0 -85.5 -30t-46 -72.5t-14.5 -96t2 -92t11 -68.5l318 4v-182h-293l30 -940h-266zM2175 1323l31 233h123l30 -233h-184zM2146 0q39 568 39 1128h164q-27 -651 47 -1128h-250z" />
    <glyph glyph-name="f_f_l" unicode="ffl" horiz-adv-x="2781" 
d="M299 -2l31 940h-166v182h166q0 130 13 221t36.5 147t64 87t87 42t114.5 11h164v-153h-166q-52 0 -85.5 -30t-46 -72.5t-14.5 -96t2 -92t11 -68.5l317 4v-182h-292l30 -940h-266zM1290 -2l31 940h-166v182h166q0 130 13 221t36.5 147t64 87t87 42t114.5 11h164v-153h-166
q-52 0 -85.5 -30t-46 -72.5t-14.5 -96t2 -92t11 -68.5l318 4v-182h-293l30 -940h-266zM2146 0q-21 188 3 697t83 909h174q-46 -408 -62.5 -719t-2.5 -660h244l32 -227h-471z" />
    <glyph glyph-name=".notdef" horiz-adv-x="1259" 
d="M1032 1966v-2519h-799v2519h799zM840 1798h-416v-84h164v-94h-168v-82h420v82h-168v94h168v84zM672 1473h-252v-263h420v86h-168v177zM588 1386v-90h-84v90h84zM840 1143h-420v-84h168v-92h-168v-84h252v176h168v84zM840 991h-84v-166h-336v-86h420v252zM840 684h-252
v-141h84v57h84v-117h-252v201h-84v-285h420v285zM840 248h-420v-285h420v285zM756 166v-119h-252v119h252zM840 -94h-420v-84h178l-178 -119v-82h420v82h-258l176 119h82v84z" />
    <glyph glyph-name=".null" 
 />
    <glyph glyph-name="nonmarkingreturn" horiz-adv-x="682" 
 />
    <glyph glyph-name="space" unicode=" " horiz-adv-x="1695" 
 />
    <glyph glyph-name="exclam" unicode="!" horiz-adv-x="690" 
d="M164 496l115 1144h247v-1050zM150 0l40 283h244v-283h-284z" />
    <glyph glyph-name="quotedbl" unicode="&#x22;" horiz-adv-x="802" 
d="M115 1489l-39 -195h-31l12 -290h-215l19 485h254zM651 1489l-39 -195h-30l12 -290h-215l18 485h254z" />
    <glyph glyph-name="numbersign" unicode="#" horiz-adv-x="2330" 
d="M2107 997h-567l-43 -497h610l-51 -176h-573l-37 -414h-256l55 414h-377l-37 -418h-282l61 418h-446l76 176h397l74 497h-496l53 177h467l72 481h176l-41 -481h416l63 485h176l-43 -485h613zM1268 500l65 497h-407l-43 -497h385z" />
    <glyph glyph-name="dollar" unicode="$" horiz-adv-x="1536" 
d="M1575 397q0 -146 -135.5 -256t-388.5 -149l2 -166l-144 -6l-2 157q-70 -4 -110 -4h-68l2 -143l-143 -6l-2 149q-153 0 -261 20t-204 79l237 286q46 -32 222 -47l-5 371q-153 47 -223.5 130.5t-70.5 213.5q0 298 282 393l-2 146l144 6l2 -121q57 8 139 8h39l-2 103l143 6
l2 -115q152 -7 277 -29l-33 -200q-35 2 -102 17t-140 15l8 -436q152 -37 269.5 -94t192.5 -143t75 -185zM887 1249q-100 -9 -176 -30l4 -340q17 -2 51.5 -9t40.5 -8l86 -14zM510 1036q-3 -42 11.5 -68.5t49.5 -45.5l-4 227q-51 -45 -57 -113zM868 303h33l-4 313l-23 5
l-133 22l-22 4l4 -342q57 -2 145 -2zM1135 438q3 86 -95 135l4 -254q88 28 91 119z" />
    <glyph glyph-name="percent" unicode="%" horiz-adv-x="1640" 
d="M164 -92l1001 1632h131l-925 -1632h-207zM475 827q-146 0 -231.5 96.5t-85.5 252.5q0 160 85 254t232 94t232.5 -94t85.5 -254q0 -156 -86 -252.5t-232 -96.5zM475 1010q58 0 92.5 6.5t60 26.5t35 56.5t9.5 96.5q0 120 -50 170.5t-147 50.5q-96 0 -146 -50.5t-50 -170.5
q0 -116 41 -151t155 -35zM1171 57q-146 0 -231.5 96.5t-85.5 252.5q0 160 85 254t232 94t232.5 -94t85.5 -254q0 -156 -86 -252.5t-232 -96.5zM1171 240q58 0 92.5 6.5t60 26.5t35 56.5t9.5 96.5q0 120 -50 170.5t-147 50.5q-96 0 -146 -50.5t-50 -170.5q0 -116 41 -151
t155 -35z" />
    <glyph glyph-name="ampersand" unicode="&#x26;" horiz-adv-x="1640" 
d="M1477 653q3 -189 -168 -377q32 -27 63 -54.5t47.5 -42t20.5 -17.5q-23 -29 -80 -96l-143 122q-70 -60 -143 -98.5t-124 -46.5l-8 -3q-8 -3 -23 -8t-35 -10.5t-46.5 -11.5t-55.5 -11t-64 -8t-69 -3q-166 0 -356 137q-49 35 -89 131.5t-40 163.5q0 133 60.5 236.5
t213.5 207.5l-119 103q-80 69 -99 155.5t32 190.5q37 70 137 112.5t195 51.5q282 28 395 -129q48 -67 57.5 -116.5t-8.5 -101.5q-27 -103 -211 -231q-51 -35 -121 -78q308 -271 486 -432q113 104 110 264h185zM610 1403q-82 -2 -145.5 -23t-97.5 -51.5t-49 -66t-7 -69
t35 -58.5l217 -195q15 8 46 24.5t47.5 26t44.5 25t44.5 26t39 26.5t36 28.5t28.5 28.5t23 31t13.5 32.5t5.5 34.5q0 86 -81.5 134.5t-199.5 45.5zM772 229q60 0 144 20.5t159 61.5l-497 432q-52 -38 -84 -73.5t-52 -81.5t-13 -103t40 -125q32 -63 119 -97t184 -34z" />
    <glyph glyph-name="quotesingle" unicode="'" horiz-adv-x="567" 
d="M416 1489l-39 -195h-31l12 -290h-215l19 485h254z" />
    <glyph glyph-name="parenleft" unicode="(" horiz-adv-x="894" 
d="M592 -410l-211 15q-95 241 -156 560.5t-61 551.5q19 220 126.5 466t280.5 470l160 -15q-159 -224 -256 -469t-106 -469q7 -173 28.5 -354.5t72.5 -394t122 -361.5z" />
    <glyph glyph-name="parenright" unicode=")" horiz-adv-x="894" 
d="M303 -410q71 149 122 361.5t72.5 394t28.5 354.5q-9 224 -106 469t-256 469l160 15q173 -224 280.5 -470t126.5 -466q0 -232 -61 -551.5t-156 -560.5z" />
    <glyph glyph-name="asterisk" unicode="*" horiz-adv-x="1300" 
d="M588 586v377l-295 -242l-98 137l358 195l-389 153l88 140l336 -203l-39 338l153 39v-377l377 243l17 -139l-359 -194l400 -156l-99 -137l-336 203l39 -347z" />
    <glyph glyph-name="plus" unicode="+" horiz-adv-x="1269" 
d="M1106 641v-152l-356 3v-388h-172v390l-414 2v151l414 -2v404h172v-406z" />
    <glyph glyph-name="comma" unicode="," horiz-adv-x="657" 
d="M514 225l-135 -485h-215l104 291h-30l22 194h254z" />
    <glyph glyph-name="hyphen" unicode="-" horiz-adv-x="1128" 
d="M164 686h801v-186h-801v186z" />
    <glyph glyph-name="period" unicode="." horiz-adv-x="534" 
d="M154 0l32 227h195v-227h-227z" />
    <glyph glyph-name="slash" unicode="/" horiz-adv-x="1040" 
d="M164 -279l524 1686l189 96l-422 -1569z" />
    <glyph glyph-name="zero" unicode="0" horiz-adv-x="1359" 
d="M684 -29q-251 0 -385.5 198.5t-134.5 575.5q0 381 134.5 578t387.5 197q252 0 381 -195.5t129 -579.5q0 -379 -130 -576.5t-382 -197.5zM684 342q153 0 226 132.5t94 416.5q0 549 -318 549q-309 0 -309 -549q0 -283 75.5 -416t231.5 -133zM686 657q-31 0 -53 17.5
t-33.5 46t-16.5 58t-5 61.5q0 50 4 87t14.5 73t33 55.5t56.5 19.5q59 0 80.5 -58.5t21.5 -176.5q0 -32 -4.5 -61t-15 -58t-31.5 -46.5t-51 -17.5z" />
    <glyph glyph-name="one" unicode="1" horiz-adv-x="1187" 
d="M164 0v281l280 8l52 1020l-252 -133l20 186q217 131 299 131h123v-1202l338 -10v-281h-860z" />
    <glyph glyph-name="two" unicode="2" horiz-adv-x="1308" 
d="M164 0l51 289q5 31 29 63.5t69.5 69.5t84.5 64t104 69q165 107 245 195t130 184q36 71 36 147q0 119 -83.5 194t-217.5 75q-190 0 -426 -133l13 204q246 99 409 99q232 0 370 -115.5t138 -310.5v-26q0 -39 -0.5 -58.5t-3 -55.5t-9 -58.5t-17.5 -59.5t-29 -67t-43.5 -71.5
t-61.5 -83.5t-81.5 -92.5t-104.5 -108t-131 -122.5h487l23 -291h-981z" />
    <glyph glyph-name="three" unicode="3" horiz-adv-x="1310" 
d="M563 -29q-186 0 -399 74l92 274q49 -19 157 -32t162 -13q86 0 148 9t101.5 25.5t62.5 43t32 57.5t9 74q0 109 -89.5 183.5t-248.5 74.5h-193l37 160h195q161 0 249.5 56.5t88.5 189.5q0 117 -104.5 178t-266.5 61q-181 0 -387 -69l47 143q121 34 196.5 47t161.5 13
q230 0 364 -104t134 -283q0 -123 -63.5 -199t-208.5 -129q170 -25 238.5 -111.5t68.5 -238.5q0 -239 -150.5 -361.5t-433.5 -122.5z" />
    <glyph glyph-name="four" unicode="4" horiz-adv-x="1464" 
d="M1300 627v-209l-194 -2l35 -416h-318l27 416l-463 -4l-2 -2l-2 2h-92l-25 184l649 893l103 6l8 -113l4 -2l-2 -4l62 -755zM514 604l348 10l35 566z" />
    <glyph glyph-name="five" unicode="5" horiz-adv-x="1294" 
d="M557 -29q-186 0 -393 64l69 342q103 -56 170 -76t170 -20q159 0 241.5 70.5t82.5 158.5q0 56 -11 98t-34.5 68t-49 42.5t-66 24t-72.5 9.5t-80 2q-129 0 -396 -33l33 760l803 12l6 -150h-661l20 -430h199q78 0 151 -12.5t145.5 -44t126 -79t86.5 -124.5t33 -174
q0 -242 -150 -375t-423 -133z" />
    <glyph glyph-name="six" unicode="6" horiz-adv-x="1359" 
d="M696 -29q-258 0 -395 198.5t-137 575.5q0 354 168 564.5t450 210.5h316v-160h-307q-205 0 -308 -119t-118 -395q67 78 149.5 109.5t194.5 31.5q226 0 356.5 -136.5t130.5 -371.5q0 -230 -137 -369t-363 -139zM696 238q134 0 215.5 68.5t81.5 172.5q0 161 -80 254.5
t-217 93.5q-135 0 -215 -93.5t-80 -254.5q0 -103 81.5 -172t213.5 -69z" />
    <glyph glyph-name="seven" unicode="7" horiz-adv-x="1286" 
d="M170 1489l952 -25l-221 -1464h-354l366 1315l-749 28z" />
    <glyph glyph-name="eight" unicode="8" horiz-adv-x="1392" 
d="M696 -29q-255 0 -404 119t-128 330q14 144 99.5 243t230.5 132q-123 31 -188.5 126.5t-65.5 211.5q0 164 119.5 265t336.5 101t337 -101t120 -265q0 -116 -65.5 -211.5t-188.5 -126.5q146 -34 232.5 -133t97.5 -242q11 -141 -54.5 -244t-189 -154t-289.5 -51zM696 895
q126 0 201.5 80t75.5 199q0 111 -73 169t-204 58q-132 0 -204 -58t-72 -169q0 -119 74.5 -199t201.5 -80zM698 174q137 0 219 73.5t82 170.5q0 47 -20.5 97t-57.5 94.5t-96 72.5t-129 27q-92 -1 -164 -47.5t-106.5 -111.5t-32.5 -132q3 -98 85.5 -171t219.5 -73z" />
    <glyph glyph-name="nine" unicode="9" horiz-adv-x="1357" 
d="M584 -27q-76 0 -136 5.5t-96 12t-114 23.5l47 277q53 -19 86.5 -28t104 -15.5t173.5 -5.5q42 0 66 0.5t58 3.5t53 9t44.5 17t39.5 27t30.5 40t25.5 55.5t16.5 73t10.5 93.5q-177 -55 -344 -55q-224 0 -354.5 135.5t-130.5 370.5q0 230 136 369t362 139q133 0 229.5 -41
t165.5 -132t103 -240.5t34 -361.5q0 -123 -9 -222.5t-23.5 -175.5t-42.5 -133.5t-54.5 -97t-71.5 -66.5t-82.5 -42.5t-98 -23t-107.5 -9.5t-121 -2zM635 705q45 0 76.5 1.5t65.5 5t56 11t44.5 20t35 30.5t23 43t13.5 58t1.5 75.5t-8.5 94.5q-24 177 -97.5 259.5t-199.5 82.5
q-135 0 -217 -92.5t-82 -249.5q0 -160 76.5 -249.5t212.5 -89.5z" />
    <glyph glyph-name="colon" unicode=":" horiz-adv-x="555" 
d="M154 877l34 249h215v-249h-249zM154 -4l34 250h215v-250h-249z" />
    <glyph glyph-name="semicolon" unicode=";" horiz-adv-x="657" 
d="M465 1020v-250h-250l35 250h215zM514 225l-135 -485h-215l104 291h-30l22 194h254z" />
    <glyph glyph-name="less" unicode="&#x3c;" horiz-adv-x="1648" 
d="M184 465l-6 -2v4l-4 2l4 2l-14 217l1247 549l10 -180l-958 -459l1020 -276l2 -246z" />
    <glyph glyph-name="equal" unicode="=" horiz-adv-x="1241" 
d="M227 827l791 50l59 -158l-913 -35zM227 367l791 49l59 -158l-913 -35z" />
    <glyph glyph-name="greater" unicode="&#x3e;" horiz-adv-x="1648" 
d="M1470 471l5 -2l-5 -2v-4l-6 2l-1300 -389l2 246l1020 276l-959 459l11 180l1247 -549z" />
    <glyph glyph-name="question" unicode="?" horiz-adv-x="995" 
d="M371 319v238v242q187 68 233 92q74 40 93 97q10 29 10 71q0 177 -134 203q-99 26 -171.5 10.5t-143.5 -94.5q-30 40 -94 102q46 48 102.5 78t114 40t111 7.5t106.5 -14.5q121 -28 177 -110t56 -200q0 -112 -27 -185t-73.5 -113.5t-128.5 -77.5v-326q0 -10 -78 -28.5
t-153 -31.5zM371 8l32 228h195v-228h-227z" />
    <glyph glyph-name="at" unicode="@" horiz-adv-x="1140" 
d="M909 205l45 -152q1 -1 0.5 -4.5t-2.5 -3.5q-141 -55 -340 -55q-131 1 -227 43.5t-144.5 110.5t-67 154t-4 174.5t54 172.5t98.5 148q39 42 96 68t110.5 33.5t106.5 7t85 -5t46 -9.5q84 -29 138.5 -100.5t69 -180t-33.5 -246.5q-14 -40 -62.5 -80t-84.5 -40q-90 0 -82 96
h2v55q-23 -38 -63.5 -58t-88.5 -20q-98 0 -147.5 70t-26.5 195q31 180 168 198q94 12 137 -55l-2 45h58l47 -440h-13q10 -43 48 -4q18 18 40 55q36 57 47 97t11 101q0 36 -9 70.5t-31.5 70.5t-57 63t-90.5 44t-126 17q-58 0 -108.5 -19.5t-83.5 -47.5t-59 -64t-39 -64
t-19 -51q-1 -4 -6 -21t-6.5 -22.5t-5.5 -22t-5 -25.5t-3 -26.5t-2 -31.5t1 -33.5t3 -40.5q12 -103 135 -158q66 -29 130 -38.5t106.5 -6.5t127.5 14q33 4 121 25q6 3 8 -2zM551 436q37 0 63.5 10t40 23.5t21 34t9 34t1.5 29.5q0 83 -32 112.5t-83 29.5q-40 0 -77.5 -38
t-47.5 -114q-8 -59 14.5 -90t90.5 -31z" />
    <glyph glyph-name="A" unicode="A" horiz-adv-x="1695" 
d="M164 -2l590 1536h190l588 -1536h-289l-57 246h-672l-76 -246h-274zM573 481h551l-278 805z" />
    <glyph glyph-name="B" unicode="B" horiz-adv-x="1406" 
d="M164 0v1536h467q226 0 349 -92t132 -256q7 -129 -56 -205t-175 -94q200 -33 284 -139.5t78 -331.5q-2 -76 -16 -135.5t-37 -103t-59.5 -75.5t-78.5 -52t-99.5 -31.5t-116.5 -16t-136 -4.5h-536zM666 1380h-299v-399h299q146 0 209 44t63 140q0 215 -272 215zM690 797
h-323v-500h323q166 0 248 60.5t82 193.5q0 25 -3.5 46t-7 34t-15 29t-16.5 22.5t-22.5 24t-23.5 24.5q-24 26 -84 46t-158 20z" />
    <glyph glyph-name="C" unicode="C" horiz-adv-x="1468" 
d="M1251 1501l-28 -196q-239 41 -338 34q-80 -5 -162 -44t-151.5 -101.5t-121 -151t-69.5 -186.5q-23 -125 7.5 -222.5t104.5 -157t178.5 -88t233.5 -23.5q61 2 113.5 11t80.5 17.5t73.5 25t68.5 23.5l4 -424q-88 -27 -290.5 -42t-329.5 -3q-115 11 -208 61.5t-155 131.5
t-99.5 189t-40.5 234t21 267q16 84 46 164t88 167.5t136 155t196.5 119.5t262.5 70q51 7 93.5 8t78.5 -3t63.5 -9.5t68.5 -13.5t75 -13z" />
    <glyph glyph-name="D" unicode="D" horiz-adv-x="1583" 
d="M164 0v1538h416q168 0 306.5 -45t232 -118.5t162 -176t105 -209.5t52.5 -227q25 -185 -15.5 -325.5t-122 -221.5t-207 -131t-247.5 -67t-266 -17h-416zM377 389h244q190 0 309.5 27t175 79.5t71 130.5t-2.5 179q-9 63 -24 116.5t-42 111.5t-69 103t-98.5 81.5t-138 56.5
t-181.5 20h-244v-905z" />
    <glyph glyph-name="E" unicode="E" horiz-adv-x="1316" 
d="M164 0l49 1507l909 29l-43 -193l-676 -38v-406l502 23v-211l-502 -33v-369h682l68 -309h-989z" />
    <glyph glyph-name="F" unicode="F" horiz-adv-x="1193" 
d="M164 0l80 1511l786 25v-135l-592 -35l-49 -401l547 36v-208l-537 -37l45 -756h-280z" />
    <glyph glyph-name="G" unicode="G" horiz-adv-x="1718" 
d="M909 -29q-105 0 -191 10t-155 28.5t-123 49.5t-94.5 67t-70.5 87.5t-49.5 104.5t-32 124.5t-19 141.5t-10.5 161q-6 147 10.5 263.5t48 197t88 139t114 93t144 56t160.5 29.5t180 13q336 14 408 -49l22 -178q-104 67 -413 61q-113 -3 -193.5 -23t-142 -61.5t-98 -111.5
t-54.5 -169.5t-18 -238.5q0 -117 18.5 -198t54 -133.5t99 -82t141 -40.5t193.5 -11q244 0 313 72l4 184l-272 47l-29 160l578 -66l34 -196l-137 24l21 -424q-198 -131 -529 -131z" />
    <glyph glyph-name="H" unicode="H" horiz-adv-x="1579" 
d="M1415 0h-325l12 383h-641l14 -383h-311l41 1536h213l31 -813h663l27 813h213z" />
    <glyph glyph-name="I" unicode="I" horiz-adv-x="614" 
d="M164 0q29 273 34.5 616t-3.5 570t-21 350h223q-31 -741 54 -1536h-287z" />
    <glyph glyph-name="J" unicode="J" horiz-adv-x="985" 
d="M539 123q-2 -44 -18.5 -89t-46.5 -84.5t-80.5 -58t-112.5 -4.5l-103 23l-14 -330l135 -12q127 1 215 35t142.5 104t81.5 167.5t34 236.5l70 1425h-256z" />
    <glyph glyph-name="K" unicode="K" horiz-adv-x="1495" 
d="M164 0l133 1538h180l-26 -717l426 717h260l-498 -823l692 -715h-477l-403 596l-25 -596h-262z" />
    <glyph glyph-name="L" unicode="L" horiz-adv-x="1288" 
d="M164 0l74 1536h180l-41 -1239l747 33v-330h-960z" />
    <glyph glyph-name="M" unicode="M" horiz-adv-x="1789" 
d="M127 0l84 1536h307l387 -944l377 944h281l123 -1536h-390l82 1130l-366 -1001h-224l-405 1001l74 -1130h-330z" />
    <glyph glyph-name="N" unicode="N" horiz-adv-x="1550" 
d="M164 0l119 1479h252l565 -1194l100 1249h227l-81 -1534h-357l-510 1069l19 -1069h-334z" />
    <glyph glyph-name="O" unicode="O" horiz-adv-x="1710" 
d="M856 1540q128 0 234 -27t193.5 -86.5t146 -149t89.5 -219t27 -292.5q-4 -165 -26.5 -288t-71.5 -222t-127.5 -160.5t-194 -93.5t-270.5 -31q-356 3 -524 198.5t-168 596.5q0 196 48.5 344.5t140 242.5t218 140.5t285.5 46.5zM856 1376q-106 0 -198 -55t-152 -144
t-94.5 -202t-34.5 -230q0 -91 22 -159t61.5 -112t100.5 -71t132 -38t163 -11q116 0 199 18t148 61t97.5 121t32.5 191q0 117 -34 230t-94 202t-151.5 144t-197.5 55z" />
    <glyph glyph-name="P" unicode="P" horiz-adv-x="1323" 
d="M164 0l84 1620h381q137 0 237.5 -33.5t161 -97t91.5 -142t40 -180.5q20 -227 -104.5 -337.5t-384.5 -122.5l-244 -13l41 -694h-303zM416 979l274 12q81 3 128.5 13.5t82.5 39.5t48.5 79.5t13.5 133.5q0 27 -8 55.5t-30.5 60.5t-57.5 56.5t-94.5 41t-135.5 16.5h-221v-508
z" />
    <glyph glyph-name="Q" unicode="Q" horiz-adv-x="1779" 
d="M1143 -264l-213 241q-43 -4 -84 -4q-94 0 -168 8t-147.5 30t-128.5 59t-103 96.5t-78.5 141t-47.5 194.5t-17 254q0 156 50.5 298t140 249t222 171t287.5 64q317 0 503.5 -212.5t186.5 -569.5q0 -126 -20 -232t-57.5 -186t-75.5 -136t-90 -112l321 -354h-481zM725 326
l111 4l67 157q192 -102 307 -102q44 0 82.5 124t38.5 247q0 286 -127 451t-348 165q-108 0 -199.5 -51.5t-151 -137t-93 -196.5t-33.5 -231q0 -79 10 -143.5t27.5 -108t41.5 -77.5t51 -51t56 -30.5t57.5 -15.5t54.5 -4.5t48 0.5z" />
    <glyph glyph-name="R" unicode="R" horiz-adv-x="1402" 
d="M872 784q12 -8 43 -27.5t47 -30.5t43 -37t44.5 -54.5t37.5 -76t35 -107.5l117 -451h-369l19 426q2 53 -12.5 93t-42 64t-61.5 39t-73.5 19.5t-74 3.5t-68.5 -6l-106 -18l34 -621h-321l92 1536h365q229 0 353 -108t124 -322q0 -145 -59 -224.5t-167 -97.5zM641 1368h-254
v-455h254q112 0 202.5 62.5t90.5 130.5q0 71 -23.5 123t-65.5 81.5t-93 43.5t-111 14z" />
    <glyph glyph-name="S" unicode="S" horiz-adv-x="1556" 
d="M1210 1518l-30 -215q-34 3 -81 15.5t-82.5 16.5t-148.5 0q-86 -6 -152.5 -21t-121 -41t-86 -68.5t-35.5 -100.5q-2 -26 3.5 -47.5t13 -36.5t28.5 -28.5t35.5 -21t50 -17t55 -14t67.5 -14.5q16 -3 24 -5l120 -25q118 -23 222.5 -65.5t188 -101t132.5 -137.5t49 -167
q0 -94 -46 -175t-134 -143.5t-228 -98.5t-315 -36q-27 0 -94.5 -0.5t-92.5 0t-80.5 2t-82 5.5t-71 11.5t-74 19t-64.5 28.5t-67 39l219 307q78 -59 473 -59h13q29 0 45 0.5t44.5 3t45 7.5t37.5 15.5t33 25.5t20.5 38t9.5 53q2 74 -53.5 121t-188.5 74l-123 24
q-226 44 -327 141t-101 267q0 102 29.5 184t90.5 144.5t163.5 97t240.5 34.5q263 0 426 -36z" />
    <glyph glyph-name="T" unicode="T" horiz-adv-x="1591" 
d="M635 0l59 1346l-530 -41v231h1263v-211l-530 21l41 -1346h-303z" />
    <glyph glyph-name="U" unicode="U" horiz-adv-x="1548" 
d="M197 561l-33 975h295l-29 -770q-3 -80 0 -143t16.5 -108t25.5 -77t40.5 -52t48.5 -31t62 -16t68 -6t79 -1q47 0 70 0.5t61.5 4t56.5 11.5t46 22.5t40.5 36t29 54t22.5 75.5t9.5 100.5t0.5 129.5l-29 770h307l-45 -975q-5 -106 -14.5 -187.5t-31.5 -141t-39.5 -100.5
t-60 -67.5t-69 -41t-90.5 -21t-101 -7.5t-122 -1h-14h-13h-14h-41q-85 0 -124.5 1t-103 7.5t-91.5 21t-70 40.5t-60 67.5t-39.5 101t-30.5 141t-13 187.5z" />
    <glyph glyph-name="V" unicode="V" horiz-adv-x="1695" 
d="M1047 0h-418l-486 1536h232l405 -1098h97l446 1098h229z" />
    <glyph glyph-name="W" unicode="W" horiz-adv-x="2217" 
d="M498 0l-334 1536h235l263 -1094l354 670h176l324 -690l303 1116h235l-375 -1538h-295l-274 745l-297 -745h-315z" />
    <glyph glyph-name="X" unicode="X" horiz-adv-x="1615" 
d="M1493 -2h-346l-332 541l-342 -541h-350l555 762l-477 776h202l414 -584l426 584h201l-490 -776z" />
    <glyph glyph-name="Y" unicode="Y" horiz-adv-x="1564" 
d="M643 537l-479 1001h217l403 -702l400 702h217l-486 -1001v-539h-374z" />
    <glyph glyph-name="Z" unicode="Z" horiz-adv-x="1648" 
d="M424 1278l727 8l-987 -1001v-285l1358 12l-97 287h-784l823 942l21 297h-1153z" />
    <glyph glyph-name="bracketleft" unicode="[" horiz-adv-x="964" 
d="M801 1288h-359l-104 -1368h377v-199h-551l129 1713h508v-146z" />
    <glyph glyph-name="backslash" unicode="\" horiz-adv-x="966" 
d="M209 1567l594 -1608l-137 -324l-502 1663z" />
    <glyph glyph-name="bracketright" unicode="]" horiz-adv-x="964" 
d="M672 1434l129 -1713h-551v199h377l-105 1368h-358v146h508z" />
    <glyph glyph-name="asciicircum" unicode="^" horiz-adv-x="1138" 
d="M526 1163h99l80 -131l270 -268h-111l-297 203l-293 -203h-110l272 268z" />
    <glyph glyph-name="underscore" unicode="_" horiz-adv-x="1630" 
d="M184 -205l1282 -4l-20 -186l-1282 4z" />
    <glyph glyph-name="grave" unicode="`" horiz-adv-x="839" 
d="M401 1298l-237 230h162l350 -260z" />
    <glyph glyph-name="a" unicode="a" horiz-adv-x="1343" 
d="M606 -29q-121 0 -215.5 43.5t-155.5 128t-80.5 209t9.5 287.5q82 456 430 504q239 34 348 -142l-4 119h145l117 -1120h-205v168q-57 -97 -159.5 -147t-229.5 -50zM582 283q68 0 122.5 13.5t90 34t61.5 51t39 58.5t20.5 63.5t9 58t1.5 50.5q0 90 -17.5 156.5t-44.5 104.5
t-67 61t-77 30t-83 7t-94 -21t-95 -64.5t-83 -121t-50 -178.5q-12 -68 -3 -124t36.5 -96t86 -61.5t147.5 -21.5z" />
    <glyph glyph-name="b" unicode="b" horiz-adv-x="1337" 
d="M713 -29q-212 0 -322.5 58t-152.5 174q-19 41 -33.5 222.5t-36.5 556t-45 656.5h274v-557q0 -55 19.5 -57t60.5 29q37 24 62 38t75 30.5t99 17.5q111 3 212 -39.5t173 -116t114.5 -174t42.5 -209.5q0 -128 -46.5 -246t-122 -201t-174 -132.5t-199.5 -49.5zM756 299
q126 9 212.5 93.5t86.5 207.5q0 158 -78 258t-221 100q-144 0 -228 -100.5t-84 -265.5q0 -84 11.5 -135t45 -89t94.5 -53.5t161 -15.5z" />
    <glyph glyph-name="c" unicode="c" horiz-adv-x="1214" 
d="M909 1122v-166q-102 31 -215 31q-325 -3 -325 -428q6 -78 39 -143.5t85 -108t114.5 -65.5t132 -19t132.5 35l193 -209q-130 -77 -350 -63q-158 11 -265 50.5t-170.5 112.5t-90.5 171.5t-27 238.5q0 305 116 443.5t375 144.5q71 1 146.5 -6.5t109.5 -18.5z" />
    <glyph glyph-name="d" unicode="d" horiz-adv-x="1363" 
d="M981 963l35 675h184l-49 -1157l25 -485l-195 4v147q-55 -97 -143 -138t-215 -38q-244 5 -390 166t-131 422q9 160 81.5 301t190 228t249.5 94q117 6 207 -53.5t151 -165.5zM297 580q0 -275 307 -275q65 0 112.5 11t91.5 40t67.5 89t23.5 149q0 171 -73.5 271t-215.5 100
q-145 0 -229 -107.5t-84 -277.5z" />
    <glyph glyph-name="e" unicode="e" horiz-adv-x="1339" 
d="M1217 645l-887 -57q0 -299 422 -344q115 -12 201 2t204 65v-254q-201 -86 -412 -86q-269 0 -435.5 157.5t-166.5 420.5q11 280 167 459.5t405 179.5q89 -7 166.5 -41t145 -97.5t117 -166.5t73.5 -238zM356 745l656 64q-41 259 -297 242q-151 -10 -255 -105t-104 -201z
" />
    <glyph glyph-name="f" unicode="f" horiz-adv-x="991" 
d="M299 -2l31 940h-166v182h166q0 130 13 221t36.5 147t64 87t87 42t114.5 11h164v-153h-166q-52 0 -85.5 -30t-46 -72.5t-14.5 -96t2 -92t11 -68.5l317 4v-182h-292l30 -940h-266z" />
    <glyph glyph-name="g" unicode="g" horiz-adv-x="1349" 
d="M616 -535q-99 0 -209.5 25.5t-203.5 71.5l76 270q92 -50 168.5 -73t152.5 -13q113 14 200.5 96.5t125.5 190.5l24 94q-163 -147 -327 -147q-204 0 -331.5 166t-127.5 427q0 259 126.5 416.5t332.5 157.5q58 0 108.5 -17t75.5 -34t76.5 -59.5t74.5 -59.5l43 143h185
l-43 -979q-15 -344 -141.5 -510t-385.5 -166zM573 299q79 0 136 12t102 40.5t67.5 81.5t22.5 130q0 102 -36 187t-108.5 138.5t-168.5 53.5q-57 0 -101 -20.5t-70.5 -53t-45 -81.5t-26.5 -96t-13 -107q-9 -116 11.5 -177t73 -84.5t156.5 -23.5z" />
    <glyph glyph-name="h" unicode="h" horiz-adv-x="1384" 
d="M1178 676l43 -676h-283q29 174 44 299.5t18 232.5t-10 175t-44 116.5t-80 69t-121 20.5q-78 0 -134 -22.5t-100.5 -83.5t-64.5 -162t-16 -263t37 -382h-303l119 1638h184l-41 -643q31 24 49 38t41.5 30t39 24t37 17t39.5 12.5t43 6t51 2t60 -2.5q43 -3 75.5 -7.5
t73.5 -17.5t71 -32t61.5 -52.5t52.5 -78.5t37 -110.5t21 -147.5z" />
    <glyph glyph-name="i" unicode="i" horiz-adv-x="577" 
d="M193 1323l30 233h123l31 -233h-184zM164 0q39 568 39 1128h164q-27 -651 47 -1128h-250z" />
    <glyph glyph-name="j" unicode="j" horiz-adv-x="847" 
d="M467 1325l33 227h194v-227h-227zM446 -78q6 20 10.5 45t8.5 64t6.5 77t5.5 102.5t5 122t4.5 155t5 180.5t6 219.5l6.5 253.5h194l-61 -1170q-9 -161 -35.5 -239.5t-81.5 -120.5q-54 -42 -219.5 -63t-298.5 3l94 193q34 -6 70.5 -6.5t80.5 8t81.5 28t69.5 57.5t48 91z" />
    <glyph glyph-name="k" unicode="k" horiz-adv-x="1351" 
d="M143 0l86 1624h205l-47 -905l277 346h241l-354 -453l637 -612h-420l-381 487l23 -487h-267z" />
    <glyph glyph-name="l" unicode="l" horiz-adv-x="798" 
d="M164 0q-21 188 3 697t83 909h174q-46 -411 -63 -721t-3 -658h244l33 -227h-471z" />
    <glyph glyph-name="m" unicode="m" horiz-adv-x="2097" 
d="M1176 905q137 244 370 244q93 0 162 -37t111.5 -108t64.5 -167t27 -223l22 -614h-276l69 639q34 313 -200 313q-70 0 -122.5 -27t-86.5 -80t-55 -118.5t-35 -155.5l-86 -571h-254l145 649q30 132 -41 224t-192 92q-67 0 -128.5 -31t-102.5 -78t-66.5 -98.5t-28.5 -95.5
l-53 -662h-256l133 1120h184l-20 -174q61 100 155.5 151.5t204.5 51.5q125 0 219.5 -63.5t135.5 -180.5z" />
    <glyph glyph-name="n" unicode="n" horiz-adv-x="1370" 
d="M1161 662l45 -662h-284l22 674q5 152 -46.5 222.5t-172.5 70.5q-82 0 -140.5 -27.5t-90.5 -76t-45.5 -108.5t-10.5 -132l29 -623h-303l82 1118h135l35 -90q22 10 68.5 35.5t75.5 39t79.5 26t105.5 12.5q188 0 294.5 -126.5t121.5 -352.5z" />
    <glyph glyph-name="o" unicode="o" horiz-adv-x="1355" 
d="M678 -27q-247 0 -391 161.5t-144 424.5q0 271 143 429.5t392 158.5q248 0 391 -158.5t143 -429.5q0 -263 -144 -424.5t-390 -161.5zM678 279q98 0 156.5 11.5t100.5 45.5t58.5 95.5t16.5 162.5q0 204 -84 288.5t-248 84.5t-248 -84.5t-84 -288.5q0 -101 16.5 -162.5
t58.5 -95.5t100.5 -45.5t156.5 -11.5z" />
    <glyph glyph-name="p" unicode="p" horiz-adv-x="1497" 
d="M516 168l-88 -586l-264 -16l164 919l-33 605h184l37 -154q116 203 358 197q207 -6 333 -154.5t126 -398.5q0 -124 -27 -231.5t-80.5 -194t-144 -136t-207.5 -49.5q-127 0 -222.5 51t-135.5 148zM1153 618q-13 351 -252 351q-134 0 -233 -97.5t-99 -253.5
q0 -159 96 -251.5t246 -92.5q140 0 194 86t48 258z" />
    <glyph glyph-name="q" unicode="q" horiz-adv-x="1576" 
d="M926 -426l55 594q-122 -208 -358 -197q-208 11 -345 171.5t-137 418.5q0 129 36 233.5t100.5 175t150 114t188.5 57.5q51 4 90 4.5t75.5 -12.5t64.5 -29.5t57.5 -46.5t54 -63t54.5 -79v205h219l-72 -739l-24 -524l143 41l176 61l-53 -246zM594 260q147 0 223.5 77
t95.5 249q19 177 -48.5 289t-209.5 112t-224.5 -110t-102.5 -291q-18 -170 49 -248t217 -78z" />
    <glyph glyph-name="r" unicode="r" horiz-adv-x="1048" 
d="M856 1124l31 -258q-76 16 -136 18.5t-101.5 -5.5t-71.5 -29t-47.5 -46t-27.5 -62.5t-13 -73t-3 -82.5q0 -12 -0.5 -60t0 -72t2.5 -79t7 -103t15 -120.5t24 -153.5h-371q59 284 76.5 511t17.5 607h191v-121q64 48 105.5 70.5t112.5 37.5t189 21z" />
    <glyph glyph-name="s" unicode="s" horiz-adv-x="1288" 
d="M1042 1124l-94 -123q-57 7 -98.5 10t-86 4.5t-61.5 2.5q-77 0 -132 -9t-86.5 -23t-49 -37.5t-22.5 -45.5t-4 -53q3 -85 315 -182q126 -39 204.5 -75.5t121 -79.5t57 -87.5t14.5 -108.5q0 -105 -28.5 -173.5t-90.5 -106t-143.5 -52t-204.5 -14.5q-78 0 -139.5 3t-107 11.5
t-74.5 14.5t-57 21.5t-39.5 22.5t-36.5 28t-35 28l201 228q92 -35 146.5 -48t145.5 -20q27 -5 62.5 -3t68 8t54.5 31t22 66q0 82 -268 136q-36 5 -72 15t-87.5 35.5t-89.5 60.5t-65.5 96t-27.5 137q0 41 7.5 77t24 75t49 70.5t77.5 56.5t113.5 39t154.5 14q140 0 362 -50z
" />
    <glyph glyph-name="t" unicode="t" horiz-adv-x="1159" 
d="M578 453q-4 -99 8 -127q16 -37 83 -48q46 -7 234 -12l39 -262q-76 -4 -532 -4q-24 0 -41.5 13.5t-24.5 33t-9.5 33t-2.5 22.5q0 23 5.5 137.5t18 323.5t27.5 420h-260l59 137h211q9 128 21 266l213 123l-19 -389h310l36 -137h-352z" />
    <glyph glyph-name="u" unicode="u" horiz-adv-x="1339" 
d="M600 -33q-100 0 -165.5 20t-115.5 72.5t-76.5 145t-35.5 237.5l-43 705h196l41 -539q10 -143 15 -168q14 -66 60 -89q47 -22 165 -21q67 1 110.5 5.5t75.5 20t48 32.5t26 56.5t12.5 75.5t4.5 105l14 522h203l41 -1147h-224l9 172q-20 -53 -53.5 -92t-69 -60t-81 -33.5
t-80.5 -16t-77 -3.5z" />
    <glyph glyph-name="v" unicode="v" horiz-adv-x="1544" 
d="M594 0l-57 295l-373 825h194l435 -821l393 821h194l-368 -825l-41 -295h-377z" />
    <glyph glyph-name="w" unicode="w" horiz-adv-x="1830" 
d="M457 0l-293 1120h246l168 -694l274 379h127l274 -379l168 694h246l-293 -1120h-256l-203 346l-210 -346h-248z" />
    <glyph glyph-name="x" unicode="x" horiz-adv-x="1615" 
d="M1380 -2h-307l-272 422l-314 -422h-305l494 612l-346 537h237l254 -359l289 359h227l-393 -533z" />
    <glyph glyph-name="y" unicode="y" horiz-adv-x="1417" 
d="M225 -528v264h129q61 0 131 28.5t125.5 79t77 118.5t-15.5 147l-508 1040h194l459 -782l240 782h196l-284 -1219q-22 -93 -73.5 -172t-115 -130.5t-136 -87.5t-136 -52t-115.5 -16h-168z" />
    <glyph glyph-name="z" unicode="z" horiz-adv-x="1374" 
d="M164 0l49 268l719 682h-596v197h848l26 -184l-680 -715h543l117 -248h-1026z" />
    <glyph glyph-name="braceleft" unicode="{" horiz-adv-x="1148" 
d="M887 -348l-123 2q-103 2 -170 14t-114 36t-71.5 69.5t-34.5 105t-9 152.5l12 237q0 37 -1 56.5t-3 47t-6 41t-11.5 31t-18.5 25.5t-26.5 16.5t-36.5 11.5t-49 3h-61l6 225l61 -2q44 3 66.5 5.5t45.5 11.5t32.5 21t19 38t13 58t6.5 85l10 240q6 114 27.5 180.5t74 107.5
t129 55.5t207.5 16.5h123l-27 -143l-67 2q-54 -3 -88 -7t-62 -14.5t-42.5 -24t-25.5 -40t-15 -58t-7 -81.5l-12 -248q-9 -159 -64 -228.5t-196 -93.5q69 -15 113 -38.5t68.5 -63t33.5 -86.5t10 -119l-12 -250q2 -56 9 -88t29.5 -58t64.5 -36t112 -10h67z" />
    <glyph glyph-name="bar" unicode="|" horiz-adv-x="524" 
d="M217 1434h143l-53 -1741h-143z" />
    <glyph glyph-name="braceright" unicode="}" horiz-adv-x="1148" 
d="M262 -348l12 205h68q70 0 112 10t64.5 36t29.5 58t9 88l-12 250q1 72 10 119t33.5 86.5t68.5 63t113 38.5q-141 24 -196 93.5t-64 228.5l-12 248q-3 50 -7 81.5t-15 58t-25.5 40t-42.5 24t-62 14.5t-88 7l-68 -2l-26 143h123q131 -2 207.5 -16.5t129 -55.5t74 -107.5
t27.5 -180.5l10 -240q3 -53 6.5 -85t13 -58t19 -38t32.5 -21t45.5 -11.5t66.5 -5.5l61 2l6 -225h-61q-28 0 -49 -3t-36.5 -11.5t-26.5 -16.5t-18.5 -25.5t-11.5 -31t-6 -41t-3 -47t-1 -56.5l12 -237q1 -93 -9 -152.5t-34.5 -105t-71.5 -69.5t-114 -36t-170 -14z" />
    <glyph glyph-name="asciitilde" unicode="~" horiz-adv-x="958" 
d="M276 477h-112q12 184 48.5 245.5t143.5 61.5q45 0 84.5 -32t62.5 -70t53 -70t60 -32q29 0 47.5 11.5t25 31.5t9.5 46t1.5 55.5t0.5 59.5h95q-1 -63 -5.5 -111t-11.5 -81t-20 -55t-24.5 -34t-32.5 -18t-38 -7.5t-45 -0.5q-41 1 -76 23t-58.5 53.5t-44 62.5t-41.5 53
t-42 23q-19 0 -33.5 -8.5t-23 -27.5t-13.5 -37t-7 -48t-2.5 -47t-0.5 -47z" />
    <glyph glyph-name="exclamdown" unicode="&#xa1;" horiz-adv-x="690" 
d="M150 1526h284v-283h-244zM164 1030l362 -94v-1051h-247z" />
    <glyph glyph-name="cent" unicode="&#xa2;" horiz-adv-x="1193" 
d="M872 258l193 -209q-130 -77 -350 -63q-35 2 -92 10l-31 -258l-143 12l32 275q-174 55 -246.5 184t-72.5 350q0 294 107.5 433.5t346.5 152.5l41 336l144 -15l-39 -321q88 -6 147 -23v-166q-66 21 -166 29l-92 -756q115 -22 221 29zM369 559q6 -85 44.5 -154.5
t100.5 -113.5l82 684q-227 -63 -227 -416z" />
    <glyph glyph-name="sterling" unicode="&#xa3;" horiz-adv-x="1415" 
d="M1153 143l98 -143h-1087v229q99 35 161 66.5t101 64.5t51.5 74t9.5 86t-22 111h-266v168h215l-88 280q-30 97 -42 162.5t-5 107t22.5 64.5t46.5 45q66 48 140 81t161 47t170.5 2.5t169.5 -60.5t158 -135l-127 -35q-91 70 -185 97.5t-169.5 15.5t-134 -41.5t-95.5 -71.5
q-25 -28 -31 -66.5t2.5 -76.5t28.5 -91l121 -325h442v-168h-376q142 -380 -228 -447q160 12 255.5 11t180 -10t322.5 -42z" />
    <glyph glyph-name="currency" unicode="&#xa4;" horiz-adv-x="1372" 
d="M1208 393l-155 -160l-152 152q-95 -61 -215 -61t-215 61l-152 -152l-155 160l155 158q-40 79 -40 180q0 120 63 217l-133 133l156 160l143 -143q80 41 178 41t178 -41l144 143l155 -160l-133 -133q64 -98 64 -217q0 -100 -41 -180zM684 567q88 0 150.5 63t62.5 152
q0 88 -62.5 150.5t-150.5 62.5t-150.5 -62.5t-62.5 -150.5q0 -89 62 -152t151 -63z" />
    <glyph glyph-name="yen" unicode="&#xa5;" horiz-adv-x="1564" 
d="M1206 616l-297 -12l-10 -307l248 16l59 -157l-311 -13l-8 -284h-273l9 274l-330 -12l63 143l271 17l10 313l-344 -12l63 143l285 18l2 97l-479 653h217l403 -436l400 436h217l-486 -653l-2 -80l234 14z" />
    <glyph glyph-name="brokenbar" unicode="&#xa6;" horiz-adv-x="524" 
d="M217 1434h143l-18 -613l-143 -6zM164 -307l22 743l146 39l-25 -782h-143z" />
    <glyph glyph-name="section" unicode="&#xa7;" horiz-adv-x="1206" 
d="M946 365q105 -85 105 -193q0 -133 -129 -221t-365 -88q-14 0 -72.5 -0.5t-73.5 0t-60 2.5t-64 6.5t-52 12.5t-57 20.5t-49 29.5l150 211q53 -41 321 -41h33t31 1.5t33 5t27 10.5t24.5 17.5t14.5 27t7 37.5q2 49 -34.5 80t-123.5 51q-191 1 -290.5 62t-85.5 167
q-7 35 -7 68q0 199 154 274q-86 69 -86 197q0 135 95.5 213t262.5 78q192 0 336 -154l-57 -104q-57 85 -118.5 115t-143.5 30q-120 0 -195.5 -40t-75.5 -118q0 -63 65 -105t167 -63l69 -14q111 -4 177 -20l-5 -33q168 -79 168 -252q0 -121 -21 -181.5t-75 -88.5zM375 637
q-2 -25 5.5 -43.5t17.5 -29t38.5 -21t45.5 -14.5t62 -13q3 -1 4.5 -1t4.5 -1t5.5 -1.5t4.5 -0.5l76 -16q12 -2 31 -2q58 0 91 4.5t61.5 19.5t41 45.5t15.5 81.5q6 108 -162 152q-43 0 -72 -2q-260 -17 -270 -158z" />
    <glyph glyph-name="dieresis" unicode="&#xa8;" horiz-adv-x="1091" 
d="M154 1247l32 228h195v-228h-227zM711 1247l32 228h195v-228h-227z" />
    <glyph glyph-name="copyright" unicode="&#xa9;" horiz-adv-x="1101" 
d="M551 686q-161 0 -274 113t-113 276q0 157 113 270t274 113q159 0 273 -113t114 -270q0 -162 -113.5 -275.5t-273.5 -113.5zM551 756q132 0 225.5 94t93.5 225q0 133 -93.5 227.5t-225.5 94.5q-133 0 -226.5 -94t-93.5 -228q0 -131 93.5 -225t226.5 -94zM672 1294v-63
q-38 12 -82 12q-127 -3 -127 -166q6 -75 68.5 -110t125.5 -4l74 -82q-46 -29 -133 -25q-120 9 -167.5 61t-47.5 160q0 118 45 171.5t145 56.5q70 0 99 -11z" />
    <glyph glyph-name="ordfeminine" unicode="&#xaa;" horiz-adv-x="858" 
d="M395 850q-130 0 -195.5 91.5t-35.5 256.5q42 240 225 264q124 18 182 -73l-2 61h76l60 -586h-107v88q-60 -102 -203 -102zM383 1012q49 0 84.5 13.5t53 31.5t27.5 45t11.5 44t1.5 38q0 59 -12.5 98.5t-35.5 57.5t-46.5 25t-54.5 7q-54 0 -105 -50.5t-63 -150.5
q-11 -78 19 -118.5t120 -40.5z" />
    <glyph glyph-name="guillemotleft" unicode="&#xab;" horiz-adv-x="1310" 
d="M209 586l-45 -121l454 -434l48 229l-291 279l311 258l4 190zM666 578l-45 -121l454 -434l47 229l-291 278l312 258l4 191z" />
    <glyph glyph-name="logicalnot" unicode="&#xac;" horiz-adv-x="1251" 
d="M1087 117h-219l-6 377l-698 24v187l899 -74v-6h2z" />
    <glyph glyph-name="uni00AD" unicode="&#xad;" horiz-adv-x="1128" 
d="M164 686h801v-186h-801v186z" />
    <glyph glyph-name="registered" unicode="&#xae;" horiz-adv-x="1101" 
d="M551 686q-161 0 -274 113t-113 276q0 157 113 270t274 113q159 0 273 -113t114 -270q0 -162 -113.5 -275.5t-273.5 -113.5zM551 756q132 0 225.5 94t93.5 225q0 133 -93.5 227.5t-225.5 94.5q-133 0 -226.5 -94t-93.5 -228q0 -131 93.5 -225t226.5 -94zM606 1094
q2 -1 11.5 -6.5t12 -7.5t10.5 -8t12 -12l10 -15t10 -21t8 -27l33 -131h-107l6 123q1 42 -30 55t-66 7l-31 -4l11 -181h-95l27 445h107q66 0 101.5 -31.5t35.5 -93.5q0 -82 -66 -92zM541 1262h-74v-132h74q31 0 57.5 18.5t26.5 37.5q0 40 -24 58t-60 18z" />
    <glyph glyph-name="macron" unicode="&#xaf;" horiz-adv-x="1052" 
d="M213 1403l629 37l47 -117l-725 -27z" />
    <glyph glyph-name="degree" unicode="&#xb0;" horiz-adv-x="1101" 
d="M551 686q-161 0 -274 113t-113 276q0 103 51.5 191t140.5 139.5t195 52.5q159 1 273 -112.5t114 -270.5q0 -162 -113.5 -275.5t-273.5 -113.5zM559 889q91 0 155 64t64 153q0 92 -64 155.5t-155 63.5t-155 -63.5t-64 -155.5q0 -89 64 -153t155 -64z" />
    <glyph glyph-name="plusminus" unicode="&#xb1;" horiz-adv-x="1269" 
d="M750 725l356 -2v-121l-356 2v-309h-172v309l-414 2v121l414 -2v324h172v-324zM227 80l791 43l59 -137l-913 -31z" />
    <glyph glyph-name="uni00B2" unicode="&#xb2;" horiz-adv-x="1308" 
d="M440 944l23 131q2 15 13 30t32.5 32.5t38.5 29t47 31.5q52 34 88.5 67.5t52 55t31.5 49.5q16 37 16 68q0 55 -37.5 89t-99.5 34q-89 0 -194 -60l4 92q110 45 188 45q106 0 168.5 -52.5t62.5 -141.5q0 -74 -10 -107q-27 -89 -180 -233q-14 -13 -29 -27h224l10 -133h-449z
" />
    <glyph glyph-name="uni00B3" unicode="&#xb3;" horiz-adv-x="1310" 
d="M606 866q-94 0 -198 37l45 137q25 -9 78.5 -15.5t80.5 -6.5q102 0 139 24.5t37 77.5q0 55 -45 92t-125 37h-94l19 80h96q168 0 168 123q0 59 -52 89t-132 30q-94 0 -193 -35l23 72q109 28 178 28q115 0 181.5 -51.5t66.5 -140.5q0 -61 -31.5 -98.5t-104.5 -63.5
q85 -13 119.5 -56t34.5 -118q0 -120 -75 -181t-216 -61z" />
    <glyph glyph-name="acute" unicode="&#xb4;" horiz-adv-x="587" 
d="M319 1503h105l-105 -315h-155z" />
    <glyph glyph-name="uni00B5" unicode="&#xb5;" horiz-adv-x="1339" 
d="M1176 0h-224l9 172q-20 -53 -53.5 -92t-69 -60t-81 -33.5t-80.5 -16t-77 -3.5q-99 0 -167.5 21t-113.5 71l-12 -292h-143l33 837l-33 543h196l41 -539q10 -143 15 -168q14 -66 60 -89q47 -22 165 -21q67 1 110.5 5.5t75.5 20t48 32.5t26 56.5t12.5 75.5t4.5 105l14 522
h203z" />
    <glyph glyph-name="paragraph" unicode="&#xb6;" horiz-adv-x="1259" 
d="M502 1419h157l-116 -1644h-365l187 950q-91 41 -146 131.5t-55 200.5q0 147 99 253t239 109zM1065 1417l31 -1642h-158l-31 1642h158z" />
    <glyph glyph-name="periodcentered" unicode="&#xb7;" horiz-adv-x="534" 
d="M154 522l32 228h195v-228h-227z" />
    <glyph glyph-name="cedilla" unicode="&#xb8;" horiz-adv-x="669" 
d="M174 -225l76 225h65l-59 -164h63q26 0 52 -4t53 -15t46.5 -28t29.5 -45t4 -63q-12 -75 -68.5 -117.5t-144.5 -42.5h-127l22 108q47 -10 109 -10q53 0 93 23t40 49q0 32 -12 52.5t-34.5 28.5t-40 10.5t-42.5 2.5q-43 0 -125 -10z" />
    <glyph glyph-name="uni00B9" unicode="&#xb9;" horiz-adv-x="1187" 
d="M379 932v137l139 4l25 502l-123 -66l8 93q106 63 147 63h62v-590l166 -6v-137h-424z" />
    <glyph glyph-name="ordmasculine" unicode="&#xba;" horiz-adv-x="860" 
d="M430 836q-127 0 -201.5 84t-74.5 219q0 140 73.5 221.5t202.5 81.5t203 -81.5t74 -221.5q0 -135 -75 -219t-202 -84zM430 993q99 0 135.5 31.5t36.5 132.5q0 105 -43.5 149t-128.5 44t-128.5 -44t-43.5 -149q0 -101 36.5 -132.5t135.5 -31.5z" />
    <glyph glyph-name="guillemotright" unicode="&#xbb;" horiz-adv-x="1310" 
d="M1102 586l-481 401l4 -190l311 -258l-291 -279l47 -229l455 434zM645 578l-481 401l4 -191l311 -258l-291 -278l48 -229l454 434z" />
    <glyph glyph-name="onequarter" unicode="&#xbc;" horiz-adv-x="1724" 
d="M752 844v-187h-574v187l189 6l32 680l-168 -88l15 123q144 88 198 88h82v-801zM1376 1528h131l-925 -1632h-207zM1853 301v-139h-129l23 -279h-211l16 277l-307 -2l-2 -2l-2 2h-59l-17 123l432 596l68 4l6 -76l2 -2l-2 -2l41 -504zM1329 285l232 8l24 377z" />
    <glyph glyph-name="onehalf" unicode="&#xbd;" horiz-adv-x="1460" 
d="M-33 670v186l189 6l32 680l-168 -88l15 123q144 88 198 88h82v-801l226 -8v-186h-574zM164 -92l1001 1632h131l-925 -1632h-207zM967 -29l34 193q5 27 36.5 60t63 56t91.5 62q110 70 163.5 128.5t86.5 123.5q24 50 24 98q0 79 -55 128.5t-145 49.5q-125 0 -283 -88l8 138
q165 65 273 65q155 0 246.5 -77t91.5 -208v-18q0 -37 -0.5 -55.5t-6.5 -53t-17.5 -59.5t-34.5 -64t-57 -78.5t-85 -92t-119 -113.5h324l16 -195h-655z" />
    <glyph glyph-name="threequarters" unicode="&#xbe;" horiz-adv-x="1460" 
d="M530 954q0 -160 -100 -240.5t-289 -80.5q-126 0 -266 49l62 182q33 -12 106 -21t107 -9q137 0 186 33t49 106t-59.5 122.5t-165.5 49.5h-129l24 106h131q226 0 226 164q0 79 -70 119.5t-178 40.5q-122 0 -258 -45l31 94q144 41 239 41q153 0 242.5 -69.5t89.5 -188.5
q0 -83 -42.5 -133.5t-139.5 -85.5q114 -16 159 -74t45 -160zM1165 1540h131l-925 -1632h-207zM1642 313v-139h-129l23 -278h-211l16 276l-307 -2l-2 -2l-2 2h-59l-17 123l432 596l68 4l6 -76l2 -2l-2 -2l41 -504zM1118 297l232 8l24 377z" />
    <glyph glyph-name="questiondown" unicode="&#xbf;" horiz-adv-x="995" 
d="M625 1196l-33 -227h-195v227h228zM625 885v-238v-241q-187 -68 -234 -93q-74 -40 -93 -98q-9 -29 -9 -70q0 -176 133 -202q99 -26 171.5 -10.5t143.5 94.5q33 -44 94 -103q-46 -48 -102 -78t-114 -39.5t-111.5 -7t-106.5 14.5q-121 28 -177 109.5t-56 199.5q0 112 27 185
t73.5 114t128.5 78v325q0 10 78 28.5t154 31.5z" />
    <glyph glyph-name="Agrave" unicode="&#xc0;" horiz-adv-x="1695" 
d="M739 1671l-237 230h162l350 -261zM164 -2l590 1536h190l588 -1536h-289l-57 246h-672l-76 -246h-274zM573 481h551l-278 805z" />
    <glyph glyph-name="Aacute" unicode="&#xc1;" horiz-adv-x="1695" 
d="M164 -2l590 1536h190l588 -1536h-289l-57 246h-672l-76 -246h-274zM573 481h551l-278 805zM797 -23h104l-104 -315h-156z" />
    <glyph glyph-name="Acircumflex" unicode="&#xc2;" horiz-adv-x="1695" 
d="M809 1939h98l80 -131l270 -268h-110l-297 203l-293 -203h-111l273 268zM164 -2l590 1536h190l588 -1536h-289l-57 246h-672l-76 -246h-274zM573 481h551l-278 805z" />
    <glyph glyph-name="Atilde" unicode="&#xc3;" horiz-adv-x="1695" 
d="M643 1616h-113q12 184 49 245.5t144 61.5q37 0 69.5 -21t55 -51.5t43 -60.5t44 -51t48.5 -21q29 0 47.5 11.5t25 31.5t9.5 46.5t1.5 56t0.5 59.5h94q-1 -88 -10 -147t-21 -91t-37 -47.5t-46.5 -19t-61.5 -2.5q-41 1 -76 23t-58.5 53.5t-44 62.5t-41.5 53t-42 23
q-19 0 -33.5 -8.5t-23 -27.5t-13.5 -37t-7 -48t-2.5 -47t-0.5 -47zM164 -2l590 1536h190l588 -1536h-289l-57 246h-672l-76 -246h-274zM573 481h551l-278 805z" />
    <glyph glyph-name="Adieresis" unicode="&#xc4;" horiz-adv-x="1695" 
d="M459 1638l33 228h194v-228h-227zM1016 1638l33 228h194v-228h-227zM164 -2l590 1536h190l588 -1536h-289l-57 246h-672l-76 -246h-274zM573 481h551l-278 805z" />
    <glyph glyph-name="Aring" unicode="&#xc5;" horiz-adv-x="1695" 
d="M850 1659q-77 0 -130.5 57t-53.5 139q0 80 54 137.5t130 57.5t130 -57.5t54 -137.5q0 -82 -53.5 -139t-130.5 -57zM850 1772q22 0 33.5 1t27.5 6.5t23.5 16.5t13.5 32.5t6 53.5q0 44 -30.5 76.5t-73.5 32.5t-74 -32.5t-31 -76.5q0 -39 7.5 -63t25 -33.5t31 -11.5t41.5 -2
zM164 -2l590 1536h190l588 -1536h-289l-57 246h-672l-76 -246h-274zM573 481h551l-278 805z" />
    <glyph glyph-name="AE" unicode="&#xc6;" horiz-adv-x="2394" 
d="M2230 0h-698v-2h-289v2h-2l2 86l2 154h-672l-135 -242h-274l964 1503h162v6l910 29l-43 -193l-676 -38v-406l501 23v-211l-501 -33v-320l6 -49h676zM690 471h551l-80 789z" />
    <glyph glyph-name="Ccedilla" unicode="&#xc7;" horiz-adv-x="1468" 
d="M1245 18q-118 -38 -422 -49l-41 -112h64q33 0 65.5 -7.5t63.5 -24t46.5 -48.5t8.5 -76q-12 -75 -68.5 -117.5t-144.5 -42.5h-127l23 109q47 -10 108 -10q54 0 93.5 22.5t39.5 48.5q0 32 -12 52.5t-34.5 28.5t-40 10.5t-42.5 2.5q-43 0 -125 -10l58 174q-67 -3 -133 4
q-115 11 -208 61.5t-155 131.5t-99.5 189t-40.5 234t21 267q16 84 46 164t88 167.5t136 155t196.5 119.5t262.5 70q51 7 93.5 8t78.5 -3t63.5 -9.5t68.5 -13.5t75 -13l-28 -196q-239 41 -338 34q-80 -5 -162 -44t-151.5 -101.5t-121 -151t-69.5 -186.5q-23 -125 7.5 -222.5
t104.5 -157t178.5 -88t233.5 -23.5q61 2 113.5 11t80.5 17.5t73.5 25t68.5 23.5z" />
    <glyph glyph-name="Egrave" unicode="&#xc8;" horiz-adv-x="1316" 
d="M569 1751l-237 229h162l350 -260zM164 0l49 1507l909 29l-43 -193l-676 -38v-406l502 23v-211l-502 -33v-369h682l68 -309h-989z" />
    <glyph glyph-name="Eacute" unicode="&#xc9;" horiz-adv-x="1316" 
d="M707 2114h104l-104 -316h-156zM164 0l49 1507l909 29l-43 -193l-676 -38v-406l502 23v-211l-502 -33v-369h682l68 -309h-989z" />
    <glyph glyph-name="Ecircumflex" unicode="&#xca;" horiz-adv-x="1316" 
d="M639 2019h98l80 -131l270 -268h-110l-297 203l-293 -203h-111l273 268zM164 0l49 1507l909 29l-43 -193l-676 -38v-406l502 23v-211l-502 -33v-369h682l68 -309h-989z" />
    <glyph glyph-name="Edieresis" unicode="&#xcb;" horiz-adv-x="1316" 
d="M289 1718l33 228h194v-228h-227zM846 1718l33 228h194v-228h-227zM164 0l49 1507l909 29l-43 -193l-676 -38v-406l502 23v-211l-502 -33v-369h682l68 -309h-989z" />
    <glyph glyph-name="Igrave" unicode="&#xcc;" horiz-adv-x="614" 
d="M184 1712l-237 230h162l350 -261zM164 0q29 273 34.5 616t-3.5 570t-21 350h223q-31 -741 54 -1536h-287z" />
    <glyph glyph-name="Iacute" unicode="&#xcd;" horiz-adv-x="614" 
d="M322 2075h104l-104 -316h-156zM164 0q29 273 34.5 616t-3.5 570t-21 350h223q-31 -741 54 -1536h-287z" />
    <glyph glyph-name="Icircumflex" unicode="&#xce;" horiz-adv-x="614" 
d="M254 1980h98l80 -131l270 -268h-110l-297 203l-293 -203h-111l273 268zM164 0q29 273 34.5 616t-3.5 570t-21 350h223q-31 -741 54 -1536h-287z" />
    <glyph glyph-name="Idieresis" unicode="&#xcf;" horiz-adv-x="614" 
d="M-96 1679l33 228h194v-228h-227zM461 1679l33 228h194v-228h-227zM164 0q29 273 34.5 616t-3.5 570t-21 350h223q-31 -741 54 -1536h-287z" />
    <glyph glyph-name="Eth" unicode="&#xd0;" horiz-adv-x="1583" 
d="M1438 762q25 -185 -15.5 -325.5t-122 -221.5t-207 -131t-247.5 -67t-266 -17h-416v733h-191v187h191v618h416q168 0 306.5 -45t232 -118.5t162 -176t105 -209.5t52.5 -227zM621 389q190 0 309.5 27t175 79.5t71 130.5t-2.5 179q-9 63 -24 116.5t-42 111.5t-69 103
t-98.5 81.5t-138 56.5t-181.5 20h-244v-374h397v-187h-397v-344h244z" />
    <glyph glyph-name="Ntilde" unicode="&#xd1;" horiz-adv-x="1550" 
d="M1200 1534h227l-81 -1534h-357l-321 674q-17 -48 -17 -164h-112q8 122 24 184t51 92l-135 283l19 -1069h-334l119 1479h252l393 -830q29 -37 63 -37q29 0 47.5 11.5t25 31.5t9.5 46.5t1.5 56t0.5 59.5h68zM993 510l107 -225l20 266q-20 -28 -47.5 -34.5t-79.5 -6.5z" />
    <glyph glyph-name="Ograve" unicode="&#xd2;" horiz-adv-x="1710" 
d="M737 1786l-237 229h162l350 -260zM856 1540q128 0 234 -27t193.5 -86.5t146 -149t89.5 -219t27 -292.5q-4 -165 -26.5 -288t-71.5 -222t-127.5 -160.5t-194 -93.5t-270.5 -31q-356 3 -524 198.5t-168 596.5q0 196 48.5 344.5t140 242.5t218 140.5t285.5 46.5zM856 1376
q-106 0 -198 -55t-152 -144t-94.5 -202t-34.5 -230q0 -91 22 -159t61.5 -112t100.5 -71t132 -38t163 -11q116 0 199 18t148 61t97.5 121t32.5 191q0 117 -34 230t-94 202t-151.5 144t-197.5 55z" />
    <glyph glyph-name="Oacute" unicode="&#xd3;" horiz-adv-x="1710" 
d="M12 1704h105l-105 -315h-155zM856 1540q128 0 234 -27t193.5 -86.5t146 -149t89.5 -219t27 -292.5q-4 -165 -26.5 -288t-71.5 -222t-127.5 -160.5t-194 -93.5t-270.5 -31q-356 3 -524 198.5t-168 596.5q0 196 48.5 344.5t140 242.5t218 140.5t285.5 46.5zM856 1376
q-106 0 -198 -55t-152 -144t-94.5 -202t-34.5 -230q0 -91 22 -159t61.5 -112t100.5 -71t132 -38t163 -11q116 0 199 18t148 61t97.5 121t32.5 191q0 117 -34 230t-94 202t-151.5 144t-197.5 55z" />
    <glyph glyph-name="Ocircumflex" unicode="&#xd4;" horiz-adv-x="1710" 
d="M807 2054h98l80 -131l270 -268h-110l-297 203l-293 -203h-111l273 268zM856 1540q128 0 234 -27t193.5 -86.5t146 -149t89.5 -219t27 -292.5q-4 -165 -26.5 -288t-71.5 -222t-127.5 -160.5t-194 -93.5t-270.5 -31q-356 3 -524 198.5t-168 596.5q0 196 48.5 344.5
t140 242.5t218 140.5t285.5 46.5zM856 1376q-106 0 -198 -55t-152 -144t-94.5 -202t-34.5 -230q0 -91 22 -159t61.5 -112t100.5 -71t132 -38t163 -11q116 0 199 18t148 61t97.5 121t32.5 191q0 117 -34 230t-94 202t-151.5 144t-197.5 55z" />
    <glyph glyph-name="Otilde" unicode="&#xd5;" horiz-adv-x="1710" 
d="M641 1731h-113q12 184 49 245.5t144 61.5q37 0 69.5 -21t55 -51t43 -60.5t44 -51.5t48.5 -21q29 0 47.5 11.5t25 31.5t9.5 46.5t1.5 56t0.5 59.5h94q-1 -88 -10 -147t-21 -91t-37 -47.5t-46.5 -19t-61.5 -2.5q-41 1 -76 23t-58.5 53.5t-44 62.5t-41.5 53t-42 23
q-19 0 -33.5 -8.5t-23 -27.5t-13.5 -37t-7 -48t-2.5 -47t-0.5 -47zM856 1540q128 0 234 -27t193.5 -86.5t146 -149t89.5 -219t27 -292.5q-4 -165 -26.5 -288t-71.5 -222t-127.5 -160.5t-194 -93.5t-270.5 -31q-356 3 -524 198.5t-168 596.5q0 196 48.5 344.5t140 242.5
t218 140.5t285.5 46.5zM856 1376q-106 0 -198 -55t-152 -144t-94.5 -202t-34.5 -230q0 -91 22 -159t61.5 -112t100.5 -71t132 -38t163 -11q116 0 199 18t148 61t97.5 121t32.5 191q0 117 -34 230t-94 202t-151.5 144t-197.5 55z" />
    <glyph glyph-name="Odieresis" unicode="&#xd6;" horiz-adv-x="1710" 
d="M457 1753l32 227h195v-227h-227zM1014 1753l33 227h194v-227h-227zM856 1540q128 0 234 -27t193.5 -86.5t146 -149t89.5 -219t27 -292.5q-4 -165 -26.5 -288t-71.5 -222t-127.5 -160.5t-194 -93.5t-270.5 -31q-356 3 -524 198.5t-168 596.5q0 196 48.5 344.5t140 242.5
t218 140.5t285.5 46.5zM856 1376q-106 0 -198 -55t-152 -144t-94.5 -202t-34.5 -230q0 -91 22 -159t61.5 -112t100.5 -71t132 -38t163 -11q116 0 199 18t148 61t97.5 121t32.5 191q0 117 -34 230t-94 202t-151.5 144t-197.5 55z" />
    <glyph glyph-name="multiply" unicode="&#xd7;" horiz-adv-x="1208" 
d="M1044 215h-286l-160 164l-149 -164h-285l313 289l-264 272h197l186 -164l172 158h186l-239 -264z" />
    <glyph glyph-name="Oslash" unicode="&#xd8;" horiz-adv-x="1689" 
d="M1614 1731l-238 -383q179 -198 170 -582q-4 -165 -26.5 -288t-71.5 -222t-127.5 -160.5t-194 -93.5t-270.5 -31q-175 0 -303 49l-35 -57l-444 -160l252 373q-162 191 -162 590q0 196 48.5 344.5t140 242.5t218 140.5t285.5 46.5q206 0 346 -67l139 204zM377 745
q0 -217 125 -309l583 864q-107 76 -229 76q-106 0 -198 -55t-152 -144t-94.5 -202t-34.5 -230zM1333 745q0 210 -96 379l-475 -766q31 -4 94 -4q116 0 199 18t148 61t97.5 121t32.5 191z" />
    <glyph glyph-name="Ugrave" unicode="&#xd9;" horiz-adv-x="1548" 
d="M668 1774l-238 229h162l350 -260zM197 561l-33 975h295l-29 -770q-3 -80 0 -143t16.5 -108t25.5 -77t40.5 -52t48.5 -31t62 -16t68 -6t79 -1q47 0 70 0.5t61.5 4t56.5 11.5t46 22.5t40.5 36t29 54t22.5 75.5t9.5 100.5t0.5 129.5l-29 770h307l-45 -975
q-5 -106 -14.5 -187.5t-31.5 -141t-39.5 -100.5t-60 -67.5t-69 -41t-90.5 -21t-101 -7.5t-122 -1h-14h-13h-14h-41q-85 0 -124.5 1t-103 7.5t-91.5 21t-70 40.5t-60 67.5t-39.5 101t-30.5 141t-13 187.5z" />
    <glyph glyph-name="Uacute" unicode="&#xda;" horiz-adv-x="1548" 
d="M805 2136h104l-104 -315h-156zM197 561l-33 975h295l-29 -770q-3 -80 0 -143t16.5 -108t25.5 -77t40.5 -52t48.5 -31t62 -16t68 -6t79 -1q47 0 70 0.5t61.5 4t56.5 11.5t46 22.5t40.5 36t29 54t22.5 75.5t9.5 100.5t0.5 129.5l-29 770h307l-45 -975q-5 -106 -14.5 -187.5
t-31.5 -141t-39.5 -100.5t-60 -67.5t-69 -41t-90.5 -21t-101 -7.5t-122 -1h-14h-13h-14h-41q-85 0 -124.5 1t-103 7.5t-91.5 21t-70 40.5t-60 67.5t-39.5 101t-30.5 141t-13 187.5z" />
    <glyph glyph-name="Ucircumflex" unicode="&#xdb;" horiz-adv-x="1548" 
d="M737 2042h99l79 -131l271 -269h-111l-297 203l-293 -203h-110l272 269zM197 561l-33 975h295l-29 -770q-3 -80 0 -143t16.5 -108t25.5 -77t40.5 -52t48.5 -31t62 -16t68 -6t79 -1q47 0 70 0.5t61.5 4t56.5 11.5t46 22.5t40.5 36t29 54t22.5 75.5t9.5 100.5t0.5 129.5
l-29 770h307l-45 -975q-5 -106 -14.5 -187.5t-31.5 -141t-39.5 -100.5t-60 -67.5t-69 -41t-90.5 -21t-101 -7.5t-122 -1h-14h-13h-14h-41q-85 0 -124.5 1t-103 7.5t-91.5 21t-70 40.5t-60 67.5t-39.5 101t-30.5 141t-13 187.5z" />
    <glyph glyph-name="Udieresis" unicode="&#xdc;" horiz-adv-x="1548" 
d="M387 1741l33 227h194v-227h-227zM944 1741l33 227h194v-227h-227zM197 561l-33 975h295l-29 -770q-3 -80 0 -143t16.5 -108t25.5 -77t40.5 -52t48.5 -31t62 -16t68 -6t79 -1q47 0 70 0.5t61.5 4t56.5 11.5t46 22.5t40.5 36t29 54t22.5 75.5t9.5 100.5t0.5 129.5l-29 770
h307l-45 -975q-5 -106 -14.5 -187.5t-31.5 -141t-39.5 -100.5t-60 -67.5t-69 -41t-90.5 -21t-101 -7.5t-122 -1h-14h-13h-14h-41q-85 0 -124.5 1t-103 7.5t-91.5 21t-70 40.5t-60 67.5t-39.5 101t-30.5 141t-13 187.5z" />
    <glyph glyph-name="Yacute" unicode="&#xdd;" horiz-adv-x="1564" 
d="M12 1704h105l-105 -315h-155zM643 537l-479 1001h217l403 -702l400 702h217l-486 -1001v-539h-374z" />
    <glyph glyph-name="Thorn" unicode="&#xde;" horiz-adv-x="1146" 
d="M983 760q0 -91 -58.5 -176.5t-151 -146.5t-206 -99.5t-223.5 -42.5v-295h-180v1434h180v-211q147 -6 293.5 -68t246 -169t99.5 -226zM426 473q52 0 151.5 53.5t180 125.5t80.5 116t-83 116.5t-185 126.5t-154 54q-35 0 -72 -29v-526q40 -37 82 -37zM219 786v-18v-12v30z
" />
    <glyph glyph-name="germandbls" unicode="&#xdf;" horiz-adv-x="1396" 
d="M164 0l59 1137q0 201 119.5 310t337.5 109q210 0 320 -116t110 -340q-151 -8 -234 -65t-83 -154q0 -48 28.5 -88t93.5 -82l58 -37q159 -102 209.5 -173t50.5 -175q0 -172 -111.5 -263.5t-322.5 -91.5q-129 0 -275 49v244q157 -59 285 -59q117 0 177.5 32.5t60.5 94.5
q0 37 -29 84q-27 40 -131 104l-82 55q-40 51 -63.5 86t-46.5 91t-23 108q0 68 14 117.5t48.5 94t100.5 73.5t164 43q-31 73 -60 120.5t-54 75t-60.5 40.5t-65.5 16.5t-83 3.5q-131 0 -198 -71t-87 -240l49 -1133h-276z" />
    <glyph glyph-name="agrave" unicode="&#xe0;" horiz-adv-x="1343" 
d="M539 1307l-238 229h162l350 -260zM606 -29q-121 0 -215.5 43.5t-155.5 128t-80.5 209t9.5 287.5q82 456 430 504q239 34 348 -142l-4 119h145l117 -1120h-205v168q-57 -97 -159.5 -147t-229.5 -50zM582 283q68 0 122.5 13.5t90 34t61.5 51t39 58.5t20.5 63.5t9 58
t1.5 50.5q0 90 -17.5 156.5t-44.5 104.5t-67 61t-77 30t-83 7t-94 -21t-95 -64.5t-83 -121t-50 -178.5q-12 -68 -3 -124t36.5 -96t86 -61.5t147.5 -21.5z" />
    <glyph glyph-name="aacute" unicode="&#xe1;" horiz-adv-x="1343" 
d="M1200 0h-205v168q-46 -80 -125 -128.5t-178 -62.5h2l-104 -315h-156l154 309q-241 8 -360 183t-64 485q82 456 430 504q239 34 348 -142l-4 119h145zM582 283q68 0 122.5 13.5t90 34t61.5 51t39 58.5t20.5 63.5t9 58t1.5 50.5q0 90 -17.5 156.5t-44.5 104.5t-67 61
t-77 30t-83 7t-94 -21t-95 -64.5t-83 -121t-50 -178.5q-12 -68 -3 -124t36.5 -96t86 -61.5t147.5 -21.5z" />
    <glyph glyph-name="acircumflex" unicode="&#xe2;" horiz-adv-x="1343" 
d="M608 1575h99l79 -131l271 -268h-111l-297 202l-293 -202h-110l272 268zM606 -29q-121 0 -215.5 43.5t-155.5 128t-80.5 209t9.5 287.5q82 456 430 504q239 34 348 -142l-4 119h145l117 -1120h-205v168q-57 -97 -159.5 -147t-229.5 -50zM582 283q68 0 122.5 13.5t90 34
t61.5 51t39 58.5t20.5 63.5t9 58t1.5 50.5q0 90 -17.5 156.5t-44.5 104.5t-67 61t-77 30t-83 7t-94 -21t-95 -64.5t-83 -121t-50 -178.5q-12 -68 -3 -124t36.5 -96t86 -61.5t147.5 -21.5z" />
    <glyph glyph-name="atilde" unicode="&#xe3;" horiz-adv-x="1343" 
d="M442 1251h-112q12 184 49 246t143 62q37 0 69.5 -21t55 -51.5t43 -60.5t44 -51t48.5 -21q29 0 47.5 11.5t25 31.5t9.5 46.5t1.5 56t0.5 59.5h95q-1 -88 -10 -147t-21.5 -91.5t-37.5 -48t-46.5 -19t-61.5 -2.5q-41 1 -76 23t-58.5 53.5t-44 62.5t-41.5 53t-42 23
q-19 0 -33.5 -8.5t-23 -27.5t-13.5 -37t-7 -48t-2.5 -47t-0.5 -47zM606 -29q-121 0 -215.5 43.5t-155.5 128t-80.5 209t9.5 287.5q82 456 430 504q239 34 348 -142l-4 119h145l117 -1120h-205v168q-57 -97 -159.5 -147t-229.5 -50zM582 283q68 0 122.5 13.5t90 34t61.5 51
t39 58.5t20.5 63.5t9 58t1.5 50.5q0 90 -17.5 156.5t-44.5 104.5t-67 61t-77 30t-83 7t-94 -21t-95 -64.5t-83 -121t-50 -178.5q-12 -68 -3 -124t36.5 -96t86 -61.5t147.5 -21.5z" />
    <glyph glyph-name="adieresis" unicode="&#xe4;" horiz-adv-x="1343" 
d="M258 1274l33 227h194v-227h-227zM815 1274l33 227h194v-227h-227zM606 -29q-121 0 -215.5 43.5t-155.5 128t-80.5 209t9.5 287.5q82 456 430 504q239 34 348 -142l-4 119h145l117 -1120h-205v168q-57 -97 -159.5 -147t-229.5 -50zM582 283q68 0 122.5 13.5t90 34t61.5 51
t39 58.5t20.5 63.5t9 58t1.5 50.5q0 90 -17.5 156.5t-44.5 104.5t-67 61t-77 30t-83 7t-94 -21t-95 -64.5t-83 -121t-50 -178.5q-12 -68 -3 -124t36.5 -96t86 -61.5t147.5 -21.5z" />
    <glyph glyph-name="aring" unicode="&#xe5;" horiz-adv-x="1343" 
d="M649 1294q-76 0 -130 57.5t-54 139.5q0 80 54 137.5t130 57.5t130.5 -57.5t54.5 -137.5q0 -82 -54 -139.5t-131 -57.5zM649 1407q27 0 41.5 2.5t31.5 12t24.5 33.5t7.5 63q0 44 -31 76t-74 32t-73.5 -32t-30.5 -76q0 -39 7.5 -63t24.5 -33.5t31 -12t41 -2.5zM606 -29
q-121 0 -215.5 43.5t-155.5 128t-80.5 209t9.5 287.5q82 456 430 504q239 34 348 -142l-4 119h145l117 -1120h-205v168q-57 -97 -159.5 -147t-229.5 -50zM582 283q68 0 122.5 13.5t90 34t61.5 51t39 58.5t20.5 63.5t9 58t1.5 50.5q0 90 -17.5 156.5t-44.5 104.5t-67 61
t-77 30t-83 7t-94 -21t-95 -64.5t-83 -121t-50 -178.5q-12 -68 -3 -124t36.5 -96t86 -61.5t147.5 -21.5z" />
    <glyph glyph-name="ae" unicode="&#xe6;" horiz-adv-x="2146" 
d="M1559 244q115 -12 201 2t204 65v-254q-201 -86 -412 -86q-205 0 -358 97l6 -68h-205v168q-57 -97 -159.5 -147t-229.5 -50q-121 0 -215.5 43.5t-155.5 128t-80.5 209t9.5 287.5q82 456 430 504q239 34 348 -142l-4 119h145l15 -135q75 97 183.5 150t240.5 53
q89 -7 166.5 -41t144.5 -97.5t116.5 -166.5t73.5 -238l-884 -57l10 -94q60 -214 410 -250zM1522 1051q-151 -10 -255 -105t-104 -201l656 64q-41 259 -297 242zM582 283q68 0 122.5 13.5t90 34t61.5 51t39 58.5t20.5 63.5t9 58t1.5 50.5q0 90 -17.5 156.5t-44.5 104.5
t-67 61t-77 30t-83 7t-94 -21t-95 -64.5t-83 -121t-50 -178.5q-12 -68 -3 -124t36.5 -96t86 -61.5t147.5 -21.5z" />
    <glyph glyph-name="ccedilla" unicode="&#xe7;" horiz-adv-x="1214" 
d="M698 -143q33 0 65.5 -7.5t64 -24t47 -48.5t8.5 -76q-12 -75 -68.5 -117.5t-144.5 -42.5h-127l22 109q47 -10 109 -10q54 0 93.5 22.5t39.5 48.5q0 32 -12 52.5t-34.5 28.5t-40 10.5t-42.5 2.5q-43 0 -125 -10l68 201q-130 18 -219 61t-142 115t-75.5 165t-22.5 222
q0 305 116 443.5t375 144.5q71 1 146.5 -6.5t109.5 -18.5v-166q-102 31 -215 31q-325 -3 -325 -428q6 -78 39 -143.5t85 -108t114.5 -65.5t132 -19t132.5 35l193 -209q-130 -77 -350 -63q-5 0 -16.5 1t-16.5 1l-47 -131h63z" />
    <glyph glyph-name="egrave" unicode="&#xe8;" horiz-adv-x="1339" 
d="M578 1343l-238 230h162l350 -260zM1217 645l-887 -57q0 -299 422 -344q115 -12 201 2t204 65v-254q-201 -86 -412 -86q-269 0 -435.5 157.5t-166.5 420.5q11 280 167 459.5t405 179.5q89 -7 166.5 -41t145 -97.5t117 -166.5t73.5 -238zM356 745l656 64q-41 259 -297 242
q-151 -10 -255 -105t-104 -201z" />
    <glyph glyph-name="eacute" unicode="&#xe9;" horiz-adv-x="1339" 
d="M752 244q115 -12 201 2t204 65v-254q-201 -86 -412 -86h-6l-102 -309h-156l156 315h8q-228 30 -365 182.5t-137 389.5q11 280 167 459.5t405 179.5q89 -7 166.5 -41t145 -97.5t117 -166.5t73.5 -238l-887 -57q0 -299 422 -344zM715 1051q-151 -10 -255 -105t-104 -201
l656 64q-41 259 -297 242z" />
    <glyph glyph-name="ecircumflex" unicode="&#xea;" horiz-adv-x="1339" 
d="M647 1612h98l80 -131l271 -269h-111l-297 203l-293 -203h-110l272 269zM1217 645l-887 -57q0 -299 422 -344q115 -12 201 2t204 65v-254q-201 -86 -412 -86q-269 0 -435.5 157.5t-166.5 420.5q11 280 167 459.5t405 179.5q89 -7 166.5 -41t145 -97.5t117 -166.5
t73.5 -238zM356 745l656 64q-41 259 -297 242q-151 -10 -255 -105t-104 -201z" />
    <glyph glyph-name="edieresis" unicode="&#xeb;" horiz-adv-x="1339" 
d="M297 1311l33 227h194v-227h-227zM854 1311l33 227h194v-227h-227zM1217 645l-887 -57q0 -299 422 -344q115 -12 201 2t204 65v-254q-201 -86 -412 -86q-269 0 -435.5 157.5t-166.5 420.5q11 280 167 459.5t405 179.5q89 -7 166.5 -41t145 -97.5t117 -166.5t73.5 -238z
M356 745l656 64q-41 259 -297 242q-151 -10 -255 -105t-104 -201z" />
    <glyph glyph-name="igrave" unicode="&#xec;" horiz-adv-x="577" 
d="M170 1276l-238 229h162l350 -260zM164 0q23 333 31 527t8 509h164q-14 -231 -4.5 -497t51.5 -539h-250z" />
    <glyph glyph-name="iacute" unicode="&#xed;" horiz-adv-x="577" 
d="M307 1638h105l-105 -315h-155zM164 0q23 333 31 527t8 509h164q-14 -231 -4.5 -497t51.5 -539h-250z" />
    <glyph glyph-name="icircumflex" unicode="&#xee;" horiz-adv-x="577" 
d="M231 1628h99l80 -131l270 -268h-111l-297 203l-292 -203h-111l272 268zM164 0q23 333 31 527t8 509h164q-14 -231 -4.5 -497t51.5 -539h-250z" />
    <glyph glyph-name="idieresis" unicode="&#xef;" horiz-adv-x="577" 
d="M-111 1100l33 227h195v-227h-228zM446 1100l33 227h195v-227h-228zM164 0q23 333 31 527t8 509h164q-14 -231 -4.5 -497t51.5 -539h-250z" />
    <glyph glyph-name="eth" unicode="&#xf0;" horiz-adv-x="1712" 
d="M1548 1171v-186h-315q-3 -24 -15.5 -101.5t-21.5 -138.5q-24 -157 -51.5 -270.5t-69.5 -213.5t-97 -160.5t-133.5 -95t-180.5 -34.5q-226 0 -363 139t-137 369q0 235 130.5 371.5t356.5 136.5q58 0 106.5 -12.5t98.5 -44t94 -92.5t78 -150q10 58 28 155t25 142h-333v186
h346q0 44 -7 123q-10 103 -76.5 142t-189.5 39l64 137q41 0 83.5 -5.5t94 -23.5t91 -46t66 -78.5t27.5 -115.5v-172h301zM664 238q135 0 222 71.5t72 169.5q-11 74 -33 134.5t-57 109.5t-87 76.5t-117 27.5q-137 0 -217 -93.5t-80 -254.5q0 -104 81.5 -172.5t215.5 -68.5z
" />
    <glyph glyph-name="ntilde" unicode="&#xf1;" horiz-adv-x="1370" 
d="M438 1260h-112q12 184 48.5 245.5t143.5 61.5q37 0 69.5 -21t55 -51.5t43 -60.5t44 -51t48.5 -21q29 0 47.5 11.5t25 31.5t9.5 46.5t1.5 56t0.5 59.5h94q-1 -88 -10 -147t-21 -91t-37 -47.5t-46.5 -19t-61.5 -2.5q-41 1 -76 23t-58.5 53.5t-44 62.5t-41.5 53t-42 23
q-19 0 -33.5 -8.5t-23 -27.5t-13.5 -37t-7 -48t-2.5 -47t-0.5 -47zM1161 662l45 -662h-284l22 674q5 152 -46.5 222.5t-172.5 70.5q-82 0 -140.5 -27.5t-90.5 -76t-45.5 -108.5t-10.5 -132l29 -623h-303l82 1118h135l35 -90q22 10 68.5 35.5t75.5 39t79.5 26t105.5 12.5
q188 0 294.5 -126.5t121.5 -352.5z" />
    <glyph glyph-name="ograve" unicode="&#xf2;" horiz-adv-x="1355" 
d="M567 1343l-237 230h162l350 -260zM678 -27q-247 0 -391 161.5t-144 424.5q0 271 143 429.5t392 158.5q248 0 391 -158.5t143 -429.5q0 -263 -144 -424.5t-390 -161.5zM678 279q98 0 156.5 11.5t100.5 45.5t58.5 95.5t16.5 162.5q0 204 -84 288.5t-248 84.5t-248 -84.5
t-84 -288.5q0 -101 16.5 -162.5t58.5 -95.5t100.5 -45.5t156.5 -11.5z" />
    <glyph glyph-name="oacute" unicode="&#xf3;" horiz-adv-x="1355" 
d="M1212 559q0 -248 -129 -406.5t-352 -177.5l-104 -313h-156l156 313q-225 19 -354.5 177.5t-129.5 406.5q0 271 143 429.5t392 158.5q248 0 391 -158.5t143 -429.5zM678 279q98 0 156.5 11.5t100.5 45.5t58.5 95.5t16.5 162.5q0 204 -84 288.5t-248 84.5t-248 -84.5
t-84 -288.5q0 -101 16.5 -162.5t58.5 -95.5t100.5 -45.5t156.5 -11.5z" />
    <glyph glyph-name="ocircumflex" unicode="&#xf4;" horiz-adv-x="1355" 
d="M637 1612h98l80 -131l270 -269h-110l-297 203l-293 -203h-111l273 269zM678 -27q-247 0 -391 161.5t-144 424.5q0 271 143 429.5t392 158.5q248 0 391 -158.5t143 -429.5q0 -263 -144 -424.5t-390 -161.5zM678 279q98 0 156.5 11.5t100.5 45.5t58.5 95.5t16.5 162.5
q0 204 -84 288.5t-248 84.5t-248 -84.5t-84 -288.5q0 -101 16.5 -162.5t58.5 -95.5t100.5 -45.5t156.5 -11.5z" />
    <glyph glyph-name="otilde" unicode="&#xf5;" horiz-adv-x="1355" 
d="M471 1288h-113q12 184 49 245.5t144 61.5q45 0 84.5 -32t62.5 -70t53 -70t60 -32q29 0 47.5 11.5t25 31.5t9.5 46t1.5 55.5t0.5 59.5h94q-1 -88 -10 -147t-21 -91t-37 -47.5t-46.5 -19t-61.5 -2.5q-41 1 -76 23t-58.5 53.5t-44 62.5t-41.5 53t-42 23q-19 0 -33.5 -8.5
t-23 -27.5t-13.5 -37t-7 -48t-2.5 -47t-0.5 -47zM678 -27q-247 0 -391 161.5t-144 424.5q0 271 143 429.5t392 158.5q248 0 391 -158.5t143 -429.5q0 -263 -144 -424.5t-390 -161.5zM678 279q98 0 156.5 11.5t100.5 45.5t58.5 95.5t16.5 162.5q0 204 -84 288.5t-248 84.5
t-248 -84.5t-84 -288.5q0 -101 16.5 -162.5t58.5 -95.5t100.5 -45.5t156.5 -11.5z" />
    <glyph glyph-name="odieresis" unicode="&#xf6;" horiz-adv-x="1355" 
d="M287 1194l32 227h195v-227h-227zM844 1194l33 227h194v-227h-227zM678 -27q-247 0 -391 161.5t-144 424.5q0 271 143 429.5t392 158.5q248 0 391 -158.5t143 -429.5q0 -263 -144 -424.5t-390 -161.5zM678 279q98 0 156.5 11.5t100.5 45.5t58.5 95.5t16.5 162.5
q0 204 -84 288.5t-248 84.5t-248 -84.5t-84 -288.5q0 -101 16.5 -162.5t58.5 -95.5t100.5 -45.5t156.5 -11.5z" />
    <glyph glyph-name="divide" unicode="&#xf7;" horiz-adv-x="1562" 
d="M621 985l32 227h195v-227h-227zM250 610l1069 49l80 -157l-1235 -35zM621 -16l32 227h195v-227h-227z" />
    <glyph glyph-name="oslash" unicode="&#xf8;" horiz-adv-x="1355" 
d="M893 1110q153 -60 236 -203t83 -348q0 -263 -144 -424.5t-390 -161.5q-41 0 -88 7l-19 -66l-290 -213l108 348q-118 73 -182 205.5t-64 304.5q0 271 143 429.5t392 158.5q35 0 51 -2l76 241l188 97zM346 594q0 -127 28.5 -194t94.5 -95l205 662q-79 -1 -137.5 -20
t-102.5 -61t-66 -115t-22 -177zM678 279q98 0 156.5 11.5t100.5 45.5t58.5 95.5t16.5 162.5q0 270 -164 344l-176 -659h8z" />
    <glyph glyph-name="ugrave" unicode="&#xf9;" horiz-adv-x="1339" 
d="M532 1407l-237 229h162l350 -260zM600 -33q-100 0 -165.5 20t-115.5 72.5t-76.5 145t-35.5 237.5l-43 705h196l41 -539q10 -143 15 -168q14 -66 60 -89q47 -22 165 -21q67 1 110.5 5.5t75.5 20t48 32.5t26 56.5t12.5 75.5t4.5 105l14 522h203l41 -1147h-224l9 172
q-20 -53 -53.5 -92t-69 -60t-81 -33.5t-80.5 -16t-77 -3.5z" />
    <glyph glyph-name="uacute" unicode="&#xfa;" horiz-adv-x="1339" 
d="M1176 0h-224l9 172q-59 -160 -240 -195h2l-105 -315h-155l151 305h-14q-100 0 -165.5 20t-115.5 72.5t-76.5 145t-35.5 237.5l-43 705h196l41 -539q10 -143 15 -168q14 -66 60 -89q47 -22 165 -21q67 1 110.5 5.5t75.5 20t48 32.5t26 56.5t12.5 75.5t4.5 105l14 522h203z
" />
    <glyph glyph-name="ucircumflex" unicode="&#xfb;" horiz-adv-x="1339" 
d="M602 1675h98l80 -131l271 -268h-111l-297 203l-293 -203h-110l272 268zM600 -33q-100 0 -165.5 20t-115.5 72.5t-76.5 145t-35.5 237.5l-43 705h196l41 -539q10 -143 15 -168q14 -66 60 -89q47 -22 165 -21q67 1 110.5 5.5t75.5 20t48 32.5t26 56.5t12.5 75.5t4.5 105
l14 522h203l41 -1147h-224l9 172q-20 -53 -53.5 -92t-69 -60t-81 -33.5t-80.5 -16t-77 -3.5z" />
    <glyph glyph-name="udieresis" unicode="&#xfc;" horiz-adv-x="1339" 
d="M252 1374l33 228h194v-228h-227zM809 1374l33 228h194v-228h-227zM600 -33q-100 0 -165.5 20t-115.5 72.5t-76.5 145t-35.5 237.5l-43 705h196l41 -539q10 -143 15 -168q14 -66 60 -89q47 -22 165 -21q67 1 110.5 5.5t75.5 20t48 32.5t26 56.5t12.5 75.5t4.5 105l14 522
h203l41 -1147h-224l9 172q-20 -53 -53.5 -92t-69 -60t-81 -33.5t-80.5 -16t-77 -3.5z" />
    <glyph glyph-name="yacute" unicode="&#xfd;" horiz-adv-x="1417" 
d="M758 1913h104l-104 -316h-156zM225 -528v264h129q61 0 131 28.5t125.5 79t77 118.5t-15.5 147l-508 1040h194l459 -782l240 782h196l-284 -1219q-22 -93 -73.5 -172t-115 -130.5t-136 -87.5t-136 -52t-115.5 -16h-168z" />
    <glyph glyph-name="thorn" unicode="&#xfe;" horiz-adv-x="1146" 
d="M350 1303q88 -4 177.5 -30t172 -74t146.5 -111.5t101.5 -148.5t35.5 -179q-2 -122 -39.5 -226.5t-98 -178.5t-140 -129t-164 -84.5t-172.5 -37.5l8 -473h-180l-33 2007h180zM838 768q1 61 -49.5 131.5t-120.5 123t-141 87.5t-111 35q-33 0 -64 -25l15 -825q22 -14 49 -14
q33 0 84 22.5t109 67t108.5 101.5t84.5 135.5t36 160.5z" />
    <glyph glyph-name="ydieresis" unicode="&#xff;" horiz-adv-x="1417" 
d="M340 1518l33 227h194v-227h-227zM897 1518l33 227h194v-227h-227zM225 -528v264h129q61 0 131 28.5t125.5 79t77 118.5t-15.5 147l-508 1040h194l459 -782l240 782h196l-284 -1219q-22 -93 -73.5 -172t-115 -130.5t-136 -87.5t-136 -52t-115.5 -16h-168z" />
    <glyph glyph-name="Amacron" unicode="&#x100;" horiz-adv-x="1695" 
d="M457 1825l790 49l60 -158l-914 -35zM164 -2l590 1536h190l588 -1536h-289l-57 246h-672l-76 -246h-274zM573 481h551l-278 805z" />
    <glyph glyph-name="amacron" unicode="&#x101;" horiz-adv-x="1343" 
d="M256 1460l791 49l59 -157l-913 -35zM606 -29q-121 0 -215.5 43.5t-155.5 128t-80.5 209t9.5 287.5q82 456 430 504q239 34 348 -142l-4 119h145l117 -1120h-205v168q-57 -97 -159.5 -147t-229.5 -50zM582 283q68 0 122.5 13.5t90 34t61.5 51t39 58.5t20.5 63.5t9 58
t1.5 50.5q0 90 -17.5 156.5t-44.5 104.5t-67 61t-77 30t-83 7t-94 -21t-95 -64.5t-83 -121t-50 -178.5q-12 -68 -3 -124t36.5 -96t86 -61.5t147.5 -21.5z" />
    <glyph glyph-name="Abreve" unicode="&#x102;" horiz-adv-x="1695" 
d="M840 1620q-169 0 -281.5 109.5t-112.5 293.5h134q0 -66 17 -108t53.5 -63.5t79.5 -29t110 -7.5q77 0 124.5 7.5t84.5 29.5t53 63.5t16 107.5h133q0 -182 -120.5 -292.5t-290.5 -110.5zM944 1534l588 -1536h-289l-57 246h-672l-76 -246h-274l590 1536h190zM573 481h551
l-278 805z" />
    <glyph glyph-name="abreve" unicode="&#x103;" horiz-adv-x="1343" 
d="M631 1239q-169 0 -281 109.5t-112 293.5h133q0 -66 17 -108t53.5 -63.5t79.5 -29t110 -7.5q77 0 124.5 7.5t84.5 29.5t53 63.5t16 107.5h133q0 -182 -120.5 -292.5t-290.5 -110.5zM1200 0h-205v168q-57 -97 -159.5 -147t-229.5 -50q-121 0 -215.5 43.5t-155.5 128
t-80.5 209t9.5 287.5q82 456 430 504q239 34 348 -142l-4 119h145zM582 283q68 0 122.5 13.5t90 34t61.5 51t39 58.5t20.5 63.5t9 58t1.5 50.5q0 90 -17.5 156.5t-44.5 104.5t-67 61t-77 30t-83 7t-94 -21t-95 -64.5t-83 -121t-50 -178.5q-12 -68 -3 -124t36.5 -96t86 -61.5
t147.5 -21.5z" />
    <glyph glyph-name="Aogonek" unicode="&#x104;" horiz-adv-x="1228" 
d="M944 1534l588 -1536h-289l-57 246h-672l-76 -246h-151q-181 -172 -181 -242q0 -63 125 -63q41 0 113 10q9 -60 23 -143q-177 -3 -276 43.5t-99 132.5q0 115 174 262h-2l590 1536h190zM573 481h551l-278 805z" />
    <glyph glyph-name="aogonek" unicode="&#x105;" horiz-adv-x="1343" 
d="M1192 -215q15 -100 22 -143q-177 -3 -275.5 43.5t-98.5 132.5q0 108 155 245v105q-57 -97 -159.5 -147t-229.5 -50q-121 0 -215.5 43.5t-155.5 128t-80.5 209t9.5 287.5q82 456 430 504q239 34 348 -142l-4 119h145l117 -1120h-145q-101 -107 -101 -162q0 -63 125 -63
q41 0 113 10zM582 283q68 0 122.5 13.5t90 34t61.5 51t39 58.5t20.5 63.5t9 58t1.5 50.5q0 90 -17.5 156.5t-44.5 104.5t-67 61t-77 30t-83 7t-94 -21t-95 -64.5t-83 -121t-50 -178.5q-12 -68 -3 -124t36.5 -96t86 -61.5t147.5 -21.5z" />
    <glyph glyph-name="Cacute" unicode="&#x106;" horiz-adv-x="1468" 
d="M836 1929h104l-104 -315h-156zM1251 1501l-28 -196q-239 41 -338 34q-80 -5 -162 -44t-151.5 -101.5t-121 -151t-69.5 -186.5q-23 -125 7.5 -222.5t104.5 -157t178.5 -88t233.5 -23.5q61 2 113.5 11t80.5 17.5t73.5 25t68.5 23.5l4 -424q-88 -27 -290.5 -42t-329.5 -3
q-115 11 -208 61.5t-155 131.5t-99.5 189t-40.5 234t21 267q16 84 46 164t88 167.5t136 155t196.5 119.5t262.5 70q51 7 93.5 8t78.5 -3t63.5 -9.5t68.5 -13.5t75 -13z" />
    <glyph glyph-name="cacute" unicode="&#x107;" horiz-adv-x="1214" 
d="M688 1556h105l-105 -315h-156zM909 1122v-166q-102 31 -215 31q-325 -3 -325 -428q6 -78 39 -143.5t85 -108t114.5 -65.5t132 -19t132.5 35l193 -209q-130 -77 -350 -63q-158 11 -265 50.5t-170.5 112.5t-90.5 171.5t-27 238.5q0 305 116 443.5t375 144.5
q71 1 146.5 -6.5t109.5 -18.5z" />
    <glyph glyph-name="Cdotaccent" unicode="&#x10a;" horiz-adv-x="1468" 
d="M674 1659l33 227h194v-227h-227zM1251 1501l-28 -196q-239 41 -338 34q-80 -5 -162 -44t-151.5 -101.5t-121 -151t-69.5 -186.5q-23 -125 7.5 -222.5t104.5 -157t178.5 -88t233.5 -23.5q61 2 113.5 11t80.5 17.5t73.5 25t68.5 23.5l4 -424q-88 -27 -290.5 -42t-329.5 -3
q-115 11 -208 61.5t-155 131.5t-99.5 189t-40.5 234t21 267q16 84 46 164t88 167.5t136 155t196.5 119.5t262.5 70q51 7 93.5 8t78.5 -3t63.5 -9.5t68.5 -13.5t75 -13z" />
    <glyph glyph-name="cdotaccent" unicode="&#x10b;" horiz-adv-x="1214" 
d="M526 1286l33 227h195v-227h-228zM909 1122v-166q-102 31 -215 31q-325 -3 -325 -428q6 -78 39 -143.5t85 -108t114.5 -65.5t132 -19t132.5 35l193 -209q-130 -77 -350 -63q-158 11 -265 50.5t-170.5 112.5t-90.5 171.5t-27 238.5q0 305 116 443.5t375 144.5
q71 1 146.5 -6.5t109.5 -18.5z" />
    <glyph glyph-name="Ccaron" unicode="&#x10c;" horiz-adv-x="1468" 
d="M750 1595l-91 131l-272 269h111l293 -203l296 203h111l-270 -269l-80 -131h-98zM1251 1501l-28 -196q-239 41 -338 34q-80 -5 -162 -44t-151.5 -101.5t-121 -151t-69.5 -186.5q-23 -125 7.5 -222.5t104.5 -157t178.5 -88t233.5 -23.5q61 2 113.5 11t80.5 17.5t73.5 25
t68.5 23.5l4 -424q-88 -27 -290.5 -42t-329.5 -3q-115 11 -208 61.5t-155 131.5t-99.5 189t-40.5 234t21 267q16 84 46 164t88 167.5t136 155t196.5 119.5t262.5 70q51 7 93.5 8t78.5 -3t63.5 -9.5t68.5 -13.5t75 -13z" />
    <glyph glyph-name="ccaron" unicode="&#x10d;" horiz-adv-x="1214" 
d="M602 1223l-90 131l-272 268h110l293 -203l297 203h111l-271 -268l-80 -131h-98zM909 1122v-166q-102 31 -215 31q-325 -3 -325 -428q6 -78 39 -143.5t85 -108t114.5 -65.5t132 -19t132.5 35l193 -209q-130 -77 -350 -63q-158 11 -265 50.5t-170.5 112.5t-90.5 171.5
t-27 238.5q0 305 116 443.5t375 144.5q71 1 146.5 -6.5t109.5 -18.5z" />
    <glyph glyph-name="Dcaron" unicode="&#x10e;" horiz-adv-x="1583" 
d="M692 1722l-90 131l-272 269h110l293 -203l297 203h111l-271 -269l-79 -131h-99zM164 0v1538h416q168 0 306.5 -45t232 -118.5t162 -176t105 -209.5t52.5 -227q25 -185 -15.5 -325.5t-122 -221.5t-207 -131t-247.5 -67t-266 -17h-416zM377 389h244q190 0 309.5 27
t175 79.5t71 130.5t-2.5 179q-9 63 -24 116.5t-42 111.5t-69 103t-98.5 81.5t-138 56.5t-181.5 20h-244v-905z" />
    <glyph glyph-name="dcaron" unicode="&#x10f;" horiz-adv-x="1363" 
d="M981 963l35 675h184l-49 -1157l25 -485l-195 4v147q-55 -97 -143 -138t-215 -38q-244 5 -390 166t-131 422q9 160 81.5 301t190 228t249.5 94q117 6 207 -53.5t151 -165.5zM1575 1139h-195l58 436h161zM297 580q0 -275 307 -275q65 0 112.5 11t91.5 40t67.5 89t23.5 149
q0 171 -73.5 271t-215.5 100q-145 0 -229 -107.5t-84 -277.5z" />
    <glyph glyph-name="Dcroat" unicode="&#x110;" horiz-adv-x="1583" 
d="M1438 762q25 -185 -15.5 -325.5t-122 -221.5t-207 -131t-247.5 -67t-266 -17h-416v733h-191v187h191v618h416q168 0 306.5 -45t232 -118.5t162 -176t105 -209.5t52.5 -227zM621 389q190 0 309.5 27t175 79.5t71 130.5t-2.5 179q-9 63 -24 116.5t-42 111.5t-69 103
t-98.5 81.5t-138 56.5t-181.5 20h-244v-374h397v-187h-397v-344h244z" />
    <glyph glyph-name="dcroat" unicode="&#x111;" horiz-adv-x="1363" 
d="M1477 1188h-295l-31 -707l25 -485l-195 4v147q-55 -97 -143 -138t-215 -38q-244 5 -390 166t-131 422q9 160 81.5 301t190 228t249.5 94q117 6 207 -53.5t151 -165.5l12 225h-317v186h325l15 264h184l-10 -264h287v-186zM604 305q65 0 112.5 11t91.5 40t67.5 89t23.5 149
q0 171 -73.5 271t-215.5 100q-145 0 -229 -107.5t-84 -277.5q0 -275 307 -275z" />
    <glyph glyph-name="Emacron" unicode="&#x112;" horiz-adv-x="1316" 
d="M287 1905l790 49l60 -158l-914 -35zM164 0l49 1507l909 29l-43 -193l-676 -38v-406l502 23v-211l-502 -33v-369h682l68 -309h-989z" />
    <glyph glyph-name="emacron" unicode="&#x113;" horiz-adv-x="1339" 
d="M295 1497l790 49l60 -157l-914 -35zM1217 645l-887 -57q0 -299 422 -344q115 -12 201 2t204 65v-254q-201 -86 -412 -86q-269 0 -435.5 157.5t-166.5 420.5q11 280 167 459.5t405 179.5q89 -7 166.5 -41t145 -97.5t117 -166.5t73.5 -238zM356 745l656 64
q-41 259 -297 242q-151 -10 -255 -105t-104 -201z" />
    <glyph glyph-name="Ebreve" unicode="&#x114;" horiz-adv-x="1316" 
d="M670 1694q-169 0 -281.5 109.5t-112.5 293.5h134q0 -66 17 -108.5t53.5 -64t79.5 -29t110 -7.5q77 0 124.5 7.5t84.5 30t53 64t16 107.5h133q0 -182 -120.5 -292.5t-290.5 -110.5zM1085 309l68 -309h-989l49 1507l909 29l-43 -193l-676 -38v-406l502 23v-211l-502 -33
v-369h682z" />
    <glyph glyph-name="ebreve" unicode="&#x115;" horiz-adv-x="1339" 
d="M678 1286q-169 0 -281 110t-112 294h133q0 -66 17 -108.5t53.5 -64t79.5 -29t110 -7.5q77 0 124.5 7.5t84.5 30t53 64t16 107.5h134q0 -182 -121 -293t-291 -111zM752 244q115 -12 201 2t204 65v-254q-201 -86 -412 -86q-269 0 -435.5 157.5t-166.5 420.5
q11 280 167 459.5t405 179.5q89 -7 166.5 -41t145 -97.5t117 -166.5t73.5 -238l-887 -57q0 -299 422 -344zM715 1051q-151 -10 -255 -105t-104 -201l656 64q-41 259 -297 242z" />
    <glyph glyph-name="Edotaccent" unicode="&#x116;" horiz-adv-x="1316" 
d="M557 1800l33 228h194v-228h-227zM164 0l49 1507l909 29l-43 -193l-676 -38v-406l502 23v-211l-502 -33v-369h682l68 -309h-989z" />
    <glyph glyph-name="edotaccent" unicode="&#x117;" horiz-adv-x="1339" 
d="M565 1393l33 227h195v-227h-228zM1217 645l-887 -57q0 -299 422 -344q115 -12 201 2t204 65v-254q-201 -86 -412 -86q-269 0 -435.5 157.5t-166.5 420.5q11 280 167 459.5t405 179.5q89 -7 166.5 -41t145 -97.5t117 -166.5t73.5 -238zM356 745l656 64q-41 259 -297 242
q-151 -10 -255 -105t-104 -201z" />
    <glyph glyph-name="Eogonek" unicode="&#x118;" horiz-adv-x="1228" 
d="M981 -307q41 0 113 10q15 -100 22 -143q-177 -3 -276 43.5t-99 132.5q0 115 177 264h-754l49 1507l909 29l-43 -193l-676 -38v-406l502 23v-211l-502 -33v-369h682l68 -309h-115q-182 -170 -182 -244q0 -63 125 -63z" />
    <glyph glyph-name="eogonek" unicode="&#x119;" horiz-adv-x="1228" 
d="M1217 645l-887 -57q0 -299 422 -344q115 -12 201 2t204 65v-254q-201 -86 -412 -86q-269 0 -435.5 157.5t-166.5 420.5q11 280 167 459.5t405 179.5q89 -7 166.5 -41t145 -97.5t117 -166.5t73.5 -238zM356 745l656 64q-41 259 -297 242q-151 -10 -255 -105t-104 -201z
M461 -297q15 -100 22 -143q-177 -3 -275.5 43.5t-98.5 132.5q0 126 206 289q88 0 115 -2q-207 -189 -207 -267q0 -63 125 -63q41 0 113 10z" />
    <glyph glyph-name="Ecaron" unicode="&#x11a;" horiz-adv-x="1316" 
d="M633 1737l-90 131l-273 268h111l293 -203l297 203h110l-270 -268l-80 -131h-98zM164 0l49 1507l909 29l-43 -193l-676 -38v-406l502 23v-211l-502 -33v-369h682l68 -309h-989z" />
    <glyph glyph-name="ecaron" unicode="&#x11b;" horiz-adv-x="1339" 
d="M641 1329l-90 131l-272 269h110l293 -203l297 203h111l-271 -269l-80 -131h-98zM1217 645l-887 -57q0 -299 422 -344q115 -12 201 2t204 65v-254q-201 -86 -412 -86q-269 0 -435.5 157.5t-166.5 420.5q11 280 167 459.5t405 179.5q89 -7 166.5 -41t145 -97.5t117 -166.5
t73.5 -238zM356 745l656 64q-41 259 -297 242q-151 -10 -255 -105t-104 -201z" />
    <glyph glyph-name="Gbreve" unicode="&#x11e;" horiz-adv-x="1718" 
d="M883 1696q-169 0 -281.5 109.5t-112.5 293.5h134q0 -66 17 -108.5t53.5 -64t79.5 -29t110 -7.5q77 0 124.5 7.5t84.5 30t53 64t16 107.5h133q0 -182 -120.5 -292.5t-290.5 -110.5zM1554 502l-137 24l21 -424q-198 -131 -529 -131q-105 0 -191 10t-155 28.5t-123 49.5
t-94.5 67t-70.5 87.5t-49.5 104.5t-32 124.5t-19 141.5t-10.5 161q-6 147 10.5 263.5t48 197t88 139t114 93t144 56t160.5 29.5t180 13q336 14 408 -49l22 -178q-104 67 -413 61q-113 -3 -193.5 -23t-142 -61.5t-98 -111.5t-54.5 -169.5t-18 -238.5q0 -117 18.5 -198
t54 -133.5t99 -82t141 -40.5t193.5 -11q244 0 313 72l4 184l-272 47l-29 160l578 -66z" />
    <glyph glyph-name="gbreve" unicode="&#x11f;" horiz-adv-x="1349" 
d="M686 1180q-169 0 -281 109.5t-112 293.5h133q0 -66 17 -108.5t53.5 -64t79.5 -29t110 -7.5q77 0 125 7.5t85 30t53 64t16 107.5h133q0 -182 -121 -292.5t-291 -110.5zM1001 1120h185l-43 -979q-15 -344 -141.5 -510t-385.5 -166q-99 0 -209.5 25.5t-203.5 71.5l76 270
q92 -50 168.5 -73t152.5 -13q113 14 200.5 96.5t125.5 190.5l24 94q-163 -147 -327 -147q-204 0 -331.5 166t-127.5 427q0 259 126.5 416.5t332.5 157.5q58 0 108.5 -17t75.5 -34t76.5 -59.5t74.5 -59.5zM573 299q79 0 136 12t102 40.5t67.5 81.5t22.5 130q0 102 -36 187
t-108.5 138.5t-168.5 53.5q-57 0 -101 -20.5t-70.5 -53t-45 -81.5t-26.5 -96t-13 -107q-9 -116 11.5 -177t73 -84.5t156.5 -23.5z" />
    <glyph glyph-name="Gdotaccent" unicode="&#x120;" horiz-adv-x="1718" 
d="M770 1802l33 228h194v-228h-227zM909 -29q-105 0 -191 10t-155 28.5t-123 49.5t-94.5 67t-70.5 87.5t-49.5 104.5t-32 124.5t-19 141.5t-10.5 161q-6 147 10.5 263.5t48 197t88 139t114 93t144 56t160.5 29.5t180 13q336 14 408 -49l22 -178q-104 67 -413 61
q-113 -3 -193.5 -23t-142 -61.5t-98 -111.5t-54.5 -169.5t-18 -238.5q0 -117 18.5 -198t54 -133.5t99 -82t141 -40.5t193.5 -11q244 0 313 72l4 184l-272 47l-29 160l578 -66l34 -196l-137 24l21 -424q-198 -131 -529 -131z" />
    <glyph glyph-name="gdotaccent" unicode="&#x121;" horiz-adv-x="1349" 
d="M573 1286l33 227h195v-227h-228zM616 -535q-99 0 -209.5 25.5t-203.5 71.5l76 270q92 -50 168.5 -73t152.5 -13q113 14 200.5 96.5t125.5 190.5l24 94q-163 -147 -327 -147q-204 0 -331.5 166t-127.5 427q0 259 126.5 416.5t332.5 157.5q58 0 108.5 -17t75.5 -34
t76.5 -59.5t74.5 -59.5l43 143h185l-43 -979q-15 -344 -141.5 -510t-385.5 -166zM573 299q79 0 136 12t102 40.5t67.5 81.5t22.5 130q0 102 -36 187t-108.5 138.5t-168.5 53.5q-57 0 -101 -20.5t-70.5 -53t-45 -81.5t-26.5 -96t-13 -107q-9 -116 11.5 -177t73 -84.5
t156.5 -23.5z" />
    <glyph glyph-name="uni0122" unicode="&#x122;" horiz-adv-x="1718" 
d="M967 1729h-215l104 290h-31l23 195h254zM1554 502l-137 24l21 -424q-198 -131 -529 -131q-105 0 -191 10t-155 28.5t-123 49.5t-94.5 67t-70.5 87.5t-49.5 104.5t-32 124.5t-19 141.5t-10.5 161q-6 147 10.5 263.5t48 197t88 139t114 93t144 56t160.5 29.5t180 13
q336 14 408 -49l22 -178q-104 67 -413 61q-113 -3 -193.5 -23t-142 -61.5t-98 -111.5t-54.5 -169.5t-18 -238.5q0 -117 18.5 -198t54 -133.5t99 -82t141 -40.5t193.5 -11q244 0 313 72l4 184l-272 47l-29 160l578 -66z" />
    <glyph glyph-name="uni0123" unicode="&#x123;" horiz-adv-x="1349" 
d="M770 1212h-215l104 291h-30l22 195h254zM1001 1120h185l-43 -979q-15 -344 -141.5 -510t-385.5 -166q-99 0 -209.5 25.5t-203.5 71.5l76 270q92 -50 168.5 -73t152.5 -13q113 14 200.5 96.5t125.5 190.5l24 94q-163 -147 -327 -147q-204 0 -331.5 166t-127.5 427
q0 259 126.5 416.5t332.5 157.5q58 0 108.5 -17t75.5 -34t76.5 -59.5t74.5 -59.5zM573 299q79 0 136 12t102 40.5t67.5 81.5t22.5 130q0 102 -36 187t-108.5 138.5t-168.5 53.5q-57 0 -101 -20.5t-70.5 -53t-45 -81.5t-26.5 -96t-13 -107q-9 -116 11.5 -177t73 -84.5
t156.5 -23.5z" />
    <glyph glyph-name="Hbar" unicode="&#x126;" horiz-adv-x="1898" 
d="M1585 1161l-16 -186h-195l41 -975h-325l12 383h-641l14 -383h-311l26 979h-176l15 186h166l10 371h213l14 -373h694l13 373h213l16 -375h217zM1112 723l8 254h-682l11 -254h663z" />
    <glyph glyph-name="hbar" unicode="&#x127;" horiz-adv-x="1363" 
d="M1221 0h-283q29 174 44 299.5t18 232.5t-10 175t-44 116.5t-80 69t-121 20.5q-78 0 -134 -22.5t-100.5 -83.5t-64.5 -162t-16 -263t37 -382h-303l96 1335l-170 -16v133l180 16l13 170h184l-10 -151l448 43v-133l-456 -43l-23 -359q31 24 49 38t41.5 30t39 24t37 17
t39.5 12.5t43 6t51 2t60 -2.5q43 -3 75.5 -7.5t73.5 -17.5t71 -32t61.5 -52.5t52.5 -78.5t37 -110.5t21 -147.5z" />
    <glyph glyph-name="Itilde" unicode="&#x128;" horiz-adv-x="614" 
d="M86 1620h-113q12 184 49 245.5t144 61.5q37 0 69.5 -21t55 -51.5t43 -60.5t44 -51t48.5 -21q29 0 47.5 11.5t25 31.5t9.5 46.5t1.5 56t0.5 59.5h94q-1 -88 -10 -147t-21 -91t-37 -47.5t-46.5 -19t-61.5 -2.5q-41 1 -76 23t-58.5 53.5t-44 62.5t-41.5 53t-42 23
q-19 0 -33.5 -8.5t-23 -27.5t-13.5 -37t-7 -48t-2.5 -47t-0.5 -47zM164 0q29 273 34.5 616t-3.5 570t-21 350h223q-31 -741 54 -1536h-287z" />
    <glyph glyph-name="itilde" unicode="&#x129;" horiz-adv-x="577" 
d="M72 1184h-113q12 184 49 245.5t144 61.5q37 0 69.5 -21t55 -51.5t43 -60.5t44 -51t48.5 -21q29 0 47.5 11.5t25 31.5t9.5 46.5t1.5 56t0.5 59.5h94q-1 -88 -10 -147t-21 -91t-37 -47.5t-46.5 -19t-61.5 -2.5q-41 1 -76 23t-58.5 53.5t-44 62.5t-41.5 53t-42 23
q-19 0 -33.5 -8.5t-23 -27.5t-13.5 -37t-7 -48t-2.5 -47t-0.5 -47zM164 0q23 333 31 527t8 509h164q-14 -231 -4.5 -497t51.5 -539h-250z" />
    <glyph glyph-name="Imacron" unicode="&#x12a;" horiz-adv-x="614" 
d="M-98 1866l790 49l60 -158l-914 -35zM164 0q29 273 34.5 616t-3.5 570t-21 350h223q-31 -741 54 -1536h-287z" />
    <glyph glyph-name="imacron" unicode="&#x12b;" horiz-adv-x="577" 
d="M-113 1430l791 49l59 -158l-913 -35zM164 0q23 333 31 527t8 509h164q-14 -231 -4.5 -497t51.5 -539h-250z" />
    <glyph glyph-name="Iogonek" unicode="&#x12e;" horiz-adv-x="1228" 
d="M618 -295q41 0 113 10q9 -60 23 -143q-177 -3 -276 43.5t-99 132.5q0 109 162 252h-70q29 273 34.5 616t-3.5 570t-21 350h224q-31 -748 53 -1536h-94q-170 -159 -170 -231q0 -64 124 -64z" />
    <glyph glyph-name="iogonek" unicode="&#x12f;" horiz-adv-x="577" 
d="M385 1552v-227h-227l32 227h195zM266 -328q34 0 113 11q16 -107 22 -144q-177 -3 -275.5 43.5t-98.5 132.5q0 125 200 285h-63q23 333 31 527t8 509h164q-14 -231 -4.5 -497t51.5 -539h-68q-205 -187 -205 -264q0 -64 125 -64z" />
    <glyph glyph-name="Idotaccent" unicode="&#x130;" horiz-adv-x="614" 
d="M172 1761l33 228h194v-228h-227zM164 0q29 273 34.5 616t-3.5 570t-21 350h223q-31 -741 54 -1536h-287z" />
    <glyph glyph-name="dotlessi" unicode="&#x131;" horiz-adv-x="577" 
d="M164 0q23 333 31 527t8 509h164q-14 -231 -4.5 -497t51.5 -539h-250z" />
    <glyph glyph-name="uni0136" unicode="&#x136;" horiz-adv-x="1495" 
d="M752 1647h-215l104 290h-31l23 195h254zM639 715l692 -715h-477l-403 596l-25 -596h-262l133 1538h180l-26 -717l426 717h260z" />
    <glyph glyph-name="uni0137" unicode="&#x137;" horiz-adv-x="1351" 
d="M750 1731h-215l104 290h-31l23 195h254zM1188 0h-420l-381 487l23 -487h-267l86 1624h205l-47 -905l277 346h241l-354 -453z" />
    <glyph glyph-name="Lacute" unicode="&#x139;" horiz-adv-x="1288" 
d="M348 2015h105l-105 -315h-155zM164 0l74 1536h180l-41 -1239l747 33v-330h-960z" />
    <glyph glyph-name="lacute" unicode="&#x13a;" horiz-adv-x="798" 
d="M358 1972h105l-105 -315h-155zM164 0q-21 188 3 697t83 909h174q-46 -411 -63 -721t-3 -658h244l33 -227h-471z" />
    <glyph glyph-name="uni013B" unicode="&#x13b;" horiz-adv-x="1288" 
d="M383 1671h-215l104 291h-30l22 195h254zM377 297l747 33v-330h-960l74 1536h180z" />
    <glyph glyph-name="uni013C" unicode="&#x13c;" horiz-adv-x="798" 
d="M393 1628h-215l105 291h-31l22 195h254zM602 227l33 -227h-471q-21 188 3 697t83 909h174q-46 -411 -63 -721t-3 -658h244z" />
    <glyph glyph-name="Lcaron" unicode="&#x13d;" horiz-adv-x="1288" 
d="M164 0l74 1536h180l-41 -1239l747 33v-330h-960zM844 1077h-195l58 436h161z" />
    <glyph glyph-name="lcaron" unicode="&#x13e;" horiz-adv-x="798" 
d="M164 0q-21 188 3 697t83 909h174q-46 -411 -63 -721t-3 -658h244l33 -227h-471zM844 756h-195l58 436h161z" />
    <glyph glyph-name="Ldot" unicode="&#x13f;" horiz-adv-x="1288" 
d="M164 0l74 1536h180l-41 -1239l747 33v-330h-960zM653 1223l33 227h195v-227h-228z" />
    <glyph glyph-name="ldot" unicode="&#x140;" horiz-adv-x="798" 
d="M164 0q-21 188 3 697t83 909h174q-46 -411 -63 -721t-3 -658h244l33 -227h-471zM653 901l33 227h195v-227h-228z" />
    <glyph glyph-name="Lslash" unicode="&#x141;" horiz-adv-x="1288" 
d="M377 297l747 33v-330h-960l26 541l-2 -2l-204 45l215 161l39 791h180l-21 -643l469 350l117 -53l-592 -485z" />
    <glyph glyph-name="lslash" unicode="&#x142;" horiz-adv-x="798" 
d="M358 227h244l33 -227h-471q-13 101 -8 373t26 571l-170 33l178 82q21 288 60 547h174q-28 -250 -45 -461l256 119l149 -43l-417 -228q-24 -421 -9 -766z" />
    <glyph glyph-name="Nacute" unicode="&#x143;" horiz-adv-x="1550" 
d="M889 1929h104l-104 -315h-156zM164 0l119 1479h252l565 -1194l100 1249h227l-81 -1534h-357l-510 1069l19 -1069h-334z" />
    <glyph glyph-name="nacute" unicode="&#x144;" horiz-adv-x="1370" 
d="M684 1634h104l-104 -315h-156zM1161 662l45 -662h-284l22 674q5 152 -46.5 222.5t-172.5 70.5q-82 0 -140.5 -27.5t-90.5 -76t-45.5 -108.5t-10.5 -132l29 -623h-303l82 1118h135l35 -90q22 10 68.5 35.5t75.5 39t79.5 26t105.5 12.5q188 0 294.5 -126.5t121.5 -352.5z
" />
    <glyph glyph-name="uni0145" unicode="&#x145;" horiz-adv-x="1550" 
d="M1200 1534h227l-81 -1534h-357l-510 1069l19 -1069h-334l119 1479h252l565 -1194zM1286 -113l-135 -485h-215l104 291h-30l22 194h254z" />
    <glyph glyph-name="uni0146" unicode="&#x146;" horiz-adv-x="1370" 
d="M944 674q5 152 -46.5 222.5t-172.5 70.5q-82 0 -140.5 -27.5t-90.5 -76t-45.5 -108.5t-10.5 -132l29 -623h-303l82 1118h135l35 -90q22 10 68.5 35.5t75.5 39t79.5 26t105.5 12.5q188 0 294.5 -126.5t121.5 -352.5l45 -662h-284zM1206 -98l-135 -486h-215l105 291h-31
l22 195h254z" />
    <glyph glyph-name="Ncaron" unicode="&#x147;" horiz-adv-x="1550" 
d="M803 1595l-90 131l-273 269h111l293 -203l297 203h110l-270 -269l-80 -131h-98zM164 0l119 1479h252l565 -1194l100 1249h227l-81 -1534h-357l-510 1069l19 -1069h-334z" />
    <glyph glyph-name="ncaron" unicode="&#x148;" horiz-adv-x="1370" 
d="M598 1300l-90 132l-272 268h110l293 -203l297 203h111l-271 -268l-80 -132h-98zM1161 662l45 -662h-284l22 674q5 152 -46.5 222.5t-172.5 70.5q-82 0 -140.5 -27.5t-90.5 -76t-45.5 -108.5t-10.5 -132l29 -623h-303l82 1118h135l35 -90q22 10 68.5 35.5t75.5 39t79.5 26
t105.5 12.5q188 0 294.5 -126.5t121.5 -352.5z" />
    <glyph glyph-name="napostrophe" unicode="&#x149;" horiz-adv-x="1370" 
d="M438 1221l-274 -41l350 348h162zM1161 662l45 -662h-284l22 674q5 152 -46.5 222.5t-172.5 70.5q-82 0 -140.5 -27.5t-90.5 -76t-45.5 -108.5t-10.5 -132l29 -623h-303l82 1118h135l35 -90q22 10 68.5 35.5t75.5 39t79.5 26t105.5 12.5q188 0 294.5 -126.5t121.5 -352.5z
" />
    <glyph glyph-name="Eng" unicode="&#x14a;" horiz-adv-x="1550" 
d="M1427 1534l-81 -1534h-39q0 -226 -74 -285q-43 -36 -267 -52t-296 7q5 11 26 78t23 72h110q37 0 61 2.5t41 13.5t25.5 21t13 36.5t5 47t0.5 65.5q0 6 6 12l-502 1051l19 -1069h-334l119 1479h252l565 -1194l100 1249h227z" />
    <glyph glyph-name="eng" unicode="&#x14b;" horiz-adv-x="1370" 
d="M1206 0h-2q-3 -213 -63 -270q-37 -36 -227 -52t-252 7q5 16 40 149h95q24 0 41.5 1.5t31 7.5t22 10.5t14.5 19t9 23.5t5 33.5t2 40v50.5v5l22 649q5 152 -46.5 222.5t-172.5 70.5q-82 0 -140.5 -27.5t-90.5 -76t-45.5 -108.5t-10.5 -132l29 -623h-303l82 1118h135l35 -90
q22 10 68.5 35.5t75.5 39t79.5 26t105.5 12.5q188 0 294.5 -126.5t121.5 -352.5l39 -576q2 -2 2 -6v-33z" />
    <glyph glyph-name="Omacron" unicode="&#x14c;" horiz-adv-x="1710" 
d="M455 1939l790 50l60 -158l-914 -35zM856 1540q128 0 234 -27t193.5 -86.5t146 -149t89.5 -219t27 -292.5q-4 -165 -26.5 -288t-71.5 -222t-127.5 -160.5t-194 -93.5t-270.5 -31q-356 3 -524 198.5t-168 596.5q0 196 48.5 344.5t140 242.5t218 140.5t285.5 46.5zM856 1376
q-106 0 -198 -55t-152 -144t-94.5 -202t-34.5 -230q0 -91 22 -159t61.5 -112t100.5 -71t132 -38t163 -11q116 0 199 18t148 61t97.5 121t32.5 191q0 117 -34 230t-94 202t-151.5 144t-197.5 55z" />
    <glyph glyph-name="omacron" unicode="&#x14d;" horiz-adv-x="1355" 
d="M285 1497l790 49l60 -157l-914 -35zM678 -27q-247 0 -391 161.5t-144 424.5q0 271 143 429.5t392 158.5q248 0 391 -158.5t143 -429.5q0 -263 -144 -424.5t-390 -161.5zM678 279q98 0 156.5 11.5t100.5 45.5t58.5 95.5t16.5 162.5q0 204 -84 288.5t-248 84.5t-248 -84.5
t-84 -288.5q0 -101 16.5 -162.5t58.5 -95.5t100.5 -45.5t156.5 -11.5z" />
    <glyph glyph-name="Obreve" unicode="&#x14e;" horiz-adv-x="1710" 
d="M834 1712q-169 0 -281.5 110t-112.5 294h133q0 -66 17 -108.5t53.5 -64t80 -29t110.5 -7.5q77 0 124.5 7.5t84.5 30t53 64t16 107.5h133q0 -182 -120.5 -293t-290.5 -111zM856 1540q128 0 234 -27t193.5 -86.5t146 -149t89.5 -219t27 -292.5q-4 -165 -26.5 -288
t-71.5 -222t-127.5 -160.5t-194 -93.5t-270.5 -31q-356 3 -524 198.5t-168 596.5q0 196 48.5 344.5t140 242.5t218 140.5t285.5 46.5zM856 354q116 0 199 18t148 61t97.5 121t32.5 191q0 117 -34 230t-94 202t-151.5 144t-197.5 55t-198 -55t-152 -144t-94.5 -202
t-34.5 -230q0 -91 22 -159t61.5 -112t100.5 -71t132 -38t163 -11z" />
    <glyph glyph-name="obreve" unicode="&#x14f;" horiz-adv-x="1355" 
d="M668 1286q-169 0 -281.5 110t-112.5 294h134q0 -66 17 -108.5t53.5 -64t79.5 -29t110 -7.5q77 0 124.5 7.5t84.5 30t53 64t16 107.5h133q0 -182 -120.5 -293t-290.5 -111zM678 1147q248 0 391 -158.5t143 -429.5q0 -263 -144 -424.5t-390 -161.5q-247 0 -391 161.5
t-144 424.5q0 271 143 429.5t392 158.5zM678 279q98 0 156.5 11.5t100.5 45.5t58.5 95.5t16.5 162.5q0 204 -84 288.5t-248 84.5t-248 -84.5t-84 -288.5q0 -101 16.5 -162.5t58.5 -95.5t100.5 -45.5t156.5 -11.5z" />
    <glyph glyph-name="Ohungarumlaut" unicode="&#x150;" horiz-adv-x="1710" 
d="M725 1714l-274 -31l350 261h162zM1100 1714l-275 -31l351 261h161zM856 1540q128 0 234 -27t193.5 -86.5t146 -149t89.5 -219t27 -292.5q-4 -165 -26.5 -288t-71.5 -222t-127.5 -160.5t-194 -93.5t-270.5 -31q-356 3 -524 198.5t-168 596.5q0 196 48.5 344.5t140 242.5
t218 140.5t285.5 46.5zM856 1376q-106 0 -198 -55t-152 -144t-94.5 -202t-34.5 -230q0 -91 22 -159t61.5 -112t100.5 -71t132 -38t163 -11q116 0 199 18t148 61t97.5 121t32.5 191q0 117 -34 230t-94 202t-151.5 144t-197.5 55z" />
    <glyph glyph-name="ohungarumlaut" unicode="&#x151;" horiz-adv-x="1355" 
d="M555 1272l-274 -31l350 260h162zM930 1272l-275 -31l351 260h161zM678 -27q-247 0 -391 161.5t-144 424.5q0 271 143 429.5t392 158.5q248 0 391 -158.5t143 -429.5q0 -263 -144 -424.5t-390 -161.5zM678 279q98 0 156.5 11.5t100.5 45.5t58.5 95.5t16.5 162.5
q0 204 -84 288.5t-248 84.5t-248 -84.5t-84 -288.5q0 -101 16.5 -162.5t58.5 -95.5t100.5 -45.5t156.5 -11.5z" />
    <glyph glyph-name="OE" unicode="&#x152;" horiz-adv-x="2463" 
d="M2300 -23h-989l4 115q-160 -124 -459 -121q-356 3 -524 198.5t-168 596.5q0 196 48.5 344.5t140 242.5t218 140.5t285.5 46.5q325 0 500 -172l4 117l909 28l-43 -192l-676 -39v-405l502 22v-211l-502 -33v-368h682zM856 354q116 0 199 18t148 61t97.5 121t32.5 191
q0 117 -34 230t-94 202t-151.5 144t-197.5 55t-198 -55t-152 -144t-94.5 -202t-34.5 -230q0 -91 22 -159t61.5 -112t100.5 -71t132 -38t163 -11z" />
    <glyph glyph-name="oe" unicode="&#x153;" horiz-adv-x="2191" 
d="M1604 244q115 -12 201 2t204 65v-254q-201 -86 -412 -86q-157 0 -283 56t-206 159q-69 -101 -179.5 -157t-250.5 -56q-247 0 -391 161.5t-144 424.5q0 271 143 429.5t392 158.5q141 0 251.5 -54t180.5 -155q75 118 192 184t265 66q89 -7 166.5 -41t144.5 -97.5
t116.5 -166.5t73.5 -238l-856 -55v-31q0 -54 -6 -100q78 -181 398 -215zM1567 1051q-151 -10 -255 -105t-104 -201l656 64q-41 259 -297 242zM678 279q160 0 231 37t90 149q-4 54 -4 84q3 51 13 115q-14 164 -98 233.5t-232 69.5q-164 0 -248 -84.5t-84 -288.5
q0 -101 16.5 -162.5t58.5 -95.5t100.5 -45.5t156.5 -11.5z" />
    <glyph glyph-name="Racute" unicode="&#x154;" horiz-adv-x="1402" 
d="M694 1929h105l-105 -315h-155zM872 784q12 -8 43 -27.5t47 -30.5t43 -37t44.5 -54.5t37.5 -76t35 -107.5l117 -451h-369l19 426q2 53 -12.5 93t-42 64t-61.5 39t-73.5 19.5t-74 3.5t-68.5 -6l-106 -18l34 -621h-321l92 1536h365q229 0 353 -108t124 -322
q0 -145 -59 -224.5t-167 -97.5zM641 1368h-254v-455h254q112 0 202.5 62.5t90.5 130.5q0 71 -23.5 123t-65.5 81.5t-93 43.5t-111 14z" />
    <glyph glyph-name="racute" unicode="&#x155;" horiz-adv-x="1048" 
d="M492 1556h104l-104 -315h-156zM856 1124l31 -258q-76 16 -136 18.5t-101.5 -5.5t-71.5 -29t-47.5 -46t-27.5 -62.5t-13 -73t-3 -82.5q0 -12 -0.5 -60t0 -72t2.5 -79t7 -103t15 -120.5t24 -153.5h-371q59 284 76.5 511t17.5 607h191v-121q64 48 105.5 70.5t112.5 37.5
t189 21z" />
    <glyph glyph-name="uni0156" unicode="&#x156;" horiz-adv-x="1402" 
d="M729 1585h-215l104 291h-30l22 195h254zM870 0l19 426q2 53 -12.5 93t-42 64t-61.5 39t-73.5 19.5t-74 3.5t-68.5 -6l-106 -18l34 -621h-321l92 1536h365q229 0 353 -108t124 -322q0 -145 -59 -224.5t-167 -97.5q12 -8 43 -27.5t47 -30.5t43 -37t44.5 -54.5t37.5 -76
t35 -107.5l117 -451h-369zM641 913q112 0 202.5 62.5t90.5 130.5q0 71 -23.5 123t-65.5 81.5t-93 43.5t-111 14h-254v-455h254z" />
    <glyph glyph-name="uni0157" unicode="&#x157;" horiz-adv-x="1048" 
d="M526 1212h-215l105 291h-31l23 195h254zM856 1124l31 -258q-76 16 -136 18.5t-101.5 -5.5t-71.5 -29t-47.5 -46t-27.5 -62.5t-13 -73t-3 -82.5q0 -12 -0.5 -60t0 -72t2.5 -79t7 -103t15 -120.5t24 -153.5h-371q59 284 76.5 511t17.5 607h191v-121q64 48 105.5 70.5
t112.5 37.5t189 21z" />
    <glyph glyph-name="Rcaron" unicode="&#x158;" horiz-adv-x="1402" 
d="M608 1595l-90 131l-272 269h110l293 -203l297 203h111l-271 -269l-79 -131h-99zM872 784q12 -8 43 -27.5t47 -30.5t43 -37t44.5 -54.5t37.5 -76t35 -107.5l117 -451h-369l19 426q2 53 -12.5 93t-42 64t-61.5 39t-73.5 19.5t-74 3.5t-68.5 -6l-106 -18l34 -621h-321
l92 1536h365q229 0 353 -108t124 -322q0 -145 -59 -224.5t-167 -97.5zM641 1368h-254v-455h254q112 0 202.5 62.5t90.5 130.5q0 71 -23.5 123t-65.5 81.5t-93 43.5t-111 14z" />
    <glyph glyph-name="rcaron" unicode="&#x159;" horiz-adv-x="1048" 
d="M406 1223l-91 131l-272 268h111l292 -203l297 203h111l-270 -268l-80 -131h-98zM856 1124l31 -258q-76 16 -136 18.5t-101.5 -5.5t-71.5 -29t-47.5 -46t-27.5 -62.5t-13 -73t-3 -82.5q0 -12 -0.5 -60t0 -72t2.5 -79t7 -103t15 -120.5t24 -153.5h-371q59 284 76.5 511
t17.5 607h191v-121q64 48 105.5 70.5t112.5 37.5t189 21z" />
    <glyph glyph-name="Sacute" unicode="&#x15a;" horiz-adv-x="1556" 
d="M807 1929h104l-104 -315h-156zM1210 1518l-30 -215q-34 3 -81 15.5t-82.5 16.5t-148.5 0q-86 -6 -152.5 -21t-121 -41t-86 -68.5t-35.5 -100.5q-2 -26 3.5 -47.5t13 -36.5t28.5 -28.5t35.5 -21t50 -17t55 -14t67.5 -14.5q16 -3 24 -5l120 -25q118 -23 222.5 -65.5
t188 -101t132.5 -137.5t49 -167q0 -94 -46 -175t-134 -143.5t-228 -98.5t-315 -36q-27 0 -94.5 -0.5t-92.5 0t-80.5 2t-82 5.5t-71 11.5t-74 19t-64.5 28.5t-67 39l219 307q78 -59 473 -59h13q29 0 45 0.5t44.5 3t45 7.5t37.5 15.5t33 25.5t20.5 38t9.5 53q2 74 -53.5 121
t-188.5 74l-123 24q-226 44 -327 141t-101 267q0 102 29.5 184t90.5 144.5t163.5 97t240.5 34.5q263 0 426 -36z" />
    <glyph glyph-name="sacute" unicode="&#x15b;" horiz-adv-x="1288" 
d="M711 1556h104l-104 -315h-156zM1042 1124l-94 -123q-57 7 -98.5 10t-86 4.5t-61.5 2.5q-77 0 -132 -9t-86.5 -23t-49 -37.5t-22.5 -45.5t-4 -53q3 -85 315 -182q126 -39 204.5 -75.5t121 -79.5t57 -87.5t14.5 -108.5q0 -105 -28.5 -173.5t-90.5 -106t-143.5 -52
t-204.5 -14.5q-78 0 -139.5 3t-107 11.5t-74.5 14.5t-57 21.5t-39.5 22.5t-36.5 28t-35 28l201 228q92 -35 146.5 -48t145.5 -20q27 -5 62.5 -3t68 8t54.5 31t22 66q0 82 -268 136q-36 5 -72 15t-87.5 35.5t-89.5 60.5t-65.5 96t-27.5 137q0 41 7.5 77t24 75t49 70.5
t77.5 56.5t113.5 39t154.5 14q140 0 362 -50z" />
    <glyph glyph-name="Scircumflex" unicode="&#x15c;" horiz-adv-x="1556" 
d="M719 1962h98l80 -131l270 -268h-110l-297 202l-293 -202h-111l273 268zM1210 1518l-30 -215q-34 3 -81 15.5t-82.5 16.5t-148.5 0q-86 -6 -152.5 -21t-121 -41t-86 -68.5t-35.5 -100.5q-2 -26 3.5 -47.5t13 -36.5t28.5 -28.5t35.5 -21t50 -17t55 -14t67.5 -14.5
q16 -3 24 -5l120 -25q118 -23 222.5 -65.5t188 -101t132.5 -137.5t49 -167q0 -94 -46 -175t-134 -143.5t-228 -98.5t-315 -36q-27 0 -94.5 -0.5t-92.5 0t-80.5 2t-82 5.5t-71 11.5t-74 19t-64.5 28.5t-67 39l219 307q78 -59 473 -59h13q29 0 45 0.5t44.5 3t45 7.5t37.5 15.5
t33 25.5t20.5 38t9.5 53q2 74 -53.5 121t-188.5 74l-123 24q-226 44 -327 141t-101 267q0 102 29.5 184t90.5 144.5t163.5 97t240.5 34.5q263 0 426 -36z" />
    <glyph glyph-name="scircumflex" unicode="&#x15d;" horiz-adv-x="1288" 
d="M623 1589h98l80 -131l270 -268h-110l-297 203l-293 -203h-111l272 268zM1042 1124l-94 -123q-57 7 -98.5 10t-86 4.5t-61.5 2.5q-77 0 -132 -9t-86.5 -23t-49 -37.5t-22.5 -45.5t-4 -53q3 -85 315 -182q126 -39 204.5 -75.5t121 -79.5t57 -87.5t14.5 -108.5
q0 -105 -28.5 -173.5t-90.5 -106t-143.5 -52t-204.5 -14.5q-78 0 -139.5 3t-107 11.5t-74.5 14.5t-57 21.5t-39.5 22.5t-36.5 28t-35 28l201 228q92 -35 146.5 -48t145.5 -20q27 -5 62.5 -3t68 8t54.5 31t22 66q0 82 -268 136q-36 5 -72 15t-87.5 35.5t-89.5 60.5t-65.5 96
t-27.5 137q0 41 7.5 77t24 75t49 70.5t77.5 56.5t113.5 39t154.5 14q140 0 362 -50z" />
    <glyph glyph-name="Scedilla" unicode="&#x15e;" horiz-adv-x="1556" 
d="M1462 424q0 -191 -181.5 -319t-514.5 -134l-39 -108h64q33 0 65.5 -7.5t63.5 -24t46.5 -48.5t8.5 -76q-12 -75 -68.5 -117.5t-144.5 -42.5h-127l22 109q47 -10 109 -10q54 0 93.5 22.5t39.5 48.5q0 32 -12 52.5t-34.5 29t-40 11t-42.5 2.5q-35 0 -125 -11l57 170
q-90 -2 -173 -0.5t-152.5 9t-137 31.5t-126.5 65l219 307q78 -59 473 -59h13q29 0 45 0.5t44.5 3t45 7.5t37.5 15.5t33 25.5t20.5 38t9.5 53q2 74 -53.5 121t-188.5 74l-123 24q-226 44 -327 141t-101 267q0 102 29.5 184t90.5 144.5t163.5 97t240.5 34.5q263 0 426 -36
l-30 -215q-34 3 -81 15.5t-82.5 16.5t-148.5 0q-86 -6 -152.5 -21t-121 -41t-86 -68.5t-35.5 -100.5q-2 -26 3.5 -47.5t13 -36.5t28.5 -28.5t35.5 -21t50 -17t55 -14t67.5 -14.5q16 -3 24 -5l120 -25q118 -23 222.5 -65.5t188 -101t132.5 -137.5t49 -167z" />
    <glyph glyph-name="scedilla" unicode="&#x15f;" horiz-adv-x="1288" 
d="M653 -29l-41 -110h64q33 0 65.5 -7.5t63.5 -24t46.5 -48.5t8.5 -76q-12 -75 -68.5 -117.5t-144.5 -42.5h-127l23 109q47 -10 108 -10q54 0 93.5 22.5t39.5 48.5q0 32 -12 52.5t-34.5 29t-40 11t-42.5 2.5q-35 0 -125 -11l58 172q-76 2 -135.5 9t-94 13t-69.5 23t-46 23.5
t-41 30.5t-38 30l201 228q92 -35 146.5 -48t145.5 -20q27 -5 62.5 -3t68 8t54.5 31t22 66q0 82 -268 136q-36 5 -72 15t-87.5 35.5t-89.5 60.5t-65.5 96t-27.5 137q0 41 7.5 77t24 75t49 70.5t77.5 56.5t113.5 39t154.5 14q140 0 362 -50l-94 -123q-57 7 -98.5 10t-86 4.5
t-61.5 2.5q-77 0 -132 -9t-86.5 -23t-49 -37.5t-22.5 -45.5t-4 -53q3 -85 315 -182q126 -39 204.5 -75.5t121 -79.5t57 -87.5t14.5 -108.5q0 -105 -28.5 -173.5t-90.5 -106t-143.5 -52t-204.5 -14.5z" />
    <glyph glyph-name="Scaron" unicode="&#x160;" horiz-adv-x="1556" 
d="M721 1595l-90 131l-273 269h111l293 -203l297 203h110l-270 -269l-80 -131h-98zM1210 1518l-30 -215q-34 3 -81 15.5t-82.5 16.5t-148.5 0q-86 -6 -152.5 -21t-121 -41t-86 -68.5t-35.5 -100.5q-2 -26 3.5 -47.5t13 -36.5t28.5 -28.5t35.5 -21t50 -17t55 -14t67.5 -14.5
q16 -3 24 -5l120 -25q118 -23 222.5 -65.5t188 -101t132.5 -137.5t49 -167q0 -94 -46 -175t-134 -143.5t-228 -98.5t-315 -36q-27 0 -94.5 -0.5t-92.5 0t-80.5 2t-82 5.5t-71 11.5t-74 19t-64.5 28.5t-67 39l219 307q78 -59 473 -59h13q29 0 45 0.5t44.5 3t45 7.5t37.5 15.5
t33 25.5t20.5 38t9.5 53q2 74 -53.5 121t-188.5 74l-123 24q-226 44 -327 141t-101 267q0 102 29.5 184t90.5 144.5t163.5 97t240.5 34.5q263 0 426 -36z" />
    <glyph glyph-name="scaron" unicode="&#x161;" horiz-adv-x="1556" 
d="M729 1587l-90 131l-272 269h110l293 -203l297 203h111l-271 -269l-80 -131h-98zM1210 1518l-30 -215q-34 3 -81 15.5t-82.5 16.5t-148.5 0q-86 -6 -152.5 -21t-121 -41t-86 -68.5t-35.5 -100.5q-2 -26 3.5 -47.5t13 -36.5t28.5 -28.5t35.5 -21t50 -17t55 -14t67.5 -14.5
q16 -3 24 -5l120 -25q118 -23 222.5 -65.5t188 -101t132.5 -137.5t49 -167q0 -94 -46 -175t-134 -143.5t-228 -98.5t-315 -36q-27 0 -94.5 -0.5t-92.5 0t-80.5 2t-82 5.5t-71 11.5t-74 19t-64.5 28.5t-67 39l219 307q78 -59 473 -59h13q29 0 45 0.5t44.5 3t45 7.5t37.5 15.5
t33 25.5t20.5 38t9.5 53q2 74 -53.5 121t-188.5 74l-123 24q-226 44 -327 141t-101 267q0 102 29.5 184t90.5 144.5t163.5 97t240.5 34.5q263 0 426 -36z" />
    <glyph glyph-name="uni0162" unicode="&#x162;" horiz-adv-x="1591" 
d="M1427 1536v-211l-530 21l41 -1346h-125l-59 -164h63q34 0 66 -7.5t63 -23.5t46.5 -48t8.5 -76q-12 -75 -68.5 -117.5t-144.5 -42.5h-126l22 108q47 -10 109 -10q53 0 93 23t40 49q0 32 -12 52.5t-34.5 28.5t-40 10.5t-42.5 2.5q-43 0 -125 -10l76 225h-113l59 1346
l-530 -41v231h1263z" />
    <glyph glyph-name="uni0163" unicode="&#x163;" horiz-adv-x="1159" 
d="M942 4q-16 -1 -52 -1.5t-93.5 -1t-98.5 -1.5l-57 -158h64q34 0 66 -7.5t63 -23.5t46.5 -48t8.5 -76q-12 -75 -68.5 -117.5t-144.5 -42.5h-127l22 108q47 -10 109 -10q53 0 93 23t40 49q0 32 -12 52.5t-34.5 28.5t-40 10.5t-42.5 2.5q-43 0 -125 -10l74 219h-223
q-24 0 -41.5 13.5t-24.5 33t-9.5 33t-2.5 22.5q0 23 5.5 137.5t18 323.5t27.5 420h-260l59 137h211q9 128 21 266l213 123l-19 -389h310l36 -137h-352l-24 -530q-4 -99 8 -127q16 -37 83 -48q46 -7 234 -12z" />
    <glyph glyph-name="Tcaron" unicode="&#x164;" horiz-adv-x="1591" 
d="M748 1595l-91 131l-272 269h111l292 -203l297 203h111l-270 -269l-80 -131h-98zM635 0l59 1346l-530 -41v231h1263v-211l-530 21l41 -1346h-303z" />
    <glyph glyph-name="tcaron" unicode="&#x165;" horiz-adv-x="1159" 
d="M498 1552l-90 131l-273 269h111l293 -203l297 203h110l-270 -269l-80 -131h-98zM578 453q-4 -99 8 -127q16 -37 83 -48q46 -7 234 -12l39 -262q-76 -4 -532 -4q-24 0 -41.5 13.5t-24.5 33t-9.5 33t-2.5 22.5q0 23 5.5 137.5t18 323.5t27.5 420h-260l59 137h211
q9 128 21 266l213 123l-19 -389h310l36 -137h-352z" />
    <glyph glyph-name="Tbar" unicode="&#x166;" horiz-adv-x="1591" 
d="M1427 1325l-530 21l16 -506h279v-187h-274l20 -653h-303l29 653h-273v187h281l22 506l-530 -41v231h1263v-211z" />
    <glyph glyph-name="tbar" unicode="&#x167;" horiz-adv-x="1159" 
d="M578 453q-4 -99 8 -127q16 -37 83 -48q46 -7 234 -12l39 -262q-76 -4 -532 -4q-24 0 -41.5 13.5t-24.5 33t-9.5 33t-2.5 22.5q0 53 26 502h-266v187h279l12 192h-260l59 137h211q9 128 21 266l213 123l-19 -389h310l36 -137h-352l-8 -192h299v-187h-309z" />
    <glyph glyph-name="Utilde" unicode="&#x168;" horiz-adv-x="1548" 
d="M569 1681h-112q12 184 49 246t143 62q37 0 69.5 -21t55 -51.5t43 -60.5t44 -51t48.5 -21q29 0 47.5 11.5t25 31.5t9.5 46.5t1.5 56t0.5 59.5h94q-1 -63 -5.5 -111t-11.5 -81t-19.5 -55t-24.5 -34.5t-32.5 -18.5t-37.5 -7.5t-45 -0.5q-41 1 -76 23t-58.5 53.5t-44 62.5
t-41.5 53t-42 23q-19 0 -33.5 -8.5t-23 -27.5t-13.5 -37t-7 -48t-2.5 -47t-0.5 -47zM197 561l-33 975h295l-29 -770q-3 -80 0 -143t16.5 -108t25.5 -77t40.5 -52t48.5 -31t62 -16t68 -6t79 -1q47 0 70 0.5t61.5 4t56.5 11.5t46 22.5t40.5 36t29 54t22.5 75.5t9.5 100.5
t0.5 129.5l-29 770h307l-45 -975q-5 -106 -14.5 -187.5t-31.5 -141t-39.5 -100.5t-60 -67.5t-69 -41t-90.5 -21t-101 -7.5t-122 -1h-14h-13h-14h-41q-85 0 -124.5 1t-103 7.5t-91.5 21t-70 40.5t-60 67.5t-39.5 101t-30.5 141t-13 187.5z" />
    <glyph glyph-name="utilde" unicode="&#x169;" horiz-adv-x="1339" 
d="M434 1315h-112q12 184 48.5 245.5t143.5 61.5q37 0 69.5 -21t55 -51t43 -60.5t44 -51.5t48.5 -21q29 0 47.5 11.5t25 31.5t9.5 46.5t1.5 56t0.5 59.5h94q-1 -88 -10 -147t-21 -91t-37 -47.5t-46.5 -19t-61.5 -2.5q-41 1 -76 23t-58.5 53.5t-44 62.5t-41.5 53t-42 23
q-19 0 -33.5 -8.5t-23 -27.5t-13.5 -37t-7 -48t-2.5 -47t-0.5 -47zM600 -33q-100 0 -165.5 20t-115.5 72.5t-76.5 145t-35.5 237.5l-43 705h196l41 -539q10 -143 15 -168q14 -66 60 -89q47 -22 165 -21q67 1 110.5 5.5t75.5 20t48 32.5t26 56.5t12.5 75.5t4.5 105l14 522
h203l41 -1147h-224l9 172q-20 -53 -53.5 -92t-69 -60t-81 -33.5t-80.5 -16t-77 -3.5z" />
    <glyph glyph-name="Umacron" unicode="&#x16a;" horiz-adv-x="1548" 
d="M385 1927l791 49l59 -157l-913 -35zM197 561l-33 975h295l-29 -770q-3 -80 0 -143t16.5 -108t25.5 -77t40.5 -52t48.5 -31t62 -16t68 -6t79 -1q47 0 70 0.5t61.5 4t56.5 11.5t46 22.5t40.5 36t29 54t22.5 75.5t9.5 100.5t0.5 129.5l-29 770h307l-45 -975
q-5 -106 -14.5 -187.5t-31.5 -141t-39.5 -100.5t-60 -67.5t-69 -41t-90.5 -21t-101 -7.5t-122 -1h-14h-13h-14h-41q-85 0 -124.5 1t-103 7.5t-91.5 21t-70 40.5t-60 67.5t-39.5 101t-30.5 141t-13 187.5z" />
    <glyph glyph-name="umacron" unicode="&#x16b;" horiz-adv-x="1339" 
d="M250 1561l790 49l60 -158l-914 -35zM600 -33q-100 0 -165.5 20t-115.5 72.5t-76.5 145t-35.5 237.5l-43 705h196l41 -539q10 -143 15 -168q14 -66 60 -89q47 -22 165 -21q67 1 110.5 5.5t75.5 20t48 32.5t26 56.5t12.5 75.5t4.5 105l14 522h203l41 -1147h-224l9 172
q-20 -53 -53.5 -92t-69 -60t-81 -33.5t-80.5 -16t-77 -3.5z" />
    <glyph glyph-name="Uring" unicode="&#x16e;" horiz-adv-x="1548" 
d="M778 1767q-76 0 -130 57.5t-54 139.5q0 80 54 137.5t130 57.5t130.5 -57.5t54.5 -137.5q0 -82 -54 -139.5t-131 -57.5zM778 1880q27 0 41.5 2.5t31.5 12t24.5 33.5t7.5 63q0 44 -31 76t-74 32t-73.5 -32t-30.5 -76q0 -39 7.5 -63t24.5 -33.5t31 -12t41 -2.5zM197 561
l-33 975h295l-29 -770q-3 -80 0 -143t16.5 -108t25.5 -77t40.5 -52t48.5 -31t62 -16t68 -6t79 -1q47 0 70 0.5t61.5 4t56.5 11.5t46 22.5t40.5 36t29 54t22.5 75.5t9.5 100.5t0.5 129.5l-29 770h307l-45 -975q-5 -106 -14.5 -187.5t-31.5 -141t-39.5 -100.5t-60 -67.5
t-69 -41t-90.5 -21t-101 -7.5t-122 -1h-14h-13h-14h-41q-85 0 -124.5 1t-103 7.5t-91.5 21t-70 40.5t-60 67.5t-39.5 101t-30.5 141t-13 187.5z" />
    <glyph glyph-name="uring" unicode="&#x16f;" horiz-adv-x="1339" 
d="M643 1401q-77 0 -130.5 57t-53.5 139q0 80 54 137.5t130 57.5t130 -57.5t54 -137.5q0 -82 -53.5 -139t-130.5 -57zM643 1513q27 0 41.5 2.5t31.5 12t24.5 33.5t7.5 63q0 44 -31 76.5t-74 32.5t-73.5 -32.5t-30.5 -76.5q0 -39 7.5 -63t24.5 -33.5t31 -12t41 -2.5zM600 -33
q-100 0 -165.5 20t-115.5 72.5t-76.5 145t-35.5 237.5l-43 705h196l41 -539q10 -143 15 -168q14 -66 60 -89q47 -22 165 -21q67 1 110.5 5.5t75.5 20t48 32.5t26 56.5t12.5 75.5t4.5 105l14 522h203l41 -1147h-224l9 172q-20 -53 -53.5 -92t-69 -60t-81 -33.5t-80.5 -16
t-77 -3.5z" />
    <glyph glyph-name="Uhungarumlaut" unicode="&#x170;" horiz-adv-x="1548" 
d="M655 1702l-274 -31l350 260h162zM1030 1702l-274 -31l350 260h162zM197 561l-33 975h295l-29 -770q-3 -80 0 -143t16.5 -108t25.5 -77t40.5 -52t48.5 -31t62 -16t68 -6t79 -1q47 0 70 0.5t61.5 4t56.5 11.5t46 22.5t40.5 36t29 54t22.5 75.5t9.5 100.5t0.5 129.5l-29 770
h307l-45 -975q-5 -106 -14.5 -187.5t-31.5 -141t-39.5 -100.5t-60 -67.5t-69 -41t-90.5 -21t-101 -7.5t-122 -1h-14h-13h-14h-41q-85 0 -124.5 1t-103 7.5t-91.5 21t-70 40.5t-60 67.5t-39.5 101t-30.5 141t-13 187.5z" />
    <glyph glyph-name="uhungarumlaut" unicode="&#x171;" horiz-adv-x="1339" 
d="M520 1335l-274 -30l350 260h162zM895 1335l-274 -30l350 260h162zM600 -33q-100 0 -165.5 20t-115.5 72.5t-76.5 145t-35.5 237.5l-43 705h196l41 -539q10 -143 15 -168q14 -66 60 -89q47 -22 165 -21q67 1 110.5 5.5t75.5 20t48 32.5t26 56.5t12.5 75.5t4.5 105l14 522
h203l41 -1147h-224l9 172q-20 -53 -53.5 -92t-69 -60t-81 -33.5t-80.5 -16t-77 -3.5z" />
    <glyph glyph-name="Uogonek" unicode="&#x172;" horiz-adv-x="1548" 
d="M1077 1536h307l-45 -975q-9 -206 -44 -324.5t-92.5 -168t-153.5 -64.5q-168 -158 -168 -229q0 -64 125 -64q40 0 112 10q9 -60 23 -143q-177 -3 -276 43.5t-99 132.5q0 106 149 240h-145h-41q-85 0 -124.5 1t-103 7.5t-91.5 21t-70 40.5t-60 67.5t-39.5 101t-30.5 141
t-13 187.5l-33 975h295l-29 -770q-3 -80 0 -143t16.5 -108t25.5 -77t40.5 -52t48.5 -31t62 -16t68 -6t79 -1q47 0 70 0.5t61.5 4t56.5 11.5t46 22.5t40.5 36t29 54t22.5 75.5t9.5 100.5t0.5 129.5z" />
    <glyph glyph-name="uogonek" unicode="&#x173;" horiz-adv-x="1228" 
d="M1024 -307q41 0 113 10q15 -100 22 -143q-177 -3 -276 43.5t-99 132.5q0 115 177 264h-9l9 172q-20 -53 -53.5 -92t-69 -60t-81 -33.5t-80.5 -16t-77 -3.5q-100 0 -165.5 20t-115.5 72.5t-76.5 145t-35.5 237.5l-43 705h196l41 -539q10 -143 15 -168q14 -66 60 -89
q47 -22 165 -21q67 1 110.5 5.5t75.5 20t48 32.5t26 56.5t12.5 75.5t4.5 105l14 522h203l41 -1147h-95q-182 -170 -182 -244q0 -63 125 -63z" />
    <glyph glyph-name="Wcircumflex" unicode="&#x174;" horiz-adv-x="2217" 
d="M1063 1878h98l80 -131l270 -268h-110l-297 202l-293 -202h-111l273 268zM498 0l-334 1536h235l263 -1094l354 670h176l324 -690l303 1116h235l-375 -1538h-295l-274 745l-297 -745h-315z" />
    <glyph glyph-name="wcircumflex" unicode="&#x175;" horiz-adv-x="1830" 
d="M874 1669h99l80 -131l270 -268h-111l-297 203l-292 -203h-111l272 268zM457 0l-293 1120h246l168 -694l274 379h127l274 -379l168 694h246l-293 -1120h-256l-203 346l-210 -346h-248z" />
    <glyph glyph-name="Ycircumflex" unicode="&#x176;" horiz-adv-x="1564" 
d="M741 1993h99l80 -131l270 -269h-111l-297 203l-293 -203h-110l272 269zM643 537l-479 1001h217l403 -702l400 702h217l-486 -1001v-539h-374z" />
    <glyph glyph-name="ycircumflex" unicode="&#x177;" horiz-adv-x="1417" 
d="M690 1819h98l80 -131l271 -269h-111l-297 203l-293 -203h-110l272 269zM225 -528v264h129q61 0 131 28.5t125.5 79t77 118.5t-15.5 147l-508 1040h194l459 -782l240 782h196l-284 -1219q-22 -93 -73.5 -172t-115 -130.5t-136 -87.5t-136 -52t-115.5 -16h-168z" />
    <glyph glyph-name="Ydieresis" unicode="&#x178;" horiz-adv-x="1564" 
d="M391 1692l33 227h194v-227h-227zM948 1692l33 227h195v-227h-228zM643 537l-479 1001h217l403 -702l400 702h217l-486 -1001v-539h-374z" />
    <glyph glyph-name="Zacute" unicode="&#x179;" horiz-adv-x="1648" 
d="M858 1929h105l-105 -315h-156zM424 1278l727 8l-987 -1001v-285l1358 12l-97 287h-784l823 942l21 297h-1153z" />
    <glyph glyph-name="zacute" unicode="&#x17a;" horiz-adv-x="1374" 
d="M754 1577h104l-104 -315h-156zM164 0l49 268l719 682h-596v197h848l26 -184l-680 -715h543l117 -248h-1026z" />
    <glyph glyph-name="Zdotaccent" unicode="&#x17b;" horiz-adv-x="1648" 
d="M696 1659l33 227h195v-227h-228zM424 1278l727 8l-987 -1001v-285l1358 12l-97 287h-784l823 942l21 297h-1153z" />
    <glyph glyph-name="zdotaccent" unicode="&#x17c;" horiz-adv-x="1374" 
d="M592 1307l33 227h194v-227h-227zM164 0l49 268l719 682h-596v197h848l26 -184l-680 -715h543l117 -248h-1026z" />
    <glyph glyph-name="Zcaron" unicode="&#x17d;" horiz-adv-x="1648" 
d="M772 1595l-90 131l-272 269h110l293 -203l297 203h111l-271 -269l-80 -131h-98zM424 1278l727 8l-987 -1001v-285l1358 12l-97 287h-784l823 942l21 297h-1153z" />
    <glyph glyph-name="zcaron" unicode="&#x17e;" horiz-adv-x="1374" 
d="M668 1243l-90 131l-273 268h111l293 -202l297 202h110l-270 -268l-80 -131h-98zM164 0l49 268l719 682h-596v197h848l26 -184l-680 -715h543l117 -248h-1026z" />
    <glyph glyph-name="uni0181" unicode="&#x181;" horiz-adv-x="1406" 
d="M881 889q200 -33 284 -139.5t78 -331.5q-2 -76 -16 -135.5t-37 -103t-59.5 -75.5t-78.5 -52t-99.5 -31.5t-116.5 -16t-136 -4.5h-536v1229q-91 -6 -142.5 -62t-66.5 -143q-12 -74 -12 -291l-133 203v137q0 55 13.5 110t42 108t69 95.5t100 70.5t129.5 34v45h467
q226 0 349 -92t132 -256q7 -129 -56 -205t-175 -94zM367 1380v-399h299q146 0 209 44t63 140q0 215 -272 215h-299zM690 297q166 0 248 60.5t82 193.5q0 25 -3.5 46t-7 34t-15 29t-16.5 22.5t-22.5 24t-23.5 24.5q-24 26 -84 46t-158 20h-323v-500h323z" />
    <glyph glyph-name="uni0186" unicode="&#x186;" horiz-adv-x="1468" 
d="M217 1501q34 5 75 13t68.5 13.5t63.5 9.5t78.5 3t93.5 -8q144 -18 262.5 -70t196.5 -119.5t136 -155t88 -167.5t46 -164q24 -141 21 -267t-40.5 -234t-99 -189t-154.5 -131.5t-208 -61.5q-127 -12 -330 3t-291 42l4 424q23 -7 68.5 -23.5t73.5 -25t80.5 -17.5t113.5 -11
q129 -5 233.5 23.5t178.5 88t104.5 157t7.5 222.5q-24 129 -104 239.5t-186 173.5t-213 70q-99 7 -338 -34z" />
    <glyph glyph-name="uni0187" unicode="&#x187;" horiz-adv-x="1468" 
d="M1223 1702q3 64 28.5 79t122.5 13v-68q-51 0 -60 -5.5t-9 -34.5v-25v-43v-270h-76l-6 -43q-239 41 -338 34q-80 -5 -162 -44t-151.5 -101.5t-121 -151t-69.5 -186.5q-23 -125 7.5 -222.5t104.5 -157t178.5 -88t233.5 -23.5q61 2 113.5 11t80.5 17.5t73.5 25t68.5 23.5
l4 -424q-88 -27 -290.5 -42t-329.5 -3q-115 11 -208 61.5t-155 131.5t-99.5 189t-40.5 234t21 267q16 84 46 164t88 167.5t136 155t196.5 119.5t262.5 70q48 6 87 7t74 -2.5t59 -7.5t63.5 -12t65.5 -12v113v4v39q0 16 2 41z" />
    <glyph glyph-name="uni0188" unicode="&#x188;" horiz-adv-x="1214" 
d="M872 258l193 -209q-130 -77 -350 -63q-158 11 -265 50.5t-170.5 112.5t-90.5 171.5t-27 238.5q0 305 116 443.5t375 144.5q51 0 78 -2v168v2v41q0 5 1.5 16.5t2.5 22.5q2 23 7.5 37.5t21.5 25.5t34.5 16.5t58.5 9t81 4t113 -0.5v-68q-104 0 -125 -5.5t-21 -33.5v-24v-43
v-189q2 -2 4 -2v-166q-102 31 -215 31q-325 -3 -325 -428q6 -78 39 -143.5t85 -108t114.5 -65.5t132 -19t132.5 35z" />
    <glyph glyph-name="uni0189" unicode="&#x189;" horiz-adv-x="1583" 
d="M1438 762q25 -185 -15.5 -325.5t-122 -221.5t-207 -131t-247.5 -67t-266 -17h-416v713h-221v186h221v639h416q168 0 306.5 -45t232 -118.5t162 -176t105 -209.5t52.5 -227zM621 389q190 0 309.5 27t175 79.5t71 130.5t-2.5 179q-9 63 -24 116.5t-42 111.5t-69 103
t-98.5 81.5t-138 56.5t-181.5 20h-244v-395h366v-186h-366v-324h244z" />
    <glyph glyph-name="uni018A" unicode="&#x18a;" horiz-adv-x="1583" 
d="M1438 762q25 -185 -15.5 -325.5t-122 -221.5t-207 -131t-247.5 -67t-266 -17h-416v1382q0 -3 -1 -9t-1 -9q-100 0 -156.5 -57t-71.5 -148q-12 -74 -12 -291l-133 203v137q0 57 15 115t46.5 113t76.5 97.5t110.5 68.5t142.5 26q0 -18 -1 -48t-1 -42h402q168 0 306.5 -45
t232 -118.5t162 -176t105 -209.5t52.5 -227zM621 389q190 0 309.5 27t175 79.5t71 130.5t-2.5 179q-9 63 -24 116.5t-42 111.5t-69 103t-98.5 81.5t-138 56.5t-181.5 20h-244v-905h244z" />
    <glyph glyph-name="uni018E" unicode="&#x18e;" horiz-adv-x="1316" 
d="M1153 0h-989l67 309h682v369l-501 33v211l501 -23v406l-675 38l-43 193l909 -29z" />
    <glyph glyph-name="uni018F" unicode="&#x18f;" horiz-adv-x="1343" 
d="M123 428l889 23q5 148 -95 238t-313 122q-115 17 -201 6t-208 -57l10 254q199 75 416 69q269 -11 428 -174.5t149 -427.5q-15 -184 -91.5 -325t-207.5 -219t-297 -72q-89 11 -165 48.5t-140.5 103.5t-109.5 170.5t-64 240.5zM979 293l-657 -37q29 -259 286 -254
q151 4 258.5 94.5t112.5 196.5z" />
    <glyph glyph-name="uni0190" unicode="&#x190;" horiz-adv-x="1427" 
d="M733 -35q-101 0 -190.5 29t-160 85t-111 145.5t-40.5 201.5q0 146 67 230t230 108q-140 50 -202 123.5t-62 191.5q0 172 128 271.5t351 99.5q38 0 82.5 -9t96 -32.5t92.5 -58.5t68.5 -93.5t27.5 -130.5l-129 -26q1 117 -62.5 170t-154.5 53q-158 0 -259.5 -58.5
t-101.5 -170.5q0 -129 86 -183.5t242 -54.5h68l35 -154h-66q-155 1 -241.5 -61t-86.5 -162q0 -51 15.5 -94.5t47 -78.5t85.5 -55.5t125 -21.5q36 -3 70.5 0t65.5 9t53.5 26.5t35 52t10.5 85.5t-20 126l233 21q35 -103 35.5 -189.5t-25 -145t-70 -105t-95 -72.5t-106 -43
t-96 -23t-71.5 -6z" />
    <glyph glyph-name="uni0191" unicode="&#x191;" horiz-adv-x="1193" 
d="M1030 1401l-592 -35l-49 -401l547 36v-208l-537 -37l45 -746q27 -56 27 -69q0 -80 -79 -157t-205.5 -125t-256.5 -48q2 115 19 264q165 0 217 160l78 1476l786 25v-135z" />
    <glyph glyph-name="florin" unicode="&#x192;" horiz-adv-x="1542" 
d="M1434 1434q-98 0 -156 -61.5t-80 -192.5l-47 -299l272 18l15 -186l-318 -23l-63 -471q-13 -96 -28 -175t-34.5 -140t-36.5 -109t-43 -82t-44.5 -58.5t-51.5 -39.5t-53 -24t-59.5 -12.5t-60.5 -4t-66 -0.5h-17q-32 0 -81 12t-108 36.5t-117 71t-93 105.5l256 133
q103 -65 194 -65q97 0 151.5 69t88.5 234l74 508l-289 -21l-14 187l333 22l54 312q31 182 132 280t253 98q110 0 198 -36v-144q-76 58 -161 58z" />
    <glyph glyph-name="uni0193" unicode="&#x193;" horiz-adv-x="1718" 
d="M1554 502l-137 24l21 -424q-198 -131 -529 -131q-105 0 -191 10t-155 28.5t-123 49.5t-94.5 67t-70.5 87.5t-49.5 104.5t-32 124.5t-19 141.5t-10.5 161q-6 147 10.5 263.5t48 197t88 139t114 93t144 56t160.5 29.5t180 13q176 6 285 -8v252v4v55q0 24 2 57t6.5 53.5
t17.5 36.5t28 24t47 12.5t65.5 5.5t91.5 0v-97q-48 0 -67 -0.5t-33 -7.5t-15.5 -16.5t-1.5 -32.5v-35v-59v-385h-6l10 -86q-104 67 -413 61q-113 -3 -193.5 -23t-142 -61.5t-98 -111.5t-54.5 -169.5t-18 -238.5q0 -117 18.5 -198t54 -133.5t99 -82t141 -40.5t193.5 -11
q244 0 313 72l4 184l-272 47l-29 160l578 -66z" />
    <glyph glyph-name="uni0194" unicode="&#x194;" horiz-adv-x="1970" 
d="M1806 1638q-10 -13 -71.5 -90t-69.5 -88q-413 -555 -604 -835q226 -396 295 -555q101 -230 60 -335q-42 -109 -247 -135q-88 -11 -211 -10q-119 1 -210.5 11t-156.5 32t-109.5 49.5t-63.5 72t-23.5 90t16.5 114t48.5 133.5t80.5 157.5t106 178t130 203.5
q-69 115 -242.5 401t-275.5 455q-4 7 -41 67t-53 84h325q54 -78 68 -104q142 -270 369 -674q296 449 463 721q9 15 13.5 21.5t11 14t16.5 21.5h376zM950 -150q124 -3 154 39q37 52 -38 217q-48 104 -155 291q-126 -205 -160.5 -322t13.5 -169t186 -56z" />
    <glyph glyph-name="uni0196" unicode="&#x196;" horiz-adv-x="733" 
d="M410 281q6 -50 22 -79.5t38 -37.5t48 -10t51 4v-172h-274q-76 0 -103.5 60t-27.5 167v78q23 389 31 618.5t8 599.5h164q-14 -274 -4.5 -589t51.5 -639h-4z" />
    <glyph glyph-name="uni0197" unicode="&#x197;" horiz-adv-x="815" 
d="M666 813v-186h-148q16 -332 49 -627h-286q31 311 34 627h-137v186h139q0 483 -26 723h223q-15 -334 -2 -723h154z" />
    <glyph glyph-name="uni0198" unicode="&#x198;" horiz-adv-x="1495" 
d="M1372 1143v-137l-133 -203q0 217 -12 291q-15 90 -71.5 147t-156.5 57q0 7 -2 11l-358 -594l692 -715h-477l-403 596l-25 -596h-262l133 1538h180l-26 -717l426 717h104v25q75 0 139 -25h17l-4 -6q114 -48 176.5 -159.5t62.5 -229.5z" />
    <glyph glyph-name="uni0199" unicode="&#x199;" horiz-adv-x="1351" 
d="M1188 0h-420l-381 487l23 -487h-267l86 1624h21q3 32 8 55.5t15 42t21 31t31.5 21.5t39.5 13.5t52.5 7t64 3t79.5 0.5v-174q-109 0 -127 -18l-18 -336v-514l248 309h241l-354 -453z" />
    <glyph glyph-name="uni019D" unicode="&#x19d;" horiz-adv-x="1550" 
d="M1427 1534l-81 -1534h-314q2 -4 2 -10q0 -80 -79 -157t-205 -125t-256 -48q2 125 18 264q100 0 156 57t71 148q13 80 13 291l75 -80l-348 729l19 -1069h-334l119 1479h252l565 -1194l100 1249h227z" />
    <glyph glyph-name="Ohorn" unicode="&#x1a0;" horiz-adv-x="1710" 
d="M1393 1327q162 -198 153 -561q-4 -165 -26.5 -288t-71.5 -222t-127.5 -160.5t-194 -93.5t-270.5 -31q-356 3 -524 198.5t-168 596.5q0 196 48.5 344.5t140 242.5t218 140.5t285.5 46.5q302 0 473 -147q6 8 10.5 18.5t7.5 20t5.5 22.5t3.5 21.5t1.5 22t0.5 19v18v13.5
q0 24 -15 62l99 -13q10 -42 10 -65q0 -130 -59 -205zM856 354q116 0 199 18t148 61t97.5 121t32.5 191q0 117 -34 230t-94 202t-151.5 144t-197.5 55t-198 -55t-152 -144t-94.5 -202t-34.5 -230q0 -91 22 -159t61.5 -112t100.5 -71t132 -38t163 -11z" />
    <glyph glyph-name="ohorn" unicode="&#x1a1;" horiz-adv-x="1355" 
d="M1180 881l-27 -23q59 -127 59 -299q0 -263 -144 -424.5t-390 -161.5q-247 0 -391 161.5t-144 424.5q0 271 143 429.5t392 158.5q140 0 249 -52.5t177 -150.5q4 2 24 17q7 6 12.5 14t9.5 15.5t7 18.5t5 19t3.5 20t2 19t1 19t0.5 16.5v15.5v12q0 27 -14 62l98 -12
q11 -46 11 -66q0 -67 -20.5 -131t-63.5 -102zM678 279q98 0 156.5 11.5t100.5 45.5t58.5 95.5t16.5 162.5q0 204 -84 288.5t-248 84.5t-248 -84.5t-84 -288.5q0 -101 16.5 -162.5t58.5 -95.5t100.5 -45.5t156.5 -11.5z" />
    <glyph glyph-name="uni01A4" unicode="&#x1a4;" horiz-adv-x="1323" 
d="M1159 1167q20 -227 -104.5 -337.5t-384.5 -122.5l-244 -13l41 -694h-303l61 1198q-98 -1 -153 -57.5t-70 -147.5q-12 -74 -12 -291l-133 203v137q0 71 24 143t69.5 134t121 102t168.5 41l8 158h381q137 0 237.5 -33.5t161 -97t91.5 -142t40 -180.5zM690 991
q81 3 128.5 13.5t82.5 39.5t48.5 79.5t13.5 133.5q0 27 -8 55.5t-30.5 60.5t-57.5 56.5t-94.5 41t-135.5 16.5h-221v-508z" />
    <glyph glyph-name="uni01A5" unicode="&#x1a5;" horiz-adv-x="1497" 
d="M874 1133q207 -6 333 -154.5t126 -398.5q0 -124 -27 -231.5t-80.5 -194t-144 -136t-207.5 -49.5q-127 0 -222.5 51t-135.5 148l-88 -586l-264 -16l131 735v795q0 43 4 102q2 60 7.5 98t23 66.5t37 42.5t63 22.5t87 10t122.5 0.5v-174q-42 0 -64.5 -0.5t-43 -5t-28.5 -10
t-14 -19t-7 -28t-1 -42.5v-63v-15l35 -145q116 203 358 197zM911 274q140 0 194 86t48 258q-13 351 -252 351q-134 0 -233 -97.5t-99 -253.5q0 -159 96 -251.5t246 -92.5z" />
    <glyph glyph-name="uni01A9" unicode="&#x1a9;" horiz-adv-x="1226" 
d="M1063 1288h-760l485 -504v-2l3 -2v-147l-3 4l-407 -426h682v-223h-897l-2 -2v225l549 504l-547 569v4h-2v146h899v-146z" />
    <glyph glyph-name="uni01AC" unicode="&#x1ac;" horiz-adv-x="1591" 
d="M1427 1536v-211l-530 21l41 -1346h-303l59 1346l-530 -41v14q-55 -13 -88 -45.5t-43 -75.5q-13 -49 -13 -182l-120 127v86q0 84 69.5 159t194.5 97v51h1263z" />
    <glyph glyph-name="uni01AD" unicode="&#x1ad;" horiz-adv-x="1159" 
d="M578 453q-4 -99 8 -127q16 -37 83 -48q46 -7 234 -12l39 -262q-76 -4 -532 -4q-24 0 -41.5 13.5t-24.5 33t-9.5 33t-2.5 22.5q0 23 5.5 137.5t18 323.5t27.5 420h-260l59 137h211q9 128 21 266l32 19v14q0 72 24.5 144.5t71 135t124 101.5t172.5 39q-2 -115 -19 -264
q-133 0 -194 -109l-17 -346h310l36 -137h-352z" />
    <glyph glyph-name="uni01AE" unicode="&#x1ae;" horiz-adv-x="1591" 
d="M1427 1325l-530 21l41 -1332q55 -120 201 -120q16 -138 18 -265q-130 0 -256.5 48t-205.5 125t-79 157q0 15 19 53l59 1334l-530 -41v231h1263v-211z" />
    <glyph glyph-name="Uhorn" unicode="&#x1af;" horiz-adv-x="1548" 
d="M1538 1665q10 -42 10 -66q0 -67 -20.5 -131t-63.5 -102q-61 -50 -90 -66l-35 -739q-5 -106 -14.5 -187.5t-31.5 -141t-39.5 -100.5t-60 -67.5t-69 -41t-90.5 -21t-101 -7.5t-122 -1h-14h-13h-14h-41q-85 0 -124.5 1t-103 7.5t-91.5 21t-70 40.5t-60 67.5t-39.5 101
t-30.5 141t-13 187.5l-33 975h295l-29 -770q-3 -80 0 -143t16.5 -108t25.5 -77t40.5 -52t48.5 -31t62 -16t68 -6t79 -1q47 0 70 0.5t61.5 4t56.5 11.5t46 22.5t40.5 36t29 54t22.5 75.5t9.5 100.5t0.5 129.5l-29 770h307l-6 -113q28 16 35 23q7 6 12.5 14t9.5 16t7 18.5
t5 18.5t3.5 20.5t2 19t1 19t0.5 17v15.5v12q0 26 -14 61z" />
    <glyph glyph-name="uhorn" unicode="&#x1b0;" horiz-adv-x="1339" 
d="M1298 1223q11 -46 11 -66q0 -67 -20.5 -131t-63.5 -102q-11 -9 -24 -19.5t-19 -15.5t-15.5 -12t-21.5 -13l31 -864h-224l9 172q-20 -53 -53.5 -92t-69 -60t-81 -33.5t-80.5 -16t-77 -3.5q-100 0 -165.5 20t-115.5 72.5t-76.5 145t-35.5 237.5l-43 705h196l41 -539
q10 -143 15 -168q14 -66 60 -89q47 -22 165 -21q67 1 110.5 5.5t75.5 20t48 32.5t26 56.5t12.5 75.5t4.5 105l14 522h203l6 -164q18 9 33 21q8 7 14.5 18t10.5 20.5t7 24.5t4.5 24t2.5 25t1 22v21v15q0 26 -14 61z" />
    <glyph glyph-name="uni01B1" unicode="&#x1b1;" horiz-adv-x="1757" 
d="M1593 1561v-195q-149 -20 -272 -39q90 -59 118 -85q100 -89 129 -255q15 -84 15 -196q0 -353 -187.5 -564t-502.5 -211t-503.5 211t-188.5 564q0 91 12.5 166t30 122t46 90.5t49.5 64.5t53 50.5t44 42.5q-164 19 -272 39v195h201h364q0 -109 -18 -252q-62 6 -113.5 -26.5
t-84.5 -88t-56 -127t-33 -141.5t-10 -135q0 -284 130 -457.5t349 -173.5q218 0 347.5 173t129.5 458q0 104 -38.5 207t-116 185.5t-177.5 114.5q-22 171 -22 263h336q26 0 84 2t99 2t58 -4z" />
    <glyph glyph-name="uni01B2" unicode="&#x1b2;" horiz-adv-x="1548" 
d="M1362 1536h22l-45 -975q-5 -106 -14.5 -187.5t-31.5 -141t-39.5 -100.5t-60 -67.5t-69 -41t-90.5 -21t-101 -7.5t-122 -1h-14h-13h-14h-41q-85 0 -124.5 1t-103 7.5t-91.5 21t-70 40.5t-60 67.5t-39.5 101t-30.5 141t-13 187.5l-33 975h295l-29 -770q-3 -80 0 -143
t16.5 -108t25.5 -77t40.5 -52t48.5 -31t62 -16t68 -6t79 -1q47 0 70 0.5t61.5 4t56.5 11.5t46 22.5t40.5 36t29 54t22.5 75.5t9.5 100.5t0.5 129.5l-29 770h23q-88 88 -258 88q-23 152 -27 264q119 0 219 -30.5t166 -82t107 -112.5t55 -127z" />
    <glyph glyph-name="uni01B3" unicode="&#x1b3;" horiz-adv-x="1564" 
d="M1382 1501q93 -57 143 -159t50 -207v-138l-133 -202q0 216 -12 290q-11 72 -49.5 124t-104.5 71l-361 -743v-539h-374l102 539l-479 1001h217l403 -702l400 702v16q58 0 114 -16h103z" />
    <glyph glyph-name="uni01B4" unicode="&#x1b4;" horiz-adv-x="1417" 
d="M1249 1135q96 -57 147.5 -160.5t51.5 -210.5v-137l-133 -203q0 217 -12 291q-20 122 -109 176l-225 -961q-22 -93 -73.5 -172t-115 -130.5t-136 -87.5t-136 -52t-115.5 -16h-168v264h129q61 0 131 28.5t125.5 79t77 118.5t-15.5 147l-508 1040h194l459 -782l240 782v35
q92 0 164 -35h32z" />
    <glyph glyph-name="uni01B7" unicode="&#x1b7;" horiz-adv-x="1404" 
d="M756 643q119 -9 228 -73t176 -158.5t75 -192.5q10 -84 4.5 -163.5t-20.5 -149t-52.5 -128t-91 -100t-137 -65t-190.5 -23.5q-328 0 -584 252l260 213q84 -82 169 -117t153.5 -22t122.5 57t83 119.5t27 165.5q-7 79 -80.5 133.5t-192 76t-262.5 7.5v191q78 73 187 169.5
t185.5 169.5t162.5 169q-351 -3 -809 0v192q53 0 287 2t423.5 2t262.5 -4q9 -51 14.5 -86t7.5 -53.5t6.5 -63.5t8.5 -84q-66 -73 -121 -131t-86.5 -90t-100 -99.5t-116.5 -115.5z" />
    <glyph glyph-name="uni01C0" unicode="&#x1c0;" horiz-adv-x="524" 
d="M217 1434h143l-53 -1741h-143z" />
    <glyph glyph-name="uni01C1" unicode="&#x1c1;" horiz-adv-x="1116" 
d="M217 1434h143l-53 -1741h-143zM809 1434h143l-53 -1741h-143z" />
    <glyph glyph-name="uni01C2" unicode="&#x1c2;" horiz-adv-x="1243" 
d="M1020 690l59 -158l-417 -16l-25 -823h-143l24 819l-352 -14l63 143l293 18l10 314l-366 -15l63 144l308 18l10 314h143l-10 -304l340 21l59 -158l-403 -16l-8 -309z" />
    <glyph glyph-name="uni01C3" unicode="&#x1c3;" horiz-adv-x="577" 
d="M164 1536h250q-74 -477 -47 -1128h-164q0 560 -39 1128zM193 213h184l-31 -233h-123z" />
    <glyph glyph-name="uni01C4" unicode="&#x1c4;" horiz-adv-x="3231" 
d="M2359 1632l-90 131l-272 269h110l293 -203l297 203h111l-271 -269l-79 -131h-99zM164 0v1538h416q168 0 306.5 -45t232 -118.5t162 -176t105 -209.5t52.5 -227q25 -185 -15.5 -325.5t-122 -221.5t-207 -131t-247.5 -67t-266 -17h-416zM2007 1278l727 8l-987 -1001v-285
l1358 12l-96 287h-785l823 942l21 297h-1153zM377 389h244q190 0 309.5 27t175 79.5t71 130.5t-2.5 179q-9 63 -24 116.5t-42 111.5t-69 103t-98.5 81.5t-138 56.5t-181.5 20h-244v-905z" />
    <glyph glyph-name="uni01C5" unicode="&#x1c5;" horiz-adv-x="2957" 
d="M2251 1243l-90 131l-273 268h111l293 -202l297 202h110l-270 -268l-80 -131h-98zM164 0v1538h416q168 0 306.5 -45t232 -118.5t162 -176t105 -209.5t52.5 -227q25 -185 -15.5 -325.5t-122 -221.5t-207 -131t-247.5 -67t-266 -17h-416zM377 389h244q190 0 309.5 27
t175 79.5t71 130.5t-2.5 179q-9 63 -24 116.5t-42 111.5t-69 103t-98.5 81.5t-138 56.5t-181.5 20h-244v-905zM1747 0l49 268l719 682h-596v197h848l26 -184l-679 -715h542l117 -248h-1026z" />
    <glyph glyph-name="uni01C6" unicode="&#x1c6;" horiz-adv-x="1363" 
d="M981 963l35 675h184l-49 -1157l25 -485l-195 4v147q-55 -97 -143 -138t-215 -38q-244 5 -390 166t-131 422q9 160 81.5 301t190 228t249.5 94q117 6 207 -53.5t151 -165.5zM1683 1217l-90 131l-272 268h111l292 -203l297 203h111l-270 -268l-80 -131h-99zM1180 -27
l49 269l719 682h-596v196h848l26 -184l-680 -715h543l117 -248h-1026zM297 580q0 -275 307 -275q65 0 112.5 11t91.5 40t67.5 89t23.5 149q0 171 -73.5 271t-215.5 100q-145 0 -229 -107.5t-84 -277.5z" />
    <glyph glyph-name="uni01C7" unicode="&#x1c7;" horiz-adv-x="2007" 
d="M164 0l74 1536h180l-41 -1239l747 33v-330h-960zM1561 123q-2 -44 -18.5 -89t-46.5 -84.5t-80.5 -58t-112.5 -4.5l-103 23l-14 -330l135 -12q127 1 215 35t142.5 104t81.5 167.5t34 236.5l70 1425h-256z" />
    <glyph glyph-name="uni01C8" unicode="&#x1c8;" horiz-adv-x="1288" 
d="M164 0l74 1536h180l-41 -1239l747 33v-330h-960zM1421 1243l33 227h195v-227h-228zM1401 -160q7 26 12.5 60t10 93.5t7.5 115t6 166t5.5 201.5t7 265.5t8.5 317.5h195l-62 -1170q-9 -161 -35 -239.5t-81 -120.5q-53 -42 -219.5 -62.5t-299.5 3.5l95 192q34 -6 70.5 -6.5
t80.5 8t81.5 28t69.5 57.5t48 91z" />
    <glyph glyph-name="uni01C9" unicode="&#x1c9;" horiz-adv-x="970" 
d="M627 874h194l-61 -1169q-9 -161 -35.5 -239.5t-81.5 -120.5q-54 -42 -219.5 -63t-298.5 3l94 193q34 -6 70.5 -6.5t80.5 8t81.5 28t69.5 57.5t48 91q25 92 33 344h-438q-21 188 3 697t83 909h174q-46 -411 -63 -721t-3 -658h244l6 -45q1 30 19 692zM817 1286v-227h-227
l33 227h194z" />
    <glyph glyph-name="uni01CA" unicode="&#x1ca;" horiz-adv-x="2228" 
d="M1782 123q-2 -44 -18.5 -89t-46.5 -84.5t-80.5 -58t-112.5 -4.5l-103 23l-14 -330l135 -12q127 1 215 35t142.5 104t81.5 167.5t34 236.5l70 1425h-256zM164 0l119 1479h252l565 -1194l100 1249h227l-81 -1534h-357l-510 1069l19 -1069h-334z" />
    <glyph glyph-name="uni01CB" unicode="&#x1cb;" horiz-adv-x="1757" 
d="M989 0l-510 1069l19 -1069h-334l119 1479h252l565 -1194l100 1249h227l-2 -21h179v-227h-189l-69 -1286h-357zM1413 1102h195l-62 -1170q-9 -161 -35 -239.5t-81 -120.5q-53 -42 -219.5 -62.5t-299.5 3.5l95 192q34 -6 70.5 -6.5t80.5 8t81.5 28t69.5 57.5t48 91
q7 26 12.5 60t10 93.5t7.5 115t6 166t5.5 201.5t7 265.5t8.5 317.5z" />
    <glyph glyph-name="uni01CC" unicode="&#x1cc;" horiz-adv-x="1370" 
d="M1538 1296l33 228h194v-228h-227zM1161 662l45 -662h-284l22 674q5 152 -46.5 222.5t-172.5 70.5q-82 0 -140.5 -27.5t-90.5 -76t-45.5 -108.5t-10.5 -132l29 -623h-303l82 1118h135l35 -90q22 10 68.5 35.5t75.5 39t79.5 26t105.5 12.5q188 0 294.5 -126.5t121.5 -352.5
zM1518 -106q7 26 12.5 59.5t10 93.5t7.5 115.5t6 165.5t5.5 201t7 265.5t8.5 317.5h194l-61 -1169q-9 -161 -35.5 -240t-81.5 -121q-53 -42 -219 -62.5t-299 3.5l94 192q34 -6 70.5 -6.5t81 8.5t82 28t69.5 57.5t48 91.5z" />
    <glyph glyph-name="uni01CD" unicode="&#x1cd;" horiz-adv-x="1695" 
d="M803 1657l-90 131l-273 268h111l293 -203l297 203h110l-270 -268l-80 -131h-98zM164 -2l590 1536h190l588 -1536h-289l-57 246h-672l-76 -246h-274zM573 481h551l-278 805z" />
    <glyph glyph-name="uni01CE" unicode="&#x1ce;" horiz-adv-x="1343" 
d="M602 1292l-90 131l-272 269h110l293 -203l297 203h111l-271 -269l-80 -131h-98zM606 -29q-121 0 -215.5 43.5t-155.5 128t-80.5 209t9.5 287.5q82 456 430 504q239 34 348 -142l-4 119h145l117 -1120h-205v168q-57 -97 -159.5 -147t-229.5 -50zM582 283q68 0 122.5 13.5
t90 34t61.5 51t39 58.5t20.5 63.5t9 58t1.5 50.5q0 90 -17.5 156.5t-44.5 104.5t-67 61t-77 30t-83 7t-94 -21t-95 -64.5t-83 -121t-50 -178.5q-12 -68 -3 -124t36.5 -96t86 -61.5t147.5 -21.5z" />
    <glyph glyph-name="uni01CF" unicode="&#x1cf;" horiz-adv-x="614" 
d="M248 1698l-90 131l-273 268h111l293 -203l297 203h110l-270 -268l-80 -131h-98zM164 0q29 273 34.5 616t-3.5 570t-21 350h223q-31 -741 54 -1536h-287z" />
    <glyph glyph-name="uni01D0" unicode="&#x1d0;" horiz-adv-x="577" 
d="M233 1262l-90 131l-272 268h111l292 -203l297 203h111l-270 -268l-80 -131h-99zM164 0q23 333 31 527t8 509h164q-14 -231 -4.5 -497t51.5 -539h-250z" />
    <glyph glyph-name="uni01D1" unicode="&#x1d1;" horiz-adv-x="1710" 
d="M801 1772l-90 131l-273 268h111l293 -203l297 203h110l-270 -268l-80 -131h-98zM856 1540q128 0 234 -27t193.5 -86.5t146 -149t89.5 -219t27 -292.5q-4 -165 -26.5 -288t-71.5 -222t-127.5 -160.5t-194 -93.5t-270.5 -31q-356 3 -524 198.5t-168 596.5q0 196 48.5 344.5
t140 242.5t218 140.5t285.5 46.5zM856 1376q-106 0 -198 -55t-152 -144t-94.5 -202t-34.5 -230q0 -91 22 -159t61.5 -112t100.5 -71t132 -38t163 -11q116 0 199 18t148 61t97.5 121t32.5 191q0 117 -34 230t-94 202t-151.5 144t-197.5 55z" />
    <glyph glyph-name="uni01D2" unicode="&#x1d2;" horiz-adv-x="1355" 
d="M631 1329l-90 131l-273 269h111l293 -203l297 203h110l-270 -269l-80 -131h-98zM678 -27q-247 0 -391 161.5t-144 424.5q0 271 143 429.5t392 158.5q248 0 391 -158.5t143 -429.5q0 -263 -144 -424.5t-390 -161.5zM678 279q98 0 156.5 11.5t100.5 45.5t58.5 95.5
t16.5 162.5q0 204 -84 288.5t-248 84.5t-248 -84.5t-84 -288.5q0 -101 16.5 -162.5t58.5 -95.5t100.5 -45.5t156.5 -11.5z" />
    <glyph glyph-name="uni01D3" unicode="&#x1d3;" horiz-adv-x="1548" 
d="M731 1759l-90 131l-272 269h110l293 -203l297 203h111l-271 -269l-80 -131h-98zM197 561l-33 975h295l-29 -770q-3 -80 0 -143t16.5 -108t25.5 -77t40.5 -52t48.5 -31t62 -16t68 -6t79 -1q47 0 70 0.5t61.5 4t56.5 11.5t46 22.5t40.5 36t29 54t22.5 75.5t9.5 100.5
t0.5 129.5l-29 770h307l-45 -975q-5 -106 -14.5 -187.5t-31.5 -141t-39.5 -100.5t-60 -67.5t-69 -41t-90.5 -21t-101 -7.5t-122 -1h-14h-13h-14h-41q-85 0 -124.5 1t-103 7.5t-91.5 21t-70 40.5t-60 67.5t-39.5 101t-30.5 141t-13 187.5z" />
    <glyph glyph-name="uni01D4" unicode="&#x1d4;" horiz-adv-x="1339" 
d="M596 1393l-90 131l-273 268h111l293 -203l297 203h110l-270 -268l-80 -131h-98zM600 -33q-100 0 -165.5 20t-115.5 72.5t-76.5 145t-35.5 237.5l-43 705h196l41 -539q10 -143 15 -168q14 -66 60 -89q47 -22 165 -21q67 1 110.5 5.5t75.5 20t48 32.5t26 56.5t12.5 75.5
t4.5 105l14 522h203l41 -1147h-224l9 172q-20 -53 -53.5 -92t-69 -60t-81 -33.5t-80.5 -16t-77 -3.5z" />
    <glyph glyph-name="uni01D5" unicode="&#x1d5;" horiz-adv-x="1548" 
d="M389 2116l791 49l59 -158l-913 -35zM387 1597l33 228h194v-228h-227zM944 1597l33 228h194v-228h-227zM197 561l-33 975h295l-29 -770q-3 -80 0 -143t16.5 -108t25.5 -77t40.5 -52t48.5 -31t62 -16t68 -6t79 -1q47 0 70 0.5t61.5 4t56.5 11.5t46 22.5t40.5 36t29 54
t22.5 75.5t9.5 100.5t0.5 129.5l-29 770h307l-45 -975q-5 -106 -14.5 -187.5t-31.5 -141t-39.5 -100.5t-60 -67.5t-69 -41t-90.5 -21t-101 -7.5t-122 -1h-14h-13h-14h-41q-85 0 -124.5 1t-103 7.5t-91.5 21t-70 40.5t-60 67.5t-39.5 101t-30.5 141t-13 187.5z" />
    <glyph glyph-name="uni01D6" unicode="&#x1d6;" horiz-adv-x="1339" 
d="M254 1749l790 49l60 -158l-914 -34zM252 1231l33 227h194v-227h-227zM809 1231l33 227h194v-227h-227zM600 -33q-100 0 -165.5 20t-115.5 72.5t-76.5 145t-35.5 237.5l-43 705h196l41 -539q10 -143 15 -168q14 -66 60 -89q47 -22 165 -21q67 1 110.5 5.5t75.5 20t48 32.5
t26 56.5t12.5 75.5t4.5 105l14 522h203l41 -1147h-224l9 172q-20 -53 -53.5 -92t-69 -60t-81 -33.5t-80.5 -16t-77 -3.5z" />
    <glyph glyph-name="uni01D7" unicode="&#x1d7;" horiz-adv-x="1548" 
d="M821 2281h105l-105 -315h-155zM387 1597l33 228h194v-228h-227zM944 1597l33 228h194v-228h-227zM197 561l-33 975h295l-29 -770q-3 -80 0 -143t16.5 -108t25.5 -77t40.5 -52t48.5 -31t62 -16t68 -6t79 -1q47 0 70 0.5t61.5 4t56.5 11.5t46 22.5t40.5 36t29 54t22.5 75.5
t9.5 100.5t0.5 129.5l-29 770h307l-45 -975q-5 -106 -14.5 -187.5t-31.5 -141t-39.5 -100.5t-60 -67.5t-69 -41t-90.5 -21t-101 -7.5t-122 -1h-14h-13h-14h-41q-85 0 -124.5 1t-103 7.5t-91.5 21t-70 40.5t-60 67.5t-39.5 101t-30.5 141t-13 187.5z" />
    <glyph glyph-name="uni01D8" unicode="&#x1d8;" horiz-adv-x="1339" 
d="M686 1915h105l-105 -316h-156zM252 1231l33 227h194v-227h-227zM809 1231l33 227h194v-227h-227zM600 -33q-100 0 -165.5 20t-115.5 72.5t-76.5 145t-35.5 237.5l-43 705h196l41 -539q10 -143 15 -168q14 -66 60 -89q47 -22 165 -21q67 1 110.5 5.5t75.5 20t48 32.5
t26 56.5t12.5 75.5t4.5 105l14 522h203l41 -1147h-224l9 172q-20 -53 -53.5 -92t-69 -60t-81 -33.5t-80.5 -16t-77 -3.5z" />
    <glyph glyph-name="uni01D9" unicode="&#x1d9;" horiz-adv-x="1548" 
d="M735 1948l-90 131l-272 268h110l293 -203l297 203h111l-271 -268l-79 -131h-99zM387 1597l33 228h194v-228h-227zM944 1597l33 228h194v-228h-227zM197 561l-33 975h295l-29 -770q-3 -80 0 -143t16.5 -108t25.5 -77t40.5 -52t48.5 -31t62 -16t68 -6t79 -1q47 0 70 0.5
t61.5 4t56.5 11.5t46 22.5t40.5 36t29 54t22.5 75.5t9.5 100.5t0.5 129.5l-29 770h307l-45 -975q-5 -106 -14.5 -187.5t-31.5 -141t-39.5 -100.5t-60 -67.5t-69 -41t-90.5 -21t-101 -7.5t-122 -1h-14h-13h-14h-41q-85 0 -124.5 1t-103 7.5t-91.5 21t-70 40.5t-60 67.5
t-39.5 101t-30.5 141t-13 187.5z" />
    <glyph glyph-name="uni01DA" unicode="&#x1da;" horiz-adv-x="1339" 
d="M600 1581l-90 131l-272 268h110l293 -202l297 202h111l-271 -268l-80 -131h-98zM252 1231l33 227h194v-227h-227zM809 1231l33 227h194v-227h-227zM600 -33q-100 0 -165.5 20t-115.5 72.5t-76.5 145t-35.5 237.5l-43 705h196l41 -539q10 -143 15 -168q14 -66 60 -89
q47 -22 165 -21q67 1 110.5 5.5t75.5 20t48 32.5t26 56.5t12.5 75.5t4.5 105l14 522h203l41 -1147h-224l9 172q-20 -53 -53.5 -92t-69 -60t-81 -33.5t-80.5 -16t-77 -3.5z" />
    <glyph glyph-name="uni01DB" unicode="&#x1db;" horiz-adv-x="1548" 
d="M721 1876l-238 229h162l350 -260zM387 1597l33 228h194v-228h-227zM944 1597l33 228h194v-228h-227zM197 561l-33 975h295l-29 -770q-3 -80 0 -143t16.5 -108t25.5 -77t40.5 -52t48.5 -31t62 -16t68 -6t79 -1q47 0 70 0.5t61.5 4t56.5 11.5t46 22.5t40.5 36t29 54
t22.5 75.5t9.5 100.5t0.5 129.5l-29 770h307l-45 -975q-5 -106 -14.5 -187.5t-31.5 -141t-39.5 -100.5t-60 -67.5t-69 -41t-90.5 -21t-101 -7.5t-122 -1h-14h-13h-14h-41q-85 0 -124.5 1t-103 7.5t-91.5 21t-70 40.5t-60 67.5t-39.5 101t-30.5 141t-13 187.5z" />
    <glyph glyph-name="uni01DC" unicode="&#x1dc;" horiz-adv-x="1339" 
d="M586 1509l-238 230h162l350 -260zM252 1231l33 227h194v-227h-227zM809 1231l33 227h194v-227h-227zM600 -33q-100 0 -165.5 20t-115.5 72.5t-76.5 145t-35.5 237.5l-43 705h196l41 -539q10 -143 15 -168q14 -66 60 -89q47 -22 165 -21q67 1 110.5 5.5t75.5 20t48 32.5
t26 56.5t12.5 75.5t4.5 105l14 522h203l41 -1147h-224l9 172q-20 -53 -53.5 -92t-69 -60t-81 -33.5t-80.5 -16t-77 -3.5z" />
    <glyph glyph-name="uni01DD" unicode="&#x1dd;" horiz-adv-x="1339" 
d="M123 449l887 55q0 299 -420 344q-114 13 -201 -1t-207 -65l2 254q203 87 412 84q269 0 435 -158t165 -421q-12 -280 -168 -458.5t-405 -178.5q-89 8 -166.5 42.5t-145 98t-116.5 166.5t-72 238zM983 346l-657 -61q41 -258 297 -244q150 10 254 104t106 201z" />
    <glyph glyph-name="uni01DE" unicode="&#x1de;" horiz-adv-x="1695" 
d="M461 2013l790 49l60 -157l-914 -35zM459 1495l33 227h194v-227h-227zM1016 1495l33 227h194v-227h-227zM164 -2l590 1536h190l588 -1536h-289l-57 246h-672l-76 -246h-274zM573 481h551l-278 805z" />
    <glyph glyph-name="uni01DF" unicode="&#x1df;" horiz-adv-x="1343" 
d="M260 1649l791 49l59 -158l-913 -35zM258 1130l33 228h194v-228h-227zM815 1130l33 228h194v-228h-227zM606 -29q-121 0 -215.5 43.5t-155.5 128t-80.5 209t9.5 287.5q82 456 430 504q239 34 348 -142l-4 119h145l117 -1120h-205v168q-57 -97 -159.5 -147t-229.5 -50z
M582 283q68 0 122.5 13.5t90 34t61.5 51t39 58.5t20.5 63.5t9 58t1.5 50.5q0 90 -17.5 156.5t-44.5 104.5t-67 61t-77 30t-83 7t-94 -21t-95 -64.5t-83 -121t-50 -178.5q-12 -68 -3 -124t36.5 -96t86 -61.5t147.5 -21.5z" />
    <glyph glyph-name="Gcaron" unicode="&#x1e6;" horiz-adv-x="1718" 
d="M846 1739l-90 131l-273 268h111l293 -203l297 203h110l-270 -268l-80 -131h-98zM909 -29q-105 0 -191 10t-155 28.5t-123 49.5t-94.5 67t-70.5 87.5t-49.5 104.5t-32 124.5t-19 141.5t-10.5 161q-6 147 10.5 263.5t48 197t88 139t114 93t144 56t160.5 29.5t180 13
q336 14 408 -49l22 -178q-104 67 -413 61q-113 -3 -193.5 -23t-142 -61.5t-98 -111.5t-54.5 -169.5t-18 -238.5q0 -117 18.5 -198t54 -133.5t99 -82t141 -40.5t193.5 -11q244 0 313 72l4 184l-272 47l-29 160l578 -66l34 -196l-137 24l21 -424q-198 -131 -529 -131z" />
    <glyph glyph-name="gcaron" unicode="&#x1e7;" horiz-adv-x="1349" 
d="M649 1223l-90 131l-272 268h110l293 -203l297 203h111l-271 -268l-79 -131h-99zM616 -535q-99 0 -209.5 25.5t-203.5 71.5l76 270q92 -50 168.5 -73t152.5 -13q113 14 200.5 96.5t125.5 190.5l24 94q-163 -147 -327 -147q-204 0 -331.5 166t-127.5 427q0 259 126.5 416.5
t332.5 157.5q58 0 108.5 -17t75.5 -34t76.5 -59.5t74.5 -59.5l43 143h185l-43 -979q-15 -344 -141.5 -510t-385.5 -166zM573 299q79 0 136 12t102 40.5t67.5 81.5t22.5 130q0 102 -36 187t-108.5 138.5t-168.5 53.5q-57 0 -101 -20.5t-70.5 -53t-45 -81.5t-26.5 -96
t-13 -107q-9 -116 11.5 -177t73 -84.5t156.5 -23.5z" />
    <glyph glyph-name="uni01E9" unicode="&#x1e9;" horiz-adv-x="1351" 
d="M629 1741l-90 131l-273 268h111l293 -203l297 203h110l-270 -268l-80 -131h-98zM143 0l86 1624h205l-47 -905l277 346h241l-354 -453l637 -612h-420l-381 487l23 -487h-267z" />
    <glyph glyph-name="uni01EE" unicode="&#x1ee;" horiz-adv-x="1404" 
d="M643 1522l-90 131l-272 268h110l293 -203l297 203h111l-271 -268l-80 -131h-98zM756 643q119 -9 228 -73t176 -158.5t75 -192.5q10 -84 4.5 -163.5t-20.5 -149t-52.5 -128t-91 -100t-137 -65t-190.5 -23.5q-328 0 -584 252l260 213q84 -82 169 -117t153.5 -22t122.5 57
t83 119.5t27 165.5q-7 79 -80.5 133.5t-192 76t-262.5 7.5v191q78 73 187 169.5t185.5 169.5t162.5 169q-351 -3 -809 0v192q53 0 287 2t423.5 2t262.5 -4q9 -51 14.5 -86t7.5 -53.5t6.5 -63.5t8.5 -84q-66 -73 -121 -131t-86.5 -90t-100 -99.5t-116.5 -115.5z" />
    <glyph glyph-name="uni01EF" unicode="&#x1ef;" horiz-adv-x="1404" 
d="M643 1522l-90 131l-272 268h110l293 -203l297 203h111l-271 -268l-80 -131h-98zM756 643q119 -9 228 -73t176 -158.5t75 -192.5q10 -84 4.5 -163.5t-20.5 -149t-52.5 -128t-91 -100t-137 -65t-190.5 -23.5q-328 0 -584 252l260 213q84 -82 169 -117t153.5 -22t122.5 57
t83 119.5t27 165.5q-7 79 -80.5 133.5t-192 76t-262.5 7.5v191q78 73 187 169.5t185.5 169.5t162.5 169q-351 -3 -809 0v192q53 0 287 2t423.5 2t262.5 -4q9 -51 14.5 -86t7.5 -53.5t6.5 -63.5t8.5 -84q-66 -73 -121 -131t-86.5 -90t-100 -99.5t-116.5 -115.5z" />
    <glyph glyph-name="uni01F1" unicode="&#x1f1;" horiz-adv-x="3231" 
d="M164 0v1538h416q168 0 306.5 -45t232 -118.5t162 -176t105 -209.5t52.5 -227q25 -185 -15.5 -325.5t-122 -221.5t-207 -131t-247.5 -67t-266 -17h-416zM2007 1278l727 8l-987 -1001v-285l1358 12l-96 287h-785l823 942l21 297h-1153zM377 389h244q190 0 309.5 27
t175 79.5t71 130.5t-2.5 179q-9 63 -24 116.5t-42 111.5t-69 103t-98.5 81.5t-138 56.5t-181.5 20h-244v-905z" />
    <glyph glyph-name="uni01F2" unicode="&#x1f2;" horiz-adv-x="2916" 
d="M164 0v1538h416q168 0 306.5 -45t232 -118.5t162 -176t105 -209.5t52.5 -227q25 -185 -15.5 -325.5t-122 -221.5t-207 -131t-247.5 -67t-266 -17h-416zM377 389h244q190 0 309.5 27t175 79.5t71 130.5t-2.5 179q-9 63 -24 116.5t-42 111.5t-69 103t-98.5 81.5t-138 56.5
t-181.5 20h-244v-905zM1706 0l49 268l719 682h-596v197h848l27 -184l-680 -715h542l117 -248h-1026z" />
    <glyph glyph-name="uni01F3" unicode="&#x1f3;" horiz-adv-x="1363" 
d="M981 963l35 675h184l-49 -1157l25 -485l-195 4v147q-55 -97 -143 -138t-215 -38q-244 5 -390 166t-131 422q9 160 81.5 301t190 228t249.5 94q117 6 207 -53.5t151 -165.5zM1180 -27l49 269l719 682h-596v196h848l26 -184l-680 -715h543l117 -248h-1026zM297 580
q0 -275 307 -275q65 0 112.5 11t91.5 40t67.5 89t23.5 149q0 171 -73.5 271t-215.5 100q-145 0 -229 -107.5t-84 -277.5z" />
    <glyph glyph-name="uni01F4" unicode="&#x1f4;" horiz-adv-x="1718" 
d="M932 2073h104l-104 -316h-156zM909 -29q-105 0 -191 10t-155 28.5t-123 49.5t-94.5 67t-70.5 87.5t-49.5 104.5t-32 124.5t-19 141.5t-10.5 161q-6 147 10.5 263.5t48 197t88 139t114 93t144 56t160.5 29.5t180 13q336 14 408 -49l22 -178q-104 67 -413 61
q-113 -3 -193.5 -23t-142 -61.5t-98 -111.5t-54.5 -169.5t-18 -238.5q0 -117 18.5 -198t54 -133.5t99 -82t141 -40.5t193.5 -11q244 0 313 72l4 184l-272 47l-29 160l578 -66l34 -196l-137 24l21 -424q-198 -131 -529 -131z" />
    <glyph glyph-name="uni01F5" unicode="&#x1f5;" horiz-adv-x="1349" 
d="M735 1556h105l-105 -315h-155zM616 -535q-99 0 -209.5 25.5t-203.5 71.5l76 270q92 -50 168.5 -73t152.5 -13q113 14 200.5 96.5t125.5 190.5l24 94q-163 -147 -327 -147q-204 0 -331.5 166t-127.5 427q0 259 126.5 416.5t332.5 157.5q58 0 108.5 -17t75.5 -34
t76.5 -59.5t74.5 -59.5l43 143h185l-43 -979q-15 -344 -141.5 -510t-385.5 -166zM573 299q79 0 136 12t102 40.5t67.5 81.5t22.5 130q0 102 -36 187t-108.5 138.5t-168.5 53.5q-57 0 -101 -20.5t-70.5 -53t-45 -81.5t-26.5 -96t-13 -107q-9 -116 11.5 -177t73 -84.5
t156.5 -23.5z" />
    <glyph glyph-name="uni01F8" unicode="&#x1f8;" horiz-adv-x="1550" 
d="M788 1524l-237 229h162l350 -260zM164 0l119 1479h252l565 -1194l100 1249h227l-81 -1534h-357l-510 1069l19 -1069h-334z" />
    <glyph glyph-name="uni01F9" unicode="&#x1f9;" horiz-adv-x="1370" 
d="M584 1229l-238 229h162l350 -260zM1161 662l45 -662h-284l22 674q5 152 -46.5 222.5t-172.5 70.5q-82 0 -140.5 -27.5t-90.5 -76t-45.5 -108.5t-10.5 -132l29 -623h-303l82 1118h135l35 -90q22 10 68.5 35.5t75.5 39t79.5 26t105.5 12.5q188 0 294.5 -126.5t121.5 -352.5
z" />
    <glyph glyph-name="Oslashacute" unicode="&#x1fe;" horiz-adv-x="1689" 
d="M991 2105l-104 -315h-156l156 315h104zM1614 1731l-238 -383q179 -198 170 -582q-4 -165 -26.5 -288t-71.5 -222t-127.5 -160.5t-194 -93.5t-270.5 -31q-175 0 -303 49l-35 -57l-444 -160l252 373q-162 191 -162 590q0 196 48.5 344.5t140 242.5t218 140.5t285.5 46.5
q206 0 346 -67l139 204zM377 745q0 -217 125 -309l583 864q-107 76 -229 76q-106 0 -198 -55t-152 -144t-94.5 -202t-34.5 -230zM1333 745q0 210 -96 379l-475 -766q31 -4 94 -4q116 0 199 18t148 61t97.5 121t32.5 191z" />
    <glyph glyph-name="oslashacute" unicode="&#x1ff;" horiz-adv-x="1355" 
d="M821 1663l-104 -315h-156l156 315h104zM893 1110q153 -60 236 -203t83 -348q0 -263 -144 -424.5t-390 -161.5q-41 0 -88 7l-19 -66l-290 -213l108 348q-118 73 -182 205.5t-64 304.5q0 271 143 429.5t392 158.5q35 0 51 -2l76 241l188 97zM346 594q0 -127 28.5 -194
t94.5 -95l205 662q-79 -1 -137.5 -20t-102.5 -61t-66 -115t-22 -177zM678 279q98 0 156.5 11.5t100.5 45.5t58.5 95.5t16.5 162.5q0 270 -164 344l-176 -659h8z" />
    <glyph glyph-name="uni0218" unicode="&#x218;" horiz-adv-x="1556" 
d="M842 1585h-215l104 291h-31l23 195h254zM870 895q118 -23 222.5 -65.5t188 -101t132.5 -137.5t49 -167q0 -94 -46 -175t-134 -143.5t-228 -98.5t-315 -36q-27 0 -94.5 -0.5t-92.5 0t-80.5 2t-82 5.5t-71 11.5t-74 19t-64.5 28.5t-67 39l219 307q78 -59 473 -59h13
q29 0 45 0.5t44.5 3t45 7.5t37.5 15.5t33 25.5t20.5 38t9.5 53q2 74 -53.5 121t-188.5 74l-123 24q-226 44 -327 141t-101 267q0 102 29.5 184t90.5 144.5t163.5 97t240.5 34.5q263 0 426 -36l-30 -215q-34 3 -81 15.5t-82.5 16.5t-148.5 0q-86 -6 -152.5 -21t-121 -41
t-86 -68.5t-35.5 -100.5q-2 -26 3.5 -47.5t13 -36.5t28.5 -28.5t35.5 -21t50 -17t55 -14t67.5 -14.5q16 -3 24 -5z" />
    <glyph glyph-name="uni0219" unicode="&#x219;" horiz-adv-x="1288" 
d="M745 1212h-215l105 291h-31l23 195h254zM723 668q126 -39 204.5 -75.5t121 -79.5t57 -87.5t14.5 -108.5q0 -105 -28.5 -173.5t-90.5 -106t-143.5 -52t-204.5 -14.5q-78 0 -139.5 3t-107 11.5t-74.5 14.5t-57 21.5t-39.5 22.5t-36.5 28t-35 28l201 228q92 -35 146.5 -48
t145.5 -20q27 -5 62.5 -3t68 8t54.5 31t22 66q0 82 -268 136q-36 5 -72 15t-87.5 35.5t-89.5 60.5t-65.5 96t-27.5 137q0 41 7.5 77t24 75t49 70.5t77.5 56.5t113.5 39t154.5 14q140 0 362 -50l-94 -123q-57 7 -98.5 10t-86 4.5t-61.5 2.5q-77 0 -132 -9t-86.5 -23
t-49 -37.5t-22.5 -45.5t-4 -53q3 -85 315 -182z" />
    <glyph glyph-name="uni021A" unicode="&#x21a;" horiz-adv-x="1591" 
d="M868 1585h-215l105 291h-31l23 195h254zM1427 1536v-211l-530 21l41 -1346h-303l59 1346l-530 -41v231h1263z" />
    <glyph glyph-name="uni021B" unicode="&#x21b;" horiz-adv-x="1159" 
d="M618 1542h-215l105 291h-31l23 195h254zM578 453q-4 -99 8 -127q16 -37 83 -48q46 -7 234 -12l39 -262q-76 -4 -532 -4q-24 0 -41.5 13.5t-24.5 33t-9.5 33t-2.5 22.5q0 23 5.5 137.5t18 323.5t27.5 420h-260l59 137h211q9 128 21 266l213 123l-19 -389h310l36 -137h-352
z" />
    <glyph glyph-name="uni0228" unicode="&#x228;" horiz-adv-x="1316" 
d="M700 -164q26 0 52 -4t53 -15t46.5 -28t29.5 -45t4 -63q-12 -75 -68.5 -117.5t-144.5 -42.5h-127l22 108q47 -10 109 -10q53 0 93 23t40 49q0 32 -12 52.5t-34.5 28.5t-40 10.5t-42.5 2.5q-43 0 -125 -10l76 225h-467l49 1507l909 29l-43 -193l-676 -38v-406l502 23v-211
l-502 -33v-369h682l68 -309h-457l-59 -164h63z" />
    <glyph glyph-name="uni0229" unicode="&#x229;" horiz-adv-x="1339" 
d="M752 244q115 -12 201 2t204 65v-254q-201 -86 -412 -86q-33 0 -49 2l-49 -137h64q34 0 66 -7.5t63 -23.5t46.5 -48t8.5 -76q-12 -75 -68.5 -117.5t-144.5 -42.5h-127l23 108q47 -10 108 -10q53 0 93 23t40 49q0 32 -12 52.5t-34.5 28.5t-40 10.5t-42.5 2.5
q-43 0 -125 -10l70 205q-225 31 -358.5 183t-133.5 386q11 280 167 459.5t405 179.5q89 -7 166.5 -41t145 -97.5t117 -166.5t73.5 -238l-887 -57q0 -299 422 -344zM715 1051q-151 -10 -255 -105t-104 -201l656 64q-41 259 -297 242z" />
    <glyph glyph-name="uni022A" unicode="&#x22a;" horiz-adv-x="1710" 
d="M459 2128l790 49l60 -158l-914 -34zM457 1610l32 227h195v-227h-227zM1014 1610l33 227h194v-227h-227zM856 1540q128 0 234 -27t193.5 -86.5t146 -149t89.5 -219t27 -292.5q-4 -165 -26.5 -288t-71.5 -222t-127.5 -160.5t-194 -93.5t-270.5 -31q-356 3 -524 198.5
t-168 596.5q0 196 48.5 344.5t140 242.5t218 140.5t285.5 46.5zM856 1376q-106 0 -198 -55t-152 -144t-94.5 -202t-34.5 -230q0 -91 22 -159t61.5 -112t100.5 -71t132 -38t163 -11q116 0 199 18t148 61t97.5 121t32.5 191q0 117 -34 230t-94 202t-151.5 144t-197.5 55z" />
    <glyph glyph-name="uni022B" unicode="&#x22b;" horiz-adv-x="1355" 
d="M289 1686l790 49l60 -158l-914 -35zM287 1167l32 228h195v-228h-227zM844 1167l33 228h194v-228h-227zM678 -27q-247 0 -391 161.5t-144 424.5q0 271 143 429.5t392 158.5q248 0 391 -158.5t143 -429.5q0 -263 -144 -424.5t-390 -161.5zM678 279q98 0 156.5 11.5
t100.5 45.5t58.5 95.5t16.5 162.5q0 204 -84 288.5t-248 84.5t-248 -84.5t-84 -288.5q0 -101 16.5 -162.5t58.5 -95.5t100.5 -45.5t156.5 -11.5z" />
    <glyph glyph-name="uni0237" unicode="&#x237;" horiz-adv-x="851" 
d="M457 -78q7 26 12.5 60t10 93.5t7.5 115t6 166t5.5 201.5t7 265.5t8.5 317.5h195l-62 -1170q-9 -161 -35.5 -239.5t-81.5 -120.5q-54 -42 -219.5 -63t-298.5 3l94 193q34 -6 70.5 -6.5t81 8t82 28t69.5 57.5t48 91z" />
    <glyph glyph-name="uni0242" unicode="&#x242;" horiz-adv-x="978" 
d="M340 451q0 100 18.5 204t55.5 162q19 29 67.5 61t93 56t80 65t35.5 91q0 176 -133 202q-111 22 -168 -5t-57 -124h-168q0 57 22 103.5t57.5 76t80 50t92 28.5t90 8t76.5 -8q222 -51 233 -309q3 -75 -17 -135t-51.5 -95.5t-69.5 -65t-70.5 -46.5t-54.5 -36.5t-22 -37.5
q0 -31 6 -116t3 -129h-199z" />
    <glyph glyph-name="uni0243" unicode="&#x243;" horiz-adv-x="1406" 
d="M881 889q200 -33 284 -139.5t78 -331.5q-2 -76 -16 -135.5t-37 -103t-59.5 -75.5t-78.5 -52t-99.5 -31.5t-116.5 -16t-136 -4.5h-536v395h-182v187h182v954h467q226 0 349 -92t132 -256q7 -129 -56 -205t-175 -94zM367 1380v-399h299q146 0 209 44t63 140q0 215 -272 215
h-299zM690 297q166 0 248 60.5t82 193.5q0 25 -3.5 46t-7 34t-15 29t-16.5 22.5t-22.5 24t-23.5 24.5q-24 26 -84 46t-158 20h-323v-215h415v-187h-415v-98h323z" />
    <glyph glyph-name="uni0244" unicode="&#x244;" horiz-adv-x="2306" 
d="M2142 1147l-20 -186h-414l-18 -400q-5 -106 -14.5 -187.5t-32 -141t-39.5 -100.5t-60 -67.5t-69 -41t-90.5 -21t-101.5 -7.5t-122 -1h-41h-41q-85 0 -124.5 1t-103 7.5t-91.5 21t-70 40.5t-60 67.5t-39.5 101t-30.5 141t-13 187.5l-15 404h-370l18 186h346l-12 385h295
l-14 -387h647l-15 387h308l-19 -389h426zM1456 766l-8 197h-660l-8 -197q-3 -80 0 -143t16.5 -108t25.5 -77t40.5 -52t48.5 -31t62 -16t68 -6t79 -1q47 0 70 0.5t61.5 4t56.5 11.5t46 22.5t40.5 36t29 54t22.5 75.5t9.5 100.5t0.5 129.5z" />
    <glyph glyph-name="uni0245" unicode="&#x245;" horiz-adv-x="1695" 
d="M1047 1536l505 -1536h-229l-446 1098h-97l-405 -1098h-232l486 1536h418z" />
    <glyph glyph-name="uni024B" unicode="&#x24b;" horiz-adv-x="1789" 
d="M1470 -188q89 -108 156 -213q-110 -69 -242 -96t-240 -4t-151 91q-10 17 -16 116t-25 130l17 88l-11 -4l-32 -346l55 594q-122 -208 -358 -197q-208 11 -345 171.5t-137 418.5q0 129 36 233.5t100.5 175t150 114t188.5 57.5q51 4 90 4.5t75.5 -12.5t64.5 -29.5
t57.5 -46.5t54 -63t54.5 -79v205h219l-72 -739l-22 -475l24 -31l-26 -6v-12l32 10l2 -2q107 -119 236 -84l8 164l41 14l-37 -174q29 11 53 27zM913 586q19 177 -48.5 289t-209.5 112t-224.5 -110t-102.5 -291q-18 -170 49 -248t217 -78q147 0 223.5 77t95.5 249zM1278 -102
l-111 -31l-6 8l76 23l176 61v-14z" />
    <glyph glyph-name="uni024C" unicode="&#x24c;" horiz-adv-x="1402" 
d="M870 0l19 426q2 53 -12.5 93t-42 64t-61.5 39t-73.5 19.5t-74 3.5t-68.5 -6l-106 -18l34 -621h-321l39 649l-353 2l9 256l360 -2l37 631h365q229 0 353 -108t124 -322q0 -145 -59 -224.5t-167 -97.5q12 -8 43 -27.5t47 -30.5t43 -37t44.5 -54.5t37.5 -76t35 -107.5
l117 -451h-369zM641 913q112 0 202.5 62.5t90.5 130.5q0 71 -23.5 123t-65.5 81.5t-93 43.5t-111 14h-254v-455h254z" />
    <glyph glyph-name="uni0250" unicode="&#x250;" horiz-adv-x="1343" 
d="M737 1176q121 0 216 -43.5t155.5 -128t80.5 -209t-9 -287.5q-82 -456 -430 -504q-240 -34 -349 141l5 -118h-146l-117 1120h205v-168q57 97 159.5 147t229.5 50zM762 864q-68 0 -122.5 -13.5t-90 -34t-61.5 -51t-39 -58.5t-20.5 -63.5t-9 -58t-1.5 -50.5
q0 -90 17.5 -156.5t44.5 -104.5t67 -61t77 -30t83 -7t94 21t94.5 64.5t82.5 121t50 178.5q12 68 3 124t-36 95.5t-85.5 61.5t-147.5 22z" />
    <glyph glyph-name="uni0251" unicode="&#x251;" horiz-adv-x="1343" 
d="M606 -29q-121 0 -215.5 43.5t-155.5 128t-80.5 209t9.5 287.5q82 456 430 504q239 34 348 -142l-4 119h145l117 -1120h-205v168q-57 -97 -159.5 -147t-229.5 -50zM582 283q68 0 122.5 13.5t90 34t61.5 51t39 58.5t20.5 63.5t9 58t1.5 50.5q0 90 -17.5 156.5t-44.5 104.5
t-67 61t-77 30t-83 7t-94 -21t-95 -64.5t-83 -121t-50 -178.5q-12 -68 -3 -124t36.5 -96t86 -61.5t147.5 -21.5z" />
    <glyph glyph-name="uni0252" unicode="&#x252;" horiz-adv-x="1343" 
d="M737 1176q121 0 216 -43.5t155.5 -128t80.5 -209t-9 -287.5q-82 -456 -430 -504q-240 -34 -349 141l5 -118h-146l-117 1120h205v-168q57 97 159.5 147t229.5 50zM762 864q-68 0 -122.5 -13.5t-90 -34t-61.5 -51t-39 -58.5t-20.5 -63.5t-9 -58t-1.5 -50.5
q0 -90 17.5 -156.5t44.5 -104.5t67 -61t77 -30t83 -7t94 21t94.5 64.5t82.5 121t50 178.5q12 68 3 124t-36 95.5t-85.5 61.5t-147.5 22z" />
    <glyph glyph-name="uni0253" unicode="&#x253;" horiz-adv-x="1316" 
d="M713 1139q111 3 212 -39.5t173 -116t114.5 -174t42.5 -209.5q0 -128 -46.5 -246t-122 -201t-174 -132.5t-199.5 -49.5q-212 0 -322.5 58t-152.5 174q-19 41 -33.5 222.5t-36.5 556t-45 656.5h31q1 53 15.5 104.5t46.5 101t77 88t112 65t146 33.5q12 -130 10 -258
q-156 -14 -213 -134h49v-557q0 -55 19.5 -57t60.5 29q37 24 62 38t75 30.5t99 17.5zM756 299q126 9 212.5 93.5t86.5 207.5q0 158 -78 258t-221 100q-144 0 -228 -100.5t-84 -265.5q0 -84 11.5 -135t45 -89t94.5 -53.5t161 -15.5z" />
    <glyph glyph-name="uni0254" unicode="&#x254;" horiz-adv-x="1214" 
d="M305 25v165q99 -30 215 -30q326 3 326 428q-6 78 -39 143.5t-85 108t-115 65.5t-132.5 19t-132.5 -35l-192 209q130 77 350 63q158 -11 265 -50.5t170.5 -112.5t90.5 -171.5t27 -238.5q0 -304 -116 -443t-376 -145q-71 -1 -146.5 6.5t-109.5 18.5z" />
    <glyph glyph-name="uni0255" unicode="&#x255;" horiz-adv-x="1404" 
d="M1241 375q0 -126 -120.5 -238.5t-284.5 -150.5v-6q16 -266 16 -390h-225v385q-129 11 -220 56.5t-143.5 123t-76 176t-23.5 228.5q0 273 154.5 430.5t416.5 157.5q97 0 174 -25v-145q-79 24 -215 24q-173 0 -249 -113.5t-76 -328.5q1 -44 8.5 -87.5t26 -90t47 -83.5
t74 -63.5t102.5 -33.5v159q0 143 72.5 233.5t187.5 90.5q102 0 209 -74q145 -102 145 -235zM821 221q96 28 154.5 81.5t58.5 100.5q0 31 -22 48q-50 38 -94 38t-71.5 -44.5t-27.5 -133.5q0 -61 2 -90z" />
    <glyph glyph-name="uni0256" unicode="&#x256;" horiz-adv-x="1363" 
d="M1354 -293q-94 0 -170.5 38t-122.5 99t-71 132t-27 143q-56 -81 -139.5 -116t-200.5 -32q-244 5 -390 166t-131 422q9 160 81.5 301t190 228t249.5 94q117 6 207 -53.5t151 -165.5l35 675h184l-49 -1157l23 -446q61 -64 161 -64q17 -149 19 -264zM604 305q65 0 112.5 11
t91.5 40t67.5 89t23.5 149q0 171 -73.5 271t-215.5 100q-145 0 -229 -107.5t-84 -277.5q0 -275 307 -275z" />
    <glyph glyph-name="uni0257" unicode="&#x257;" horiz-adv-x="1363" 
d="M1006 1544q0 57 15 115t46.5 113t76.5 97.5t110.5 68.5t142.5 26q-2 -115 -19 -264q-117 0 -178 -84l-49 -1135l25 -485l-195 4v147q-55 -97 -143 -138t-215 -38q-244 5 -390 166t-131 422q9 160 81.5 301t190 228t249.5 94q117 6 207 -53.5t151 -165.5l25 477v104z
M604 305q65 0 112.5 11t91.5 40t67.5 89t23.5 149q0 171 -73.5 271t-215.5 100q-145 0 -229 -107.5t-84 -277.5q0 -275 307 -275z" />
    <glyph glyph-name="uni0258" unicode="&#x258;" horiz-adv-x="1339" 
d="M625 1188q249 0 404.5 -179.5t166.5 -459.5q0 -263 -166.5 -420.5t-435.5 -157.5q-211 0 -412 86v254q118 -51 204.5 -65t201.5 -2q422 45 422 344l-887 57q24 135 73.5 238t117 166.5t145 97.5t166.5 41zM983 745q0 106 -103.5 201t-254.5 105q-256 17 -297 -242z" />
    <glyph glyph-name="uni0259" unicode="&#x259;" horiz-adv-x="1339" 
d="M123 502l887 57q0 299 -422 344q-115 12 -201.5 -2t-204.5 -65v254q201 86 412 86q269 0 435.5 -157.5t166.5 -420.5q-11 -280 -166.5 -459.5t-404.5 -179.5q-89 7 -166.5 41t-145 97.5t-117 166.5t-73.5 238zM983 401l-655 -63q41 -259 297 -242q151 10 254.5 104.5
t103.5 200.5z" />
    <glyph glyph-name="uni025A" unicode="&#x25a;" horiz-adv-x="1339" 
d="M1450 434q10 -71 10 -112q-44 0 -76 16t-48 44t-23.5 58.5t-7.5 65.5v63l-111 -12q-15 -174 -87 -308.5t-197 -212t-285 -77.5q-89 7 -166.5 41t-145 97.5t-117 166.5t-73.5 238l887 57q0 299 -422 344q-115 12 -201.5 -2t-204.5 -65v254q201 86 412 86q255 0 419 -142
t181 -385l172 15q0 -101 6 -136q4 -23 5 -30.5t6.5 -24t13 -22t21 -11.5t32.5 -6zM625 96q151 10 254.5 104.5t103.5 200.5l-655 -63q41 -259 297 -242z" />
    <glyph glyph-name="uni025B" unicode="&#x25b;" horiz-adv-x="1007" 
d="M518 -25q-150 0 -252 85t-102 241q0 103 46.5 162.5t162.5 75.5q-99 35 -143 87.5t-44 135.5q0 122 90.5 192t247.5 70q27 0 58.5 -6t68 -23t65.5 -41.5t48.5 -66t19.5 -92.5l-92 -19q1 83 -43.5 120.5t-109.5 37.5q-111 0 -182.5 -41.5t-71.5 -120.5q0 -91 60.5 -129.5
t170.5 -38.5h47l25 -108h-45q-111 1 -171.5 -42.5t-60.5 -115.5q0 -75 47.5 -125t145.5 -51h42.5t40.5 4.5t35 11.5t27 23t16.5 38t3 56t-13.5 78l164 14q24 -72 25 -133.5t-17 -102.5t-49.5 -73.5t-67 -51.5t-74.5 -31t-67.5 -16t-50.5 -4z" />
    <glyph glyph-name="uni025C" unicode="&#x25c;" horiz-adv-x="1007" 
d="M489 -25q-22 0 -50.5 4t-67.5 16t-74.5 31t-67 51.5t-49.5 73.5t-17 102.5t25 133.5l164 -14q-11 -44 -13.5 -78t3 -56t16.5 -38t27.5 -23t35.5 -12t40.5 -4.5t42.5 0.5q98 1 145 50.5t47 125.5q0 72 -60.5 115.5t-170.5 42.5h-45l24 108h48q110 0 170.5 38.5t60.5 129.5
q0 79 -71.5 120.5t-182.5 41.5q-65 0 -110 -37.5t-44 -120.5l-92 19q0 51 19.5 92.5t48.5 66t65.5 41.5t68 23t58.5 6q157 0 247.5 -70t90.5 -192q0 -83 -44 -135.5t-142 -87.5q116 -16 162.5 -75.5t46.5 -162.5q0 -156 -102 -241t-253 -85z" />
    <glyph glyph-name="uni025D" unicode="&#x25d;" horiz-adv-x="1007" 
d="M489 -25q-22 0 -50.5 4t-67.5 16t-74.5 31t-67 51.5t-49.5 73.5t-17 102.5t25 133.5l164 -14q-11 -44 -13.5 -78t3 -56t16.5 -38t27.5 -23t35.5 -12t40.5 -4.5t42.5 0.5q98 1 145 50.5t47 125.5q0 72 -60.5 115.5t-170.5 42.5h-45l24 108h48q110 0 170.5 38.5t60.5 129.5
q0 79 -71.5 120.5t-182.5 41.5q-65 0 -110 -37.5t-44 -120.5l-92 19q0 51 19.5 92.5t48.5 66t65.5 41.5t68 23t58.5 6q157 0 247.5 -70t90.5 -192q0 -83 -44 -135.5t-142 -87.5q116 -16 162.5 -75.5t46.5 -162.5q0 -156 -102 -241t-253 -85z" />
    <glyph glyph-name="uni025E" unicode="&#x25e;" horiz-adv-x="1187" 
d="M164 510q0 80 12.5 148.5t47 138t88.5 118t144.5 79t207.5 30.5q157 0 247 -70t90 -192q0 -39 -2.5 -61t-12 -48.5t-29 -44t-54.5 -35.5t-88 -34q116 -16 162.5 -75.5t46.5 -162.5q0 -158 -103 -245t-251 -81q-132 6 -232 52.5t-158.5 122t-87 166t-28.5 194.5zM291 516
q0 -39 11 -82.5t39.5 -93t71 -88.5t113 -64.5t158.5 -25.5q98 0 145.5 50t47.5 126q0 72 -60.5 115.5t-171.5 42.5h-45l25 108h47q110 0 170.5 38.5t60.5 129.5q0 79 -71.5 120.5t-182.5 41.5q-75 0 -136 -25t-101.5 -66.5t-68.5 -96.5t-40 -112.5t-12 -117.5z" />
    <glyph glyph-name="uni025F" unicode="&#x25f;" horiz-adv-x="1128" 
d="M965 608v-186h-293l-25 -451q-9 -161 -35.5 -239.5t-81.5 -120.5q-54 -42 -219.5 -63t-298.5 3l94 193q34 -6 70.5 -6.5t81 8t82 28t69.5 57.5t48 91q17 55 25 164t14 336h-332v186h336l14 533h195l-29 -533h285z" />
    <glyph glyph-name="uni0260" unicode="&#x260;" horiz-adv-x="1329" 
d="M915 1448q4 44 9 75.5t16 57t21.5 41.5t33 27.5t44 16.5t60 7t74.5 0.5t95 -4.5l-8 -174q-42 2 -64.5 3t-43.5 -2.5t-29 -8t-15 -18.5t-8.5 -28t-3.5 -42q0 -12 -1 -33t-1 -31l-2 -39q0 -7 -1 -20t-1 -19l-9 -137h105l-43 -979q-15 -344 -141.5 -510t-385.5 -166
q-99 0 -209.5 25.5t-203.5 71.5l76 270q92 -50 168.5 -73t152.5 -13q113 14 200.5 96.5t125.5 190.5l24 94q-163 -147 -327 -147q-204 0 -331.5 166t-127.5 427q0 259 126.5 416.5t332.5 157.5q60 0 111 -18t78.5 -37t76.5 -60l10 203q1 11 2 32.5t2 30.5l2 48q1 11 10 102z
M573 299q154 0 236.5 52t91.5 184l-39 2l10 192q-35 97 -108.5 155t-175.5 58q-57 0 -101 -20.5t-70.5 -53t-45 -81.5t-26.5 -96t-13 -107q-9 -116 11.5 -177t73 -84.5t156.5 -23.5z" />
    <glyph glyph-name="uni0261" unicode="&#x261;" horiz-adv-x="1349" 
d="M616 -535q-99 0 -209.5 25.5t-203.5 71.5l76 270q92 -50 168.5 -73t152.5 -13q113 14 200.5 96.5t125.5 190.5l24 94q-163 -147 -327 -147q-204 0 -331.5 166t-127.5 427q0 259 126.5 416.5t332.5 157.5q58 0 108.5 -17t75.5 -34t76.5 -59.5t74.5 -59.5l43 143h185
l-43 -979q-15 -344 -141.5 -510t-385.5 -166zM573 299q79 0 136 12t102 40.5t67.5 81.5t22.5 130q0 102 -36 187t-108.5 138.5t-168.5 53.5q-57 0 -101 -20.5t-70.5 -53t-45 -81.5t-26.5 -96t-13 -107q-9 -116 11.5 -177t73 -84.5t156.5 -23.5z" />
    <glyph glyph-name="uni0262" unicode="&#x262;" horiz-adv-x="1161" 
d="M614 -18q-91 0 -161.5 11.5t-122 31.5t-89 54.5t-61 74t-38 97t-21.5 115.5t-10 138q-3 78 3.5 143t19 114.5t35.5 89t48 67t62 48.5t71 33t81.5 20.5t87.5 12t95 6.5q229 10 277 -32l14 -121q-72 47 -278 41q-96 -2 -158.5 -22.5t-105 -68t-60.5 -124t-18 -193.5
q0 -99 17.5 -160.5t61.5 -96t104 -46.5t159 -12q165 0 211 49l4 125l-185 33l-20 106l391 -43l23 -133l-93 16l15 -286q-133 -88 -359 -88z" />
    <glyph glyph-name="uni0263" unicode="&#x263;" horiz-adv-x="1441" 
d="M1124 1055l154 -137q-5 -6 -11.5 -16t-12 -16.5t-11.5 -11.5q-253 -235 -409 -413q148 -198 218.5 -357t62 -273t-108 -174.5t-287.5 -59.5q-150 1 -247 29t-139.5 82t-45 126.5t40 171t111.5 206.5t173 241q-162 198 -413 438q-7 6 -35 41l149 123q42 -52 60 -70
q211 -214 356 -389q140 171 346 397q9 10 24.5 31t24.5 31zM713 -205q56 -1 96 16t60 57.5t14.5 99.5t-47 149t-119.5 200q-77 -102 -122 -186.5t-57 -145.5t4.5 -103.5t60 -63.5t110.5 -23z" />
    <glyph glyph-name="uni0264" unicode="&#x264;" horiz-adv-x="1425" 
d="M1001 1051q52 1 93 -12.5t68 -35t46.5 -54.5t29.5 -63t16 -69t7 -65t1 -58h-134q-16 234 -127 234q-60 0 -103 -62.5t-95 -195.5q9 -17 18.5 -37t21.5 -45t19 -39q87 -178 105 -226q50 -136 5 -211q-2 -4 -5 -8q-85 -120 -267 -120q-96 0 -143 22t-98 98q-13 19 -18 43
t0 56t12 60t25 73.5t31.5 78t39 92t41.5 97.5q9 22 25 60t22 53q-38 99 -79 150t-95 51q-59 0 -93 -10t-51.5 -39.5t-22.5 -67t-5 -107.5h-127q0 69 2 104.5t17 91.5t44 84t87.5 50.5t142.5 22.5q69 0 127.5 -48t115.5 -137q49 95 117 141.5t184 47.5zM700 117q30 0 49 8.5
t26.5 27.5t8 42t-7.5 60t-18.5 74t-26.5 91q-8 25 -12 39q-38 -91 -57 -148.5t-26 -104.5t9 -68t55 -21z" />
    <glyph glyph-name="uni0265" unicode="&#x265;" horiz-adv-x="1384" 
d="M207 471l-43 676h282q-29 -174 -44 -299.5t-18 -232.5t10 -175.5t44 -117t80 -69t121 -20.5q64 0 113 16t92 54.5t68 106.5t37 167t4 242.5t-35 327.5h303l-119 -1639h-184l40 644q-31 -24 -49 -38t-41.5 -30t-39 -24t-37 -17t-39.5 -12.5t-43 -6t-51 -2t-60 2.5
q-38 3 -66.5 7t-64.5 12.5t-63 23.5t-57 37t-51.5 55.5t-41 76.5t-31 102.5t-16.5 131.5z" />
    <glyph glyph-name="uni0266" unicode="&#x266;" horiz-adv-x="1384" 
d="M1221 0h-283q29 174 44 299.5t18 232.5t-10 175t-44 116.5t-80 69t-121 20.5q-78 0 -134 -22.5t-100.5 -83.5t-64.5 -162t-16 -263t37 -382h-303l112 1554v256v5v106q0 14 2 43t3 59q2 60 7.5 98t21.5 66.5t34 42.5t58.5 22.5t80.5 10t113 0.5v-174q-39 0 -59.5 -0.5
t-39.5 -5t-26 -9.5t-13 -19t-6.5 -28t-0.5 -42v-64v-111v-172h16l-16 -258v-268h-17l-8 -117q31 24 49 38t41.5 30t39 24t37 17t39.5 12.5t43 6t51 2t60 -2.5q43 -3 75.5 -7.5t73.5 -17.5t71 -32t61.5 -52.5t52.5 -78.5t37 -110.5t21 -147.5z" />
    <glyph glyph-name="uni0267" unicode="&#x267;" horiz-adv-x="1384" 
d="M1204 266q0 -39 47 -131.5t47 -114.5q0 -85 -79 -167.5t-205 -133.5t-256 -51q2 132 18 283q104 0 166 72q28 169 42 292t16 226.5t-11.5 170.5t-44 114t-79.5 67t-120 20q-78 0 -134 -22.5t-100.5 -83.5t-64.5 -162t-16 -263t37 -382h-303l112 1554v256v5v106q0 14 2 43
t3 59q2 60 7.5 98t21.5 66.5t34 42.5t58.5 22.5t80.5 10t113 0.5v-174q-39 0 -59.5 -0.5t-39.5 -5t-26 -9.5t-13 -19t-6.5 -28t-0.5 -42v-64v-111v-172h16l-16 -258v-268h-17l-8 -117q31 24 49 38t41.5 30t39 24t37 17t39.5 12.5t43 6t51 2t60 -2.5q43 -3 75.5 -7.5
t73.5 -17.5t71 -32t61.5 -52.5t52.5 -78.5t37 -110.5t21 -147.5z" />
    <glyph glyph-name="uni0268" unicode="&#x268;" horiz-adv-x="577" 
d="M346 1556l31 -233h-184l30 233h123zM715 676v-187h-350q13 -273 49 -489h-250q17 246 26 489h-276v187h283q6 205 6 452h164q-12 -272 -7 -452h355z" />
    <glyph glyph-name="uni0269" unicode="&#x269;" horiz-adv-x="684" 
d="M506 0q-221 0 -262.5 9.5t-71.5 65.5q-2 3 -2.5 5t-2.5 4.5t-3 5.5q20 201 22.5 372t-5 341.5t-7.5 232.5h164q-5 -79 -2.5 -438.5t0.5 -435.5q45 -22 69.5 -27.5t61.5 -1.5t53 4z" />
    <glyph glyph-name="uni026A" unicode="&#x26a;" horiz-adv-x="421" 
d="M113 0q20 188 23.5 424t-2.5 392t-15 241h153q-19 -537 37 -1057h-196z" />
    <glyph glyph-name="uni026B" unicode="&#x26b;" horiz-adv-x="798" 
d="M602 227l33 -227h-471q-11 95 -7.5 347t21.5 532q-4 2 -12 2q-19 0 -33.5 -8.5t-23 -27.5t-13.5 -37t-7 -48t-2.5 -47t-0.5 -47h-113q12 184 49 245.5t144 61.5q12 0 18 -2q21 335 66 635h174q-53 -462 -66 -797q33 -41 68 -41q29 0 47.5 11.5t25 31.5t9.5 46.5t1.5 56
t0.5 59.5h94q-1 -88 -10 -147t-21 -91t-37 -47.5t-46.5 -19t-61.5 -2.5q-41 0 -74 20q-6 -201 4 -459h244z" />
    <glyph glyph-name="uni026C" unicode="&#x26c;" horiz-adv-x="1376" 
d="M1212 594q-297 3 -454 18q-3 -183 6 -385h244l32 -227h-471q-19 178 0 643q-151 35 -244.5 104t-136.5 187q-74 201 82 311q90 62 226 62q64 0 118 -31q12 113 41 330h174q-53 -486 -65 -785q108 0 249 -3t199 -3v-221zM348 1026q0 -46 67.5 -100.5t164.5 -83.5
q8 98 10 147q-13 60 -49 91.5t-76 31.5q-43 0 -94 -39q-23 -17 -23 -47z" />
    <glyph glyph-name="uni026D" unicode="&#x26d;" horiz-adv-x="1136" 
d="M973 41q-12 -298 -96 -413q-65 -91 -207 -116q-87 -15 -321 -14h-64q-47 0 -76 41.5t-35.5 101.5t-8.5 127.5t3 118.5q23 456 56.5 958t60.5 761h174q-12 -105 -19 -351.5t-8 -448t-1.5 -531t-0.5 -388.5q-1 -95 65 -137q59 -38 126 -7q82 38 109 155q11 46 11 102z" />
    <glyph glyph-name="uni026E" unicode="&#x26e;" horiz-adv-x="1595" 
d="M1425 63q10 -84 4.5 -163t-20.5 -149t-52.5 -128t-91.5 -100t-137 -65t-190 -23q-328 0 -584 252l260 213q70 -69 141.5 -104.5t132 -37t114 22.5t90.5 70t57.5 111t19.5 140q-7 79 -80 133.5t-191.5 76t-262.5 7.5v191q77 72 186.5 169t185 170t162.5 169
q-348 -3 -800 0q-26 -421 -11 -791h11l163 -227h-368q-21 188 3 697t83 909h174q-20 -174 -41 -396q63 0 292 2t408.5 2t249.5 -4q9 -51 14.5 -86t7.5 -53t6.5 -63t8.5 -84q-66 -73 -121 -132t-85.5 -89.5t-101.5 -100.5t-116 -115q119 -9 228 -73t176 -158.5t75 -192.5z
" />
    <glyph glyph-name="uni026F" unicode="&#x26f;" horiz-adv-x="2097" 
d="M922 242q-137 -244 -371 -244q-94 0 -162.5 36.5t-111 108t-64.5 167t-27 222.5l-22 615h276l-69 -639q-34 -313 200 -313q70 0 122.5 27t86.5 79.5t55 118t35 155.5l86 572h254l-145 -649q-30 -132 41 -224t192 -92q67 0 128.5 31t102.5 78t66.5 98.5t28.5 95.5l53 662
h256l-133 -1120h-184l20 174q-61 -100 -155.5 -151.5t-204.5 -51.5q-125 0 -219 63.5t-135 180.5z" />
    <glyph glyph-name="uni0270" unicode="&#x270;" horiz-adv-x="2097" 
d="M1933 1147l-16 -131h4l-113 -1426h-223l33 584q-62 -87 -151 -131.5t-191 -44.5q-125 0 -219 63.5t-135 180.5q-137 -244 -371 -244q-94 0 -162.5 36.5t-111 108t-64.5 167t-27 222.5l-22 615h276l-69 -639q-34 -313 200 -313q70 0 122.5 27t86.5 79.5t55 118t35 155.5
l86 572h254l-145 -649q-30 -132 41 -224t192 -92q67 0 128.5 31t102.5 78t66.5 98.5t28.5 95.5l53 662h256z" />
    <glyph glyph-name="uni0271" unicode="&#x271;" horiz-adv-x="2097" 
d="M1933 0q0 -220 -61 -281q-37 -34 -226 -50t-251 7q10 26 41 146h94q21 0 36.5 2t28.5 4t21.5 9.5t15 12.5t10.5 19.5t6.5 23.5t3.5 31t1 36v44q0 6 6 12l67 623q34 313 -200 313q-70 0 -122.5 -27t-86.5 -80t-55 -118.5t-35 -155.5l-86 -571h-254l145 649q30 132 -41 224
t-192 92q-67 0 -128.5 -31t-102.5 -78t-66.5 -98.5t-28.5 -95.5l-53 -662h-256l133 1120h184l-20 -174q61 100 155.5 151.5t204.5 51.5q125 0 219.5 -63.5t135.5 -180.5q137 244 370 244q93 0 162 -37t111.5 -108t64.5 -167t27 -223l20 -551v-2v-28z" />
    <glyph glyph-name="uni0272" unicode="&#x272;" horiz-adv-x="1538" 
d="M1090 0l22 674q5 152 -46.5 222.5t-172.5 70.5q-82 0 -140.5 -27.5t-90.5 -76t-45.5 -108.5t-10.5 -132l29 -623h-33q0 -250 -14.5 -328t-81.5 -78h-342v222q31 0 51.5 1t38.5 5.5t28.5 8.5t19 17t12 22.5t5.5 33t2.5 41.5t0.5 55h10l82 1118h135l35 -90q22 10 68.5 35.5
t75.5 39t79.5 26t105.5 12.5q188 0 294.5 -126.5t121.5 -352.5l45 -662h-284z" />
    <glyph glyph-name="uni0273" unicode="&#x273;" horiz-adv-x="1517" 
d="M1196 0q0 -46 1 -68t6 -46.5t14 -33.5t28 -18t43.5 -10.5t65.5 -1.5v-221h-342q-67 0 -82 78.5t-15 326.5h7l22 668q5 152 -46.5 222.5t-172.5 70.5q-82 0 -140.5 -27.5t-90.5 -76t-45.5 -108.5t-10.5 -132l29 -623h-303l82 1118h135l35 -90q22 10 68.5 35.5t75.5 39
t79.5 26t105.5 12.5q188 0 294.5 -126.5t121.5 -352.5l45 -662h-10z" />
    <glyph glyph-name="uni0274" unicode="&#x274;" horiz-adv-x="1069" 
d="M113 0l82 1020h174l391 -823l67 862h158l-57 -1059h-246l-352 737l14 -737h-231z" />
    <glyph glyph-name="uni0275" unicode="&#x275;" horiz-adv-x="1335" 
d="M678 1147q248 0 391 -158.5t143 -429.5q0 -263 -144 -424.5t-390 -161.5q-247 0 -391 161.5t-144 424.5q0 271 143 429.5t392 158.5zM678 967q-150 0 -233.5 -71.5t-96.5 -240.5l621 35l41 -96q0 204 -84 288.5t-248 84.5zM678 279q96 0 153.5 10.5t100 42.5t59.5 89.5
t19 151.5l-664 -22q4 -87 22.5 -140t61.5 -82.5t99 -39.5t149 -10z" />
    <glyph glyph-name="uni0276" unicode="&#x276;" horiz-adv-x="1675" 
d="M1565 -14h-674l2 75q-106 -81 -311 -81q-242 3 -356.5 136t-114.5 404q0 264 125 395.5t346 131.5q223 0 340 -117l2 80l618 18l-29 -129l-458 -27v-276l340 16v-145l-340 -21v-251h463zM582 242q161 0 243 58t82 208q0 107 -39 204t-114.5 160.5t-171.5 63.5t-172 -63.5
t-115 -160.5t-39 -204q0 -77 22.5 -130t67 -82.5t101 -41.5t135.5 -12z" />
    <glyph glyph-name="uni0278" unicode="&#x278;" horiz-adv-x="1710" 
d="M895 1540q121 -4 221.5 -34t182.5 -90t137.5 -149t84.5 -216t25 -285q-4 -164 -26.5 -287t-71.5 -222t-127 -160.5t-192.5 -94t-268.5 -31.5l-10 -467h-143l10 478q-284 36 -418.5 230t-134.5 554q0 356 154.5 547.5t433.5 220.5l8 405h143zM868 354q113 1 194.5 19.5
t144.5 62t94.5 120.5t31.5 189q0 152 -52.5 289.5t-155.5 232.5t-234 107zM377 745q0 -187 88 -276t260 -109l23 1000q-111 -33 -197 -128.5t-130 -223t-44 -263.5z" />
    <glyph glyph-name="uni0279" unicode="&#x279;" horiz-adv-x="1048" 
d="M193 23l-31 258q76 -16 136 -18.5t101.5 5.5t71.5 29t47 46t27 62.5t13 72.5t3 83q0 5 1 70t-0.5 96t-5.5 100t-14.5 147.5t-27.5 174.5h371q-59 -284 -76.5 -511t-17.5 -607h-191v121q-64 -48 -105.5 -70.5t-112.5 -37.5t-189 -21z" />
    <glyph glyph-name="uni027A" unicode="&#x27a;" horiz-adv-x="1083" 
d="M879 1149h6q-2 -8 -5.5 -24.5t-5.5 -24.5l-6 -76h-8q-43 -236 -56 -444t-13 -549h-191v121q-64 -48 -105.5 -70.5t-112.5 -37.5t-189 -21l-31 258q76 -16 136 -18.5t101.5 5.5t71.5 29t47 46t27 62.5t13 72.5t3 83q0 14 0.5 61t0 77.5t-2.5 82t-8 112t-16 130.5h-11
l-65 614h461z" />
    <glyph glyph-name="uni027B" unicode="&#x27b;" horiz-adv-x="1048" 
d="M961 -156q16 -139 18 -264q-77 0 -142.5 26t-110.5 68.5t-76.5 97.5t-46.5 113t-15 115v141q-83 -62 -157 -85.5t-238 -32.5l-31 258q76 -16 136 -18.5t101.5 5.5t71.5 29t47 46t27 62.5t13 72.5t3 83q0 5 1 70t-0.5 96t-5.5 100t-14.5 147.5t-27.5 174.5h371
q-59 -284 -76.5 -511t-17.5 -607h-54q19 -83 74.5 -135t149.5 -52z" />
    <glyph glyph-name="uni027D" unicode="&#x27d;" horiz-adv-x="1048" 
d="M887 866q-76 16 -136 18.5t-101.5 -5.5t-71.5 -29t-47.5 -46t-27.5 -62.5t-13 -73t-3 -82.5q0 -12 -0.5 -60t0 -72t2.5 -79t7 -103t15 -120.5t24 -153.5h-13q61 -68 166 -68q17 -149 19 -264q-130 0 -256.5 48t-205.5 125t-79 157v2h-2q59 284 76.5 511t17.5 607h191
v-121q64 48 105.5 70.5t112.5 37.5t189 21z" />
    <glyph glyph-name="uni027E" unicode="&#x27e;" horiz-adv-x="647" 
d="M168 920q2 45 5 76.5t12 57.5t18 42.5t29.5 29.5t39.5 19t54.5 9.5t68.5 4t88 0.5v-174q-39 0 -59.5 -0.5t-39.5 -5t-26 -9.5t-13 -19t-6.5 -28t-0.5 -42v-64v-110v-699h-174v809q0 13 0.5 25t1.5 33t2 45z" />
    <glyph glyph-name="uni0280" unicode="&#x280;" horiz-adv-x="968" 
d="M602 541q8 -6 29.5 -19.5t32.5 -21t29.5 -26t30.5 -38t26 -52t24 -73.5l82 -311h-256l14 295q2 43 -13.5 74t-40 46.5t-57 22.5t-61.5 7t-57 -5l-74 -12l25 -428h-223l63 1061h252q159 0 244.5 -75t85.5 -222q0 -197 -156 -223zM442 944h-176v-313h176q77 0 140 43t63 90
q0 93 -57.5 136.5t-145.5 43.5z" />
    <glyph glyph-name="uni0281" unicode="&#x281;" horiz-adv-x="968" 
d="M367 606q-8 6 -29.5 19.5t-32.5 21t-29.5 26t-30.5 38t-26 52t-24 73.5l-82 311h256l-15 -295q-2 -43 13.5 -74t40.5 -46.5t57.5 -22.5t61.5 -7t57 5l73 12l-24 428h223l-63 -1061h-252q-159 0 -244.5 75t-85.5 222q0 197 156 223zM526 203h176v313h-176
q-77 0 -139.5 -43t-62.5 -90q0 -93 57 -136.5t145 -43.5z" />
    <glyph glyph-name="uni0282" unicode="&#x282;" horiz-adv-x="1288" 
d="M723 668q126 -39 204.5 -75.5t121 -79.5t57 -87.5t14.5 -108.5q0 -105 -28.5 -173.5t-90.5 -106t-143.5 -52t-204.5 -14.5q-249 0 -352 39q3 -78 12 -125q15 -65 71.5 -106t156.5 -41q16 -102 18 -193q-95 0 -172.5 28.5t-123.5 74t-70.5 97.5t-24.5 105v246h2l-6 4
l201 228q92 -35 146.5 -48t145.5 -20q27 -5 62.5 -3t68 8t54.5 31t22 66q0 82 -268 136q-36 5 -72 15t-87.5 35.5t-89.5 60.5t-65.5 96t-27.5 137q0 41 7.5 77t24 75t49 70.5t77.5 56.5t113.5 39t154.5 14q140 0 362 -50l-94 -123q-57 7 -98.5 10t-86 4.5t-61.5 2.5
q-77 0 -132 -9t-86.5 -23t-49 -37.5t-22.5 -45.5t-4 -53q3 -85 315 -182z" />
    <glyph glyph-name="uni0283" unicode="&#x283;" horiz-adv-x="1759" 
d="M1595 1520v-144q-76 58 -161 58q-98 0 -156 -61.5t-80 -192.5l-76 -475l-65 -486q-13 -96 -28 -175t-34.5 -140t-36.5 -109t-43 -82t-44.5 -58.5t-51.5 -39.5t-53 -24t-59.5 -12.5t-60.5 -4t-66 -0.5h-17q-32 0 -81 12t-108 36.5t-117 71t-93 105.5l256 133
q103 -65 194 -65q97 0 151.5 69t88.5 234l78 535l80 473q31 182 132 280t253 98q110 0 198 -36z" />
    <glyph glyph-name="uni0284" unicode="&#x284;" horiz-adv-x="1009" 
d="M825 1231q-33 1 -51 1t-37 -1t-26.5 -5.5t-15.5 -9.5t-10.5 -17.5t-4 -24t-2.5 -33.5h12l-31 -613h127v-186h-137l-18 -371q-9 -160 -35 -239t-80 -121q-52 -42 -213 -63t-291 3l92 193q33 -6 68.5 -6.5t78.5 8t79 27.5t67.5 57.5t46.5 91.5q27 91 35 420h-301v186h303
l11 258q5 251 8 355h8q1 5 2 19.5t2 21.5q4 54 11.5 88t22 60t37 37t56.5 19t81 5.5t111 -2.5z" />
    <glyph glyph-name="uni0288" unicode="&#x288;" horiz-adv-x="1159" 
d="M578 23q231 0 286 -3l17 -303q-76 -4 -471 -4q-24 0 -41.5 13.5t-24.5 33.5t-9.5 33.5t-2.5 22.5q0 21 12.5 225.5t34 517.5t41.5 563h-256l59 138h209q15 179 23 249h192l-12 -249h323l37 -138h-366z" />
    <glyph glyph-name="uni0289" unicode="&#x289;" horiz-adv-x="1318" 
d="M1325 709l-174 -4l25 -705h-224l9 172q-20 -53 -53.5 -92t-69 -60t-81 -33.5t-80.5 -16t-77 -3.5q-100 0 -165.5 20t-115.5 72.5t-76.5 145t-35.5 237.5l-14 244l-199 -4l92 106l100 5l-22 354h196l27 -348l537 16l8 332h203l12 -324l92 2zM918 625l2 75l-525 -10l6 -82
q10 -143 15 -168q14 -66 60 -89q47 -22 165 -21q67 1 110.5 5.5t75.5 20t48 32.5t26 56.5t12.5 75.5t4.5 105z" />
    <glyph glyph-name="uni028A" unicode="&#x28a;" horiz-adv-x="1757" 
d="M1593 1110v-195q-187 -25 -272 -38q90 -59 119 -85q100 -90 129 -258q14 -84 14 -194q0 -353 -187.5 -563.5t-502.5 -210.5t-503.5 210.5t-188.5 563.5q0 91 12.5 166t30 122t46 90.5t49 64.5t53 51t44.5 43q-177 20 -272 38v195h201h364q0 -109 -18 -252
q-62 6 -113.5 -26.5t-84.5 -88t-56 -127t-33 -141.5t-10 -135q0 -284 130 -457.5t349 -173.5q218 0 347.5 173t129.5 458q0 104 -38.5 207t-116 186t-177.5 115q-22 171 -22 262h336q26 0 84 2t99 2t58 -4z" />
    <glyph glyph-name="uni028B" unicode="&#x28b;" horiz-adv-x="1146" 
d="M164 442v678h174v-512q0 -79 6.5 -135t25.5 -91t35.5 -55t53.5 -28.5t61.5 -10t77.5 -1.5h2q50 0 84 8t56.5 35.5t34.5 52.5t18 87t7 109t1 146q0 10 0.5 35.5t0.5 39t-1.5 38t-4 39t-8 35.5t-14 33.5t-21.5 27t-29.5 22.5t-39.5 13.5t-51 5.5v153q76 0 131.5 -11
t93.5 -32t62.5 -54t38 -76t19 -98.5t6.5 -120.5t0 -143q-1 -68 -1 -104v-47q3 -38 1 -80.5t-4 -86t-13.5 -86t-27 -81t-45.5 -71.5t-69 -57.5t-96.5 -38t-128.5 -13.5q-80 0 -142.5 12t-119.5 44t-94 84.5t-58.5 137t-21.5 197.5z" />
    <glyph glyph-name="uni028C" unicode="&#x28c;" horiz-adv-x="1695" 
d="M649 1491h418l485 -1536h-231l-406 1098h-96l-446 -1098h-230z" />
    <glyph glyph-name="uni028D" unicode="&#x28d;" horiz-adv-x="1830" 
d="M457 1147h248l210 -346l203 346h256l293 -1120h-246l-168 694l-274 -379h-127l-274 379l-168 -694h-246z" />
    <glyph glyph-name="uni028E" unicode="&#x28e;" horiz-adv-x="1417" 
d="M1192 1655v-264h-129q-61 0 -131 -28.5t-125.5 -79t-77 -118.5t15.5 -147l508 -1041h-194l-459 783l-240 -783h-196l285 1219q22 93 73.5 172.5t114.5 130.5t135.5 87.5t136 52.5t115.5 16h168z" />
    <glyph glyph-name="uni028F" unicode="&#x28f;" horiz-adv-x="1071" 
d="M440 367l-327 686h147l277 -482l274 482h147l-331 -686v-369h-256z" />
    <glyph glyph-name="uni0290" unicode="&#x290;" horiz-adv-x="1390" 
d="M1227 248v-248h-281q0 -3 1 -7.5t1 -6.5q4 -23 5 -30.5t6.5 -24t13 -22.5t21 -12t32.5 -6q10 -71 10 -112q-44 0 -76 16t-48 44t-23.5 58.5t-7.5 65.5v37h-717l49 268l719 682h-596v197h848l26 -184l-680 -715h697z" />
    <glyph glyph-name="uni0291" unicode="&#x291;" horiz-adv-x="1486" 
d="M1165 522q68 -18 107.5 -64.5t47 -104t-9 -120.5t-53 -114.5t-93.5 -85t-122 -33.5h-45q-10 -170 -10 -395h-203q0 215 13 395h-633l49 268l774 719h-641v137h838l26 -137l-721 -739h342q39 184 119.5 247t214.5 27zM1024 250q41 3 66.5 12t34.5 20.5t9.5 24.5t-5 23
t-13.5 16q-16 11 -31.5 13.5t-31.5 -24.5t-29 -85z" />
    <glyph glyph-name="uni0292" unicode="&#x292;" horiz-adv-x="1404" 
d="M756 643q119 -9 228 -73t176 -158.5t75 -192.5q10 -84 4.5 -163.5t-20.5 -149t-52.5 -128t-91 -100t-137 -65t-190.5 -23.5q-328 0 -584 252l260 213q84 -82 169 -117t153.5 -22t122.5 57t83 119.5t27 165.5q-7 79 -80.5 133.5t-192 76t-262.5 7.5v191q78 73 187 169.5
t185.5 169.5t162.5 169q-351 -3 -809 0v192q53 0 287 2t423.5 2t262.5 -4q9 -51 14.5 -86t7.5 -53.5t6.5 -63.5t8.5 -84q-66 -73 -121 -131t-86.5 -90t-100 -99.5t-116.5 -115.5z" />
    <glyph glyph-name="uni0294" unicode="&#x294;" horiz-adv-x="978" 
d="M352 66l2 491q0 88 10 127t50 102q19 29 67.5 61t93 56t80 65t35.5 91q0 177 -133 203q-110 23 -167.5 -4.5t-57.5 -124.5h-168q0 57 22 103.5t57.5 76t80 50t92 28.5t90 8t76.5 -8q222 -51 233 -310q3 -75 -17 -135t-51.5 -95.5t-69.5 -65t-70.5 -46.5t-54.5 -36
t-22 -37l-2 -541q0 -3 -5 -6.5t-15.5 -7.5t-21.5 -7.5t-29.5 -9t-32.5 -9t-36.5 -9.5t-35.5 -10z" />
    <glyph glyph-name="uni0295" unicode="&#x295;" horiz-adv-x="978" 
d="M627 66q-13 4 -35.5 10t-36.5 9.5t-32.5 9t-29.5 9t-21.5 7.5t-15.5 7.5t-5 6.5l-2 541q0 18 -22 37t-54.5 36t-70.5 46.5t-69.5 65t-51.5 95.5t-17 135q11 259 233 310q34 8 76.5 8t90 -8t92 -28.5t80 -50t57.5 -76t22 -103.5h-168q0 97 -57.5 124.5t-167.5 4.5
q-133 -26 -133 -203q0 -50 35.5 -91t80 -65t93 -56t67.5 -61q40 -63 50 -102t10 -127z" />
    <glyph glyph-name="uni0298" unicode="&#x298;" horiz-adv-x="1710" 
d="M856 1540q128 0 234 -27t193.5 -86.5t146 -149t89.5 -219t27 -292.5q-4 -165 -26.5 -288t-71.5 -222t-127.5 -160.5t-194 -93.5t-270.5 -31q-356 3 -524 198.5t-168 596.5q0 196 48.5 344.5t140 242.5t218 140.5t285.5 46.5zM856 1376q-106 0 -198 -55t-152 -144
t-94.5 -202t-34.5 -230q0 -91 22 -159t61.5 -112t100.5 -71t132 -38t163 -11q116 0 199 18t148 61t97.5 121t32.5 191q0 117 -34 230t-94 202t-151.5 144t-197.5 55zM743 -354l33 227h195v-227h-228z" />
    <glyph glyph-name="uni0299" unicode="&#x299;" horiz-adv-x="956" 
d="M111 0v1044h317q154 0 238 -62.5t90 -174.5q6 -87 -37.5 -138.5t-120.5 -64.5q136 -22 193.5 -94.5t54.5 -224.5q-2 -72 -20 -123t-47.5 -82.5t-77 -49.5t-100 -24t-126.5 -6h-364zM453 938h-203v-270h203q99 0 141.5 30t42.5 95q0 145 -184 145zM469 541h-219v-338h219
q113 0 169 41t56 131q0 21 -2.5 36t-9.5 28t-11.5 19t-18.5 20t-19 20q-15 17 -56.5 30t-107.5 13z" />
    <glyph glyph-name="uni029B" unicode="&#x29b;" horiz-adv-x="1267" 
d="M1104 340l-92 16l14 -286q-133 -88 -358 -88q-91 0 -161.5 11.5t-122.5 31.5t-89 54.5t-61 74t-38.5 97t-21.5 115.5t-10 138q-4 100 7.5 178.5t33 133t59.5 94t77 62.5t97.5 37t108 20t121.5 9q29 2 82 2q0 22 1.5 55t2.5 62q2 60 7.5 98t21.5 66.5t34 42.5t58.5 22.5
t80.5 10t113 0.5v-174q-39 0 -59.5 -0.5t-39.5 -5t-26 -9.5t-13 -19.5t-6.5 -28.5t-0.5 -42v-100q16 -8 20 -12l14 -121q-72 47 -278 41q-96 -2 -158.5 -22.5t-105 -68t-60.5 -124t-18 -193.5q0 -99 17.5 -160.5t61.5 -96t104 -46.5t159 -12q165 0 211 49l4 125l-184 33
l-21 106l391 -43z" />
    <glyph glyph-name="uni029C" unicode="&#x29c;" horiz-adv-x="1083" 
d="M971 0h-223l8 262h-441l11 -262h-213l28 1053h146l20 -557h457l16 557h148z" />
    <glyph glyph-name="uni029D" unicode="&#x29d;" horiz-adv-x="1421" 
d="M834 174h423v-225q-168 0 -434 16q0 -1 -1 -4t-1 -4l-6 -84q-6 -62 -13 -106t-18.5 -80.5t-22.5 -59t-33 -40t-41.5 -26t-56.5 -13.5t-69 -6t-88 -1q-18 0 -53.5 -0.5t-52.5 -0.5t-40 1.5t-40 5.5q-45 3 -99 13l21 43q-45 77 -45 311q0 115 90 187.5t233 72.5h175
q4 82 8 206t9.5 356.5t10.5 412.5h195zM537 -18q-108 0 -158 -69q-37 -50 -18 -98t83 -48q48 0 101.5 58.5t81.5 154.5q-27 2 -90 2z" />
    <glyph glyph-name="uni029E" unicode="&#x29e;" horiz-adv-x="1351" 
d="M1208 1032l-86 -1624h-204l47 905l-277 -346h-242l355 453l-637 612h420l381 -487l-23 487h266z" />
    <glyph glyph-name="uni029F" unicode="&#x29f;" horiz-adv-x="882" 
d="M113 0l51 1053h123l-29 -850l514 22v-225h-659z" />
    <glyph glyph-name="uni02A0" unicode="&#x2a0;" horiz-adv-x="1556" 
d="M1278 -102l176 61l-53 -246l-475 -139l55 594q-122 -208 -358 -197q-208 11 -345 171.5t-137 418.5q0 129 36 233.5t100.5 175t150 114t188.5 57.5q129 18 210.5 -26.5t158.5 -160.5l25 222v4l12 104l14 102q7 44 14 75t19.5 56.5t24 41t34 26t43.5 14.5t58.5 4t72 -3
t91.5 -9l-21 -172q-40 4 -61.5 5.5t-41.5 -1t-28 -7t-15.5 -18t-10 -27.5t-5.5 -42l-8 -61q-2 -29 -10 -111l-4 -37h43l-72 -739l-24 -524zM913 586q19 177 -48.5 289t-209.5 112t-224.5 -110t-102.5 -291q-18 -170 49 -248t217 -78q147 0 223.5 77t95.5 249z" />
    <glyph glyph-name="uni02A1" unicode="&#x2a1;" horiz-adv-x="978" 
d="M815 1081q3 -75 -17 -135t-51.5 -95.5t-69.5 -65t-70.5 -46.5t-54.5 -36t-22 -37v-134h160v-159h-162v-248q0 -3 -5 -6.5t-15.5 -7.5t-21.5 -7.5t-29.5 -9t-32.5 -9t-36.5 -9.5t-35.5 -10q0 184 2 307h-190v159h190v25q0 88 10 127t50 102q19 29 67.5 61t93 56t80 65
t35.5 91q0 177 -133 203q-110 23 -167.5 -4.5t-57.5 -124.5h-168q0 57 22 103.5t57.5 76t80 50t92 28.5t90 8t76.5 -8q222 -51 233 -310z" />
    <glyph glyph-name="uni02A2" unicode="&#x2a2;" horiz-adv-x="978" 
d="M625 557v-25h190v-159h-190q2 -123 2 -307q-13 4 -35.5 10t-36.5 9.5t-32.5 9t-29.5 9t-21.5 7.5t-15.5 7.5t-5 6.5v248h-162v159h160v134q0 18 -22 37t-54.5 36t-70.5 46.5t-69.5 65t-51.5 95.5t-17 135q11 259 233 310q34 8 76.5 8t90 -8t92 -28.5t80 -50t57.5 -76
t22 -103.5h-168q0 97 -57.5 124.5t-167.5 4.5q-133 -26 -133 -203q0 -50 35.5 -91t80 -65t93 -56t67.5 -61q40 -63 50 -102t10 -127z" />
    <glyph glyph-name="uni02A3" unicode="&#x2a3;" horiz-adv-x="2390" 
d="M1546 221h543l117 -248h-1026l49 269l719 682h-596v37h-181l-20 -480l25 -485l-195 4v147q-55 -97 -143 -138t-215 -38q-244 5 -390 166t-131 422q9 160 81.5 301t190 228t249.5 94q117 6 207 -53.5t151 -165.5l35 675h184l-22 -540h174v22h848l26 -184zM604 305
q65 0 112.5 11t91.5 40t67.5 89t23.5 149q0 171 -73.5 271t-215.5 100q-145 0 -229 -107.5t-84 -277.5q0 -275 307 -275z" />
    <glyph glyph-name="uni02A4" unicode="&#x2a4;" horiz-adv-x="1363" 
d="M2146 174q10 -84 4.5 -163.5t-20.5 -149t-52.5 -128t-91 -100t-137 -65t-190.5 -23.5q-328 0 -584 252l260 213q84 -82 169 -117t153.5 -22t122.5 57t83 119.5t27 165.5q-7 79 -80 133.5t-191.5 76t-262.5 7.5v191q78 73 186.5 169t185 169t162.5 169q-313 -3 -712 0
l-27 -647l25 -485l-195 4v147q-55 -97 -143 -138t-215 -38q-244 5 -390 166t-131 422q9 160 81.5 301t190 228t249.5 94q117 6 207 -53.5t151 -165.5l35 675h184l-14 -317q734 6 868 0q9 -51 14.5 -86t7.5 -53.5t6.5 -63.5t8.5 -84q-66 -73 -121 -131t-86.5 -90t-100 -99.5
t-116.5 -115.5q119 -9 228 -73t176 -158.5t75 -192.5zM604 305q65 0 112.5 11t91.5 40t67.5 89t23.5 149q0 171 -73.5 271t-215.5 100q-145 0 -229 -107.5t-84 -277.5q0 -275 307 -275z" />
    <glyph glyph-name="uni02A5" unicode="&#x2a5;" horiz-adv-x="2516" 
d="M2195 520q68 -18 107.5 -64.5t47 -104t-9 -120.5t-52.5 -114.5t-93 -85t-122 -33.5h-45q-11 -187 -11 -395h-202q0 229 12 395h-633l49 268l774 719h-846l-20 -504l25 -485l-195 4v147q-55 -97 -143 -138t-215 -38q-244 5 -390 166t-131 422q9 160 81.5 301t190 228
t249.5 94q117 6 207 -53.5t151 -165.5l35 675h184l-22 -516h1036l27 -137l-721 -739h342q39 184 119.5 247t213.5 27zM604 305q65 0 112.5 11t91.5 40t67.5 89t23.5 149q0 171 -73.5 271t-215.5 100q-145 0 -229 -107.5t-84 -277.5q0 -275 307 -275zM2054 248q41 3 66.5 12
t34.5 20.5t9.5 24.5t-5 23t-13.5 16q-16 11 -31.5 13.5t-31.5 -24.5t-29 -85z" />
    <glyph glyph-name="uni02A6" unicode="&#x2a6;" horiz-adv-x="2019" 
d="M549 453q-2 -44 -1.5 -75t8.5 -51t26 -31.5t50.5 -17t82 -8t122.5 -4.5h15l35 -262q-70 -4 -496 -4q-22 0 -37.5 13.5t-22.5 33t-9.5 33.5t-2.5 22q0 115 48 881h-242l55 137h197l18 266l199 123l-16 -389h286l35 -137h-328zM1454 737q126 -41 204.5 -80t121 -84.5
t57 -91.5t14.5 -114q0 -111 -28.5 -183.5t-90.5 -112.5t-143.5 -55.5t-204.5 -15.5q-78 0 -139.5 3t-107 12t-74.5 15.5t-57 23t-39.5 24.5t-36.5 29.5t-35 29.5l201 240q91 -36 146 -49.5t147 -22.5q24 -2 41 -2.5t44 0.5t45.5 8t37.5 18.5t28.5 33.5t9.5 51q0 85 -268 143
q-35 5 -71.5 15.5t-88 37t-89.5 64t-65.5 102t-27.5 144.5q0 123 55 204h-354v136l561 -5q80 17 164 17q147 0 363 -53l-95 -129q-57 7 -99 10t-84 4t-62 2q-95 0 -157 -13t-91 -39.5t-38.5 -54.5t-8.5 -69q3 -93 315 -193z" />
    <glyph glyph-name="uni02A7" unicode="&#x2a7;" horiz-adv-x="1886" 
d="M1690 1702l32 -139q-83 38 -170 20q-96 -23 -138.5 -96t-35.5 -205l35 -481l45 -488q9 -107 10 -194.5t-1 -153.5t-19 -119.5t-26.5 -88.5t-42 -65t-47 -44.5t-60 -31t-62.5 -21t-72 -17.5q-3 -1 -5 -1.5t-5 -1t-6 -1.5q-24 -9 -80.5 -6t-116.5 12.5t-128 42.5t-115 82
l219 186q115 -41 205 -20q94 22 131.5 101.5t34.5 248.5l-45 539l-29 477q-10 185 66 304t223 153q104 23 203 8zM874 266l29 -262q-76 -4 -532 -4q-24 0 -40.5 13t-23 33.5t-8.5 33t-2 22.5q11 206 82 881h-260l63 137h211l31 266l217 123l-31 -389h308l32 -137h-352
l-43 -530q-3 -44 -4 -75t7.5 -51t26.5 -31.5t53.5 -17t88.5 -8t131 -4.5h16zM1118 1260v-136h-307v136h307z" />
    <glyph glyph-name="uni02A8" unicode="&#x2a8;" horiz-adv-x="1159" 
d="M1845 631q0 -126 -120.5 -238.5t-284.5 -150.5v-6q16 -266 16 -390h-225v385q-129 11 -220 56.5t-143.5 123t-76 176t-23.5 228.5q0 91 18 168h-184l-24 -530q-4 -99 8 -127q16 -37 83 -48q46 -7 234 -12l39 -262q-76 -4 -532 -4q-24 0 -41.5 13.5t-24.5 33t-9.5 33
t-2.5 22.5q0 23 5.5 137.5t18 323.5t27.5 420h-260l59 137h211q9 128 21 266l213 123l-19 -389h226q68 136 198.5 209.5t306.5 73.5q97 0 174 -25v-145q-79 24 -215 24q-173 0 -249 -113.5t-76 -328.5q1 -44 8.5 -87.5t26 -90t47 -83.5t74 -63.5t102.5 -33.5v159
q0 143 72.5 233.5t187.5 90.5q102 0 209 -74q145 -102 145 -235zM1425 477q96 28 154.5 81.5t58.5 100.5q0 31 -22 48q-50 38 -94 38t-71.5 -44.5t-27.5 -133.5q0 -61 2 -90z" />
    <glyph glyph-name="uni02A9" unicode="&#x2a9;" horiz-adv-x="1906" 
d="M1743 -12h-2q-3 -213 -64 -271q-37 -36 -227 -52t-252 7q9 26 41 150h94q24 0 41.5 1.5t31 7.5t22 10.5t14.5 19t9 23.5t5 33.5t2 40v50.5v4l23 650q5 151 -46.5 221.5t-172.5 70.5q-82 0 -140.5 -27.5t-90.5 -76t-45.5 -108.5t-10.5 -132l29 -622h-304l70 950h-235
l30 -940h-266l31 940h-166v182h166q0 130 13 221t36.5 147t64 87t87 42t114.5 11h164v-153h-166q-52 0 -85.5 -30t-46 -72.5t-14.5 -96t2 -92t11 -68.5l317 4v-14h91l34 -90q21 10 68.5 35.5t76 38.5t79.5 25.5t106 12.5q188 0 294.5 -126.5t121.5 -352.5l39 -575q2 -2 2 -6
v-33z" />
    <glyph glyph-name="uni02AA" unicode="&#x2aa;" horiz-adv-x="1757" 
d="M1192 686q167 -51 254 -103t115 -106.5t28 -140.5q0 -105 -28.5 -173.5t-90.5 -106t-143.5 -52t-204.5 -14.5q-124 0 -219 10h-739q-21 188 3 697t83 909h174q-46 -412 -63 -720.5t-3 -656.5h373l103 117q91 -34 145.5 -47t146.5 -20q27 -5 62.5 -3t68 8t54.5 31t22 66
q0 81 -268 135q-36 5 -72 15t-87.5 35.5t-89.5 60.5t-65.5 96t-27.5 137q0 41 7.5 77t24 75t49 70.5t77.5 56.5t113.5 39t154.5 14q145 0 362 -49l-94 -123q-57 7 -99 10t-84.5 4t-62.5 2q-77 0 -132 -9t-86.5 -23t-49 -37.5t-22.5 -45.5t-4 -53q3 -85 315 -182z" />
    <glyph glyph-name="uni02AB" unicode="&#x2ab;" horiz-adv-x="1757" 
d="M913 246h543l117 -248h-1026v2h-10l41 227h12l6 39l719 682h-596v39h-352q-24 -418 -9 -760h82l25 -227h-301q-21 188 3 697t83 909h174q-36 -338 -47 -482h342v21h848l26 -184z" />
    <glyph glyph-name="uni02AC" unicode="&#x2ac;" horiz-adv-x="1251" 
d="M344 786l-180 689h151l103 -426l168 231h78l170 -231l102 426h149l-178 -689h-157l-125 213l-129 -213h-152zM344 0l-180 688h151l103 -426l168 232h78l170 -232l102 426h151l-180 -688h-157l-125 213l-129 -213h-152z" />
    <glyph glyph-name="uni02AD" unicode="&#x2ad;" horiz-adv-x="909" 
d="M745 1032v-315h-141v192h-299v-192h-141v315h581zM745 332v-316h-141v193h-299v-193h-141v316h581z" />
    <glyph glyph-name="uni02B0" unicode="&#x2b0;" horiz-adv-x="1384" 
d="M1178 676l43 -676h-283q29 174 44 299.5t18 232.5t-10 175t-44 116.5t-80 69t-121 20.5q-78 0 -134 -22.5t-100.5 -83.5t-64.5 -162t-16 -263t37 -382h-303l119 1638h184l-41 -643q31 24 49 38t41.5 30t39 24t37 17t39.5 12.5t43 6t51 2t60 -2.5q43 -3 75.5 -7.5
t73.5 -17.5t71 -32t61.5 -52.5t52.5 -78.5t37 -110.5t21 -147.5z" />
    <glyph glyph-name="uni02B2" unicode="&#x2b2;" horiz-adv-x="847" 
d="M467 1325l33 227h194v-227h-227zM446 -78q6 20 10.5 45t8.5 64t6.5 77t5.5 102.5t5 122t4.5 155t5 180.5t6 219.5l6.5 253.5h194l-61 -1170q-9 -161 -35.5 -239.5t-81.5 -120.5q-54 -42 -219.5 -63t-298.5 3l94 193q34 -6 70.5 -6.5t80.5 8t81.5 28t69.5 57.5t48 91z" />
    <glyph glyph-name="uni02B7" unicode="&#x2b7;" horiz-adv-x="1228" 
d="M340 770l-176 672h147l101 -416l163 225h76l166 -225l101 416h147l-176 -672h-154l-121 207l-127 -207h-147z" />
    <glyph glyph-name="uni02B9" unicode="&#x2b9;" horiz-adv-x="692" 
d="M188 1200q-15 -3 -21.5 6t1.5 23l201 360q13 19 32 10l113 -59q24 -14 8 -33l-211 -272q-8 -13 -26 -16z" />
    <glyph glyph-name="uni02BA" unicode="&#x2ba;" horiz-adv-x="1228" 
d="M616 1485l-135 -486h-215l105 291h-31l22 195h254zM1038 1485l-135 -486h-215l105 291h-31l22 195h254z" />
    <glyph glyph-name="uni02BC" unicode="&#x2bc;" horiz-adv-x="839" 
d="M438 1221l-274 -41l350 348h162z" />
    <glyph glyph-name="uni02C1" unicode="&#x2c1;" horiz-adv-x="714" 
d="M528 1470q-79 11 -112 11q-72 0 -92 -30q-11 -18 8 -34q1 -1 15.5 -11.5t19.5 -14.5t20 -17t22.5 -23t21 -26.5t22 -33.5t18 -38.5t16.5 -47.5t11 -54q-27 -2 -119 -2q-11 57 -40.5 107t-57.5 78t-61 59t-44 45q-41 54 38 104q91 58 259 70q39 3 78 2q-13 -77 -23 -144z
" />
    <glyph glyph-name="circumflex" unicode="&#x2c6;" horiz-adv-x="1138" 
d="M526 1538h99l80 -131l270 -268h-111l-297 202l-293 -202h-110l272 268z" />
    <glyph glyph-name="caron" unicode="&#x2c7;" horiz-adv-x="1138" 
d="M526 1139l-90 131l-272 268h110l293 -203l297 203h111l-270 -268l-80 -131h-99z" />
    <glyph glyph-name="uni02C8" unicode="&#x2c8;" horiz-adv-x="522" 
d="M203 1530h155v-488h-194z" />
    <glyph glyph-name="uni02CC" unicode="&#x2cc;" horiz-adv-x="522" 
d="M203 217h155v-487h-194z" />
    <glyph glyph-name="uni02D0" unicode="&#x2d0;" horiz-adv-x="905" 
d="M164 1126h577l-288 -417zM164 4l289 418l288 -418h-577z" />
    <glyph glyph-name="uni02D1" unicode="&#x2d1;" horiz-adv-x="905" 
d="M164 1124h577l-288 -417z" />
    <glyph glyph-name="breve" unicode="&#x2d8;" horiz-adv-x="1132" 
d="M836 1487h133q0 -182 -121 -293t-291 -111q-169 0 -281 110t-112 294h133q0 -66 17 -108.5t53.5 -64t79.5 -29t110 -7.5q77 0 125 7.5t85 30t53 64t16 107.5z" />
    <glyph glyph-name="dotaccent" unicode="&#x2d9;" horiz-adv-x="534" 
d="M154 1235l32 227h195v-227h-227z" />
    <glyph glyph-name="ring" unicode="&#x2da;" horiz-adv-x="696" 
d="M348 1135q-77 0 -130.5 57t-53.5 139q0 80 54 137.5t130 57.5t130 -57.5t54 -137.5q0 -82 -53.5 -139t-130.5 -57zM348 1247q27 0 41.5 2.5t31.5 12t24.5 33.5t7.5 63q0 44 -31 76t-74 32t-73.5 -32t-30.5 -76q0 -39 7.5 -63t24.5 -33.5t31 -12t41 -2.5z" />
    <glyph glyph-name="ogonek" unicode="&#x2db;" horiz-adv-x="702" 
d="M516 -297q9 -60 23 -143q-177 -3 -276 43.5t-99 132.5q0 125 207 289q87 0 114 -2q-206 -188 -206 -267q0 -63 124 -63q41 0 113 10z" />
    <glyph glyph-name="tilde" unicode="&#x2dc;" horiz-adv-x="958" 
d="M276 1186h-112q12 184 48.5 245.5t143.5 61.5q37 0 69.5 -21t55 -51.5t43 -60.5t44 -51t48.5 -21q29 0 47.5 11.5t25 31.5t9.5 46.5t1.5 56t0.5 59.5h95q-1 -63 -5.5 -111t-11.5 -81t-20 -55t-24.5 -34t-32.5 -18t-38 -7.5t-45 -0.5q-41 1 -76 23t-58.5 53.5t-44 62.5
t-41.5 53t-42 23q-19 0 -33.5 -8.5t-23 -27.5t-13.5 -37t-7 -48t-2.5 -47t-0.5 -47z" />
    <glyph glyph-name="hungarumlaut" unicode="&#x2dd;" horiz-adv-x="1214" 
d="M438 1276l-274 -31l350 260h162zM813 1276l-274 -31l350 260h162z" />
    <glyph glyph-name="uni02DE" unicode="&#x2de;" horiz-adv-x="768" 
d="M350 524q0 -100 6 -135q7 -45 23.5 -69.5t54.5 -24.5q15 0 29 3t30 11t25.5 26t9.5 44q0 80 -18 113l94 30v-127q0 -93 -41 -153t-119 -60q-58 0 -94.5 29.5t-48.5 68.5t-12 87v63l-125 -22v94z" />
    <glyph glyph-name="uni02E0" unicode="&#x2e0;" horiz-adv-x="901" 
d="M719 1341q-129 -120 -211 -211q102 -137 133 -236t-16.5 -154.5t-175.5 -53.5q-92 1 -144.5 22.5t-69 58t0 92t55.5 120t104 147.5q-96 115 -213 226q-4 3 -18 20l78 64q24 -32 30 -37q101 -101 183 -199q90 107 178 203l24 33l80 -72q-4 -4 -9 -11.5t-9 -11.5zM446 788
q21 0 37.5 4t28.5 14t18 25.5t5 37.5t-10 49t-28 62.5t-48 76.5q-66 -87 -86 -148t2 -90.5t81 -30.5z" />
    <glyph glyph-name="uni02E1" unicode="&#x2e1;" horiz-adv-x="798" 
d="M164 0q-21 188 3 697t83 909h174q-46 -411 -63 -721t-3 -658h244l33 -227h-471z" />
    <glyph glyph-name="uni02E5" unicode="&#x2e5;" horiz-adv-x="1163" 
d="M993 1083v-18l-39 -1155h-227l111 1155l-674 2v203h829v-2h6z" />
    <glyph glyph-name="uni02E6" unicode="&#x2e6;" horiz-adv-x="1163" 
d="M999 1268l-10 -330h4v-205h-12l-27 -823h-227l78 823l-641 2v203h661l31 330h143z" />
    <glyph glyph-name="uni02E7" unicode="&#x2e7;" horiz-adv-x="1163" 
d="M856 1268h143l-45 -1358h-227l55 577h-618v205h637z" />
    <glyph glyph-name="uni02E8" unicode="&#x2e8;" horiz-adv-x="1163" 
d="M856 1268h143l-45 -1358h-227l31 330h-594v202l614 2z" />
    <glyph glyph-name="uni02E9" unicode="&#x2e9;" horiz-adv-x="1163" 
d="M999 -88h-6v-2h-829v203l674 2l-111 1155h227l39 -1155v-19z" />
    <glyph glyph-name="uni02EC" unicode="&#x2ec;" horiz-adv-x="978" 
d="M373 -137l-27 168l-182 469h104l217 -467l228 467h102l-213 -469l-29 -168h-200z" />
    <glyph glyph-name="uni02ED" unicode="&#x2ed;" horiz-adv-x="1241" 
d="M227 827l791 50l59 -158l-913 -35zM227 367l791 49l59 -158l-913 -35z" />
    <glyph glyph-name="uni02F3" unicode="&#x2f3;" horiz-adv-x="696" 
d="M348 -567q-77 0 -130.5 57t-53.5 139q0 80 54 137.5t130 57.5t130 -57.5t54 -137.5q0 -82 -53.5 -139t-130.5 -57zM348 -455q27 0 41.5 2.5t31.5 12t24.5 33.5t7.5 63q0 44 -31 76t-74 32t-73.5 -32t-30.5 -76q0 -39 7.5 -63t24.5 -33.5t31 -12t41 -2.5z" />
    <glyph glyph-name="gravecomb" unicode="&#x300;" 
d="M-438 1257l-238 230h162l350 -260z" />
    <glyph glyph-name="acutecomb" unicode="&#x301;" 
d="M-268 1503h104l-104 -315h-156z" />
    <glyph glyph-name="uni0302" unicode="&#x302;" 
d="M-612 1518h98l80 -132l270 -268h-110l-297 203l-293 -203h-111l273 268z" />
    <glyph glyph-name="tildecomb" unicode="&#x303;" 
d="M-682 1186h-113q12 184 49 245.5t144 61.5q37 0 69.5 -21t55 -51.5t43 -60.5t44 -51t48.5 -21q29 0 47.5 11.5t25 31.5t9.5 46.5t1.5 56t0.5 59.5h94q-1 -88 -10 -147t-21 -91t-37 -47.5t-46.5 -19t-61.5 -2.5q-41 1 -76 23t-58.5 53.5t-44 62.5t-41.5 53t-42 23
q-19 0 -33.5 -8.5t-23 -27.5t-13.5 -37t-7 -48t-2.5 -47t-0.5 -47z" />
    <glyph glyph-name="uni0304" unicode="&#x304;" 
d="M-1014 1315l791 49l59 -158l-913 -35z" />
    <glyph glyph-name="uni0305" unicode="&#x305;" 
d="M-1290 1712l1046 45l80 -139l-1210 -31z" />
    <glyph glyph-name="uni0306" unicode="&#x306;" 
d="M-297 1487h133q0 -182 -120.5 -293t-290.5 -111q-169 0 -281.5 110t-112.5 294h133q0 -66 17 -108.5t53.5 -64t80 -29t110.5 -7.5q77 0 124.5 7.5t84.5 30t53 64t16 107.5z" />
    <glyph glyph-name="uni0307" unicode="&#x307;" 
d="M-381 1235l33 227h194v-227h-227z" />
    <glyph glyph-name="uni0308" unicode="&#x308;" 
d="M-938 1247l33 228h194v-228h-227zM-381 1247l33 228h194v-228h-227z" />
    <glyph glyph-name="hookabovecomb" unicode="&#x309;" 
d="M-383 1186v-43q54 26 92 26q32 0 49 -8.5t17 -19.5q0 -19 -23 -35l-22 -19q-27 -20 -33 -30q-6 -12 -6 -33v-6h57q0 12 4 24q13 13 19 17l22 14q43 28 43 64q0 33 -33 53t-82 20t-104 -24z" />
    <glyph glyph-name="uni030A" unicode="&#x30a;" 
d="M-348 1135q-77 0 -130.5 57t-53.5 139q0 80 54 137.5t130 57.5t130 -57.5t54 -137.5q0 -82 -53.5 -139t-130.5 -57zM-348 1247q27 0 41 2.5t31 12t24.5 33.5t7.5 63q0 44 -30.5 76t-73.5 32t-74 -32t-31 -76q0 -39 7.5 -63t24.5 -33.5t31.5 -12t41.5 -2.5z" />
    <glyph glyph-name="uni030B" unicode="&#x30b;" 
d="M-776 1276l-275 -31l351 260h161zM-401 1276l-275 -31l350 260h162z" />
    <glyph glyph-name="uni030C" unicode="&#x30c;" 
d="M-612 1139l-90 131l-273 268h111l293 -203l297 203h110l-270 -268l-80 -131h-98z" />
    <glyph glyph-name="uni030F" unicode="&#x30f;" 
d="M-813 1276l-238 229h162l350 -260zM-438 1276l-238 229h162l350 -260z" />
    <glyph glyph-name="uni0312" unicode="&#x312;" 
d="M-268 1282l104 -291h-215l-135 486h254l22 -195h-30z" />
    <glyph glyph-name="uni0313" unicode="&#x313;" 
d="M-143 1448l-136 -485h-215l105 290h-31l23 195h254z" />
    <glyph glyph-name="uni0314" unicode="&#x314;" 
d="M-268 1253l104 -290h-215l-135 485h254l22 -195h-30z" />
    <glyph glyph-name="uni0318" unicode="&#x318;" 
d="M-283 -94h119v-414h-119v156h-188v104h188v154z" />
    <glyph glyph-name="uni0319" unicode="&#x319;" 
d="M-164 -248v-104h-188v-156h-119v414h119v-154h188z" />
    <glyph glyph-name="uni031A" unicode="&#x31a;" 
d="M-164 1153h-188l-4 311l-598 19v153l770 -61v-4h2z" />
    <glyph glyph-name="uni031B" unicode="&#x31b;" 
d="M-348 891l-45 94q23 15 52 29.5t42 25.5q7 6 12.5 14t9.5 16t7 18.5t5 18.5t3.5 20.5t2 19t1 19t0.5 17v15.5v12q0 27 -14 62l98 -12q10 -42 10 -66q0 -67 -20.5 -131t-63.5 -102q-9 -7 -22 -18.5t-18.5 -15.5t-15 -11t-19.5 -12.5t-25 -12.5z" />
    <glyph glyph-name="uni031C" unicode="&#x31c;" 
d="M-164 -526q-77 0 -130.5 57t-53.5 139q0 80 54 137.5t130 57.5v-60q-43 0 -73.5 -32t-30.5 -76q0 -39 7.5 -63t24.5 -33.5t31 -12t41 -2.5v-112z" />
    <glyph glyph-name="uni031D" unicode="&#x31d;" 
d="M-317 18h153v-118h-414v118h156v189h105v-189z" />
    <glyph glyph-name="uni031E" unicode="&#x31e;" 
d="M-164 -66v-118h-155v-189h-105v189h-154v118h414z" />
    <glyph glyph-name="uni031F" unicode="&#x31f;" 
d="M-164 -375v-61h-143v-154h-70v156h-168v61h168v160h70v-162h143z" />
    <glyph glyph-name="uni0320" unicode="&#x320;" 
d="M-1014 -346l791 49l59 -158l-913 -34z" />
    <glyph glyph-name="dotbelowcomb" unicode="&#x323;" 
d="M-381 -299l33 227h194v-227h-227z" />
    <glyph glyph-name="uni0324" unicode="&#x324;" 
d="M-938 -393l33 227h194v-227h-227zM-381 -393l33 227h194v-227h-227z" />
    <glyph glyph-name="uni0325" unicode="&#x325;" 
d="M-348 -537q-76 0 -130 57.5t-54 139.5q0 80 54 137.5t130 57.5t130 -57.5t54 -137.5q0 -82 -54 -139.5t-130 -57.5zM-348 -424q27 0 41 2.5t31 12t24.5 33.5t7.5 63q0 44 -30.5 76t-73.5 32t-74 -32t-31 -76q0 -39 7.5 -63t24.5 -33.5t31.5 -12t41.5 -2.5z" />
    <glyph glyph-name="uni0326" unicode="&#x326;" 
d="M-143 225l-136 -485h-215l105 291h-31l23 194h254z" />
    <glyph glyph-name="uni0327" unicode="&#x327;" 
d="M-496 -225l76 225h66l-60 -164h64q34 0 66 -7.5t63 -23.5t46.5 -48t8.5 -76q-12 -75 -68.5 -117.5t-144.5 -42.5h-127l23 108q47 -10 108 -10q53 0 93 23t40 49q0 32 -12 52.5t-34.5 28.5t-40 10.5t-42.5 2.5q-43 0 -125 -10z" />
    <glyph glyph-name="uni0328" unicode="&#x328;" 
d="M-186 -297q15 -100 22 -143q-177 -3 -276 43.5t-99 132.5q0 125 207 289q88 0 115 -2q-207 -189 -207 -267q0 -63 125 -63q41 0 113 10z" />
    <glyph glyph-name="uni0329" unicode="&#x329;" 
d="M-319 -152h155v-487h-194z" />
    <glyph glyph-name="uni032A" unicode="&#x32a;" 
d="M-164 -94v-316h-141v193h-299v-193h-141v316h581z" />
    <glyph glyph-name="uni032C" unicode="&#x32c;" 
d="M-612 -432l-90 131l-273 268h111l293 -203l297 203h110l-270 -268l-80 -131h-98z" />
    <glyph glyph-name="uni032D" unicode="&#x32d;" 
d="M-612 -231h98l80 -131l270 -269h-110l-297 203l-293 -203h-111l273 269z" />
    <glyph glyph-name="uni0330" unicode="&#x330;" 
d="M-682 -422h-113q12 184 49 245.5t144 61.5q45 0 84.5 -32t62.5 -70t53 -70t60 -32q29 0 47.5 11.5t25 31.5t9.5 46t1.5 55.5t0.5 59.5h94q-1 -88 -10 -147t-21 -91t-37 -47.5t-46.5 -19t-61.5 -2.5q-41 1 -76 23t-58.5 53.5t-44 62.5t-41.5 53t-42 23q-19 0 -33.5 -8.5
t-23 -27.5t-13.5 -37t-7 -48t-2.5 -47t-0.5 -47z" />
    <glyph glyph-name="uni0331" unicode="&#x331;" 
d="M-840 -115l629 37l47 -117l-725 -26z" />
    <glyph glyph-name="uni0332" unicode="&#x332;" 
d="M-881 -213l666 43l51 -139l-770 -31z" />
    <glyph glyph-name="uni0334" unicode="&#x334;" 
d="M-682 608h-113q12 184 49 245.5t144 61.5q45 0 84.5 -32t62.5 -70t53 -70t60 -32q29 0 47.5 11.5t25 31.5t9.5 46t1.5 55.5t0.5 59.5h94q-1 -88 -10 -147t-21 -91t-37 -47.5t-46.5 -19t-61.5 -2.5q-41 1 -76 23t-58.5 53.5t-44 62.5t-41.5 53t-42 23q-19 0 -33.5 -8.5
t-23 -27.5t-13.5 -37t-7 -48t-2.5 -47t-0.5 -47z" />
    <glyph glyph-name="uni0339" unicode="&#x339;" 
d="M-348 -526v112q27 0 41 2.5t31 12t24.5 33.5t7.5 63q0 44 -30.5 76t-73.5 32v60q76 0 130 -57.5t54 -137.5q0 -82 -53.5 -139t-130.5 -57z" />
    <glyph glyph-name="uni033A" unicode="&#x33a;" 
d="M-305 -100h141v-316h-581v316h141v-193h299v193z" />
    <glyph glyph-name="uni033B" unicode="&#x33b;" 
d="M-717 -27h553v-481h-553v481zM-616 -115v-299h350v299h-350z" />
    <glyph glyph-name="uni033C" unicode="&#x33c;" 
d="M-664 -389l-79 10l30 301q4 37 46.5 54.5t101.5 17.5q39 0 84.5 -29t58.5 -65q24 39 51.5 57t67.5 18q56 0 94 -42t39 -107l6 -205l-82 -10v221q0 53 -14.5 77.5t-48.5 24.5q-46 0 -72 -32.5t-25 -89.5l5 -201h-74l8 225q0 39 -20.5 70t-55.5 31q-28 0 -40 -1.5
t-27.5 -10t-23 -28.5t-11.5 -55z" />
    <glyph glyph-name="uni033D" unicode="&#x33d;" 
d="M-188 1108h-109l-98 149l-111 -149h-106l174 217l-123 191h84l90 -127l102 127h82l-141 -189z" />
    <glyph glyph-name="uni0342" unicode="&#x342;" 
d="M-682 1186h-113q12 184 49 245.5t144 61.5q37 0 69.5 -21t55 -51.5t43 -60.5t44 -51t48.5 -21q29 0 47.5 11.5t25 31.5t9.5 46.5t1.5 56t0.5 59.5h94q-1 -88 -10 -147t-21 -91t-37 -47.5t-46.5 -19t-61.5 -2.5q-41 1 -76 23t-58.5 53.5t-44 62.5t-41.5 53t-42 23
q-19 0 -33.5 -8.5t-23 -27.5t-13.5 -37t-7 -48t-2.5 -47t-0.5 -47z" />
    <glyph glyph-name="uni0343" unicode="&#x343;" 
d="M-383 1688q90 -12 154.5 -66t64.5 -121q0 -64 -61 -102t-158 -51v61q60 16 94 34t37 44q3 30 -28.5 43t-102.5 18v140z" />
    <glyph glyph-name="uni0344" unicode="&#x344;" 
d="M-502 1894h105l-105 -315h-155zM-938 1247l33 228h194v-228h-227zM-381 1247l33 228h194v-228h-227z" />
    <glyph glyph-name="uni0346" unicode="&#x346;" 
d="M-164 1585v-315h-141v192h-299v-192h-141v315h581z" />
    <glyph glyph-name="uni0347" unicode="&#x347;" 
d="M-1014 -96l791 49l59 -158l-913 -35zM-1014 -557l791 49l59 -158l-913 -34z" />
    <glyph glyph-name="uni0348" unicode="&#x348;" 
d="M-319 -14h155v-488h-194zM-821 -16h155v-488h-194z" />
    <glyph glyph-name="uni0349" unicode="&#x349;" 
d="M-164 -618h-227l2 260l-340 -11v187l545 -27v-6h2z" />
    <glyph glyph-name="uni034A" unicode="&#x34a;" 
d="M-258 1493h94q-1 -88 -10 -147t-21 -91t-37 -47.5t-46.5 -19t-61.5 -2.5q-46 0 -96 37l-33 -121l-135 -86l96 293q-4 5 -13.5 19.5t-13.5 20t-12.5 16t-13.5 15.5t-12.5 11t-14.5 8t-14 2q-19 0 -33.5 -8.5t-23 -27.5t-13.5 -37t-7 -48t-2.5 -47t-0.5 -47h-113
q12 184 49 245.5t144 61.5q66 0 129 -78l57 174l90 43l-82 -305q31 -39 66 -39q29 0 47.5 11.5t25 31.5t9.5 46.5t1.5 56t0.5 59.5z" />
    <glyph glyph-name="uni034B" unicode="&#x34b;" 
d="M-236 1698v-189h-188l27 189h161zM-258 1493h94q-1 -88 -10 -147t-21 -91t-37 -47.5t-46.5 -19t-61.5 -2.5q-41 1 -76 23t-58.5 53.5t-44 62.5t-41.5 53t-42 23q-19 0 -33.5 -8.5t-23 -27.5t-13.5 -37t-7 -48t-2.5 -47t-0.5 -47h-113q12 184 49 245.5t144 61.5
q37 0 69.5 -21t55 -51.5t43 -60.5t44 -51t48.5 -21q29 0 47.5 11.5t25 31.5t9.5 46.5t1.5 56t0.5 59.5z" />
    <glyph glyph-name="uni034C" unicode="&#x34c;" 
d="M-627 1466h-96q11 160 41.5 212.5t122.5 52.5q32 0 60 -18t47.5 -44.5t37.5 -52.5t38.5 -44t41.5 -18t35 8t21 18.5t10.5 30.5t4 35t0.5 42.5t1 42.5h80q-1 -75 -8 -125.5t-18 -79t-32.5 -42t-40.5 -16.5t-53 -2q-35 1 -64.5 20t-50 46t-38 54t-36 46t-36.5 19
q-16 0 -28.5 -7t-19.5 -23.5t-11.5 -32t-6 -41t-2 -40.5t-0.5 -41zM-616 1192h-99q11 161 43 214.5t125 53.5q39 0 73.5 -28t54.5 -61t47 -61t53 -28q21 0 35.5 8t21.5 18t10.5 30.5t4 35.5t0 43t-0.5 43h84q-1 -77 -9 -128t-18.5 -79.5t-32 -42t-40.5 -16.5t-53 -2
q-36 1 -66.5 20t-51.5 46.5t-39 55t-36.5 46.5t-36.5 20q-13 0 -23 -4t-17 -14t-12.5 -19.5t-8.5 -27t-4.5 -28.5t-2.5 -32.5t-1 -31v-31.5z" />
    <glyph glyph-name="uni034D" unicode="&#x34d;" 
d="M-621 -231v-82h146v-70h-146v-82l-133 117zM-129 -436l-133 -117v82h-146v70h146v82z" />
    <glyph glyph-name="uni034E" unicode="&#x34e;" 
d="M-164 -297h-82v-145h-69v145h-82l116 133z" />
    <glyph glyph-name="uni035C" unicode="&#x35c;" 
d="M-979 -377q-146 0 -262.5 16.5t-196 42t-144.5 67t-105.5 82.5t-81.5 97q11 11 21 19.5t20 16t14 11.5q26 -39 56 -70.5t90 -72.5t134.5 -68.5t193 -47t261.5 -19.5t263 19t198.5 47t142.5 67.5t98 73t60 71.5q8 -10 26.5 -23.5t26.5 -23.5q-39 -54 -84 -96.5t-113.5 -83
t-153 -67t-202.5 -42.5t-262 -16z" />
    <glyph glyph-name="uni0361" unicode="&#x361;" 
d="M-979 1583q144 0 262 -16t202.5 -42.5t153 -67t113.5 -83t84 -96.5q-8 -10 -26.5 -23.5t-26.5 -23.5q-26 38 -60 71.5t-98 73t-142.5 67.5t-198.5 47t-263 19t-261.5 -19.5t-193 -47t-134.5 -68.5t-90 -72.5t-56 -70.5q-4 4 -14 11.5t-20 16t-21 19.5q41 56 81.5 97
t105.5 82.5t144.5 67t196 42t262.5 16.5z" />
    <glyph glyph-name="uni0362" unicode="&#x362;" 
d="M-164 -373l-416 -211v144h-1519v125h1519v139z" />
    <glyph glyph-name="uni0370" unicode="&#x370;" horiz-adv-x="1075" 
d="M911 680v-297h-450l14 -383h-311l41 1493h213l31 -813h462z" />
    <glyph glyph-name="uni0371" unicode="&#x371;" horiz-adv-x="710" 
d="M602 451v-197h-299l10 -254h-204l26 987h141l21 -536h305z" />
    <glyph glyph-name="uni0372" unicode="&#x372;" horiz-adv-x="1593" 
d="M166 1536h1264v-211v-143q0 -27 -11 -27q-5 0 -18 19q-28 54 -92 91t-126.5 51.5t-119.5 14.5h-164l41 -1331h-303l59 1331q-176 -4 -207 -6q-201 -13 -299 -151q-9 -5 -14 -19q-12 24 -12 27v311h2v43z" />
    <glyph glyph-name="uni0373" unicode="&#x373;" horiz-adv-x="1048" 
d="M109 1010h831v-140v-94q0 -16 -6 -16t-12 12q-28 52 -94.5 77t-129.5 25h-106l26 -874h-200l41 874q-83 0 -137 -4q-135 -9 -197 -98q-7 -7 -8 -12l-8 16v234z" />
    <glyph glyph-name="uni0374" unicode="&#x374;" horiz-adv-x="587" 
d="M319 1503h105l-105 -315h-155z" />
    </font>
</defs>
</svg>
