<?xml version="1.0" standalone="no"?>
<!DOCTYPE svg PUBLIC "-//W3C//DTD SVG 1.1//EN" "http://www.w3.org/Graphics/SVG/1.1/DTD/svg11.dtd" >
<svg xmlns="http://www.w3.org/2000/svg" xmlns:xlink="http://www.w3.org/1999/xlink" version="1.1">
<metadata>
Created by FontForge 20170731 at Sat Dec  4 21:08:27 2021
 By Aleksey,,,
Copyright (c) 2019 by Abbie Gonzalez. All rights reserved.
</metadata>
<defs>
<font id="OpenDyslexic-Italic" horiz-adv-x="0" >
  <font-face 
    font-family="OpenDyslexic"
    font-weight="400"
    font-style="italic"
    font-stretch="normal"
    units-per-em="2048"
    panose-1="0 0 5 0 0 0 0 0 0 0"
    ascent="1638"
    descent="-410"
    x-height="1081"
    cap-height="1493"
    bbox="-2238 -838 4735 2560"
    underline-thickness="102"
    underline-position="-307"
    slope="-15"
    unicode-range="U+0020-FB02"
  />
<missing-glyph horiz-adv-x="1259" 
d="M1032 1966v-2519h-799v2519h799zM840 1798h-416v-84h164v-94h-168v-82h420v82h-168v94h168v84zM672 1473h-252v-263h420v86h-168v177zM588 1386v-90h-84v90h84zM840 1143h-420v-84h168v-92h-168v-84h252v176h168v84zM840 991h-84v-166h-336v-86h420v252zM840 684h-252
v-141h84v57h84v-117h-252v201h-84v-285h420v285zM840 248h-420v-285h420v285zM756 166v-119h-252v119h252zM840 -94h-420v-84h178l-178 -119v-82h420v82h-258l176 119h82v84z" />
    <glyph glyph-name="fi" unicode="fi" horiz-adv-x="1585" 
d="M1087 1628l166 14l-41 -167h-143q-46 0 -94 -40t-82 -95t-55.5 -109.5t-22.5 -85.5l322 4l-50 -182h-296l-220 -969h-270l283 969l-166 -2l47 182l168 2q18 65 36 119.5t38.5 97t39 77t42 60t43 44.5t46 32t47.5 21.5t51.5 14t53 8t57.5 5.5zM1550 1323l74 233h164
l-51 -233h-187zM1147 0q96 274 159.5 481t157.5 555h185q-177 -575 -230 -1036h-272z" />
    <glyph glyph-name="fl" unicode="fl" horiz-adv-x="1808" 
d="M1087 1628l166 14l-41 -167h-143q-46 0 -94 -40t-82 -95t-55.5 -109.5t-22.5 -85.5l322 4l-50 -182h-296l-220 -969h-270l283 969l-166 -2l47 182l168 2q18 65 36 119.5t38.5 97t39 77t42 60t43 44.5t46 32t47.5 21.5t51.5 14t53 8t57.5 5.5zM1124 0q1 4 24 91t36 135
t42.5 157t54 190t59.5 197.5t68.5 216t72 210t79.5 214t82 195.5h218q-168 -445 -321 -912t-116 -467h269l-50 -227h-518z" />
    <glyph glyph-name="f_f" unicode="ff" horiz-adv-x="2002" 
d="M1087 1628l166 14l-41 -167h-143q-46 0 -94 -40t-82 -95t-55.5 -109.5t-22.5 -85.5l322 4l-50 -182h-296l-220 -969h-270l283 969l-166 -2l47 182l168 2q18 65 36 119.5t38.5 97t39 77t42 60t43 44.5t46 32t47.5 21.5t51.5 14t53 8t57.5 5.5zM2089 1628l166 14l-41 -167
h-143q-46 0 -94 -40t-82 -95t-55.5 -109.5t-22.5 -85.5l321 4l-49 -182h-297l-219 -969h-270l282 969l-166 -2l47 182l168 2q20 72 41 131t41.5 104t45.5 80t46 59.5t50.5 42.5t52 28t56.5 17.5t58.5 10.5t63.5 6z" />
    <glyph glyph-name="f_f_i" unicode="ffi" horiz-adv-x="2586" 
d="M1087 1628l166 14l-41 -167h-143q-46 0 -94 -40t-82 -95t-55.5 -109.5t-22.5 -85.5l322 4l-50 -182h-296l-220 -969h-270l283 969l-166 -2l47 182l168 2q18 65 36 119.5t38.5 97t39 77t42 60t43 44.5t46 32t47.5 21.5t51.5 14t53 8t57.5 5.5zM2089 1628l166 14l-41 -167
h-143q-46 0 -94 -40t-82 -95t-55.5 -109.5t-22.5 -85.5l321 4l-49 -182h-297l-219 -969h-270l282 969l-166 -2l47 182l168 2q20 72 41 131t41.5 104t45.5 80t46 59.5t50.5 42.5t52 28t56.5 17.5t58.5 10.5t63.5 6zM2552 1323l74 233h163l-51 -233h-186zM2148 0
q97 278 161 486t157 550h184q-175 -569 -229 -1036h-273z" />
    <glyph glyph-name="f_f_l" unicode="ffl" horiz-adv-x="2809" 
d="M1087 1628l166 14l-41 -167h-143q-46 0 -94 -40t-82 -95t-55.5 -109.5t-22.5 -85.5l322 4l-50 -182h-296l-220 -969h-270l283 969l-166 -2l47 182l168 2q18 65 36 119.5t38.5 97t39 77t42 60t43 44.5t46 32t47.5 21.5t51.5 14t53 8t57.5 5.5zM2089 1628l166 14l-41 -167
h-143q-46 0 -94 -40t-82 -95t-55.5 -109.5t-22.5 -85.5l321 4l-49 -182h-297l-219 -969h-270l282 969l-166 -2l47 182l168 2q20 72 41 131t41.5 104t45.5 80t46 59.5t50.5 42.5t52 28t56.5 17.5t58.5 10.5t63.5 6zM2126 0q1 4 24 91t36 135t42.5 157t54 190t59.5 197.5
t68.5 216t72 210t79.5 214t82 195.5h217q-167 -442 -320.5 -910.5t-115.5 -468.5h268l-49 -227h-518z" />
    <glyph glyph-name=".notdef" horiz-adv-x="1259" 
d="M1032 1966v-2519h-799v2519h799zM840 1798h-416v-84h164v-94h-168v-82h420v82h-168v94h168v84zM672 1473h-252v-263h420v86h-168v177zM588 1386v-90h-84v90h84zM840 1143h-420v-84h168v-92h-168v-84h252v176h168v84zM840 991h-84v-166h-336v-86h420v252zM840 684h-252
v-141h84v57h84v-117h-252v201h-84v-285h420v285zM840 248h-420v-285h420v285zM756 166v-119h-252v119h252zM840 -94h-420v-84h178l-178 -119v-82h420v82h-258l176 119h82v84z" />
    <glyph glyph-name=".null" 
 />
    <glyph glyph-name="nonmarkingreturn" horiz-adv-x="682" 
 />
    <glyph glyph-name="space" unicode=" " horiz-adv-x="1712" 
 />
    <glyph glyph-name="exclam" unicode="!" horiz-adv-x="696" 
d="M721 1640h250l-281 -1050l-391 -94zM233 258h261l-68 -258h-260z" />
    <glyph glyph-name="quotedbl" unicode="&#x22;" horiz-adv-x="811" 
d="M156 1481h227l-4 -178h-8l96 -299h-197zM696 1481h228l-4 -178h-9l97 -299h-197z" />
    <glyph glyph-name="numbersign" unicode="#" horiz-adv-x="2353" 
d="M2396 997h-573l-176 -497h616l-100 -176h-580l-147 -414h-258l165 414h-380l-148 -418h-287l174 418h-450l125 176h399l207 497h-498l101 177h471l200 481h179l-170 -481h420l194 485h178l-172 -485h617zM1415 500l199 497h-412l-176 -497h389z" />
    <glyph glyph-name="dollar" unicode="$" horiz-adv-x="1536" 
d="M1251 788q109 -23 189 -58t134.5 -85.5t69 -114t-7.5 -143.5q-32 -102 -70.5 -171.5t-84 -115.5t-111.5 -72t-139 -37.5t-180 -15.5l-39 -153l-144 -6l39 157h-110h-72l-37 -147l-143 -6l39 157q-141 8 -226.5 48.5t-128.5 138.5l320 158q37 -33 106 -60l107 430
q-124 49 -162.5 129.5t-1.5 204.5q35 113 120 198.5t210 135.5l55 223l143 6l-45 -184q80 17 187 20l39 154l143 6l-41 -162q121 -8 283 -41l-138 -141q-111 27 -182 29zM1231 1272q-99 -3 -189 -25l-98 -391q58 -21 127 -33l45 -8zM772 1055q-23 -76 47 -133l66 264
q-91 -54 -113 -131zM936 193h27l106 430l-123 20l-53 10l-109 -436q80 -24 152 -24zM1374 399q45 124 -172 191l-96 -389q103 13 168 57.5t100 140.5z" />
    <glyph glyph-name="percent" unicode="%" horiz-adv-x="1656" 
d="M141 -92l1448 1632h133l-1372 -1632h-209zM702 829q-146 -5 -204 86t-11 261q44 158 150 255t248 97q143 0 200.5 -89.5t18.5 -244.5q-41 -162 -150 -260.5t-252 -104.5zM752 1016q23 1 45.5 4t55.5 14.5t59 29.5t48.5 52t30.5 78q8 35 3.5 74.5t-17 72t-42 54
t-71.5 20.5q-72 -2 -144 -62t-112 -159q-40 -97 -5 -141t149 -37zM1198 59q-146 -5 -204 86t-11 261q44 158 150 255t247 97q143 0 200.5 -89.5t18.5 -244.5q-41 -162 -149.5 -260.5t-251.5 -104.5zM1247 246q23 1 45.5 4t55.5 14.5t59 29.5t49 52t31 78q8 35 3.5 74.5
t-17 72t-42 54t-71.5 20.5q-72 -2 -144 -62t-112 -159q-40 -97 -5 -141t148 -37z" />
    <glyph glyph-name="ampersand" unicode="&#x26;" horiz-adv-x="1656" 
d="M1667 653q-47 -188 -270 -377q96 -110 100 -114q-46 -43 -106 -96l-111 122q-89 -60 -172 -98.5t-137 -46.5l-9 -3q-9 -3 -25.5 -8t-38.5 -10.5t-50 -11.5t-58.5 -11t-66.5 -8t-70 -3q-168 0 -323 137q-40 35 -55 134t4 161q36 133 124 236.5t271 207.5l-92 103
q-41 45 -54 98.5t6 117.5t72 130q57 70 169 112.5t210 51.5q294 28 365 -129q30 -74 27 -116.5t-36 -101.5q-56 -104 -274 -231q-46 -26 -143 -78q167 -192 374 -432q144 108 183 264h186zM993 1403q-61 -2 -115 -13t-93 -29t-70.5 -41t-49.5 -48t-26.5 -49.5t-4.5 -47.5
t19 -40l168 -195q17 8 59 27.5t61.5 29t56.5 27.5t56.5 29.5t48.5 29.5t45.5 33t34.5 33t28.5 36.5t15.5 37.5q24 86 -45.5 134.5t-188.5 45.5zM842 229q60 0 149.5 20.5t177.5 61.5l-387 432q-40 -24 -71.5 -47t-61 -51.5t-47 -57.5t-31 -65.5t-12 -75t9.5 -86.5
q16 -63 95.5 -97t177.5 -34z" />
    <glyph glyph-name="quotesingle" unicode="'" horiz-adv-x="573" 
d="M459 1481h227l-4 -178h-8l96 -299h-197z" />
    <glyph glyph-name="parenleft" unicode="(" horiz-adv-x="903" 
d="M487 -410l-208 15q-31 252 -7.5 567.5t86.5 544.5q77 220 252 466t410 470l158 -15q-221 -224 -385 -469t-234 -469q-29 -126 -50.5 -261.5t-37 -287t-12 -299.5t27.5 -262z" />
    <glyph glyph-name="parenright" unicode=")" horiz-adv-x="903" 
d="M416 -410q24 114 27.5 262t-12 299.5t-37 287t-50.5 261.5q-70 224 -234 469.5t-384 468.5l157 15q235 -224 410 -470t252 -466q63 -230 87 -544.5t-7 -567.5z" />
    <glyph glyph-name="asterisk" unicode="*" horiz-adv-x="1312" 
d="M752 586l100 377l-363 -242l-63 137l414 195l-351 153l125 140l285 -203l51 338l166 39l-100 -377l446 243l-20 -139l-416 -194l363 -156l-138 -137l-284 203l-54 -347z" />
    <glyph glyph-name="plus" unicode="+" horiz-adv-x="1282" 
d="M1288 641l-41 -152l-358 3l-105 -388h-174l105 390l-416 2l39 151l418 -2l108 404h174l-108 -406z" />
    <glyph glyph-name="comma" unicode="," horiz-adv-x="663" 
d="M557 217l-264 -477h-197l191 299h-8l51 178h227z" />
    <glyph glyph-name="hyphen" unicode="-" horiz-adv-x="1140" 
d="M350 686h807l-49 -186h-809z" />
    <glyph glyph-name="period" unicode="." horiz-adv-x="540" 
d="M221 207h209l-55 -207h-209z" />
    <glyph glyph-name="slash" unicode="/" horiz-adv-x="1050" 
d="M90 -279l981 1686l217 96l-846 -1569z" />
    <glyph glyph-name="zero" unicode="0" horiz-adv-x="1374" 
d="M684 -29q-254 0 -336.5 198t17.5 576q102 381 291.5 578t443.5 197q255 0 332.5 -195.5t-25.5 -579.5q-101 -379 -285.5 -576.5t-437.5 -197.5zM782 342q154 0 263 132.5t206 416.5q147 549 -172 549q-314 0 -461 -549q-74 -284 -34 -416.5t198 -132.5zM868 657
q-31 0 -48.5 17.5t-21 46t-0.5 58t11 61.5q13 49 27 87t34.5 73.5t48.5 55t62 19.5q59 0 66 -64t-25 -171q-12 -44 -29.5 -82t-51 -69.5t-73.5 -31.5z" />
    <glyph glyph-name="one" unicode="1" horiz-adv-x="1200" 
d="M166 0l76 281l284 8l326 1020l-291 -133l70 186q253 131 338 131h125l-324 -1202l340 -10l-76 -281h-868z" />
    <glyph glyph-name="two" unicode="2" horiz-adv-x="1320" 
d="M166 0l129 289q25 58 113.5 118.5t246.5 147.5q136 74 236 147t148 122t96 110q59 74 77 147q32 119 -32 194t-199 75q-192 0 -467 -133l68 204q273 99 440 99q234 0 342.5 -115.5t56.5 -310.5q-2 -9 -7 -26q-11 -43 -17.5 -64.5t-21.5 -61.5t-30 -66t-43 -68t-61.5 -78
t-83.5 -86t-112 -101.5t-144.5 -115.5t-181.5 -136h493l-55 -291h-991z" />
    <glyph glyph-name="three" unicode="3" horiz-adv-x="1323" 
d="M561 -29q-188 0 -383 74l166 274q45 -19 150 -32t161 -13q107 0 181.5 13t120.5 41.5t70.5 64.5t39.5 90q29 109 -41.5 183.5t-230.5 74.5h-195l80 160h197q163 0 267 56.5t140 189.5q21 79 -16 134t-113 80t-182 25q-183 0 -410 -69l86 143q132 34 212 47t167 13
q232 0 339 -104t60 -283q-34 -123 -119 -199t-245 -129q165 -25 211.5 -111.5t5.5 -238.5q-64 -239 -248.5 -361.5t-470.5 -122.5z" />
    <glyph glyph-name="four" unicode="4" horiz-adv-x="1478" 
d="M1481 627l-56 -209l-194 -2l-78 -416h-322l138 416l-469 -4l-2 -2v2h-95l25 184l895 893l107 6l-21 -113l2 -2l-4 -4l-139 -755zM680 604l354 10l187 564z" />
    <glyph glyph-name="five" unicode="5" horiz-adv-x="1306" 
d="M555 -29q-189 0 -381 64l162 342q91 -57 152.5 -76.5t166.5 -19.5q161 0 262.5 70.5t124.5 158.5q13 48 13.5 86t-7.5 63.5t-28 43.5t-41.5 28t-56 15t-62.5 6.5t-69 1.5q-127 0 -408 -33l238 760l813 12l-33 -150h-668l-96 -430h201q56 0 107.5 -6.5t103 -21t92.5 -37.5
t75.5 -57t51 -79t20 -103t-17.5 -130q-65 -242 -252 -375t-463 -133z" />
    <glyph glyph-name="six" unicode="6" horiz-adv-x="1374" 
d="M696 -29q-261 0 -346.5 198t15.5 576q95 354 321.5 564.5t511.5 210.5h318l-43 -160h-310q-207 0 -343 -118.5t-226 -395.5q90 78 181.5 109.5t205.5 31.5q227 0 323 -136.5t33 -371.5q-63 -230 -238.5 -369t-402.5 -139zM766 238q135 0 237 69t130 172q43 161 -13 254.5
t-194 93.5q-137 0 -242.5 -93.5t-148.5 -254.5q-28 -103 35 -172t196 -69z" />
    <glyph glyph-name="seven" unicode="7" horiz-adv-x="1298" 
d="M571 1489l955 -25l-617 -1464h-356l723 1315l-750 28z" />
    <glyph glyph-name="eight" unicode="8" horiz-adv-x="1406" 
d="M696 -29q-253 0 -364 117t-53 332q38 140 156 240.5t276 134.5q-119 32 -160 119.5t-6 218.5q44 164 192.5 265t368.5 101q219 0 312.5 -101t49.5 -265q-35 -130 -123 -218t-225 -120q141 -34 206.5 -134.5t27.5 -240.5q-58 -215 -232.5 -332t-425.5 -117zM942 895
q127 0 224.5 80t129.5 199q27 99 -31 163t-186 64q-129 0 -222 -64t-118 -163q-33 -119 21.5 -199t181.5 -80zM774 256q141 0 240.5 53.5t120.5 130.5q35 135 -27.5 212t-208.5 77t-250 -77t-141 -212q-21 -77 51.5 -130.5t214.5 -53.5z" />
    <glyph glyph-name="nine" unicode="9" horiz-adv-x="1372" 
d="M582 -27q-157 0 -338 41l121 277q78 -21 181 -35t175 -14q42 0 66.5 0.5t59 3.5t55.5 9t49.5 17t47 27t41.5 40t40.5 55.5t36.5 73t36 93.5q-195 -55 -362 -55q-226 0 -322 136t-33 370q61 230 236.5 369t402.5 139q135 0 221.5 -41t132 -132t39.5 -240.5t-63 -361.5
q-33 -123 -69 -222.5t-70.5 -175.5t-78 -133.5t-81.5 -97t-90.5 -66.5t-94.5 -42.5t-105 -23t-111 -9.5t-123 -2zM825 698q180 0 299.5 81t169.5 265q46 177 -26 263t-244 86q-168 0 -291 -94t-166 -255q-43 -164 24.5 -255t233.5 -91z" />
    <glyph glyph-name="colon" unicode=":" horiz-adv-x="561" 
d="M463 1104h229l-61 -227h-230zM225 223h230l-62 -227h-229z" />
    <glyph glyph-name="semicolon" unicode=";" horiz-adv-x="663" 
d="M496 997h229l-61 -227h-230zM557 217l-264 -477h-197l191 299h-8l51 178h227z" />
    <glyph glyph-name="less" unicode="&#x3c;" horiz-adv-x="1665" 
d="M61 465l-6 -2l-2 4l-4 2l4 2l-71 217l1112 549l59 -180l-846 -457l1104 -278l68 -246z" />
    <glyph glyph-name="equal" unicode="=" horiz-adv-x="1253" 
d="M451 827l811 50l18 -158l-932 -35zM328 367l811 49l18 -158l-932 -35z" />
    <glyph glyph-name="greater" unicode="&#x3e;" horiz-adv-x="1665" 
d="M1612 471l4 -2l-4 -2l-2 -4l-6 2l-1418 -389l68 246l1104 278l-846 457l59 180l1112 -549z" />
    <glyph glyph-name="question" unicode="?" horiz-adv-x="1005" 
d="M461 319l63 238q63 236 64 242q214 69 268 96q85 40 118 103q14 26 23 61q47 177 -79 203q-93 26 -171.5 10.5t-171.5 -94.5q-14 30 -24.5 46.5t-42.5 55.5q60 48 125 78t126 40t114.5 7.5t103.5 -14.5q115 -28 149.5 -110t3.5 -200q-30 -112 -77 -185t-105 -113.5
t-151 -77.5l-86 -326q-3 -10 -86.5 -28.5t-163.5 -31.5zM442 215h209l-55 -207h-209z" />
    <glyph glyph-name="at" unicode="@" horiz-adv-x="1153" 
d="M1012 887q56 -22 91 -68.5t45.5 -112.5t-14.5 -156t-87 -190q-25 -40 -85.5 -80t-97.5 -40q-90 0 -57 96h2l16 55q-69 -78 -176 -78q-95 0 -132.5 62t3.5 153q44 95 105.5 158.5t115.5 63.5q49 0 94 -16.5t56 -47.5l6 64h43l-59 -424h-4q0 -57 82 28q11 10 22 23
q51 57 73.5 97.5t37.5 100.5q8 29 9 58t-5 59.5t-24 56.5t-46 46.5t-74.5 32.5t-105.5 12q-72 0 -139 -28t-115 -71t-78 -79.5t-47 -67.5q-3 -5 -13.5 -24t-14 -26l-12.5 -25t-13.5 -31t-11 -32.5t-11 -40.5t-8.5 -44q-16 -103 94 -158q59 -29 122 -38.5t106.5 -6.5
t132.5 14q36 4 127 25q8 3 8 -2l6 -152q0 -8 -4 -8q-158 -55 -359 -55q-114 1 -193.5 32.5t-117 84.5t-48.5 121t8.5 143.5t57 151t93.5 145.5t121 125q51 42 116 68t120.5 33.5t109 7t85 -5t44.5 -9.5zM674 432q45 0 73.5 4.5t47 11t30.5 25t18.5 35t16.5 53.5q7 25 7.5 45
t-3.5 33t-14 22.5t-19.5 14.5t-24 8t-25.5 3.5t-25 0.5q-34 0 -74.5 -40t-69.5 -89q-17 -28 -25 -46.5t-10 -35t8 -25.5t31.5 -14.5t57.5 -5.5z" />
    <glyph glyph-name="A" unicode="A" horiz-adv-x="1712" 
d="M1538 -2h-301v240l-623 41l-141 -281h-266l979 1538l186 -2zM1272 485v920l-535 -920h535z" />
    <glyph glyph-name="B" unicode="B" horiz-adv-x="1421" 
d="M166 0l399 1538h471q22 0 65 1q90 2 133.5 -2.5t97.5 -30t70 -92.5t3 -179q-21 -178 -97.5 -263t-222.5 -106q191 -32 261.5 -142t21.5 -306q-19 -78 -48 -139t-63.5 -104.5t-81 -75t-94 -50.5t-111 -30t-124 -15t-139.5 -4h-541zM1036 1403h-303l-129 -465h303
q79 0 135.5 13t103.5 46.5t76 94.5t42 153q3 24 5 43t-1 34.5t-5 26.5t-12 20t-16 14.5t-24.5 9.5t-29.5 6t-39 3t-44.5 1h-54.5h-3.5h-3.5zM889 774h-328l-110 -477h325q72 0 122 4.5t99 18.5t80 39.5t54.5 68t33.5 102.5q5 30 4.5 54t-3.5 39.5t-12.5 32t-16.5 26
t-23 27.5q-56 65 -225 65z" />
    <glyph glyph-name="C" unicode="C" horiz-adv-x="1482" 
d="M1720 1520l-71 -185q-62 20 -88.5 27.5t-75.5 16t-96.5 5.5t-106.5 -16q-65 -14 -130.5 -37t-152.5 -71.5t-158 -112.5t-135 -166.5t-96 -226.5q-22 -88 -25.5 -157.5t8.5 -118t41 -84t64 -56.5t85.5 -33t98 -16t109.5 -4q224 0 371 41l-94 -353h-643q-52 0 -113 50.5
t-113 149.5t-64.5 245t32.5 336q91 359 346 574t598 226q241 7 409 -34z" />
    <glyph glyph-name="D" unicode="D" horiz-adv-x="1599" 
d="M166 0l420 1534h420q438 0 593 -180t56 -566q-32 -124 -69 -224t-75.5 -177t-89.5 -135.5t-98 -100t-115 -69.5t-127 -44t-147.5 -24.5t-162.5 -11t-185 -2.5h-420zM485 389h246q152 0 273.5 24t204 64.5t143 100.5t95 124t56.5 144q74 274 -52 409.5t-441 135.5h-248z
" />
    <glyph glyph-name="E" unicode="E" horiz-adv-x="1329" 
d="M166 0l442 1536l844 29l-84 -205l-610 -39l-121 -422l514 23l-47 -170l-514 -33l-101 -410h691l-15 -309h-999z" />
    <glyph glyph-name="F" unicode="F" horiz-adv-x="1206" 
d="M166 0l473 1536l801 25l-35 -136l-610 -34l-158 -402l565 37l-55 -209l-555 -37l-156 -780h-270z" />
    <glyph glyph-name="G" unicode="G" horiz-adv-x="1734" 
d="M911 -29q-360 0 -489.5 198.5t-56.5 575.5q27 139 69 249t93 189.5t120 137.5t140 93.5t162 56.5t178 28.5t196 7.5q239 0 403 -28l-20 -201q-162 43 -406 43q-92 0 -146.5 -3t-120.5 -14t-105.5 -34t-86 -62t-79.5 -99.5t-67.5 -144.5t-67.5 -198q-26 -112 -27 -190.5
t21 -133.5t74.5 -86.5t128.5 -45t190 -13.5q244 0 338 76l47 182l-266 47l24 162l565 -66l-18 -196l-137 24l-92 -424q-155 -68 -288 -99.5t-276 -31.5z" />
    <glyph glyph-name="H" unicode="H" horiz-adv-x="1828" 
d="M1550 1536h215l-335 -1536h-330l112 383h-647l-86 -383h-313l440 1536h215l-190 -856h667z" />
    <glyph glyph-name="I" unicode="I" horiz-adv-x="620" 
d="M166 0q148 398 273 866t159 670h225q-252 -816 -368 -1536h-289z" />
    <glyph glyph-name="J" unicode="J" horiz-adv-x="995" 
d="M586 117q-10 -35 -27.5 -69.5t-44.5 -66t-58 -50.5t-71 -18.5t-80 26.5l-94 36l-154 -309l191 -41q91 -20 163.5 -21t129.5 19t100 54.5t79 94t63 127.5t55 164l432 1473h-287z" />
    <glyph glyph-name="K" unicode="K" horiz-adv-x="1509" 
d="M166 0l526 1536h191l-191 -719l594 719h285l-705 -825l480 -711l-484 -20l-227 632l-205 -612h-264z" />
    <glyph glyph-name="L" unicode="L" horiz-adv-x="1300" 
d="M125 0l453 1536h202l-301 -1237l717 12l-61 -311h-1010z" />
    <glyph glyph-name="M" unicode="M" horiz-adv-x="1808" 
d="M166 0l452 1493h306l149 -901l623 901h282l-336 -1493h-333l493 1272l-725 -1143h-225l-96 1143l-295 -1272h-295z" />
    <glyph glyph-name="N" unicode="N" horiz-adv-x="1566" 
d="M166 0l504 1434h254l264 -1149l424 1204h188l-483 -1489h-332l-190 1262l-297 -1262h-332z" />
    <glyph glyph-name="O" unicode="O" horiz-adv-x="1726" 
d="M856 -29q-94 1 -166 8.5t-136.5 25t-108.5 46t-77.5 71t-48.5 100.5t-16 134.5t14.5 173t47.5 215.5q95 353 342 564t565 211q211 0 346 -96.5t171.5 -268.5t-28.5 -410q-47 -162 -94 -278.5t-106 -205t-124.5 -143.5t-154.5 -89t-189.5 -46.5t-236.5 -11.5zM961 354
q117 0 205.5 18t165.5 61t130.5 121t83.5 191q47 191 29 331t-107 220t-235 80q-220 0 -398 -173.5t-255 -457.5q-20 -76 -21 -136t17.5 -103t51.5 -72.5t84.5 -47t111.5 -25t137 -7.5z" />
    <glyph glyph-name="P" unicode="P" horiz-adv-x="1335" 
d="M166 0l477 1466h385q92 0 166.5 -18t123.5 -50t82.5 -74t47 -90.5t14 -99t-13.5 -100.5q-60 -222 -211 -335.5t-408 -125.5l-249 -12l-109 -561h-305zM1001 1333h-225l-129 -487l281 12q84 3 136.5 14t100 39t77.5 79.5t52 133.5q7 18 3 40.5t-11.5 45.5t-31 45.5
t-54.5 39.5t-83 27.5t-116 10.5z" />
    <glyph glyph-name="Q" unicode="Q" horiz-adv-x="1798" 
d="M1335 86l226 -350h-480l-149 239q-43 -4 -86 -4q-94 0 -165.5 8t-139.5 29.5t-112.5 58t-76.5 95.5t-40.5 139.5t4 192t49.5 251.5q42 154 130 295t205.5 247.5t267 169.5t304.5 63q317 0 447.5 -210.5t35.5 -564.5q-33 -124 -81 -229t-107.5 -184.5t-112 -134
t-119.5 -111.5zM1229 1356q-143 0 -277.5 -87.5t-228 -225t-137.5 -298.5q-21 -78 -28 -142.5t-0.5 -107t21 -76t37 -51t48 -30.5t53.5 -15t53.5 -4.5t48.5 0.5l111 5l110 155q165 -100 279 -100q30 0 75 59t85.5 144t60.5 163q75 283 -7.5 447t-303.5 164z" />
    <glyph glyph-name="R" unicode="R" horiz-adv-x="1417" 
d="M1079 741q63 -37 112 -128.5t52 -204.5l8 -408h-372l120 383q15 54 13 93t-25 64t-51.5 39t-68 19t-74.5 4t-70 -6l-113 -18l-121 -578h-323l493 1493h367q232 0 328.5 -108t38.5 -322q-37 -144 -118.5 -224t-195.5 -98zM1020 1386h-258l-150 -557h258q119 0 236 70
t143 164q17 62 17.5 112.5t-13 85t-36 59.5t-55 39t-67 20.5t-75.5 6.5z" />
    <glyph glyph-name="S" unicode="S" horiz-adv-x="1572" 
d="M1569 1475l-127 -152q-75 21 -117.5 27t-146.5 6q-175 0 -302.5 -59.5t-158.5 -172.5q-24 -92 55 -153t221 -92l115 -25q233 -49 345 -158t65 -284q-22 -83 -46 -145.5t-59.5 -109t-63.5 -78t-85 -52.5t-95 -32.5t-122 -16.5t-138.5 -6t-169.5 -1q-86 0 -128 1
t-107.5 6.5t-100 18t-76.5 34.5t-68.5 57.5t-45.5 85.5l297 168q48 -47 161.5 -92t196.5 -45q58 0 98.5 2.5t84.5 10t75.5 22.5t61 39t51.5 61t37 86q28 88 -47.5 145.5t-231.5 90.5l-118 24q-216 44 -292 140.5t-32 267.5q54 199 225.5 312.5t419.5 113.5q105 0 183 -9.5
t186 -35.5z" />
    <glyph glyph-name="T" unicode="T" horiz-adv-x="1607" 
d="M520 1323l45 170h1276l-45 -170l-530 20l-318 -1343h-286l399 1343z" />
    <glyph glyph-name="U" unicode="U" horiz-adv-x="1564" 
d="M348 561l217 932h256l-233 -768q-25 -81 -38.5 -143.5t-11.5 -107.5t6.5 -77t30.5 -52t45 -31t66 -16t76.5 -6t93.5 -1q56 0 83 0.5t72.5 4t68 11.5t57.5 22t54 36t45.5 54.5t44 76t36.5 100.5t35 129l178 768h268l-295 -932q-40 -126 -81.5 -218.5t-77 -156.5
t-90.5 -105t-93 -63.5t-114.5 -32.5t-124.5 -12t-152 -2q-75 0 -110 0.5t-93.5 4t-83.5 11.5t-65.5 22t-54.5 36t-35 53.5t-22.5 75t-2 100t11.5 128t33 159.5z" />
    <glyph glyph-name="V" unicode="V" horiz-adv-x="1712" 
d="M1057 0h-422l-70 1493h213l127 -1055h99l733 1055h211z" />
    <glyph glyph-name="W" unicode="W" horiz-adv-x="2240" 
d="M502 0l63 1493h197l18 -1071l543 690h178l137 -711l639 1092h197l-778 -1493h-297l-62 807l-516 -807h-319z" />
    <glyph glyph-name="X" unicode="X" horiz-adv-x="1632" 
d="M1817 1495l-668 -756l317 -739h-327l-174 528l-467 -528l-332 4l727 737l-248 752h182l244 -571l565 573h181z" />
    <glyph glyph-name="Y" unicode="Y" horiz-adv-x="1581" 
d="M786 512l-221 981h219l203 -764l608 764h220l-754 -981l-137 -512h-275z" />
    <glyph glyph-name="Z" unicode="Z" horiz-adv-x="1665" 
d="M739 1237l834 -12l-1331 -940l-76 -285l1292 12l-20 287h-938l1333 942l41 154h-1186z" />
    <glyph glyph-name="bracketleft" unicode="[" horiz-adv-x="974" 
d="M1153 1288h-360l-474 -1368h381l-53 -199h-557l590 1713h512z" />
    <glyph glyph-name="backslash" unicode="\" horiz-adv-x="976" 
d="M631 1567l170 -1608l-226 -324l-61 1663z" />
    <glyph glyph-name="bracketright" unicode="]" horiz-adv-x="974" 
d="M295 1434l590 -1713h-557l-54 199h381l-473 1368h-360l-39 146h512z" />
    <glyph glyph-name="asciicircum" unicode="^" horiz-adv-x="1150" 
d="M537 1163h98l47 -131l201 -268h-113l-246 203l-348 -203h-113l347 268z" />
    <glyph glyph-name="underscore" unicode="_" horiz-adv-x="1646" 
d="M131 -205l1292 -4l-69 -186l-1295 4z" />
    <glyph glyph-name="grave" unicode="`" horiz-adv-x="847" 
d="M754 1298l-179 230h162l285 -260z" />
    <glyph glyph-name="a" unicode="a" horiz-adv-x="1357" 
d="M1217 913l18 162h106l-149 -1075h-186l45 168q-84 -97 -201.5 -147t-245.5 -50q-120 0 -208 42t-132 114t-43 173t53 214q112 241 269 401t295 160q58 0 115 -9t112 -27t96 -50.5t56 -75.5zM508 594q-42 -71 -62.5 -118.5t-24.5 -89.5t20.5 -65.5t80 -37t146.5 -13.5
q96 0 160 4.5t113 23.5t76 36.5t51.5 64t36.5 84t34 117.5q17 63 18 113.5t-9.5 83.5t-35 57.5t-49.5 37t-62 20t-64 9t-63 1.5q-59 0 -131 -53.5t-130 -124.5t-105 -150z" />
    <glyph glyph-name="b" unicode="b" horiz-adv-x="1351" 
d="M713 -31q-83 0 -165.5 27t-143.5 82t-68 125q-8 41 25 221.5t110.5 562t128.5 655.5h236l-134 -589q-9 -40 -0.5 -42t37.5 22l19.5 13t22 15t26.5 16l29 14.5t34 14.5t36.5 11.5t41 8.5t43.5 4q206 8 297.5 -149.5t26.5 -421.5q-62 -255 -230.5 -422.5t-371.5 -167.5z
M844 299q129 9 210 78t132 223q58 183 14.5 270.5t-180.5 87.5q-144 0 -251.5 -99.5t-160.5 -266.5q-21 -68 -22.5 -117.5t20 -91t81.5 -63t157 -21.5z" />
    <glyph glyph-name="c" unicode="c" horiz-adv-x="1226" 
d="M1219 1122l-39 -145q-71 24 -211 24q-174 0 -281.5 -113.5t-165.5 -328.5q-19 -97 6 -173.5t80.5 -116t139 -39.5t174.5 46l151 -233q-204 -82 -358 -72q-156 11 -254 53.5t-140.5 116.5t-43 178.5t37.5 239.5q73 272 272 430t464 158q98 0 168 -25z" />
    <glyph glyph-name="d" unicode="d" horiz-adv-x="1378" 
d="M1233 901l231 741h187l-359 -1161l-106 -485l-195 4l45 168q-160 -188 -415 -197q-120 -4 -199 37.5t-112.5 121t-32 187t37.5 242.5q62 230 234 384.5t375 154.5q248 0 309 -197zM455 580q-37 -143 24 -209t213 -66q64 0 109 6t88.5 24t74.5 50t57 83.5t46 125.5
q46 171 -1.5 271t-191.5 100q-146 0 -260 -107.5t-159 -277.5z" />
    <glyph glyph-name="e" unicode="e" horiz-adv-x="1353" 
d="M1360 645l-868 -57q-14 -59 -13.5 -113.5t24.5 -101t64.5 -80t107 -51t150.5 -13.5q55 3 110.5 16.5t92 27.5t107.5 44.5t116 47.5l-67 -308q-226 -86 -439 -86q-270 0 -387 156.5t-45 421.5q86 279 274.5 439.5t442.5 160.5q89 -7 152 -34.5t109 -84.5t63.5 -153
t5.5 -232zM586 748l649 40q10 102 -45.5 167t-185.5 65q-149 0 -269 -83t-149 -189z" />
    <glyph glyph-name="f" unicode="f" horiz-adv-x="1001" 
d="M1087 1628l166 14l-41 -167h-143q-46 0 -94 -40t-82 -95t-55.5 -109.5t-22.5 -85.5l322 4l-50 -182h-296l-220 -969h-270l283 969l-166 -2l47 182l168 2q18 65 36 119.5t38.5 97t39 77t42 60t43 44.5t46 32t47.5 21.5t51.5 14t53 8t57.5 5.5z" />
    <glyph glyph-name="g" unicode="g" horiz-adv-x="1363" 
d="M520 -535q-105 0 -229 26t-203 71l148 270q70 -44 173.5 -63t196.5 -5q66 9 189 93t166 174l53 116q-48 -50 -160 -98.5t-225 -48.5q-137 0 -229 77t-118 209t17 308q69 258 249 415.5t388 145.5q49 -3 88 -14.5t78 -38t60 -44.5t67 -61l82 123h186l-264 -979
q-92 -342 -269.5 -509t-443.5 -167zM659 299q69 -1 114 3.5t95 20.5t83.5 46t64 83.5t51.5 131.5q52 193 -8.5 296t-196.5 103q-137 0 -233 -107.5t-154 -291.5q-20 -63 -27 -109.5t0 -77.5t21.5 -50.5t45.5 -29.5t63 -13.5t81 -4.5z" />
    <glyph glyph-name="h" unicode="h" horiz-adv-x="1398" 
d="M1370 676l-137 -676h-285q73 156 124 283t78.5 214.5t38 155.5t8 107.5t-17 68t-31 41t-40.5 21.5q-40 15 -83 16.5t-90 -11t-93.5 -45t-92 -80.5t-87.5 -122t-78 -166t-65.5 -215.5t-47.5 -267.5h-305l559 1642h186l-223 -681q137 102 208.5 131.5t199.5 29.5
q60 0 101.5 -4t80 -15.5t61 -32.5t39 -53.5t19 -80t-3.5 -111.5t-23 -149z" />
    <glyph glyph-name="i" unicode="i" horiz-adv-x="583" 
d="M549 1323l74 233h163l-51 -233h-186zM145 0q97 278 161 486t157 550h184q-175 -569 -229 -1036h-273z" />
    <glyph glyph-name="j" unicode="j" horiz-adv-x="856" 
d="M893 1532h209l-55 -207h-209zM381 -152q146 272 436 1252h195l-367 -1129q-46 -144 -116.5 -249.5t-110.5 -131.5q-42 -26 -125.5 -44t-171.5 -15.5t-129 33.5l86 235q61 -21 113 -24t88.5 10.5t58 27.5t43.5 35z" />
    <glyph glyph-name="k" unicode="k" horiz-adv-x="1366" 
d="M145 0l523 1624h206l-247 -885l319 269l262 16l-446 -432l438 -592h-424l-221 502l-141 -502h-269z" />
    <glyph glyph-name="l" unicode="l" horiz-adv-x="806" 
d="M123 0q1 4 24 91t36 135t42.5 157t54 190t59.5 197.5t68.5 216t72 210t79.5 214t82 195.5h217q-167 -442 -320.5 -910.5t-115.5 -468.5h268l-49 -227h-518z" />
    <glyph glyph-name="m" unicode="m" horiz-adv-x="2117" 
d="M1430 905q56 67 103 112.5t102 81.5t113.5 48t121.5 0q68 -13 119.5 -48.5t80 -83t43 -106t13 -117t-14.5 -116.5l-159 -676h-279l248 668q47 161 21.5 242t-138.5 75q-253 -12 -405 -385l-246 -600h-258l338 670q23 45 24 98.5t-17 100t-60 79.5t-99 37
q-77 6 -163 -37.5t-152 -115.5t-94 -150l-248 -682h-258l434 1120h186l-67 -153q90 102 192 145.5t226 34.5q276 -20 293 -242z" />
    <glyph glyph-name="n" unicode="n" horiz-adv-x="1384" 
d="M166 0l387 1139h178l-39 -125q7 4 49.5 28.5t54 30.5t50 23.5t63.5 23t65 11.5t83 6q80 0 137.5 -15t98.5 -49.5t60 -89.5t19 -135t-22 -186l-131 -662h-287l250 694q53 147 -0.5 220t-184.5 73q-158 0 -276 -93t-148 -251l-122 -643h-285z" />
    <glyph glyph-name="o" unicode="o" horiz-adv-x="1370" 
d="M678 -23q-248 -9 -346 143t-17 439q74 266 253 431t417 165q241 0 338.5 -151.5t30.5 -413.5q-69 -274 -251.5 -439t-424.5 -174zM762 289q27 2 52 5t63 12t70.5 22t69.5 36t64.5 53t50.5 75.5t33 99.5q7 48 8 99.5t-14 101t-39 88.5t-68.5 62t-101.5 22
q-122 -3 -242.5 -105t-187.5 -268q-69 -164 -9.5 -239.5t251.5 -63.5z" />
    <glyph glyph-name="p" unicode="p" horiz-adv-x="1511" 
d="M565 168l-246 -586l-270 -16l412 919l129 605h186l-4 -154q186 219 414 219q102 0 178 -45.5t115 -125.5t46.5 -189t-28.5 -236q-70 -263 -242 -425.5t-378 -162.5q-113 0 -197.5 50.5t-114.5 146.5zM1331 592q17 98 16.5 166t-22.5 112.5t-57 67.5t-88 31
q-145 22 -259 -80.5t-167 -296.5q-21 -80 -21 -137.5t16.5 -92t54 -54.5t81.5 -27t108 -7q72 0 121 12t94 45t74.5 97t48.5 164z" />
    <glyph glyph-name="q" unicode="q" horiz-adv-x="1593" 
d="M821 -426l215 594q-85 -98 -227.5 -153t-269.5 -44q-133 11 -204.5 92t-75.5 213.5t46 309.5q44 148 113 261t152 181t172 103t184 38q77 2 135.5 -16.5t96 -55.5t60 -80.5t37.5 -101.5l68 205h178l-270 -739l-164 -524l156 41l194 61l-80 -246zM467 586
q-21 -67 -28 -116.5t1.5 -83t25.5 -54.5t50 -32t69.5 -15t90.5 -4q66 0 111.5 5.5t93.5 23.5t81.5 51t64 89t52.5 136q53 200 -6.5 315t-202.5 107q-73 -4 -136.5 -37.5t-113 -91t-87.5 -131t-66 -162.5z" />
    <glyph glyph-name="r" unicode="r" horiz-adv-x="1058" 
d="M1165 1124v-184q-215 -21 -278 -37q-99 -25 -154 -93q-43 -54 -88 -167q-14 -34 -22.5 -117t-19.5 -249.5t-21 -276.5h-416q136 282 213 507t180 609l191 -6l-31 -115q111 70 192.5 95t253.5 34z" />
    <glyph glyph-name="s" unicode="s" horiz-adv-x="1300" 
d="M1303 1124l-76 -135q-205 25 -301 25q-60 0 -110 -19t-81 -49t-49 -62.5t-24 -64.5q-7 -37 5.5 -68t34.5 -50t59 -34.5t65.5 -23t66.5 -14.5q179 -36 253.5 -109.5t76.5 -197.5q1 -63 -16.5 -114.5t-47 -87.5t-74 -63.5t-93 -43.5t-108 -26.5t-115 -14t-118.5 -3.5
q-81 0 -140 7t-116.5 27.5t-92 37.5t-109.5 57l262 224q17 -7 49 -20.5t45 -19t38 -14t43.5 -11.5t45 -6t57.5 -3q228 0 258 114q5 18 -13 33.5t-53.5 27.5t-69 20.5t-77 17.5t-61.5 14q-36 10 -70 24.5t-71 40t-63.5 58t-43 80t-14.5 102.5q2 75 37.5 142t100.5 119.5
t169 83t233 30.5q80 0 179 -14.5t129 -16.5z" />
    <glyph glyph-name="t" unicode="t" horiz-adv-x="1171" 
d="M1307 979h-422l-219 -670q315 0 352 -2l-66 -303q-78 -4 -538 -4q-24 0 -38 10.5t-16 26t-1 26t3 19.5t49 132.5t128.5 345t150.5 419.5h-223l96 158h182q78 231 119 372h195l-123 -372h430z" />
    <glyph glyph-name="u" unicode="u" horiz-adv-x="1353" 
d="M598 -29q-51 0 -88.5 3.5t-73 12.5t-58.5 25t-41.5 41t-26.5 60t-10 82.5t5.5 108.5t22.5 138l137 678h156l-95 -512q-10 -53 -14.5 -93.5t-3 -69t5.5 -47t16.5 -29.5t24 -16t33 -6t39 0t47.5 3t53 2q282 0 387 293l148 475h184l-258 -1120h-225l53 172q-36 -54 -76 -92
t-76.5 -59t-84.5 -32.5t-86.5 -14.5t-94.5 -3z" />
    <glyph glyph-name="v" unicode="v" horiz-adv-x="1560" 
d="M600 0l21 295l-156 825h197l219 -821l616 821h197l-592 -825l-121 -295h-381z" />
    <glyph glyph-name="w" unicode="w" horiz-adv-x="1849" 
d="M461 0l45 1147h186v-741l402 460h127l153 -460l424 743h187l-596 -1149h-261l-100 387l-317 -387h-250z" />
    <glyph glyph-name="x" unicode="x" horiz-adv-x="1632" 
d="M1640 1081l-546 -522l315 -579h-371l-147 385l-404 -385h-309l645 557l-205 532h199l199 -364l436 376h188z" />
    <glyph glyph-name="y" unicode="y" horiz-adv-x="1431" 
d="M1567 1149l-635 -1278q-26 -51 -59 -94t-66 -74t-76 -55t-77.5 -39.5t-81.5 -26.5t-78.5 -16.5t-77.5 -8t-68.5 -3t-61.5 -0.5h-7h-170l65 243h129q74 0 149.5 18.5t143.5 54.5t111 98.5t43 140.5l-285 1040h197l278 -844l430 844h197z" />
    <glyph glyph-name="z" unicode="z" horiz-adv-x="1388" 
d="M614 987l37 137h846l-10 -137l-926 -739h590l51 -248h-1036l121 268l975 719h-648z" />
    <glyph glyph-name="braceleft" unicode="{" horiz-adv-x="1161" 
d="M803 -348l-125 2q-85 2 -143.5 9.5t-100 25.5t-62.5 44.5t-27 70t2.5 97t29.5 130.5l76 237q8 33 12.5 50.5t9.5 43t5.5 38.5t0 30.5t-6.5 26t-14.5 18.5t-22.5 14.5t-33 7.5t-44 3h-61l68 225l61 -2q45 3 68 5.5t49 12t38.5 21t29 38t28 57.5t29.5 85l75 240
q36 113 75.5 180t104 108t145.5 55.5t214 16.5h125l-66 -143l-67 2q-83 -4 -127.5 -12t-79 -34.5t-53 -64.5t-43.5 -114l-78 -248q-53 -159 -127 -228.5t-223 -93.5q88 -19 127.5 -57t40.5 -99t-23 -151l-80 -250q-16 -67 -13 -109.5t44.5 -62.5t134.5 -20h70z" />
    <glyph glyph-name="bar" unicode="|" horiz-adv-x="530" 
d="M604 1434h144l-521 -1741h-143z" />
    <glyph glyph-name="braceright" unicode="}" horiz-adv-x="1161" 
d="M358 -348l-43 205h70q93 0 134.5 20t44.5 62.5t-13 109.5l-80 250q-24 90 -23 151t40.5 99t127.5 57q-149 24 -223 93.5t-127 228.5l-78 248q-25 76 -43.5 114t-53 64.5t-79 34.5t-127.5 12l-67 -2l-66 143h125q133 -2 214 -16.5t145.5 -55.5t104 -108t75.5 -180l76 -240
q18 -54 29.5 -85t28 -57.5t29 -38t38 -21t48.5 -12t68 -5.5l62 2l67 -225h-61q-28 0 -49 -3t-34.5 -11.5t-22.5 -16.5t-11.5 -26t-3 -31t4.5 -41t9.5 -47t14.5 -56l75 -237q21 -77 29.5 -130.5t2.5 -97t-27 -70t-62.5 -44.5t-100 -25.5t-143.5 -9.5z" />
    <glyph glyph-name="asciitilde" unicode="~" horiz-adv-x="968" 
d="M-55 477q61 184 114.5 245.5t161.5 61.5q38 0 65 -21t42 -51t27.5 -60t31 -51t43.5 -21t44 9t30.5 21t22 35.5t15.5 40.5t13.5 49t13.5 49h95q-21 -74 -40.5 -126.5t-40.5 -86.5t-39 -53.5t-43.5 -28.5t-45 -11t-52.5 -1q-41 1 -70 23t-44.5 53.5t-28 62.5t-27.5 53
t-36 23q-23 1 -43.5 -14.5t-33 -33.5t-27 -54t-20 -55t-16.5 -58h-112z" />
    <glyph glyph-name="exclamdown" unicode="&#xa1;" horiz-adv-x="696" 
d="M643 1268l-68 258h261l67 -258h-260zM1130 -115l-421 1145l391 -94l280 -1051h-250z" />
    <glyph glyph-name="cent" unicode="&#xa2;" horiz-adv-x="1193" 
d="M1180 977q-51 18 -144 22l-309 -770q95 -3 195 47l151 -233q-204 -82 -358 -72q-45 3 -86 9l-94 -234l-144 12l103 254q-109 38 -162 113t-53.5 183t36.5 251q66 244 233 397.5t396 184.5l123 305l141 -14l-114 -287q77 -7 125 -23zM522 559q-18 -93 3 -165.5t75 -114.5
l287 714q-137 -25 -225 -135t-140 -299z" />
    <glyph glyph-name="sterling" unicode="&#xa3;" horiz-adv-x="1429" 
d="M805 1358q-48 -41 -60.5 -96.5t-3.5 -137.5l35 -325h463l-49 -168h-393q7 -36 4.5 -80t-8.5 -88t-30.5 -88t-61.5 -80.5t-101.5 -66t-150.5 -44.5q166 12 261.5 11t178 -10t313.5 -42l62 -143h-1098l61 229q135 44 214.5 81.5t125 85.5t60 100.5t12.5 134.5h-258l51 168
h199l-13 280q-6 128 8 204.5t40 110.5t75 64q80 48 163.5 81t175 47t173 2.5t155.5 -60.5t124 -135l-137 -35q-73 70 -161 97.5t-167.5 15.5t-146 -41.5t-115.5 -71.5z" />
    <glyph glyph-name="currency" unicode="&#xa4;" horiz-adv-x="1386" 
d="M1325 393l-199 -160l-112 152q-116 -61 -234 -61q-120 0 -200 61l-195 -152l-115 160l201 158q-21 80 6 180q29 117 123 217l-100 133l200 160l107 -143q93 41 190 41q99 0 170 -41l183 143l114 -160l-170 -133q37 -93 6 -217q-27 -98 -90 -180zM844 567q88 0 167.5 63
t104.5 152q23 88 -23.5 150.5t-134.5 62.5q-89 0 -169 -62.5t-103 -150.5q-25 -89 21 -152t137 -63z" />
    <glyph glyph-name="yen" unicode="&#xa5;" horiz-adv-x="1581" 
d="M1382 616l-303 -12l-90 -305l252 14l19 -157l-318 -13l-84 -284h-274l82 274l-338 -12l102 143l279 17l94 313l-352 -12l102 143l293 18l28 97l-309 653h219l291 -436l520 436h220l-666 -653l-25 -80l240 14z" />
    <glyph glyph-name="brokenbar" unicode="&#xa6;" horiz-adv-x="530" 
d="M604 1434h144l-183 -613l-145 -6zM84 -307l221 743l158 39l-236 -782h-143z" />
    <glyph glyph-name="section" unicode="&#xa7;" horiz-adv-x="1218" 
d="M1022 1280q-121 0 -207.5 -40t-107.5 -118q-18 -63 36.5 -105t151.5 -63l78 -16q155 -33 219 -106.5t31 -196.5q-35 -135 -81 -198t-124 -85q68 -74 39 -188q-15 -57 -31.5 -99.5t-41 -74.5t-43.5 -53.5t-58 -36t-64.5 -22t-83 -11t-94 -4t-115.5 -0.5q-51 0 -75.5 0.5
t-65 3t-61.5 7.5t-50 15t-46 24.5t-34 37t-28 51.5l203 115q34 -33 111 -63.5t134 -30.5q60 0 98 4.5t76 19.5t63.5 46t41.5 81q18 59 -30.5 98t-151.5 62q-195 1 -280 61t-44 166q3 34 12 70q25 92 89.5 159t158.5 101q-91 70 -51 211q35 135 152 213t286 78
q196 0 299 -154l-86 -104q-36 85 -89.5 115t-135.5 30zM1061 645q20 62 -21 101t-143 61h-4q-18 2 -68 2q-121 0 -207.5 -40t-107.5 -118q-17 -64 43 -108q51 -21 129 -35t127 -14q116 0 168 27t84 124z" />
    <glyph glyph-name="dieresis" unicode="&#xa8;" horiz-adv-x="1101" 
d="M555 1454h209l-55 -207h-209zM1118 1454h209l-55 -207h-209z" />
    <glyph glyph-name="copyright" unicode="&#xa9;" horiz-adv-x="1112" 
d="M739 686q-163 0 -246 113t-40 276q43 158 187 270.5t306 112.5t247 -113t42 -270q-43 -162 -188.5 -275.5t-307.5 -113.5zM760 756q132 0 252 94t155 225q35 133 -34 227.5t-203 94.5t-253.5 -94.5t-154.5 -227.5q-35 -131 34.5 -225t203.5 -94zM1024 1294l-14 -55
q-29 10 -82 10q-125 0 -172 -172q-14 -77 33.5 -110.5t119.5 2.5l60 -90q-80 -32 -138 -27q-118 7 -151 61.5t-4 163.5q29 106 105.5 167t179.5 61q37 0 63 -11z" />
    <glyph glyph-name="ordfeminine" unicode="&#xaa;" horiz-adv-x="866" 
d="M946 1341l8 86h58l-80 -563h-96l22 88q-86 -102 -233 -102q-127 0 -177 81.5t5 201.5q58 126 140.5 210t154.5 84q66 0 124 -21.5t74 -64.5zM575 1176q-22 -38 -33 -62.5t-13.5 -46.5t10.5 -34.5t41.5 -19.5t76.5 -7q50 0 84 2.5t59.5 12.5t39.5 19t27 33.5t19.5 43.5
t18.5 61q9 33 9.5 59.5t-5 44t-18 30t-25.5 19t-32.5 10t-34 4.5t-33.5 1q-45 0 -98.5 -52t-92.5 -118z" />
    <glyph glyph-name="guillemotleft" unicode="&#xab;" horiz-adv-x="1323" 
d="M369 586l-78 -121l342 -434l108 229l-219 279l385 258l56 190zM827 578l-77 -121l342 -434l108 229l-219 278l385 258l55 191z" />
    <glyph glyph-name="logicalnot" unicode="&#xac;" horiz-adv-x="1263" 
d="M1243 631l-2 -6h2l-113 -508h-221l95 377l-699 24l49 187z" />
    <glyph glyph-name="uni00AD" unicode="&#xad;" horiz-adv-x="1140" 
d="M350 686h807l-49 -186h-809z" />
    <glyph glyph-name="registered" unicode="&#xae;" horiz-adv-x="1112" 
d="M739 686q-163 0 -246 113t-40 276q43 158 187 270.5t306 112.5t247 -113t42 -270q-43 -162 -188.5 -275.5t-307.5 -113.5zM760 756q132 0 252 94t155 225q35 133 -34 227.5t-203 94.5t-253.5 -94.5t-154.5 -227.5q-35 -131 34.5 -225t203.5 -94zM903 1081
q17 -12 31.5 -38.5t15.5 -57.5l2 -119h-108l35 111q13 42 -14.5 54.5t-65.5 6.5l-33 -4l-35 -168h-94l143 432h107q67 0 95 -31t11 -93q-21 -83 -90 -93zM885 1268h-74l-43 -162h74q35 0 69 20.5t41 47.5q22 94 -67 94z" />
    <glyph glyph-name="macron" unicode="&#xaf;" horiz-adv-x="1062" 
d="M600 1403l645 37l15 -117l-740 -27z" />
    <glyph glyph-name="degree" unicode="&#xb0;" horiz-adv-x="1112" 
d="M739 686q-163 0 -246 113t-40 276q43 157 187 269.5t306 113.5t247 -112.5t42 -270.5q-43 -162 -188.5 -275.5t-307.5 -113.5zM803 889q92 0 173.5 63.5t104.5 153.5q26 92 -21 155.5t-140 63.5q-91 0 -173.5 -63.5t-107.5 -155.5q-23 -90 24.5 -153.5t139.5 -63.5z" />
    <glyph glyph-name="plusminus" unicode="&#xb1;" horiz-adv-x="1282" 
d="M987 725l359 -2l-41 -121l-359 2l-104 -309h-174l104 309l-416 2l39 121l418 -2l109 324h174zM272 80l811 43l19 -137l-932 -31z" />
    <glyph glyph-name="uni00B2" unicode="&#xb2;" horiz-adv-x="1320" 
d="M696 944l60 131q7 19 35.5 42.5t54 38.5t74.5 42q62 34 108 68t66.5 54.5t44.5 49.5q29 37 37 68q13 55 -16 89t-91 34q-90 0 -213 -60l31 92q122 45 200 45q108 0 158 -52.5t25 -141.5q-1 -3 -2 -9q-19 -73 -48 -115q-61 -90 -272 -243h228l-27 -133h-453z" />
    <glyph glyph-name="uni00B3" unicode="&#xb3;" horiz-adv-x="1323" 
d="M844 866q-93 0 -191 37l84 137q22 -9 74.5 -15.5t79.5 -6.5q71 0 114 12.5t62 33.5t29 56q14 55 -20.5 92t-114.5 37h-97l39 80h98q170 0 203 123q16 58 -28.5 88.5t-126.5 30.5q-94 0 -203 -35l43 72q118 28 188 28q116 0 169 -51.5t30 -140.5q-17 -61 -59.5 -98
t-122.5 -64q84 -13 107 -56t1 -118q-32 -120 -123.5 -181t-234.5 -61z" />
    <glyph glyph-name="acute" unicode="&#xb4;" horiz-adv-x="593" 
d="M725 1503h106l-190 -315h-158z" />
    <glyph glyph-name="uni00B5" unicode="&#xb5;" horiz-adv-x="1353" 
d="M1262 1120h184l-258 -1120h-225l53 172q-36 -54 -76 -92t-76.5 -59t-84.5 -32.5t-86.5 -14.5t-94.5 -3q-102 0 -164.5 16.5t-95.5 61.5l-109 -282h-143l225 585q2 17 8.5 48.5t8.5 41.5l137 678h156v-4h129l-240 -620q-5 -58 2.5 -90.5t26.5 -44.5t48 -14t66 2
q15 1 24 1.5t23.5 1t26.5 0.5q282 0 387 293z" />
    <glyph glyph-name="paragraph" unicode="&#xb6;" horiz-adv-x="1271" 
d="M887 1419h160l-560 -1644h-368l444 950q-81 41 -112 132t-2 200q40 148 167.5 253.5t270.5 108.5zM1296 1417h160l-409 -1642h-160z" />
    <glyph glyph-name="periodcentered" unicode="&#xb7;" horiz-adv-x="540" 
d="M360 729h209l-55 -207h-209z" />
    <glyph glyph-name="cedilla" unicode="&#xb8;" horiz-adv-x="675" 
d="M115 -225l137 225h67l-104 -164h64q27 0 52 -4.5t50 -15t38.5 -28t17.5 -44t-13 -63.5q-34 -75 -102 -117.5t-156 -42.5h-129l51 108q45 -10 109 -10q53 0 99 23t54 49q7 19 4 33.5t-5.5 24.5t-13.5 16.5t-19.5 10.5t-23 6t-24.5 2.5t-24 0.5q-44 0 -129 -10z" />
    <glyph glyph-name="uni00B9" unicode="&#xb9;" horiz-adv-x="1200" 
d="M633 932l37 137l139 4l162 502l-144 -66l33 93q126 63 168 63h62l-160 -590l168 -6l-39 -137h-426z" />
    <glyph glyph-name="ordmasculine" unicode="&#xba;" horiz-adv-x="868" 
d="M410 838q-128 -5 -178.5 73.5t-8.5 227.5q38 137 130.5 222t215.5 85q124 0 174.5 -78.5t16.5 -212.5q-37 -142 -131 -227t-219 -90zM453 999q20 1 40 4t49 13t51.5 26t42 45.5t26.5 67.5q12 72 -14.5 133t-96.5 60q-63 -2 -125 -54t-98 -139q-34 -85 -4 -123.5
t129 -32.5z" />
    <glyph glyph-name="guillemotright" unicode="&#xbb;" horiz-adv-x="1323" 
d="M954 586l-594 401l56 -190l385 -258l-219 -279l108 -229l342 434zM496 578l-594 401l55 -191l385 -258l-219 -278l108 -229l342 434z" />
    <glyph glyph-name="onequarter" unicode="&#xbc;" horiz-adv-x="1740" 
d="M985 844l-49 -187h-580l52 187l188 6l217 680l-192 -88l45 123q169 88 225 88h84l-215 -801zM1798 1528h133l-1372 -1632h-209zM1952 301l-37 -139h-131l-51 -279h-213l92 277l-314 -2l-2 -2v2h-63l16 123l598 596l70 4l-14 -76l2 -2l-2 -2l-95 -504zM1419 285l236 8
l125 377z" />
    <glyph glyph-name="onehalf" unicode="&#xbd;" horiz-adv-x="1474" 
d="M147 670l52 186l188 6l217 680l-192 -88l45 123q169 88 225 88h84l-215 -801l225 -8l-49 -186h-580zM141 -92l1448 1632h133l-1372 -1632h-209zM969 -29l86 193q12 27 52 59.5t78.5 56t108.5 62.5q130 70 200 129t120 123q42 51 53 98q22 78 -21.5 128t-134.5 50
q-125 0 -311 -88l45 138q186 65 295 65q155 0 227.5 -77.5t38.5 -207.5q-27 -97 -46 -135q-56 -109 -236 -256q-78 -64 -187 -143h330l-37 -195h-661z" />
    <glyph glyph-name="threequarters" unicode="&#xbe;" horiz-adv-x="1474" 
d="M793 954q-42 -159 -166 -240t-314 -81q-128 0 -256 49l111 182q30 -12 101 -21t106 -9q138 0 196 33t78 106t-27 122.5t-153 49.5h-131l53 106h131q109 0 178.5 37.5t94.5 126.5q21 79 -39 119.5t-168 40.5q-121 0 -275 -45l58 94q160 41 254 41q154 0 225.5 -69.5
t40.5 -188.5q-23 -82 -80 -132.5t-164 -86.5q110 -16 141 -74t5 -160zM1589 1540h133l-1372 -1632h-209zM1743 313l-37 -139h-131l-51 -278h-213l92 276l-313 -2l-3 -2v2h-63l16 123l598 596l70 4l-14 -76l2 -2l-2 -2l-95 -504zM1210 297l236 8l125 377z" />
    <glyph glyph-name="questiondown" unicode="&#xbf;" horiz-adv-x="1005" 
d="M885 989h-209l55 207h209zM866 885l-63 -238q-12 -44 -25 -92t-21.5 -80.5t-17.5 -68.5q-213 -69 -269 -97q-84 -40 -117 -103q-14 -27 -23 -61q-47 -176 80 -202q93 -26 171 -10.5t171 94.5q14 -31 25 -48t42 -55q-60 -48 -125 -78t-126 -39.5t-114.5 -7t-103.5 14.5
q-115 28 -149.5 109.5t-3.5 199.5q43 163 118.5 242.5t214.5 134.5l86 325q3 10 86.5 28.5t163.5 31.5z" />
    <glyph glyph-name="Agrave" unicode="&#xc0;" horiz-adv-x="1712" 
d="M1257 1847l-178 230h162l285 -260zM1538 -2h-301v240l-623 41l-141 -281h-266l979 1538l186 -2zM1272 485v920l-535 -920h535z" />
    <glyph glyph-name="Aacute" unicode="&#xc1;" horiz-adv-x="1712" 
d="M1538 -2h-301v240l-623 41l-141 -281h-266l979 1538l186 -2zM1272 485v920l-535 -920h535zM799 -23h106l-190 -315h-158z" />
    <glyph glyph-name="Acircumflex" unicode="&#xc2;" horiz-adv-x="1712" 
d="M1354 2116h98l47 -131l201 -269h-113l-246 203l-348 -203h-112l346 269zM1538 -2h-301v240l-623 41l-141 -281h-266l979 1538l186 -2zM1272 485v920l-535 -920h535z" />
    <glyph glyph-name="Atilde" unicode="&#xc3;" horiz-adv-x="1712" 
d="M936 1833q61 184 114.5 245.5t161.5 61.5q38 0 65 -21t42 -51t27.5 -60.5t31 -51.5t43.5 -21t44 9t30.5 21t22 35.5t16 41t14 49.5t13.5 49h94q-21 -74 -40.5 -126.5t-40.5 -86.5t-38.5 -53.5t-43 -28.5t-45 -11t-52.5 -1q-41 1 -70 23t-45 53.5t-28 62.5t-27.5 53
t-36.5 23q-19 0 -36 -8t-30.5 -28.5t-23 -36t-20.5 -48.5t-15 -46t-14 -48h-113zM1538 -2h-301v240l-623 41l-141 -281h-266l979 1538l186 -2zM1272 485v920l-535 -920h535z" />
    <glyph glyph-name="Adieresis" unicode="&#xc4;" horiz-adv-x="1712" 
d="M1030 2021h209l-55 -206h-209zM1593 2021h209l-55 -206h-209zM1538 -2h-301v240l-623 41l-141 -281h-266l979 1538l186 -2zM1272 485v920l-535 -920h535z" />
    <glyph glyph-name="Aring" unicode="&#xc5;" horiz-adv-x="1712" 
d="M1366 1835q-77 0 -116 57.5t-17 139.5q22 80 91.5 137t145.5 57q78 0 118 -57t18 -137q-22 -82 -92 -139.5t-148 -57.5zM1397 1948q22 0 33.5 1t29.5 6.5t29 16.5t23 32.5t20 53.5q12 44 -10.5 76.5t-65.5 32.5q-44 0 -83.5 -32t-51.5 -77q-7 -27 -9 -46t3.5 -31t11 -19
t19.5 -10t23.5 -3.5t27.5 -0.5zM1538 -2h-301v240l-623 41l-141 -281h-266l979 1538l186 -2zM1272 485v920l-535 -920h535z" />
    <glyph glyph-name="AE" unicode="&#xc6;" horiz-adv-x="2418" 
d="M2456 1360l-611 -39l-121 -422l514 23l-47 -170l-514 -33l-90 -369l-6 -41h686l-14 -309h-715v-2h-301l57 235l-612 39l-209 -274h-266l1354 1505l125 -2l10 35l844 29zM856 475h535l2 10l223 891z" />
    <glyph glyph-name="Ccedilla" unicode="&#xc7;" horiz-adv-x="1482" 
d="M1311 1554q241 7 409 -34l-71 -185q-62 20 -88.5 27.5t-75.5 16t-96.5 5.5t-106.5 -16q-65 -14 -130.5 -37t-152.5 -71.5t-158 -112.5t-135 -166.5t-96 -226.5q-22 -88 -25.5 -157.5t8.5 -118t41 -84t64 -56.5t85.5 -33t98 -16t109.5 -4q224 0 371 41l-94 -353h-443
l-73 -116h63q27 0 52 -4.5t50 -15t39 -28.5t18 -44.5t-13 -63.5q-34 -75 -102.5 -117.5t-156.5 -42.5h-129l52 109q45 -10 108 -10q53 0 99.5 22.5t54.5 48.5q7 19 4 33.5t-6 24.5t-14 16.5t-19.5 10.5t-23 6t-24.5 2.5t-24 0.5q-44 0 -129 -10l109 178h-135
q-52 0 -113 50.5t-113 149.5t-64.5 245t32.5 336q91 359 346 574t598 226z" />
    <glyph glyph-name="Egrave" unicode="&#xc8;" horiz-adv-x="1329" 
d="M952 1686l-178 229h162l285 -260zM166 0l442 1536l844 29l-84 -205l-610 -39l-121 -422l514 23l-47 -170l-514 -33l-101 -410h691l-15 -309h-999z" />
    <glyph glyph-name="Eacute" unicode="&#xc9;" horiz-adv-x="1329" 
d="M1188 2048h106l-190 -315h-158zM166 0l442 1536l844 29l-84 -205l-610 -39l-121 -422l514 23l-47 -170l-514 -33l-101 -410h691l-15 -309h-999z" />
    <glyph glyph-name="Ecircumflex" unicode="&#xca;" horiz-adv-x="1329" 
d="M1368 1360l-610 -39l-121 -422l514 23l-47 -170l-514 -33l-101 -410h691l-15 -309h-999l442 1536l668 23l-240 198l-348 -203h-113l347 269l127 131h98l47 -131l195 -260l63 2z" />
    <glyph glyph-name="Edieresis" unicode="&#xcb;" horiz-adv-x="1329" 
d="M725 1860h209l-55 -207h-209zM1288 1860h209l-55 -207h-209zM166 0l442 1536l844 29l-84 -205l-610 -39l-121 -422l514 23l-47 -170l-514 -33l-101 -410h691l-15 -309h-999z" />
    <glyph glyph-name="Igrave" unicode="&#xcc;" horiz-adv-x="620" 
d="M645 1712l-178 230h162l284 -261zM166 0q148 398 273 866t159 670h225q-252 -816 -368 -1536h-289z" />
    <glyph glyph-name="Iacute" unicode="&#xcd;" horiz-adv-x="620" 
d="M881 2075h106l-190 -316h-158zM166 0q148 398 273 866t159 670h225q-252 -816 -368 -1536h-289z" />
    <glyph glyph-name="Icircumflex" unicode="&#xce;" horiz-adv-x="620" 
d="M741 1980h99l47 -131l200 -268h-112l-246 203l-348 -203h-113l346 268zM166 0q148 398 273 866t159 670h225q-252 -816 -368 -1536h-289z" />
    <glyph glyph-name="Idieresis" unicode="&#xcf;" horiz-adv-x="620" 
d="M418 1886h209l-56 -207h-209zM981 1886h209l-55 -207h-209zM166 0q148 398 273 866t159 670h225q-252 -816 -368 -1536h-289z" />
    <glyph glyph-name="Eth" unicode="&#xd0;" horiz-adv-x="1599" 
d="M1006 1534q438 0 593 -180t56 -566q-32 -124 -69 -224t-75.5 -177t-89.5 -135.5t-98 -100t-115 -69.5t-127 -44t-147.5 -24.5t-162.5 -11t-185 -2.5h-420l201 733h-197l51 187h197l168 614h420zM1503 846q74 274 -52 409.5t-441 135.5h-248l-129 -471h395l-49 -187h-399
l-95 -344h246q152 0 273.5 24t204 64.5t143 100.5t95 124t56.5 144z" />
    <glyph glyph-name="Ntilde" unicode="&#xd1;" horiz-adv-x="1566" 
d="M795 1595q62 185 115 246.5t161 61.5q38 0 65 -21t42 -51.5t27.5 -60.5t31 -51t43.5 -21t44 9t30.5 21t22 35.5t15.5 41t13.5 49.5t13.5 49h94q-21 -74 -40.5 -127t-40.5 -86.5t-38.5 -53.5t-43 -29t-45 -11t-52.5 -1q-41 1 -70 23t-44.5 53.5t-28 62.5t-27.5 53t-36 23
q-23 1 -43.5 -14.5t-33 -33.5t-27 -54t-20 -55t-16.5 -58h-112zM166 0l504 1434h254l264 -1149l424 1204h188l-483 -1489h-332l-190 1262l-297 -1262h-332z" />
    <glyph glyph-name="Ograve" unicode="&#xd2;" horiz-adv-x="1726" 
d="M1225 1786l-178 229h161l285 -260zM856 -29q-94 1 -166 8.5t-136.5 25t-108.5 46t-77.5 71t-48.5 100.5t-16 134.5t14.5 173t47.5 215.5q95 353 342 564t565 211q211 0 346 -96.5t171.5 -268.5t-28.5 -410q-47 -162 -94 -278.5t-106 -205t-124.5 -143.5t-154.5 -89
t-189.5 -46.5t-236.5 -11.5zM961 354q117 0 205.5 18t165.5 61t130.5 121t83.5 191q47 191 29 331t-107 220t-235 80q-220 0 -398 -173.5t-255 -457.5q-20 -76 -21 -136t17.5 -103t51.5 -72.5t84.5 -47t111.5 -25t137 -7.5z" />
    <glyph glyph-name="Oacute" unicode="&#xd3;" horiz-adv-x="1726" 
d="M469 1704h106l-190 -315h-158zM856 -29q-94 1 -166 8.5t-136.5 25t-108.5 46t-77.5 71t-48.5 100.5t-16 134.5t14.5 173t47.5 215.5q95 353 342 564t565 211q211 0 346 -96.5t171.5 -268.5t-28.5 -410q-47 -162 -94 -278.5t-106 -205t-124.5 -143.5t-154.5 -89
t-189.5 -46.5t-236.5 -11.5zM961 354q117 0 205.5 18t165.5 61t130.5 121t83.5 191q47 191 29 331t-107 220t-235 80q-220 0 -398 -173.5t-255 -457.5q-20 -76 -21 -136t17.5 -103t51.5 -72.5t84.5 -47t111.5 -25t137 -7.5z" />
    <glyph glyph-name="Ocircumflex" unicode="&#xd4;" horiz-adv-x="1726" 
d="M1321 2054h98l47 -131l201 -268h-113l-245 203l-348 -203h-113l346 268zM856 -29q-94 1 -166 8.5t-136.5 25t-108.5 46t-77.5 71t-48.5 100.5t-16 134.5t14.5 173t47.5 215.5q95 353 342 564t565 211q211 0 346 -96.5t171.5 -268.5t-28.5 -410q-47 -162 -94 -278.5
t-106 -205t-124.5 -143.5t-154.5 -89t-189.5 -46.5t-236.5 -11.5zM961 354q117 0 205.5 18t165.5 61t130.5 121t83.5 191q47 191 29 331t-107 220t-235 80q-220 0 -398 -173.5t-255 -457.5q-20 -76 -21 -136t17.5 -103t51.5 -72.5t84.5 -47t111.5 -25t137 -7.5z" />
    <glyph glyph-name="Otilde" unicode="&#xd5;" horiz-adv-x="1726" 
d="M903 1772q61 184 115 245.5t162 61.5q38 0 65 -21t42 -51t27.5 -60.5t31 -51.5t43.5 -21t44 9t30.5 21t22 35.5t15.5 41t13.5 49.5t13.5 49h94q-21 -74 -40.5 -126.5t-40.5 -86.5t-38.5 -53.5t-43 -28.5t-45 -11t-52.5 -1q-41 1 -70 23t-45 53.5t-28 62.5t-27.5 53
t-36.5 23q-19 0 -36 -8t-30.5 -28.5t-23 -36t-20.5 -48.5t-15 -46t-14 -48h-113zM856 -29q-94 1 -166 8.5t-136.5 25t-108.5 46t-77.5 71t-48.5 100.5t-16 134.5t14.5 173t47.5 215.5q95 353 342 564t565 211q211 0 346 -96.5t171.5 -268.5t-28.5 -410q-47 -162 -94 -278.5
t-106 -205t-124.5 -143.5t-154.5 -89t-189.5 -46.5t-236.5 -11.5zM961 354q117 0 205.5 18t165.5 61t130.5 121t83.5 191q47 191 29 331t-107 220t-235 80q-220 0 -398 -173.5t-255 -457.5q-20 -76 -21 -136t17.5 -103t51.5 -72.5t84.5 -47t111.5 -25t137 -7.5z" />
    <glyph glyph-name="Odieresis" unicode="&#xd6;" horiz-adv-x="1726" 
d="M997 1960h209l-55 -207h-209zM1561 1960h208l-55 -207h-209zM856 -29q-94 1 -166 8.5t-136.5 25t-108.5 46t-77.5 71t-48.5 100.5t-16 134.5t14.5 173t47.5 215.5q95 353 342 564t565 211q211 0 346 -96.5t171.5 -268.5t-28.5 -410q-47 -162 -94 -278.5t-106 -205
t-124.5 -143.5t-154.5 -89t-189.5 -46.5t-236.5 -11.5zM961 354q117 0 205.5 18t165.5 61t130.5 121t83.5 191q47 191 29 331t-107 220t-235 80q-220 0 -398 -173.5t-255 -457.5q-20 -76 -21 -136t17.5 -103t51.5 -72.5t84.5 -47t111.5 -25t137 -7.5z" />
    <glyph glyph-name="multiply" unicode="&#xd7;" horiz-adv-x="1220" 
d="M1169 770l-311 -262l254 -293h-289l-116 166l-197 -166h-287l395 289l-194 272h199l143 -164l215 158h188z" />
    <glyph glyph-name="Oslash" unicode="&#xd8;" horiz-adv-x="1689" 
d="M2189 1589l-407 -405q53 -181 -21 -439q-47 -162 -94 -278.5t-106 -205t-124.5 -143.5t-154.5 -89t-189.5 -46.5t-236.5 -11.5q-151 0 -270 25l-29 -29l-524 -139l327 303q-59 87 -57.5 235.5t62.5 378.5q95 353 342 564t565 211q270 0 414 -156l194 182zM580 745
q-66 -246 79 -333l871 809q-90 155 -297 155q-220 0 -398 -173.5t-255 -457.5zM1546 745q35 131 35 240l-635 -631h15q117 0 205.5 18t165.5 61t130.5 121t83.5 191z" />
    <glyph glyph-name="Ugrave" unicode="&#xd9;" horiz-adv-x="1564" 
d="M1118 1755l-178 230h162l284 -261zM348 561l217 932h256l-233 -768q-25 -81 -38.5 -143.5t-11.5 -107.5t6.5 -77t30.5 -52t45 -31t66 -16t76.5 -6t93.5 -1q56 0 83 0.5t72.5 4t68 11.5t57.5 22t54 36t45.5 54.5t44 76t36.5 100.5t35 129l178 768h268l-295 -932
q-40 -126 -81.5 -218.5t-77 -156.5t-90.5 -105t-93 -63.5t-114.5 -32.5t-124.5 -12t-152 -2q-75 0 -110 0.5t-93.5 4t-83.5 11.5t-65.5 22t-54.5 36t-35 53.5t-22.5 75t-2 100t11.5 128t33 159.5z" />
    <glyph glyph-name="Uacute" unicode="&#xda;" horiz-adv-x="1564" 
d="M1354 2118h106l-190 -316h-158zM348 561l217 932h256l-233 -768q-25 -81 -38.5 -143.5t-11.5 -107.5t6.5 -77t30.5 -52t45 -31t66 -16t76.5 -6t93.5 -1q56 0 83 0.5t72.5 4t68 11.5t57.5 22t54 36t45.5 54.5t44 76t36.5 100.5t35 129l178 768h268l-295 -932
q-40 -126 -81.5 -218.5t-77 -156.5t-90.5 -105t-93 -63.5t-114.5 -32.5t-124.5 -12t-152 -2q-75 0 -110 0.5t-93.5 4t-83.5 11.5t-65.5 22t-54.5 36t-35 53.5t-22.5 75t-2 100t11.5 128t33 159.5z" />
    <glyph glyph-name="Ucircumflex" unicode="&#xdb;" horiz-adv-x="1564" 
d="M1214 2023h99l47 -131l201 -268h-113l-246 203l-348 -203h-113l346 268zM348 561l217 932h256l-233 -768q-25 -81 -38.5 -143.5t-11.5 -107.5t6.5 -77t30.5 -52t45 -31t66 -16t76.5 -6t93.5 -1q56 0 83 0.5t72.5 4t68 11.5t57.5 22t54 36t45.5 54.5t44 76t36.5 100.5
t35 129l178 768h268l-295 -932q-40 -126 -81.5 -218.5t-77 -156.5t-90.5 -105t-93 -63.5t-114.5 -32.5t-124.5 -12t-152 -2q-75 0 -110 0.5t-93.5 4t-83.5 11.5t-65.5 22t-54.5 36t-35 53.5t-22.5 75t-2 100t11.5 128t33 159.5z" />
    <glyph glyph-name="Udieresis" unicode="&#xdc;" horiz-adv-x="1564" 
d="M891 1929h209l-56 -207h-208zM1454 1929h209l-55 -207h-209zM348 561l217 932h256l-233 -768q-25 -81 -38.5 -143.5t-11.5 -107.5t6.5 -77t30.5 -52t45 -31t66 -16t76.5 -6t93.5 -1q56 0 83 0.5t72.5 4t68 11.5t57.5 22t54 36t45.5 54.5t44 76t36.5 100.5t35 129l178 768
h268l-295 -932q-40 -126 -81.5 -218.5t-77 -156.5t-90.5 -105t-93 -63.5t-114.5 -32.5t-124.5 -12t-152 -2q-75 0 -110 0.5t-93.5 4t-83.5 11.5t-65.5 22t-54.5 36t-35 53.5t-22.5 75t-2 100t11.5 128t33 159.5z" />
    <glyph glyph-name="Yacute" unicode="&#xdd;" horiz-adv-x="1581" 
d="M469 1704h106l-190 -315h-158zM786 512l-221 981h219l203 -764l608 764h220l-754 -981l-137 -512h-275z" />
    <glyph glyph-name="Thorn" unicode="&#xde;" horiz-adv-x="1159" 
d="M674 1223q109 -4 214 -42t182 -99t114 -146.5t12 -175.5q-33 -120 -161.5 -227t-292.5 -169.5t-314 -68.5l-80 -295h-182l383 1434h182zM1053 768q12 44 -52.5 116.5t-153.5 126.5t-142 54q-37 0 -80 -29l-142 -528q35 -35 74 -35q52 0 166.5 53.5t215.5 125.5t114 116z
" />
    <glyph glyph-name="germandbls" unicode="&#xdf;" horiz-adv-x="1411" 
d="M166 0l364 1137q54 201 204 310t370 109q211 0 291 -116t20 -340q-154 -8 -253.5 -65t-125.5 -154q-12 -48 6 -87.5t72 -82.5l49 -37q91 -70 133 -123t49 -107t-12 -118q-46 -172 -183.5 -263.5t-350.5 -91.5q-130 0 -264 49l65 244q141 -59 272 -59q239 0 275 127
q9 43 -8 84q-15 37 -105 104l-67 55q-16 30 -25.5 49.5t-21.5 52t-16.5 58.5t-4 59.5t9.5 65.5q18 68 45.5 117.5t74.5 94t121 73.5t177 43q-10 61 -21.5 103.5t-29 71t-34.5 45t-47 24.5t-55.5 10t-70.5 2q-133 0 -219.5 -71t-151.5 -240l-254 -1133h-278z" />
    <glyph glyph-name="agrave" unicode="&#xe0;" horiz-adv-x="1357" 
d="M985 1419l-178 230h162l284 -260zM1217 913l18 162h106l-149 -1075h-186l45 168q-84 -97 -201.5 -147t-245.5 -50q-120 0 -208 42t-132 114t-43 173t53 214q112 241 269 401t295 160q58 0 115 -9t112 -27t96 -50.5t56 -75.5zM508 594q-42 -71 -62.5 -118.5t-24.5 -89.5
t20.5 -65.5t80 -37t146.5 -13.5q96 0 160 4.5t113 23.5t76 36.5t51.5 64t36.5 84t34 117.5q17 63 18 113.5t-9.5 83.5t-35 57.5t-49.5 37t-62 20t-64 9t-63 1.5q-59 0 -131 -53.5t-130 -124.5t-105 -150z" />
    <glyph glyph-name="aacute" unicode="&#xe1;" horiz-adv-x="1357" 
d="M1235 1075h106l-149 -1075h-186l45 168q-69 -80 -162 -128.5t-197 -62.5h4l-190 -315h-158l238 309q-234 8 -324.5 162.5t12.5 380.5q112 241 269 401t295 160q58 0 115 -9t112 -27t96 -50.5t56 -75.5zM1139 600q17 63 18 113.5t-9.5 83.5t-35 57.5t-49.5 37t-62 20
t-64 9t-63 1.5q-59 0 -131 -53.5t-130 -124.5t-105 -150q-42 -71 -62.5 -118.5t-24.5 -89.5t20.5 -65.5t80 -37t146.5 -13.5q96 0 160 4.5t113 23.5t76 36.5t51.5 64t36.5 84t34 117.5z" />
    <glyph glyph-name="acircumflex" unicode="&#xe2;" horiz-adv-x="1357" 
d="M1081 1688h99l47 -132l200 -268h-112l-246 203l-348 -203h-113l346 268zM1217 913l18 162h106l-149 -1075h-186l45 168q-84 -97 -201.5 -147t-245.5 -50q-120 0 -208 42t-132 114t-43 173t53 214q112 241 269 401t295 160q58 0 115 -9t112 -27t96 -50.5t56 -75.5z
M508 594q-42 -71 -62.5 -118.5t-24.5 -89.5t20.5 -65.5t80 -37t146.5 -13.5q96 0 160 4.5t113 23.5t76 36.5t51.5 64t36.5 84t34 117.5q17 63 18 113.5t-9.5 83.5t-35 57.5t-49.5 37t-62 20t-64 9t-63 1.5q-59 0 -131 -53.5t-130 -124.5t-105 -150z" />
    <glyph glyph-name="atilde" unicode="&#xe3;" horiz-adv-x="1357" 
d="M664 1405q61 184 114.5 245.5t161.5 61.5q38 0 65 -21t42 -51t27.5 -60.5t31 -51.5t43.5 -21t44 9t30.5 21t22 35.5t15.5 41t13.5 49.5t13.5 49h94q-21 -74 -40.5 -126.5t-40.5 -86.5t-38.5 -53.5t-43 -28.5t-45 -11t-52.5 -1q-41 1 -70 23t-45 53.5t-28 62.5t-27.5 53
t-36.5 23q-19 0 -36 -8t-30.5 -28.5t-23 -36t-20.5 -48.5t-15 -46t-14 -48h-112zM1217 913l18 162h106l-149 -1075h-186l45 168q-84 -97 -201.5 -147t-245.5 -50q-120 0 -208 42t-132 114t-43 173t53 214q112 241 269 401t295 160q58 0 115 -9t112 -27t96 -50.5t56 -75.5z
M508 594q-42 -71 -62.5 -118.5t-24.5 -89.5t20.5 -65.5t80 -37t146.5 -13.5q96 0 160 4.5t113 23.5t76 36.5t51.5 64t36.5 84t34 117.5q17 63 18 113.5t-9.5 83.5t-35 57.5t-49.5 37t-62 20t-64 9t-63 1.5q-59 0 -131 -53.5t-130 -124.5t-105 -150z" />
    <glyph glyph-name="adieresis" unicode="&#xe4;" horiz-adv-x="1357" 
d="M758 1593h209l-56 -207h-209zM1321 1593h209l-55 -207h-209zM1217 913l18 162h106l-149 -1075h-186l45 168q-84 -97 -201.5 -147t-245.5 -50q-120 0 -208 42t-132 114t-43 173t53 214q112 241 269 401t295 160q58 0 115 -9t112 -27t96 -50.5t56 -75.5zM508 594
q-42 -71 -62.5 -118.5t-24.5 -89.5t20.5 -65.5t80 -37t146.5 -13.5q96 0 160 4.5t113 23.5t76 36.5t51.5 64t36.5 84t34 117.5q17 63 18 113.5t-9.5 83.5t-35 57.5t-49.5 37t-62 20t-64 9t-63 1.5q-59 0 -131 -53.5t-130 -124.5t-105 -150z" />
    <glyph glyph-name="aring" unicode="&#xe5;" horiz-adv-x="1357" 
d="M1094 1407q-77 0 -116 57.5t-17 139.5q22 80 91.5 137t145.5 57q78 0 117.5 -57t17.5 -137q-22 -82 -91.5 -139.5t-147.5 -57.5zM1124 1520q22 0 34 1t30 6.5t29 16.5t23 32.5t20 53.5q12 44 -10.5 76.5t-65.5 32.5q-44 0 -83.5 -32t-51.5 -77q-8 -32 -8 -53.5t5 -32.5
t19.5 -16.5t25.5 -6.5t33 -1zM1217 913l18 162h106l-149 -1075h-186l45 168q-84 -97 -201.5 -147t-245.5 -50q-120 0 -208 42t-132 114t-43 173t53 214q112 241 269 401t295 160q58 0 115 -9t112 -27t96 -50.5t56 -75.5zM508 594q-42 -71 -62.5 -118.5t-24.5 -89.5
t20.5 -65.5t80 -37t146.5 -13.5q96 0 160 4.5t113 23.5t76 36.5t51.5 64t36.5 84t34 117.5q17 63 18 113.5t-9.5 83.5t-35 57.5t-49.5 37t-62 20t-64 9t-63 1.5q-59 0 -131 -53.5t-130 -124.5t-105 -150z" />
    <glyph glyph-name="ae" unicode="&#xe6;" horiz-adv-x="2166" 
d="M2175 645l-868 -57q-14 -59 -13.5 -113.5t24.5 -101t64.5 -80t107 -51t150.5 -13.5q55 3 110.5 16.5t92 27.5t107.5 44.5t116 47.5l-67 -308q-226 -86 -438 -86q-236 0 -357 121l-12 -92h-186l45 168q-84 -97 -201.5 -147t-245.5 -50q-120 0 -208 42t-132 114t-43 173
t53 214q112 241 269 401t295 160q58 0 115 -9t112 -27t96 -50.5t56 -75.5l18 162h106l-24 -172q213 246 528 246q89 -7 152 -34.5t109 -84.5t63.5 -153t5.5 -232zM1819 1020q-149 0 -269 -83t-149 -189l649 40q10 102 -45.5 167t-185.5 65zM668 270q96 0 160 4.5t113 23.5
t76 36.5t51.5 64t36.5 84t34 117.5q17 63 18 113.5t-9.5 83.5t-35 57.5t-49.5 37t-62 20t-64 9t-63 1.5q-59 0 -131 -53.5t-130 -124.5t-105 -150q-42 -71 -62.5 -118.5t-24.5 -89.5t20.5 -65.5t80 -37t146.5 -13.5z" />
    <glyph glyph-name="ccedilla" unicode="&#xe7;" horiz-adv-x="1226" 
d="M969 1001q-174 0 -281.5 -113.5t-165.5 -328.5q-19 -97 6 -173.5t80.5 -116t139 -39.5t174.5 46l151 -233q-204 -82 -358 -72q-13 0 -37 4l-76 -118h64q27 0 52 -4.5t50 -15t38.5 -28.5t17.5 -44.5t-13 -63.5q-34 -75 -102 -117.5t-156 -42.5h-129l51 109q45 -10 109 -10
q53 0 99 22.5t54 48.5q7 19 4 33.5t-5.5 24.5t-13.5 16.5t-19.5 10.5t-23 6t-24.5 2.5t-24 0.5q-44 0 -129 -10l114 187q-164 26 -246 100t-90 192.5t35 284.5q73 272 272 430t464 158q98 0 168 -25l-39 -145q-71 24 -211 24z" />
    <glyph glyph-name="egrave" unicode="&#xe8;" horiz-adv-x="1353" 
d="M944 1343l-178 230h162l284 -260zM1360 645l-868 -57q-14 -59 -13.5 -113.5t24.5 -101t64.5 -80t107 -51t150.5 -13.5q55 3 110.5 16.5t92 27.5t107.5 44.5t116 47.5l-67 -308q-226 -86 -439 -86q-270 0 -387 156.5t-45 421.5q86 279 274.5 439.5t442.5 160.5
q89 -7 152 -34.5t109 -84.5t63.5 -153t5.5 -232zM586 748l649 40q10 102 -45.5 167t-185.5 65q-149 0 -269 -83t-149 -189z" />
    <glyph glyph-name="eacute" unicode="&#xe9;" horiz-adv-x="1353" 
d="M1360 645l-868 -57q-14 -59 -13.5 -113.5t24.5 -101t64.5 -80t107 -51t150.5 -13.5q55 3 110.5 16.5t92 27.5t107.5 44.5t116 47.5l-67 -308q-205 -77 -396 -86l-186 -309h-158l240 311q-239 19 -338.5 172.5t-32.5 403.5q86 279 274.5 439.5t442.5 160.5
q89 -7 152 -34.5t109 -84.5t63.5 -153t5.5 -232zM1004 1020q-149 0 -269 -83t-149 -189l649 40q10 102 -45.5 167t-185.5 65z" />
    <glyph glyph-name="ecircumflex" unicode="&#xea;" horiz-adv-x="1353" 
d="M1040 1612h99l47 -131l200 -269h-112l-246 203l-348 -203h-113l346 269zM1360 645l-868 -57q-14 -59 -13.5 -113.5t24.5 -101t64.5 -80t107 -51t150.5 -13.5q55 3 110.5 16.5t92 27.5t107.5 44.5t116 47.5l-67 -308q-226 -86 -439 -86q-270 0 -387 156.5t-45 421.5
q86 279 274.5 439.5t442.5 160.5q89 -7 152 -34.5t109 -84.5t63.5 -153t5.5 -232zM586 748l649 40q10 102 -45.5 167t-185.5 65q-149 0 -269 -83t-149 -189z" />
    <glyph glyph-name="edieresis" unicode="&#xeb;" horiz-adv-x="1353" 
d="M717 1518h209l-56 -207h-208zM1280 1518h209l-55 -207h-209zM1360 645l-868 -57q-14 -59 -13.5 -113.5t24.5 -101t64.5 -80t107 -51t150.5 -13.5q55 3 110.5 16.5t92 27.5t107.5 44.5t116 47.5l-67 -308q-226 -86 -439 -86q-270 0 -387 156.5t-45 421.5
q86 279 274.5 439.5t442.5 160.5q89 -7 152 -34.5t109 -84.5t63.5 -153t5.5 -232zM586 748l649 40q10 102 -45.5 167t-185.5 65q-149 0 -269 -83t-149 -189z" />
    <glyph glyph-name="igrave" unicode="&#xec;" horiz-adv-x="583" 
d="M514 1276l-178 229h162l284 -260zM166 0q113 339 172.5 531t144.5 505h164q-89 -291 -144 -527.5t-85 -508.5h-252z" />
    <glyph glyph-name="iacute" unicode="&#xed;" horiz-adv-x="583" 
d="M750 1638h106l-190 -315h-158zM166 0q113 339 172.5 531t144.5 505h164q-89 -291 -144 -527.5t-85 -508.5h-252z" />
    <glyph glyph-name="icircumflex" unicode="&#xee;" horiz-adv-x="583" 
d="M586 1587h98l47 -131l201 -268h-113l-246 203l-348 -203h-112l346 268zM166 0q113 339 172.5 531t144.5 505h164q-89 -291 -144 -527.5t-85 -508.5h-252z" />
    <glyph glyph-name="idieresis" unicode="&#xef;" horiz-adv-x="583" 
d="M248 1307h209l-56 -207h-208zM811 1307h209l-55 -207h-209zM166 0q113 339 172.5 531t144.5 505h164q-89 -291 -144 -527.5t-85 -508.5h-252z" />
    <glyph glyph-name="eth" unicode="&#xf0;" horiz-adv-x="1728" 
d="M1876 1171l-49 -186h-318l-102 -240q-66 -157 -124 -270.5t-127 -213.5t-141.5 -160.5t-161 -95t-191.5 -34.5q-228 0 -329 139t-38 369q61 235 230.5 371.5t396.5 136.5q58 0 104 -12.5t88.5 -44t70.5 -92.5t38 -150q22 50 67 149.5t64 147.5h-336l51 186h350
q17 65 27 123q18 103 -39 142t-182 39l100 137q25 0 50 -2t55.5 -7.5t56.5 -15t53 -24t44.5 -34.5t31 -47t13.5 -61.5t-9 -77.5q-23 -96 -47 -172h303zM1096 479q12 99 -1.5 174.5t-65 124.5t-138.5 49q-137 0 -243 -93.5t-150 -254.5q-27 -104 36.5 -172.5t198.5 -68.5
q137 0 245 71.5t118 169.5z" />
    <glyph glyph-name="ntilde" unicode="&#xf1;" horiz-adv-x="1384" 
d="M571 1300q61 184 115 246t162 62q38 0 65 -21t42 -51t27.5 -60.5t31 -51.5t43.5 -21t44 9t30.5 21t22 35.5t15.5 41t13.5 49.5t13.5 49h94q-21 -74 -40.5 -127t-40.5 -86.5t-38.5 -53.5t-43 -29t-45 -11t-52.5 -1q-41 1 -70 23t-45 53.5t-28 63t-27.5 53.5t-36.5 23
q-19 0 -35.5 -8t-31 -29t-23.5 -36t-20 -49t-15 -46t-14 -48h-113zM166 0l387 1139h178l-39 -125q7 4 49.5 28.5t54 30.5t50 23.5t63.5 23t65 11.5t83 6q80 0 137.5 -15t98.5 -49.5t60 -89.5t19 -135t-22 -186l-131 -662h-287l250 694q53 147 -0.5 220t-184.5 73
q-158 0 -276 -93t-148 -251l-122 -643h-285z" />
    <glyph glyph-name="ograve" unicode="&#xf2;" horiz-adv-x="1370" 
d="M934 1343l-178 230h162l284 -260zM678 -23q-248 -9 -346 143t-17 439q74 266 253 431t417 165q241 0 338.5 -151.5t30.5 -413.5q-69 -274 -251.5 -439t-424.5 -174zM762 289q27 2 52 5t63 12t70.5 22t69.5 36t64.5 53t50.5 75.5t33 99.5q7 48 8 99.5t-14 101t-39 88.5
t-68.5 62t-101.5 22q-122 -3 -242.5 -105t-187.5 -268q-69 -164 -9.5 -239.5t251.5 -63.5z" />
    <glyph glyph-name="oacute" unicode="&#xf3;" horiz-adv-x="1370" 
d="M985 1155q241 0 338.5 -151.5t30.5 -413.5q-69 -274 -251.5 -439t-424.5 -174h55l-190 -315h-158l242 315q-220 8 -304 159t-8 423q74 266 253 431t417 165zM1165 592q7 48 8 99.5t-14 101t-39 88.5t-68.5 62t-101.5 22q-122 -3 -242.5 -105t-187.5 -268
q-69 -164 -9.5 -239.5t251.5 -63.5q27 2 52 5t63 12t70.5 22t69.5 36t64.5 53t50.5 75.5t33 99.5z" />
    <glyph glyph-name="ocircumflex" unicode="&#xf4;" horiz-adv-x="1370" 
d="M1030 1612h98l48 -131l200 -269h-112l-246 203l-348 -203h-113l346 269zM678 -23q-248 -9 -346 143t-17 439q74 266 253 431t417 165q241 0 338.5 -151.5t30.5 -413.5q-69 -274 -251.5 -439t-424.5 -174zM762 289q27 2 52 5t63 12t70.5 22t69.5 36t64.5 53t50.5 75.5
t33 99.5q7 48 8 99.5t-14 101t-39 88.5t-68.5 62t-101.5 22q-122 -3 -242.5 -105t-187.5 -268q-69 -164 -9.5 -239.5t251.5 -63.5z" />
    <glyph glyph-name="otilde" unicode="&#xf5;" horiz-adv-x="1370" 
d="M612 1329q61 184 115 245.5t162 61.5q38 0 65 -21t42 -51t27.5 -60t31 -51t43.5 -21t44 9t30.5 21t22 35.5t15.5 40.5t13.5 49t13.5 49h94q-21 -74 -40.5 -126.5t-40.5 -86.5t-38.5 -53.5t-43 -28.5t-45 -11t-52.5 -1q-41 1 -70 23t-45 53.5t-28 62.5t-27.5 53t-36.5 23
q-19 0 -36 -8t-30.5 -28.5t-23 -36t-20.5 -48.5t-15 -46t-14 -48h-113zM678 -23q-248 -9 -346 143t-17 439q74 266 253 431t417 165q241 0 338.5 -151.5t30.5 -413.5q-69 -274 -251.5 -439t-424.5 -174zM762 289q27 2 52 5t63 12t70.5 22t69.5 36t64.5 53t50.5 75.5t33 99.5
q7 48 8 99.5t-14 101t-39 88.5t-68.5 62t-101.5 22q-122 -3 -242.5 -105t-187.5 -268q-69 -164 -9.5 -239.5t251.5 -63.5z" />
    <glyph glyph-name="odieresis" unicode="&#xf6;" horiz-adv-x="1370" 
d="M676 1401h209l-56 -207h-208zM1239 1401h209l-55 -207h-209zM678 -23q-248 -9 -346 143t-17 439q74 266 253 431t417 165q241 0 338.5 -151.5t30.5 -413.5q-69 -274 -251.5 -439t-424.5 -174zM762 289q27 2 52 5t63 12t70.5 22t69.5 36t64.5 53t50.5 75.5t33 99.5
q7 48 8 99.5t-14 101t-39 88.5t-68.5 62t-101.5 22q-122 -3 -242.5 -105t-187.5 -268q-69 -164 -9.5 -239.5t251.5 -63.5z" />
    <glyph glyph-name="divide" unicode="&#xf7;" horiz-adv-x="1579" 
d="M956 1192h209l-55 -207h-209zM475 610l1096 49l24 -157l-1259 -35zM688 190h209l-55 -206h-209z" />
    <glyph glyph-name="oslash" unicode="&#xf8;" horiz-adv-x="1370" 
d="M1200 1112q123 -62 163 -196t-9 -326q-69 -274 -251.5 -439t-424.5 -174q-23 -1 -88 3l-35 -66l-352 -213l200 344q-192 141 -88 514q74 266 253 431t417 165q44 0 62 -2l137 233l217 97zM520 592q-89 -215 39 -279l379 652q-120 -9 -236 -110t-182 -263zM1165 592
q18 79 0.5 173t-71.5 146l-336 -622h4q27 2 52 5t63 12t70.5 22t69.5 36t64.5 53t50.5 75.5t33 99.5z" />
    <glyph glyph-name="ugrave" unicode="&#xf9;" horiz-adv-x="1353" 
d="M915 1407l-178 229h162l285 -260zM598 -29q-51 0 -88.5 3.5t-73 12.5t-58.5 25t-41.5 41t-26.5 60t-10 82.5t5.5 108.5t22.5 138l137 678h156l-95 -512q-10 -53 -14.5 -93.5t-3 -69t5.5 -47t16.5 -29.5t24 -16t33 -6t39 0t47.5 3t53 2q282 0 387 293l148 475h184
l-258 -1120h-225l53 172q-36 -54 -76 -92t-76.5 -59t-84.5 -32.5t-86.5 -14.5t-94.5 -3z" />
    <glyph glyph-name="uacute" unicode="&#xfa;" horiz-adv-x="1353" 
d="M1262 1120h184l-258 -1120h-225l53 172q-64 -97 -134 -140.5t-159 -54.5h2l-190 -315h-158l237 309h-16q-51 0 -88.5 3.5t-73 12.5t-58.5 25t-41.5 41t-26.5 60t-10 82.5t5.5 108.5t22.5 138l137 678h156l-95 -512q-10 -53 -14.5 -93.5t-3 -69t5.5 -47t16.5 -29.5t24 -16
t33 -6t39 0t47.5 3t53 2q282 0 387 293z" />
    <glyph glyph-name="ucircumflex" unicode="&#xfb;" horiz-adv-x="1353" 
d="M1012 1675h98l47 -131l201 -268h-113l-246 203l-348 -203h-112l346 268zM598 -29q-51 0 -88.5 3.5t-73 12.5t-58.5 25t-41.5 41t-26.5 60t-10 82.5t5.5 108.5t22.5 138l137 678h156l-95 -512q-10 -53 -14.5 -93.5t-3 -69t5.5 -47t16.5 -29.5t24 -16t33 -6t39 0t47.5 3
t53 2q282 0 387 293l148 475h184l-258 -1120h-225l53 172q-36 -54 -76 -92t-76.5 -59t-84.5 -32.5t-86.5 -14.5t-94.5 -3z" />
    <glyph glyph-name="udieresis" unicode="&#xfc;" horiz-adv-x="1353" 
d="M688 1581h209l-55 -207h-209zM1251 1581h209l-55 -207h-209zM598 -29q-51 0 -88.5 3.5t-73 12.5t-58.5 25t-41.5 41t-26.5 60t-10 82.5t5.5 108.5t22.5 138l137 678h156l-95 -512q-10 -53 -14.5 -93.5t-3 -69t5.5 -47t16.5 -29.5t24 -16t33 -6t39 0t47.5 3t53 2
q282 0 387 293l148 475h184l-258 -1120h-225l53 172q-36 -54 -76 -92t-76.5 -59t-84.5 -32.5t-86.5 -14.5t-94.5 -3z" />
    <glyph glyph-name="yacute" unicode="&#xfd;" horiz-adv-x="1431" 
d="M1278 1913h106l-190 -316h-158zM1567 1149l-635 -1278q-26 -51 -59 -94t-66 -74t-76 -55t-77.5 -39.5t-81.5 -26.5t-78.5 -16.5t-77.5 -8t-68.5 -3t-61.5 -0.5h-7h-170l65 243h129q74 0 149.5 18.5t143.5 54.5t111 98.5t43 140.5l-285 1040h197l278 -844l430 844h197z
" />
    <glyph glyph-name="thorn" unicode="&#xfe;" horiz-adv-x="1159" 
d="M702 1303q110 -5 211.5 -45t177.5 -110t107 -168t-2 -220q-35 -122 -101 -226.5t-147 -178.5t-175.5 -129t-188 -84.5t-183.5 -37.5l-118 -473h-183l504 2007h182zM1053 768q14 50 -4.5 106t-58.5 102.5t-88 85.5t-95.5 61t-79.5 22t-70 -23l-208 -827q20 -14 47 -14
q42 0 120.5 37t165.5 98t164.5 156t106.5 196z" />
    <glyph glyph-name="ydieresis" unicode="&#xff;" horiz-adv-x="1431" 
d="M815 1724h209l-55 -206h-209zM1378 1724h209l-55 -206h-209zM1567 1149l-635 -1278q-26 -51 -59 -94t-66 -74t-76 -55t-77.5 -39.5t-81.5 -26.5t-78.5 -16.5t-77.5 -8t-68.5 -3t-61.5 -0.5h-7h-170l65 243h129q74 0 149.5 18.5t143.5 54.5t111 98.5t43 140.5l-285 1040
h197l278 -844l430 844h197z" />
    <glyph glyph-name="Amacron" unicode="&#x100;" horiz-adv-x="1712" 
d="M1012 2001l811 49l18 -158l-932 -34zM1538 -2h-301v240l-623 41l-141 -281h-266l979 1538l186 -2zM1272 485v920l-535 -920h535z" />
    <glyph glyph-name="amacron" unicode="&#x101;" horiz-adv-x="1357" 
d="M739 1573l811 49l19 -158l-932 -34zM1217 913l18 162h106l-149 -1075h-186l45 168q-84 -97 -201.5 -147t-245.5 -50q-120 0 -208 42t-132 114t-43 173t53 214q112 241 269 401t295 160q58 0 115 -9t112 -27t96 -50.5t56 -75.5zM508 594q-42 -71 -62.5 -118.5t-24.5 -89.5
t20.5 -65.5t80 -37t146.5 -13.5q96 0 160 4.5t113 23.5t76 36.5t51.5 64t36.5 84t34 117.5q17 63 18 113.5t-9.5 83.5t-35 57.5t-49.5 37t-62 20t-64 9t-63 1.5q-59 0 -131 -53.5t-130 -124.5t-105 -150z" />
    <glyph glyph-name="Abreve" unicode="&#x102;" horiz-adv-x="1712" 
d="M1653 2023h133q-25 -92 -79.5 -169t-125.5 -127.5t-153.5 -78.5t-165.5 -28q-171 0 -255 109.5t-34 293.5h135q-12 -44 -13.5 -77.5t9 -56.5t27.5 -37.5t46.5 -22.5t61.5 -11t76 -3q78 0 128.5 7.5t93.5 29.5t70.5 63.5t45.5 107.5zM1538 -2h-301v240l-623 41l-141 -281
h-266l979 1538l186 -2zM1272 485v920l-535 -920h535z" />
    <glyph glyph-name="abreve" unicode="&#x103;" horiz-adv-x="1357" 
d="M1321 1784h133q-33 -122 -116 -215.5t-189.5 -141t-218.5 -47.5q-171 0 -255 110t-34 294h135q-12 -44 -13.5 -77.5t9 -56.5t28 -38t46.5 -23t61 -11t76 -3q78 0 128.5 7.5t93.5 30t70.5 64t45.5 107.5zM1217 913l18 162h106l-149 -1075h-186l45 168q-84 -97 -201.5 -147
t-245.5 -50q-120 0 -208 42t-132 114t-43 173t53 214q112 241 269 401t295 160q58 0 115 -9t112 -27t96 -50.5t56 -75.5zM508 594q-42 -71 -62.5 -118.5t-24.5 -89.5t20.5 -65.5t80 -37t146.5 -13.5q96 0 160 4.5t113 23.5t76 36.5t51.5 64t36.5 84t34 117.5q17 63 18 113.5
t-9.5 83.5t-35 57.5t-49.5 37t-62 20t-64 9t-63 1.5q-59 0 -131 -53.5t-130 -124.5t-105 -150z" />
    <glyph glyph-name="Aogonek" unicode="&#x104;" horiz-adv-x="1712" 
d="M1151 -244q-8 -31 19.5 -47t91.5 -16q41 0 116 10q-3 -18 -6 -45t-6 -57t-4 -41q-180 -3 -267.5 43.5t-64.5 132.5q28 110 246 262h-39v240l-623 41l-141 -281h-266l979 1538l186 -2l166 -1536h-139q-227 -169 -248 -242zM1272 485v920l-535 -920h535z" />
    <glyph glyph-name="aogonek" unicode="&#x105;" horiz-adv-x="1357" 
d="M1063 0q-135 -111 -150 -166q-8 -31 19.5 -47t91.5 -16q42 0 117 10q-3 -20 -17 -143q-180 -3 -267 43.5t-64 132.5q28 108 229 249l29 105q-84 -97 -201.5 -147t-245.5 -50q-120 0 -208 42t-132 114t-43 173t53 214q112 241 269 401t295 160q58 0 115 -9t112 -27
t96 -50.5t56 -75.5l18 162h106l-149 -1075h-129zM668 270q96 0 160 4.5t113 23.5t76 36.5t51.5 64t36.5 84t34 117.5q17 63 18 113.5t-9.5 83.5t-35 57.5t-49.5 37t-62 20t-64 9t-63 1.5q-59 0 -131 -53.5t-130 -124.5t-105 -150q-42 -71 -62.5 -118.5t-24.5 -89.5
t20.5 -65.5t80 -37t146.5 -13.5z" />
    <glyph glyph-name="Cacute" unicode="&#x106;" horiz-adv-x="1482" 
d="M1360 1929h106l-190 -315h-158zM1720 1520l-71 -185q-62 20 -88.5 27.5t-75.5 16t-96.5 5.5t-106.5 -16q-65 -14 -130.5 -37t-152.5 -71.5t-158 -112.5t-135 -166.5t-96 -226.5q-22 -88 -25.5 -157.5t8.5 -118t41 -84t64 -56.5t85.5 -33t98 -16t109.5 -4q224 0 371 41
l-94 -353h-643q-52 0 -113 50.5t-113 149.5t-64.5 245t32.5 336q91 359 346 574t598 226q241 7 409 -34z" />
    <glyph glyph-name="cacute" unicode="&#x107;" horiz-adv-x="1226" 
d="M1112 1556h107l-191 -315h-158zM1219 1122l-39 -145q-71 24 -211 24q-174 0 -281.5 -113.5t-165.5 -328.5q-19 -97 6 -173.5t80.5 -116t139 -39.5t174.5 46l151 -233q-204 -82 -358 -72q-156 11 -254 53.5t-140.5 116.5t-43 178.5t37.5 239.5q73 272 272 430t464 158
q98 0 168 -25z" />
    <glyph glyph-name="Cdotaccent" unicode="&#x10a;" horiz-adv-x="1482" 
d="M1192 1866h209l-55 -207h-209zM1720 1520l-71 -185q-62 20 -88.5 27.5t-75.5 16t-96.5 5.5t-106.5 -16q-65 -14 -130.5 -37t-152.5 -71.5t-158 -112.5t-135 -166.5t-96 -226.5q-22 -88 -25.5 -157.5t8.5 -118t41 -84t64 -56.5t85.5 -33t98 -16t109.5 -4q224 0 371 41
l-94 -353h-643q-52 0 -113 50.5t-113 149.5t-64.5 245t32.5 336q91 359 346 574t598 226q241 7 409 -34z" />
    <glyph glyph-name="cdotaccent" unicode="&#x10b;" horiz-adv-x="1226" 
d="M944 1493h209l-55 -207h-209zM1219 1122l-39 -145q-71 24 -211 24q-174 0 -281.5 -113.5t-165.5 -328.5q-19 -97 6 -173.5t80.5 -116t139 -39.5t174.5 46l151 -233q-204 -82 -358 -72q-156 11 -254 53.5t-140.5 116.5t-43 178.5t37.5 239.5q73 272 272 430t464 158
q98 0 168 -25z" />
    <glyph glyph-name="Ccaron" unicode="&#x10c;" horiz-adv-x="1482" 
d="M1126 1608l-57 131l-203 268h113l240 -203l354 203h113l-345 -268l-116 -131h-99zM1720 1520l-71 -185q-62 20 -88.5 27.5t-75.5 16t-96.5 5.5t-106.5 -16q-65 -14 -130.5 -37t-152.5 -71.5t-158 -112.5t-135 -166.5t-96 -226.5q-22 -88 -25.5 -157.5t8.5 -118t41 -84
t64 -56.5t85.5 -33t98 -16t109.5 -4q224 0 371 41l-94 -353h-643q-52 0 -113 50.5t-113 149.5t-64.5 245t32.5 336q91 359 346 574t598 226q241 7 409 -34z" />
    <glyph glyph-name="ccaron" unicode="&#x10d;" horiz-adv-x="1226" 
d="M879 1235l-58 131l-203 268h113l240 -202l354 202h113l-344 -268l-117 -131h-98zM1219 1122l-39 -145q-71 24 -211 24q-174 0 -281.5 -113.5t-165.5 -328.5q-19 -97 6 -173.5t80.5 -116t139 -39.5t174.5 46l151 -233q-204 -82 -358 -72q-156 11 -254 53.5t-140.5 116.5
t-43 178.5t37.5 239.5q73 272 272 430t464 158q98 0 168 -25z" />
    <glyph glyph-name="Dcaron" unicode="&#x10e;" horiz-adv-x="1599" 
d="M1069 1608l-57 131l-203 268h113l239 -203l355 203h112l-344 -268l-117 -131h-98zM166 0l420 1534h420q438 0 593 -180t56 -566q-32 -124 -69 -224t-75.5 -177t-89.5 -135.5t-98 -100t-115 -69.5t-127 -44t-147.5 -24.5t-162.5 -11t-185 -2.5h-420zM485 389h246
q152 0 273.5 24t204 64.5t143 100.5t95 124t56.5 144q74 274 -52 409.5t-441 135.5h-248z" />
    <glyph glyph-name="dcaron" unicode="&#x10f;" horiz-adv-x="1378" 
d="M1233 901l231 741h187l-359 -1161l-106 -485l-195 4l45 168q-160 -188 -415 -197q-120 -4 -199 37.5t-112.5 121t-32 187t37.5 242.5q62 230 234 384.5t375 154.5q248 0 309 -197zM1896 1139h-196l174 436h164zM455 580q-37 -143 24 -209t213 -66q64 0 109 6t88.5 24
t74.5 50t57 83.5t46 125.5q46 171 -1.5 271t-191.5 100q-146 0 -260 -107.5t-159 -277.5z" />
    <glyph glyph-name="Dcroat" unicode="&#x110;" horiz-adv-x="1599" 
d="M1006 1534q438 0 593 -180t56 -566q-32 -124 -69 -224t-75.5 -177t-89.5 -135.5t-98 -100t-115 -69.5t-127 -44t-147.5 -24.5t-162.5 -11t-185 -2.5h-420l201 733h-197l51 187h197l168 614h420zM1503 846q74 274 -52 409.5t-441 135.5h-248l-129 -471h395l-49 -187h-399
l-95 -344h246q152 0 273.5 24t204 64.5t143 100.5t95 124t56.5 144z" />
    <glyph glyph-name="dcroat" unicode="&#x111;" horiz-adv-x="1378" 
d="M1860 1374l-50 -186h-301l-217 -707l-106 -485l-195 4l45 168q-160 -188 -415 -197q-120 -4 -199 37.5t-112.5 121t-32 187t37.5 242.5q62 230 234 384.5t375 154.5q248 0 309 -197l90 287h-322l52 186h327l84 268h187l-82 -268h291zM1067 594q46 171 -1.5 271
t-191.5 100q-146 0 -260 -107.5t-159 -277.5q-37 -143 24 -209t213 -66q64 0 109 6t88.5 24t74.5 50t57 83.5t46 125.5z" />
    <glyph glyph-name="Emacron" unicode="&#x112;" horiz-adv-x="1329" 
d="M647 1704l842 49l-78 -158l-954 -34zM510 1454l997 53l-157 -317l-691 -37l-129 -418l496 -6l-47 -172l-502 -4l-115 -428l588 -8l-30 -207l-828 -14z" />
    <glyph glyph-name="emacron" unicode="&#x113;" horiz-adv-x="1353" 
d="M698 1497l811 49l19 -157l-932 -35zM1360 645l-868 -57q-14 -59 -13.5 -113.5t24.5 -101t64.5 -80t107 -51t150.5 -13.5q55 3 110.5 16.5t92 27.5t107.5 44.5t116 47.5l-67 -308q-226 -86 -439 -86q-270 0 -387 156.5t-45 421.5q86 279 274.5 439.5t442.5 160.5
q89 -7 152 -34.5t109 -84.5t63.5 -153t5.5 -232zM586 748l649 40q10 102 -45.5 167t-185.5 65q-149 0 -269 -83t-149 -189z" />
    <glyph glyph-name="Ebreve" unicode="&#x114;" horiz-adv-x="1329" 
d="M1427 2032h134q-33 -122 -116.5 -215.5t-190 -141t-218.5 -47.5q-171 0 -254.5 110t-33.5 294h135q-12 -44 -13.5 -77.5t9 -56.5t28 -38t46.5 -23t61 -11t76 -3q155 0 228.5 41t108.5 168zM166 0l442 1536l844 29l-84 -205l-610 -39l-121 -422l514 23l-47 -170l-514 -33
l-101 -410h691l-15 -309h-999z" />
    <glyph glyph-name="ebreve" unicode="&#x115;" horiz-adv-x="1353" 
d="M1419 1690h133q-33 -122 -116 -215.5t-189.5 -141t-218.5 -47.5q-171 0 -255 110t-34 294h135q-12 -44 -13.5 -77.5t9 -56.5t28 -38t46.5 -23t61 -11t76 -3q78 0 128.5 7.5t93.5 30t70.5 64t45.5 107.5zM1360 645l-868 -57q-14 -59 -13.5 -113.5t24.5 -101t64.5 -80
t107 -51t150.5 -13.5q55 3 110.5 16.5t92 27.5t107.5 44.5t116 47.5l-67 -308q-226 -86 -439 -86q-270 0 -387 156.5t-45 421.5q86 279 274.5 439.5t442.5 160.5q89 -7 152 -34.5t109 -84.5t63.5 -153t5.5 -232zM586 748l649 40q10 102 -45.5 167t-185.5 65q-149 0 -269 -83
t-149 -189z" />
    <glyph glyph-name="Edotaccent" unicode="&#x116;" horiz-adv-x="1329" 
d="M1020 1942h209l-55 -207h-209zM166 0l442 1536l844 29l-84 -205l-610 -39l-121 -422l514 23l-47 -170l-514 -33l-101 -410h691l-15 -309h-999z" />
    <glyph glyph-name="edotaccent" unicode="&#x117;" horiz-adv-x="1353" 
d="M1012 1599h209l-56 -206h-209zM1360 645l-868 -57q-14 -59 -13.5 -113.5t24.5 -101t64.5 -80t107 -51t150.5 -13.5q55 3 110.5 16.5t92 27.5t107.5 44.5t116 47.5l-67 -308q-226 -86 -439 -86q-270 0 -387 156.5t-45 421.5q86 279 274.5 439.5t442.5 160.5
q89 -7 152 -34.5t109 -84.5t63.5 -153t5.5 -232zM586 748l649 40q10 102 -45.5 167t-185.5 65q-149 0 -269 -83t-149 -189z" />
    <glyph glyph-name="Eogonek" unicode="&#x118;" horiz-adv-x="1329" 
d="M1368 1360l-610 -39l-121 -422l514 23l-47 -170l-514 -33l-101 -410h691l-15 -309h-405q-208 -158 -225 -225q-8 -31 19.5 -47.5t90.5 -16.5q42 0 117 10q-3 -21 -17 -143q-180 -3 -267 43.5t-64 132.5q29 109 223 246h-471l442 1536l844 29z" />
    <glyph glyph-name="eogonek" unicode="&#x119;" horiz-adv-x="1353" 
d="M1360 645l-868 -57q-14 -59 -13.5 -113.5t24.5 -101t64.5 -80t107 -51t150.5 -13.5q55 3 110.5 16.5t92 27.5t107.5 44.5t116 47.5l-67 -308q-135 -52 -252 -69q-99 -85 -111 -133q-8 -31 19.5 -47.5t91.5 -16.5q42 0 117 10q-3 -20 -17 -143q-180 -3 -267.5 43.5
t-64.5 132.5q15 62 93 137h-48q-270 0 -387 156.5t-45 421.5q86 279 274.5 439.5t442.5 160.5q89 -7 152 -34.5t109 -84.5t63.5 -153t5.5 -232zM1004 1020q-149 0 -269 -83t-149 -189l649 40q10 102 -45.5 167t-185.5 65z" />
    <glyph glyph-name="Ecaron" unicode="&#x11a;" horiz-adv-x="1329" 
d="M954 1683l-57 132l-203 268h113l240 -203l354 203h112l-344 -268l-116 -132h-99zM166 0l442 1536l844 29l-84 -205l-610 -39l-121 -422l514 23l-47 -170l-514 -33l-101 -410h691l-15 -309h-999z" />
    <glyph glyph-name="ecaron" unicode="&#x11b;" horiz-adv-x="1353" 
d="M946 1341l-57 132l-203 268h113l239 -203l355 203h112l-344 -268l-117 -132h-98zM1360 645l-868 -57q-14 -59 -13.5 -113.5t24.5 -101t64.5 -80t107 -51t150.5 -13.5q55 3 110.5 16.5t92 27.5t107.5 44.5t116 47.5l-67 -308q-226 -86 -439 -86q-270 0 -387 156.5
t-45 421.5q86 279 274.5 439.5t442.5 160.5q89 -7 152 -34.5t109 -84.5t63.5 -153t5.5 -232zM586 748l649 40q10 102 -45.5 167t-185.5 65q-149 0 -269 -83t-149 -189z" />
    <glyph glyph-name="Gbreve" unicode="&#x11e;" horiz-adv-x="1734" 
d="M1718 2032h133q-33 -122 -116 -215.5t-189.5 -141t-218.5 -47.5q-171 0 -255 110t-34 294h136q-12 -44 -13.5 -77.5t9 -56.5t27.5 -38t46 -23t61 -11t76 -3q78 0 128.5 7.5t93.5 30t70.5 64t45.5 107.5zM911 -29q-360 0 -489.5 198.5t-56.5 575.5q27 139 69 249t93 189.5
t120 137.5t140 93.5t162 56.5t178 28.5t196 7.5q239 0 403 -28l-20 -201q-162 43 -406 43q-92 0 -146.5 -3t-120.5 -14t-105.5 -34t-86 -62t-79.5 -99.5t-67.5 -144.5t-67.5 -198q-26 -112 -27 -190.5t21 -133.5t74.5 -86.5t128.5 -45t190 -13.5q244 0 338 76l47 182
l-266 47l24 162l565 -66l-18 -196l-137 24l-92 -424q-155 -68 -288 -99.5t-276 -31.5z" />
    <glyph glyph-name="gbreve" unicode="&#x11f;" horiz-adv-x="1363" 
d="M1399 1583h133q-25 -92 -79.5 -169t-125.5 -127.5t-153.5 -78.5t-165.5 -28q-171 0 -255 109.5t-34 293.5h135q-12 -44 -13.5 -77.5t9 -56.5t28 -38t46.5 -23t61 -11t76 -3q78 0 128.5 7.5t93.5 30t70.5 64t45.5 107.5zM520 -535q-105 0 -229 26t-203 71l148 270
q70 -44 173.5 -63t196.5 -5q66 9 189 93t166 174l53 116q-48 -50 -160 -98.5t-225 -48.5q-137 0 -229 77t-118 209t17 308q69 258 249 415.5t388 145.5q49 -3 88 -14.5t78 -38t60 -44.5t67 -61l82 123h186l-264 -979q-92 -342 -269.5 -509t-443.5 -167zM659 299
q69 -1 114 3.5t95 20.5t83.5 46t64 83.5t51.5 131.5q52 193 -8.5 296t-196.5 103q-137 0 -233 -107.5t-154 -291.5q-20 -63 -27 -109.5t0 -77.5t21.5 -50.5t45.5 -29.5t63 -13.5t81 -4.5z" />
    <glyph glyph-name="Gdotaccent" unicode="&#x120;" horiz-adv-x="1734" 
d="M1311 1942h209l-56 -207h-209zM911 -29q-360 0 -489.5 198.5t-56.5 575.5q27 139 69 249t93 189.5t120 137.5t140 93.5t162 56.5t178 28.5t196 7.5q239 0 403 -28l-20 -201q-162 43 -406 43q-92 0 -146.5 -3t-120.5 -14t-105.5 -34t-86 -62t-79.5 -99.5t-67.5 -144.5
t-67.5 -198q-26 -112 -27 -190.5t21 -133.5t74.5 -86.5t128.5 -45t190 -13.5q244 0 338 76l47 182l-266 47l24 162l565 -66l-18 -196l-137 24l-92 -424q-155 -68 -288 -99.5t-276 -31.5z" />
    <glyph glyph-name="gdotaccent" unicode="&#x121;" horiz-adv-x="1363" 
d="M991 1493h209l-55 -207h-209zM520 -535q-105 0 -229 26t-203 71l148 270q70 -44 173.5 -63t196.5 -5q66 9 189 93t166 174l53 116q-48 -50 -160 -98.5t-225 -48.5q-137 0 -229 77t-118 209t17 308q69 258 249 415.5t388 145.5q49 -3 88 -14.5t78 -38t60 -44.5t67 -61
l82 123h186l-264 -979q-92 -342 -269.5 -509t-443.5 -167zM659 299q69 -1 114 3.5t95 20.5t83.5 46t64 83.5t51.5 131.5q52 193 -8.5 296t-196.5 103q-137 0 -233 -107.5t-154 -291.5q-20 -63 -27 -109.5t0 -77.5t21.5 -50.5t45.5 -29.5t63 -13.5t81 -4.5z" />
    <glyph glyph-name="uni0122" unicode="&#x122;" horiz-adv-x="1734" 
d="M1403 1661h-197l191 299h-8l51 178h227zM1133 602l24 162l565 -66l-18 -196l-137 24l-92 -424q-155 -68 -288 -99.5t-276 -31.5q-360 0 -489.5 198.5t-56.5 575.5q27 139 69 249t93 189.5t120 137.5t140 93.5t162 56.5t178 28.5t196 7.5q239 0 403 -28l-20 -201
q-162 43 -406 43q-92 0 -146.5 -3t-120.5 -14t-105.5 -34t-86 -62t-79.5 -99.5t-67.5 -144.5t-67.5 -198q-26 -112 -27 -190.5t21 -133.5t74.5 -86.5t128.5 -45t190 -13.5q244 0 338 76l47 182z" />
    <glyph glyph-name="uni0123" unicode="&#x123;" horiz-adv-x="1363" 
d="M1083 1212h-196l190 299h-8l51 179h228zM1311 1120h186l-264 -979q-92 -342 -269.5 -509t-443.5 -167q-105 0 -229 26t-203 71l148 270q70 -44 173.5 -63t196.5 -5q66 9 189 93t166 174l53 116q-48 -50 -160 -98.5t-225 -48.5q-137 0 -229 77t-118 209t17 308
q69 258 249 415.5t388 145.5q49 -3 88 -14.5t78 -38t60 -44.5t67 -61zM1067 584q52 193 -8.5 296t-196.5 103q-137 0 -233 -107.5t-154 -291.5q-20 -63 -27 -109.5t0 -77.5t21.5 -50.5t45.5 -29.5t63 -13.5t81 -4.5q69 -1 114 3.5t95 20.5t83.5 46t64 83.5t51.5 131.5z" />
    <glyph glyph-name="Hbar" unicode="&#x126;" horiz-adv-x="1916" 
d="M1876 1161l-57 -186h-177l-212 -975h-330l112 383h-647l-86 -383h-313l280 979h-198l55 186h197l106 371h215l-82 -373h701l110 373h215l-82 -375h193zM1298 680l88 297h-690l-65 -297h667z" />
    <glyph glyph-name="hbar" unicode="&#x127;" horiz-adv-x="1363" 
d="M1096 1122q60 0 101.5 -4t80 -15.5t61 -32.5t39 -53.5t19 -80t-3.5 -111.5t-23 -149l-137 -676h-285q73 156 124 283t78.5 214.5t38 155.5t8 107.5t-17 68t-31 41t-40.5 21.5q-40 15 -83 16.5t-90 -11t-93.5 -45t-92 -80.5t-87.5 -122t-78 -166t-65.5 -215.5
t-47.5 -267.5h-305l459 1346l-193 -19l33 137l207 21l53 157h186l-45 -139l420 39l-31 -137l-436 -41l-131 -403q137 102 208.5 131.5t199.5 29.5z" />
    <glyph glyph-name="Itilde" unicode="&#x128;" horiz-adv-x="620" 
d="M344 1673q61 184 115 245.5t162 61.5q46 0 77 -32t44 -70t35 -70t52 -32q25 0 44 9t30.5 21t22 35.5t15.5 40.5t14 49t14 49h94q-21 -74 -40.5 -126.5t-40.5 -86.5t-38.5 -53.5t-43 -28.5t-45 -11t-52.5 -1q-41 1 -70 23t-45 53.5t-28 62.5t-27.5 53t-36.5 23
q-19 0 -36 -8t-30.5 -28.5t-23 -36t-20.5 -48.5t-15 -46t-14 -48h-113zM166 0q148 398 273 866t159 670h225q-252 -816 -368 -1536h-289z" />
    <glyph glyph-name="itilde" unicode="&#x129;" horiz-adv-x="583" 
d="M213 1237q61 184 114.5 245.5t161.5 61.5q38 0 65 -21t42 -51t27.5 -60.5t31 -51.5t43.5 -21t44 9t30.5 21t22 35.5t16 41t14 49.5t13.5 49h94q-21 -74 -40.5 -126.5t-40.5 -86.5t-38.5 -53.5t-43 -28.5t-45 -11t-52.5 -1q-41 1 -70 23t-45 53.5t-28 62.5t-27.5 53
t-36.5 23q-19 0 -36 -8t-30.5 -28.5t-23 -36t-20.5 -48.5t-15 -46t-14 -48h-113zM166 0q113 339 172.5 531t144.5 505h164q-89 -291 -144 -527.5t-85 -508.5h-252z" />
    <glyph glyph-name="Imacron" unicode="&#x12a;" horiz-adv-x="620" 
d="M399 1866l811 49l19 -158l-932 -35zM166 0q148 398 273 866t159 670h225q-252 -816 -368 -1536h-289z" />
    <glyph glyph-name="imacron" unicode="&#x12b;" horiz-adv-x="583" 
d="M268 1430l811 49l19 -158l-932 -35zM166 0q113 339 172.5 531t144.5 505h164q-89 -291 -144 -527.5t-85 -508.5h-252z" />
    <glyph glyph-name="Iogonek" unicode="&#x12e;" horiz-adv-x="1241" 
d="M670 0q-217 -163 -234 -231q-8 -31 19.5 -47.5t91.5 -16.5q42 0 117 10q-3 -21 -17 -143q-180 -3 -267.5 43.5t-64.5 132.5q28 108 232 252h-70q148 398 273 866t159 670h226q-254 -823 -369 -1536h-96z" />
    <glyph glyph-name="iogonek" unicode="&#x12f;" horiz-adv-x="583" 
d="M582 1532h209l-56 -207h-209zM166 0q113 339 172.5 531t144.5 505h164q-89 -291 -144 -527.5t-85 -508.5h-70q-257 -184 -278 -264q-8 -31 19.5 -47.5t90.5 -16.5q34 0 117 11q-4 -25 -10 -84t-6 -60q-180 -3 -267.5 43.5t-64.5 132.5q31 123 280 285h-63z" />
    <glyph glyph-name="Idotaccent" unicode="&#x130;" horiz-adv-x="620" 
d="M713 1968h209l-56 -207h-209zM166 0q148 398 273 866t159 670h225q-252 -816 -368 -1536h-289z" />
    <glyph glyph-name="dotlessi" unicode="&#x131;" horiz-adv-x="583" 
d="M166 0q113 339 172.5 531t144.5 505h164q-89 -291 -144 -527.5t-85 -508.5h-252z" />
    <glyph glyph-name="uni0136" unicode="&#x136;" horiz-adv-x="1509" 
d="M1245 1585h-196l190 299h-8l51 178h227zM1571 1536l-705 -825l480 -711l-484 -20l-227 632l-205 -612h-264l526 1536h191l-191 -719l594 719h285z" />
    <glyph glyph-name="uni0137" unicode="&#x137;" horiz-adv-x="1366" 
d="M1208 1024l-446 -432l438 -592h-424l-221 502l-141 -502h-269l523 1624h206l-247 -885l319 269zM680 -100l-264 -478h-197l191 299h-9l52 179h227z" />
    <glyph glyph-name="Lacute" unicode="&#x139;" horiz-adv-x="1300" 
d="M852 1929h106l-190 -315h-158zM125 0l453 1536h202l-301 -1237l717 12l-61 -311h-1010z" />
    <glyph glyph-name="lacute" unicode="&#x13a;" horiz-adv-x="806" 
d="M920 2040h106l-190 -316h-158zM123 0q1 4 24 91t36 135t42.5 157t54 190t59.5 197.5t68.5 216t72 210t79.5 214t82 195.5h217q-167 -442 -320.5 -910.5t-115.5 -468.5h268l-49 -227h-518z" />
    <glyph glyph-name="uni013B" unicode="&#x13b;" horiz-adv-x="1300" 
d="M776 1585h-196l190 299h-8l51 178h227zM479 299l717 12l-61 -311h-1010l453 1536h202z" />
    <glyph glyph-name="uni013C" unicode="&#x13c;" horiz-adv-x="806" 
d="M858 1606q-167 -442 -320.5 -910.5t-115.5 -468.5h268l-49 -227h-518q1 4 24 91t36 135t42.5 157t54 190t59.5 197.5t68.5 216t72 210t79.5 214t82 195.5h217zM532 -100l-264 -478h-196l190 299h-8l51 179h227z" />
    <glyph glyph-name="Lcaron" unicode="&#x13d;" horiz-adv-x="1300" 
d="M125 0l453 1536h202l-301 -1237l717 12l-61 -311h-1010zM1241 1077h-197l175 436h163z" />
    <glyph glyph-name="lcaron" unicode="&#x13e;" horiz-adv-x="806" 
d="M123 0q1 4 24 91t36 135t42.5 157t54 190t59.5 197.5t68.5 216t72 210t79.5 214t82 195.5h217q-167 -442 -320.5 -910.5t-115.5 -468.5h268l-49 -227h-518zM1055 756h-197l174 436h164z" />
    <glyph glyph-name="Ldot" unicode="&#x13f;" horiz-adv-x="1300" 
d="M125 0l453 1536h202l-301 -1237l717 12l-61 -311h-1010zM1153 1430h209l-55 -207h-209z" />
    <glyph glyph-name="ldot" unicode="&#x140;" horiz-adv-x="806" 
d="M123 0q1 4 24 91t36 135t42.5 157t54 190t59.5 197.5t68.5 216t72 210t79.5 214t82 195.5h217q-167 -442 -320.5 -910.5t-115.5 -468.5h268l-49 -227h-518zM967 1108h209l-56 -207h-209z" />
    <glyph glyph-name="Lslash" unicode="&#x141;" horiz-adv-x="1288" 
d="M479 299l717 12l-61 -311h-1010l143 485l-108 -45l-232 80l394 146l256 870h202l-186 -768l407 152l129 -70l-575 -244z" />
    <glyph glyph-name="lslash" unicode="&#x142;" horiz-adv-x="798" 
d="M623 948q-109 -318 -167 -519.5t-34 -201.5h268l-49 -227h-518q155 589 278 971l-143 35l162 20q121 357 221 580h217q-116 -312 -199 -551l547 67l170 -53z" />
    <glyph glyph-name="Nacute" unicode="&#x143;" horiz-adv-x="1566" 
d="M1352 1929h106l-190 -315h-158zM166 0l504 1434h254l264 -1149l424 1204h188l-483 -1489h-332l-190 1262l-297 -1262h-332z" />
    <glyph glyph-name="nacute" unicode="&#x144;" horiz-adv-x="1384" 
d="M1128 1634h107l-191 -315h-157zM166 0l387 1139h178l-39 -125q7 4 49.5 28.5t54 30.5t50 23.5t63.5 23t65 11.5t83 6q80 0 137.5 -15t98.5 -49.5t60 -89.5t19 -135t-22 -186l-131 -662h-287l250 694q53 147 -0.5 220t-184.5 73q-158 0 -276 -93t-148 -251l-122 -643h-285
z" />
    <glyph glyph-name="uni0145" unicode="&#x145;" horiz-adv-x="1566" 
d="M1612 1489h188l-483 -1489h-332l-190 1262l-297 -1262h-332l504 1434h254l264 -1149zM944 -100l-264 -478h-197l191 299h-8l51 179h227z" />
    <glyph glyph-name="uni0146" unicode="&#x146;" horiz-adv-x="1384" 
d="M1057 1137q80 0 137.5 -15t98.5 -49.5t60 -89.5t19 -135t-22 -186l-131 -662h-287l250 694q53 147 -0.5 220t-184.5 73q-158 0 -276 -93t-148 -251l-122 -643h-285l387 1139h178l-39 -125q7 4 49.5 28.5t54 30.5t50 23.5t63.5 23t65 11.5t83 6zM1239 -59l-264 -478h-197
l191 299h-8l51 179h227z" />
    <glyph glyph-name="Ncaron" unicode="&#x147;" horiz-adv-x="1566" 
d="M1118 1608l-57 131l-203 268h113l239 -203l355 203h112l-344 -268l-116 -131h-99zM166 0l504 1434h254l264 -1149l424 1204h188l-483 -1489h-332l-190 1262l-297 -1262h-332z" />
    <glyph glyph-name="ncaron" unicode="&#x148;" horiz-adv-x="1384" 
d="M895 1313l-57 131l-203 268h113l239 -203l354 203h113l-344 -268l-117 -131h-98zM166 0l387 1139h178l-39 -125q7 4 49.5 28.5t54 30.5t50 23.5t63.5 23t65 11.5t83 6q80 0 137.5 -15t98.5 -49.5t60 -89.5t19 -135t-22 -186l-131 -662h-287l250 694q53 147 -0.5 220
t-184.5 73q-158 0 -276 -93t-148 -251l-122 -643h-285z" />
    <glyph glyph-name="napostrophe" unicode="&#x149;" horiz-adv-x="1384" 
d="M-43 1221l-268 -41l284 348h162zM166 0l387 1139h178l-39 -125q7 4 49.5 28.5t54 30.5t50 23.5t63.5 23t65 11.5t83 6q80 0 137.5 -15t98.5 -49.5t60 -89.5t19 -135t-22 -186l-131 -662h-287l250 694q53 147 -0.5 220t-184.5 73q-158 0 -276 -93t-148 -251l-122 -643
h-285z" />
    <glyph glyph-name="Eng" unicode="&#x14a;" horiz-adv-x="1566" 
d="M1800 1489l-483 -1489q-69 -225 -164 -285q-55 -36 -286.5 -52t-295.5 7q4 6 45 71.5t50 78.5h112q37 0 62.5 3t46 13t32.5 21t24.5 35.5t20.5 46.5t21 65l-190 1258l-297 -1262h-332l504 1434h254l264 -1149l424 1204h188z" />
    <glyph glyph-name="eng" unicode="&#x14b;" horiz-adv-x="1384" 
d="M1057 1137q80 0 137.5 -15t98.5 -49.5t60 -89.5t19 -135t-22 -186l-115 -578v-4q-1 -2 -2 -7t-2 -7l-12 -66h-5q-59 -212 -135 -270q-48 -36 -244 -52t-251 7l80 149h96q32 0 53.5 3t39 13.5t27.5 20.5t21 36t17 47t18 66q0 7 8 11l238 663q53 147 -0.5 220t-184.5 73
q-158 0 -276 -93t-148 -251l-122 -643h-285l387 1139h178l-39 -125q7 4 49.5 28.5t54 30.5t50 23.5t63.5 23t65 11.5t83 6z" />
    <glyph glyph-name="Omacron" unicode="&#x14c;" horiz-adv-x="1726" 
d="M979 1939l811 50l18 -158l-931 -35zM856 -29q-94 1 -166 8.5t-136.5 25t-108.5 46t-77.5 71t-48.5 100.5t-16 134.5t14.5 173t47.5 215.5q95 353 342 564t565 211q211 0 346 -96.5t171.5 -268.5t-28.5 -410q-47 -162 -94 -278.5t-106 -205t-124.5 -143.5t-154.5 -89
t-189.5 -46.5t-236.5 -11.5zM961 354q117 0 205.5 18t165.5 61t130.5 121t83.5 191q47 191 29 331t-107 220t-235 80q-220 0 -398 -173.5t-255 -457.5q-20 -76 -21 -136t17.5 -103t51.5 -72.5t84.5 -47t111.5 -25t137 -7.5z" />
    <glyph glyph-name="omacron" unicode="&#x14d;" horiz-adv-x="1370" 
d="M688 1497l811 49l19 -157l-932 -35zM678 -23q-248 -9 -346 143t-17 439q74 266 253 431t417 165q241 0 338.5 -151.5t30.5 -413.5q-69 -274 -251.5 -439t-424.5 -174zM762 289q27 2 52 5t63 12t70.5 22t69.5 36t64.5 53t50.5 75.5t33 99.5q7 48 8 99.5t-14 101t-39 88.5
t-68.5 62t-101.5 22q-122 -3 -242.5 -105t-187.5 -268q-69 -164 -9.5 -239.5t251.5 -63.5z" />
    <glyph glyph-name="Obreve" unicode="&#x14e;" horiz-adv-x="1726" 
d="M1690 2116h133q-33 -122 -116.5 -215.5t-190 -141t-218.5 -47.5q-171 0 -254.5 110t-33.5 294h135q-12 -44 -13.5 -77.5t9 -56.5t28 -38t46.5 -23t61 -11t76 -3q78 0 128.5 7.5t93.5 30t70.5 64t45.5 107.5zM856 -29q-94 1 -166 8.5t-136.5 25t-108.5 46t-77.5 71
t-48.5 100.5t-16 134.5t14.5 173t47.5 215.5q95 353 342 564t565 211q211 0 346 -96.5t171.5 -268.5t-28.5 -410q-47 -162 -94 -278.5t-106 -205t-124.5 -143.5t-154.5 -89t-189.5 -46.5t-236.5 -11.5zM961 354q117 0 205.5 18t165.5 61t130.5 121t83.5 191q47 191 29 331
t-107 220t-235 80q-220 0 -398 -173.5t-255 -457.5q-20 -76 -21 -136t17.5 -103t51.5 -72.5t84.5 -47t111.5 -25t137 -7.5z" />
    <glyph glyph-name="obreve" unicode="&#x14f;" horiz-adv-x="1370" 
d="M1409 1690h133q-33 -122 -116 -215.5t-189.5 -141t-218.5 -47.5q-171 0 -255 110t-34 294h135q-12 -44 -13.5 -77.5t9 -56.5t28 -38t46.5 -23t61 -11t76 -3q78 0 128.5 7.5t93.5 30t70.5 64t45.5 107.5zM678 -23q-248 -9 -346 143t-17 439q74 266 253 431t417 165
q241 0 338.5 -151.5t30.5 -413.5q-69 -274 -251.5 -439t-424.5 -174zM762 289q27 2 52 5t63 12t70.5 22t69.5 36t64.5 53t50.5 75.5t33 99.5q7 48 8 99.5t-14 101t-39 88.5t-68.5 62t-101.5 22q-122 -3 -242.5 -105t-187.5 -268q-69 -164 -9.5 -239.5t251.5 -63.5z" />
    <glyph glyph-name="Ohungarumlaut" unicode="&#x150;" horiz-adv-x="1726" 
d="M1264 1735l-269 -31l285 260h162zM1642 1735l-268 -31l285 260h162zM856 -29q-94 1 -166 8.5t-136.5 25t-108.5 46t-77.5 71t-48.5 100.5t-16 134.5t14.5 173t47.5 215.5q95 353 342 564t565 211q211 0 346 -96.5t171.5 -268.5t-28.5 -410q-47 -162 -94 -278.5t-106 -205
t-124.5 -143.5t-154.5 -89t-189.5 -46.5t-236.5 -11.5zM961 354q117 0 205.5 18t165.5 61t130.5 121t83.5 191q47 191 29 331t-107 220t-235 80q-220 0 -398 -173.5t-255 -457.5q-20 -76 -21 -136t17.5 -103t51.5 -72.5t84.5 -47t111.5 -25t137 -7.5z" />
    <glyph glyph-name="ohungarumlaut" unicode="&#x151;" horiz-adv-x="1370" 
d="M973 1292l-268 -30l284 260h162zM1352 1292l-269 -30l285 260h162zM678 -23q-248 -9 -346 143t-17 439q74 266 253 431t417 165q241 0 338.5 -151.5t30.5 -413.5q-69 -274 -251.5 -439t-424.5 -174zM762 289q27 2 52 5t63 12t70.5 22t69.5 36t64.5 53t50.5 75.5t33 99.5
q7 48 8 99.5t-14 101t-39 88.5t-68.5 62t-101.5 22q-122 -3 -242.5 -105t-187.5 -268q-69 -164 -9.5 -239.5t251.5 -63.5z" />
    <glyph glyph-name="OE" unicode="&#x152;" horiz-adv-x="2488" 
d="M1911 1298l-117 -409q-2 -4 -2 -12l512 22l-47 -170l-510 -33l-18 -57l-87 -352h691l-15 -310h-999l22 78q-173 -87 -485 -84q-94 1 -166 8.5t-136.5 25t-108.5 46t-77.5 71t-48.5 100.5t-16 134.5t14.5 173t47.5 215.5q95 353 342 564t565 211q299 0 438 -187l51 180
l844 29l-84 -205zM961 354q101 0 181.5 14t151.5 46t125 88.5t90 138.5l58 199q43 247 -45 391.5t-289 144.5q-220 0 -398 -173.5t-255 -457.5q-20 -76 -21 -136t17.5 -103t51.5 -72.5t84.5 -47t111.5 -25t137 -7.5z" />
    <glyph glyph-name="oe" unicode="&#x153;" horiz-adv-x="2213" 
d="M1354 588l-11 -35q-13 -69 2 -129t55.5 -105.5t114 -70t171.5 -19.5q55 3 110.5 16.5t92 27.5t107 44t115.5 48l-67 -308q-226 -86 -438 -86q-171 0 -283.5 64.5t-153.5 185.5q-96 -113 -221.5 -175.5t-269.5 -68.5q-248 -9 -346 143t-17 439q74 266 253 431t417 165
q155 0 251.5 -64.5t129.5 -183.5q209 242 524 242q89 -7 152 -34.5t109 -84.5t63.5 -153t5.5 -232zM1864 1020q-149 0 -269 -83t-149 -189l649 40q10 102 -45.5 167t-185.5 65zM762 289q27 2 52 5t63 12t70.5 22t69.5 36t64.5 53t50.5 75.5t33 99.5q7 48 8 99.5t-14 101
t-39 88.5t-68.5 62t-101.5 22q-122 -3 -242.5 -105t-187.5 -268q-69 -164 -9.5 -239.5t251.5 -63.5z" />
    <glyph glyph-name="Racute" unicode="&#x154;" horiz-adv-x="1417" 
d="M1219 1929h106l-190 -315h-158zM1079 741q63 -37 112 -128.5t52 -204.5l8 -408h-372l120 383q15 54 13 93t-25 64t-51.5 39t-68 19t-74.5 4t-70 -6l-113 -18l-121 -578h-323l493 1493h367q232 0 328.5 -108t38.5 -322q-37 -144 -118.5 -224t-195.5 -98zM1020 1386h-258
l-150 -557h258q119 0 236 70t143 164q17 62 17.5 112.5t-13 85t-36 59.5t-55 39t-67 20.5t-75.5 6.5z" />
    <glyph glyph-name="racute" unicode="&#x155;" horiz-adv-x="1058" 
d="M913 1556h107l-191 -315h-157zM1165 1124v-184q-215 -21 -278 -37q-99 -25 -154 -93q-43 -54 -88 -167q-14 -34 -22.5 -117t-19.5 -249.5t-21 -276.5h-416q136 282 213 507t180 609l191 -6l-31 -115q111 70 192.5 95t253.5 34z" />
    <glyph glyph-name="uni0156" unicode="&#x156;" horiz-adv-x="1417" 
d="M1143 1585h-197l191 299h-9l52 178h227zM1026 1493q232 0 328.5 -108t38.5 -322q-37 -144 -118.5 -224t-195.5 -98q63 -37 112 -128.5t52 -204.5l8 -408h-372l120 383q15 54 13 93t-25 64t-51.5 39t-68 19t-74.5 4t-70 -6l-113 -18l-121 -578h-323l493 1493h367z
M1249 1063q17 62 17.5 112.5t-13 85t-36 59.5t-55 39t-67 20.5t-75.5 6.5h-258l-150 -557h258q119 0 236 70t143 164z" />
    <glyph glyph-name="uni0157" unicode="&#x157;" horiz-adv-x="1058" 
d="M838 1212h-197l190 299h-8l51 179h228zM719 995q111 70 192.5 95t253.5 34v-184q-215 -21 -278 -37q-99 -25 -154 -93q-43 -54 -88 -167q-14 -34 -22.5 -117t-19.5 -249.5t-21 -276.5h-416q136 282 213 507t180 609l191 -6z" />
    <glyph glyph-name="Rcaron" unicode="&#x158;" horiz-adv-x="1417" 
d="M985 1608l-57 131l-203 268h113l239 -203l355 203h112l-344 -268l-117 -131h-98zM1079 741q63 -37 112 -128.5t52 -204.5l8 -408h-372l120 383q15 54 13 93t-25 64t-51.5 39t-68 19t-74.5 4t-70 -6l-113 -18l-121 -578h-323l493 1493h367q232 0 328.5 -108t38.5 -322
q-37 -144 -118.5 -224t-195.5 -98zM1020 1386h-258l-150 -557h258q119 0 236 70t143 164q17 62 17.5 112.5t-13 85t-36 59.5t-55 39t-67 20.5t-75.5 6.5z" />
    <glyph glyph-name="rcaron" unicode="&#x159;" horiz-adv-x="1058" 
d="M680 1235l-57 131l-203 268h112l240 -202l354 202h113l-344 -268l-117 -131h-98zM1165 1124v-184q-215 -21 -278 -37q-99 -25 -154 -93q-43 -54 -88 -167q-14 -34 -22.5 -117t-19.5 -249.5t-21 -276.5h-416q136 282 213 507t180 609l191 -6l-31 -115q111 70 192.5 95
t253.5 34z" />
    <glyph glyph-name="Sacute" unicode="&#x15a;" horiz-adv-x="1572" 
d="M1331 1929h107l-191 -315h-157zM1569 1475l-127 -152q-75 21 -117.5 27t-146.5 6q-175 0 -302.5 -59.5t-158.5 -172.5q-24 -92 55 -153t221 -92l115 -25q233 -49 345 -158t65 -284q-22 -83 -46 -145.5t-59.5 -109t-63.5 -78t-85 -52.5t-95 -32.5t-122 -16.5t-138.5 -6
t-169.5 -1q-86 0 -128 1t-107.5 6.5t-100 18t-76.5 34.5t-68.5 57.5t-45.5 85.5l297 168q48 -47 161.5 -92t196.5 -45q58 0 98.5 2.5t84.5 10t75.5 22.5t61 39t51.5 61t37 86q28 88 -47.5 145.5t-231.5 90.5l-118 24q-216 44 -292 140.5t-32 267.5q54 199 225.5 312.5
t419.5 113.5q105 0 183 -9.5t186 -35.5z" />
    <glyph glyph-name="sacute" unicode="&#x15b;" horiz-adv-x="1300" 
d="M1135 1556h106l-190 -315h-158zM1303 1124l-76 -135q-205 25 -301 25q-60 0 -110 -19t-81 -49t-49 -62.5t-24 -64.5q-7 -37 5.5 -68t34.5 -50t59 -34.5t65.5 -23t66.5 -14.5q179 -36 253.5 -109.5t76.5 -197.5q1 -63 -16.5 -114.5t-47 -87.5t-74 -63.5t-93 -43.5
t-108 -26.5t-115 -14t-118.5 -3.5q-81 0 -140 7t-116.5 27.5t-92 37.5t-109.5 57l262 224q17 -7 49 -20.5t45 -19t38 -14t43.5 -11.5t45 -6t57.5 -3q228 0 258 114q5 18 -13 33.5t-53.5 27.5t-69 20.5t-77 17.5t-61.5 14q-36 10 -70 24.5t-71 40t-63.5 58t-43 80
t-14.5 102.5q2 75 37.5 142t100.5 119.5t169 83t233 30.5q80 0 179 -14.5t129 -16.5z" />
    <glyph glyph-name="Scircumflex" unicode="&#x15c;" horiz-adv-x="1572" 
d="M1167 1921h99l47 -131l200 -268h-112l-246 202l-348 -202h-113l346 268zM1569 1475l-127 -152q-75 21 -117.5 27t-146.5 6q-175 0 -302.5 -59.5t-158.5 -172.5q-24 -92 55 -153t221 -92l115 -25q233 -49 345 -158t65 -284q-22 -83 -46 -145.5t-59.5 -109t-63.5 -78
t-85 -52.5t-95 -32.5t-122 -16.5t-138.5 -6t-169.5 -1q-86 0 -128 1t-107.5 6.5t-100 18t-76.5 34.5t-68.5 57.5t-45.5 85.5l297 168q48 -47 161.5 -92t196.5 -45q58 0 98.5 2.5t84.5 10t75.5 22.5t61 39t51.5 61t37 86q28 88 -47.5 145.5t-231.5 90.5l-118 24
q-216 44 -292 140.5t-32 267.5q54 199 225.5 312.5t419.5 113.5q105 0 183 -9.5t186 -35.5z" />
    <glyph glyph-name="scircumflex" unicode="&#x15d;" horiz-adv-x="1300" 
d="M971 1548h98l47 -131l201 -268h-113l-246 203l-348 -203h-112l346 268zM1303 1124l-76 -135q-205 25 -301 25q-60 0 -110 -19t-81 -49t-49 -62.5t-24 -64.5q-7 -37 5.5 -68t34.5 -50t59 -34.5t65.5 -23t66.5 -14.5q179 -36 253.5 -109.5t76.5 -197.5q1 -63 -16.5 -114.5
t-47 -87.5t-74 -63.5t-93 -43.5t-108 -26.5t-115 -14t-118.5 -3.5q-81 0 -140 7t-116.5 27.5t-92 37.5t-109.5 57l262 224q17 -7 49 -20.5t45 -19t38 -14t43.5 -11.5t45 -6t57.5 -3q228 0 258 114q5 18 -13 33.5t-53.5 27.5t-69 20.5t-77 17.5t-61.5 14q-36 10 -70 24.5
t-71 40t-63.5 58t-43 80t-14.5 102.5q2 75 37.5 142t100.5 119.5t169 83t233 30.5q80 0 179 -14.5t129 -16.5z" />
    <glyph glyph-name="Scedilla" unicode="&#x15e;" horiz-adv-x="1572" 
d="M1108 854q233 -49 345 -158t65 -284q-20 -72 -42.5 -128.5t-45 -101t-57 -77t-63 -55.5t-79 -37.5t-88.5 -23t-108 -12.5t-122 -5t-145 -1l-70 -108h64q27 0 52 -4.5t50 -15t38.5 -28.5t17.5 -44.5t-13 -63.5q-34 -75 -102 -117.5t-156 -42.5h-129l51 109q45 -10 109 -10
q53 0 99.5 22.5t54.5 48.5q7 19 4 33.5t-6 24.5t-14 17t-19.5 11t-23 6t-24.5 2.5t-24 0.5q-35 0 -129 -11l104 170q-62 0 -101.5 1t-89.5 5.5t-82.5 12.5t-69 23t-61 36.5t-47 52.5t-38.5 72l297 168q48 -47 161.5 -92t196.5 -45q58 0 98.5 2.5t84.5 10t75.5 22.5t61 39
t51.5 61t37 86q28 88 -47.5 145.5t-231.5 90.5l-118 24q-216 44 -292 140.5t-32 267.5q54 199 225.5 312.5t419.5 113.5q105 0 183 -9.5t186 -35.5l-127 -152q-75 21 -117.5 27t-146.5 6q-175 0 -302.5 -59.5t-158.5 -172.5q-24 -92 55 -153t221 -92z" />
    <glyph glyph-name="scedilla" unicode="&#x15f;" horiz-adv-x="1300" 
d="M926 1014q-60 0 -110 -19t-81 -49t-49 -62.5t-24 -64.5q-7 -37 5.5 -68t34.5 -50t59 -34.5t65.5 -23t66.5 -14.5q179 -36 253.5 -109.5t76.5 -197.5q1 -63 -16.5 -114.5t-47 -87.5t-74 -63.5t-93 -43.5t-108 -26.5t-115 -14t-118.5 -3.5l-69 -108h63q27 0 52 -4.5t50 -15
t39 -28.5t18 -44.5t-13 -63.5q-34 -75 -102.5 -117.5t-156.5 -42.5h-129l52 109q45 -10 108 -10q53 0 99.5 22.5t54.5 48.5q7 19 4 33.5t-6 24.5t-14 17t-19.5 11t-23 6t-24.5 2.5t-24 0.5q-36 0 -129 -11l105 172q-119 5 -194.5 32.5t-198.5 94.5l262 224q17 -7 49 -20.5
t45 -19t38 -14t43.5 -11.5t45 -6t57.5 -3q228 0 258 114q5 18 -13 33.5t-53.5 27.5t-69 20.5t-77 17.5t-61.5 14q-36 10 -70 24.5t-71 40t-63.5 58t-43 80t-14.5 102.5q2 75 37.5 142t100.5 119.5t169 83t233 30.5q80 0 179 -14.5t129 -16.5l-76 -135q-205 25 -301 25z" />
    <glyph glyph-name="Scaron" unicode="&#x160;" horiz-adv-x="1572" 
d="M1098 1608l-58 131l-202 268h112l240 -203l354 203h113l-344 -268l-117 -131h-98zM1569 1475l-127 -152q-75 21 -117.5 27t-146.5 6q-175 0 -302.5 -59.5t-158.5 -172.5q-24 -92 55 -153t221 -92l115 -25q233 -49 345 -158t65 -284q-22 -83 -46 -145.5t-59.5 -109
t-63.5 -78t-85 -52.5t-95 -32.5t-122 -16.5t-138.5 -6t-169.5 -1q-86 0 -128 1t-107.5 6.5t-100 18t-76.5 34.5t-68.5 57.5t-45.5 85.5l297 168q48 -47 161.5 -92t196.5 -45q58 0 98.5 2.5t84.5 10t75.5 22.5t61 39t51.5 61t37 86q28 88 -47.5 145.5t-231.5 90.5l-118 24
q-216 44 -292 140.5t-32 267.5q54 199 225.5 312.5t419.5 113.5q105 0 183 -9.5t186 -35.5z" />
    <glyph glyph-name="scaron" unicode="&#x161;" horiz-adv-x="1572" 
d="M856 1587l-57 131l-203 269h113l239 -203l355 203h112l-344 -269l-117 -131h-98zM1569 1475l-127 -152q-75 21 -117.5 27t-146.5 6q-175 0 -302.5 -59.5t-158.5 -172.5q-24 -92 55 -153t221 -92l115 -25q233 -49 345 -158t65 -284q-22 -83 -46 -145.5t-59.5 -109
t-63.5 -78t-85 -52.5t-95 -32.5t-122 -16.5t-138.5 -6t-169.5 -1q-86 0 -128 1t-107.5 6.5t-100 18t-76.5 34.5t-68.5 57.5t-45.5 85.5l297 168q48 -47 161.5 -92t196.5 -45q58 0 98.5 2.5t84.5 10t75.5 22.5t61 39t51.5 61t37 86q28 88 -47.5 145.5t-231.5 90.5l-118 24
q-216 44 -292 140.5t-32 267.5q54 199 225.5 312.5t419.5 113.5q105 0 183 -9.5t186 -35.5z" />
    <glyph glyph-name="uni0162" unicode="&#x162;" horiz-adv-x="1607" 
d="M565 1493h1276l-45 -170l-530 20l-318 -1343h-125l-104 -164h63q27 0 52 -4.5t50 -15t39 -28t18 -44t-13 -63.5q-34 -75 -102 -117.5t-156 -42.5h-129l51 108q45 -10 108 -10q53 0 99.5 23t54.5 49q7 19 4 33.5t-5.5 24.5t-13.5 16.5t-19.5 10.5t-23 6t-24.5 2.5t-24 0.5
q-45 0 -130 -10l138 225h-94l399 1343l-541 -20z" />
    <glyph glyph-name="uni0163" unicode="&#x163;" horiz-adv-x="1171" 
d="M1307 979h-422l-219 -670q315 0 352 -2l-66 -303q-16 -1 -52.5 -1.5t-94 -1t-98.5 -1.5l-101 -158h64q27 0 52 -4.5t50 -15t38.5 -28t17.5 -44t-13 -63.5q-34 -75 -102 -117.5t-156 -42.5h-129l51 108q45 -10 109 -10q53 0 99 23t54 49q7 19 4 33.5t-5.5 24.5t-13.5 16.5
t-19.5 10.5t-23 6t-24.5 2.5t-24 0.5q-44 0 -129 -10l133 219h-225q-24 0 -38 10.5t-16 26t-1 26t3 19.5t49 132.5t128.5 345t150.5 419.5h-223l96 158h182q78 231 119 372h195l-123 -372h430z" />
    <glyph glyph-name="Tcaron" unicode="&#x164;" horiz-adv-x="1607" 
d="M1124 1608l-57 131l-203 268h113l240 -203l354 203h112l-344 -268l-116 -131h-99zM520 1323l45 170h1276l-45 -170l-530 20l-318 -1343h-286l399 1343z" />
    <glyph glyph-name="tcaron" unicode="&#x165;" horiz-adv-x="1171" 
d="M860 1565l-57 131l-203 268h113l239 -203l355 203h112l-344 -268l-117 -131h-98zM1059 1509l-123 -372h430l-59 -158h-422l-219 -670q315 0 352 -2l-66 -303q-78 -4 -538 -4q-24 0 -38 10.5t-16 26t-1 26t3 19.5t49 132.5t128.5 345t150.5 419.5h-223l96 158h182
q78 231 119 372h195z" />
    <glyph glyph-name="Tbar" unicode="&#x166;" horiz-adv-x="1607" 
d="M1796 1323l-530 20l-119 -503h283l-50 -187h-278l-154 -653h-286l194 653h-285l52 187h288l150 503l-541 -20l45 170h1276z" />
    <glyph glyph-name="tbar" unicode="&#x167;" horiz-adv-x="1171" 
d="M1307 979h-422l-62 -188h291l-49 -187h-303l-96 -295q315 0 352 -2l-66 -303q-78 -4 -538 -4q-24 0 -38 10.5t-16 26t-1 26t3 19.5q2 7 26.5 72t74.5 197t94 253h-301l51 187h318q34 89 65 188h-223l96 158h182q78 231 119 372h195l-123 -372h430z" />
    <glyph glyph-name="Utilde" unicode="&#x168;" horiz-adv-x="1564" 
d="M817 1716q61 184 115 245.5t162 61.5q38 0 65 -21t42 -51t27.5 -60t31 -51t43.5 -21t44 9t30.5 21t22 35.5t15.5 40.5t13.5 49t13.5 49h94q-21 -74 -40.5 -126.5t-40.5 -86.5t-38.5 -53.5t-43 -28.5t-45 -11t-52.5 -1q-41 1 -70 23t-45 53.5t-28 62.5t-27.5 53t-36.5 23
q-19 0 -36 -8t-30.5 -28.5t-23 -36t-20.5 -48.5t-15 -46t-14 -48h-113zM348 561l217 932h256l-233 -768q-25 -81 -38.5 -143.5t-11.5 -107.5t6.5 -77t30.5 -52t45 -31t66 -16t76.5 -6t93.5 -1q56 0 83 0.5t72.5 4t68 11.5t57.5 22t54 36t45.5 54.5t44 76t36.5 100.5t35 129
l178 768h268l-295 -932q-40 -126 -81.5 -218.5t-77 -156.5t-90.5 -105t-93 -63.5t-114.5 -32.5t-124.5 -12t-152 -2q-75 0 -110 0.5t-93.5 4t-83.5 11.5t-65.5 22t-54.5 36t-35 53.5t-22.5 75t-2 100t11.5 128t33 159.5z" />
    <glyph glyph-name="utilde" unicode="&#x169;" horiz-adv-x="1353" 
d="M614 1368q61 184 115 245.5t162 61.5q38 0 65 -21t42 -51.5t27.5 -60.5t31 -51t43.5 -21t44 9t30.5 21t22 35.5t15.5 41t13.5 49.5t13.5 49h94q-21 -74 -40.5 -126.5t-40.5 -86.5t-38.5 -53.5t-43 -28.5t-45 -11t-52.5 -1q-41 1 -70 23t-45 53.5t-28 62.5t-27.5 53
t-36.5 23q-19 0 -36 -8t-30.5 -28.5t-23 -36t-20.5 -48.5t-15 -46t-14 -48h-113zM598 -29q-51 0 -88.5 3.5t-73 12.5t-58.5 25t-41.5 41t-26.5 60t-10 82.5t5.5 108.5t22.5 138l137 678h156l-95 -512q-10 -53 -14.5 -93.5t-3 -69t5.5 -47t16.5 -29.5t24 -16t33 -6t39 0
t47.5 3t53 2q282 0 387 293l148 475h184l-258 -1120h-225l53 172q-36 -54 -76 -92t-76.5 -59t-84.5 -32.5t-86.5 -14.5t-94.5 -3z" />
    <glyph glyph-name="Umacron" unicode="&#x16a;" horiz-adv-x="1564" 
d="M872 1909l811 49l19 -158l-932 -35zM348 561l217 932h256l-233 -768q-25 -81 -38.5 -143.5t-11.5 -107.5t6.5 -77t30.5 -52t45 -31t66 -16t76.5 -6t93.5 -1q56 0 83 0.5t72.5 4t68 11.5t57.5 22t54 36t45.5 54.5t44 76t36.5 100.5t35 129l178 768h268l-295 -932
q-40 -126 -81.5 -218.5t-77 -156.5t-90.5 -105t-93 -63.5t-114.5 -32.5t-124.5 -12t-152 -2q-75 0 -110 0.5t-93.5 4t-83.5 11.5t-65.5 22t-54.5 36t-35 53.5t-22.5 75t-2 100t11.5 128t33 159.5z" />
    <glyph glyph-name="umacron" unicode="&#x16b;" horiz-adv-x="1353" 
d="M670 1561l811 49l18 -158l-932 -35zM598 -29q-51 0 -88.5 3.5t-73 12.5t-58.5 25t-41.5 41t-26.5 60t-10 82.5t5.5 108.5t22.5 138l137 678h156l-95 -512q-10 -53 -14.5 -93.5t-3 -69t5.5 -47t16.5 -29.5t24 -16t33 -6t39 0t47.5 3t53 2q282 0 387 293l148 475h184
l-258 -1120h-225l53 172q-36 -54 -76 -92t-76.5 -59t-84.5 -32.5t-86.5 -14.5t-94.5 -3z" />
    <glyph glyph-name="Uring" unicode="&#x16e;" horiz-adv-x="1564" 
d="M1227 1749q-77 0 -116 57.5t-17 139.5q22 80 91.5 137t145.5 57q78 0 117.5 -57t17.5 -137q-22 -82 -91.5 -139.5t-147.5 -57.5zM1257 1862q22 0 34 1t30 6.5t29 16.5t23 32.5t20 53.5q12 44 -10.5 76.5t-65.5 32.5q-44 0 -83.5 -32t-51.5 -77q-8 -32 -8 -53.5t5 -32.5
t19.5 -16.5t25.5 -6.5t33 -1zM348 561l217 932h256l-233 -768q-25 -81 -38.5 -143.5t-11.5 -107.5t6.5 -77t30.5 -52t45 -31t66 -16t76.5 -6t93.5 -1q56 0 83 0.5t72.5 4t68 11.5t57.5 22t54 36t45.5 54.5t44 76t36.5 100.5t35 129l178 768h268l-295 -932
q-40 -126 -81.5 -218.5t-77 -156.5t-90.5 -105t-93 -63.5t-114.5 -32.5t-124.5 -12t-152 -2q-75 0 -110 0.5t-93.5 4t-83.5 11.5t-65.5 22t-54.5 36t-35 53.5t-22.5 75t-2 100t11.5 128t33 159.5z" />
    <glyph glyph-name="uring" unicode="&#x16f;" horiz-adv-x="1353" 
d="M1024 1401q-77 0 -116 57t-17 139q22 80 91.5 137.5t145.5 57.5q78 0 118 -57.5t18 -137.5q-22 -82 -92 -139t-148 -57zM1055 1513q27 0 42 2.5t35 12t34 33.5t24 63q12 44 -10.5 76.5t-65.5 32.5q-44 0 -83.5 -32t-51.5 -77q-8 -32 -8 -53.5t5 -32.5t19.5 -17t26 -7
t33.5 -1zM598 -29q-51 0 -88.5 3.5t-73 12.5t-58.5 25t-41.5 41t-26.5 60t-10 82.5t5.5 108.5t22.5 138l137 678h156l-95 -512q-10 -53 -14.5 -93.5t-3 -69t5.5 -47t16.5 -29.5t24 -16t33 -6t39 0t47.5 3t53 2q282 0 387 293l148 475h184l-258 -1120h-225l53 172
q-36 -54 -76 -92t-76.5 -59t-84.5 -32.5t-86.5 -14.5t-94.5 -3z" />
    <glyph glyph-name="Uhungarumlaut" unicode="&#x170;" horiz-adv-x="1564" 
d="M1157 1704l-268 -31l285 260h161zM1536 1704l-268 -31l284 260h162zM348 561l217 932h256l-233 -768q-25 -81 -38.5 -143.5t-11.5 -107.5t6.5 -77t30.5 -52t45 -31t66 -16t76.5 -6t93.5 -1q56 0 83 0.5t72.5 4t68 11.5t57.5 22t54 36t45.5 54.5t44 76t36.5 100.5t35 129
l178 768h268l-295 -932q-40 -126 -81.5 -218.5t-77 -156.5t-90.5 -105t-93 -63.5t-114.5 -32.5t-124.5 -12t-152 -2q-75 0 -110 0.5t-93.5 4t-83.5 11.5t-65.5 22t-54.5 36t-35 53.5t-22.5 75t-2 100t11.5 128t33 159.5z" />
    <glyph glyph-name="uhungarumlaut" unicode="&#x171;" horiz-adv-x="1353" 
d="M954 1356l-268 -31l285 260h162zM1333 1356l-268 -31l285 260h161zM598 -29q-51 0 -88.5 3.5t-73 12.5t-58.5 25t-41.5 41t-26.5 60t-10 82.5t5.5 108.5t22.5 138l137 678h156l-95 -512q-10 -53 -14.5 -93.5t-3 -69t5.5 -47t16.5 -29.5t24 -16t33 -6t39 0t47.5 3t53 2
q282 0 387 293l148 475h184l-258 -1120h-225l53 172q-36 -54 -76 -92t-76.5 -59t-84.5 -32.5t-86.5 -14.5t-94.5 -3z" />
    <glyph glyph-name="Uogonek" unicode="&#x172;" horiz-adv-x="1564" 
d="M1530 1493h268l-295 -932q-63 -198 -128 -317.5t-135 -176t-165 -77.5q-131 -110 -145 -162q-8 -31 19.5 -47.5t90.5 -16.5q34 0 117 11q-4 -25 -10 -84t-6 -60q-180 -3 -267.5 43.5t-64.5 132.5q19 76 123 166q-49 -2 -162 -2q-75 0 -110 0.5t-93.5 4t-83.5 11.5
t-65.5 22t-54.5 36t-35 53.5t-22.5 75t-2 100t11.5 128t33 159.5l217 932h256l-233 -768q-25 -81 -38.5 -143.5t-11.5 -107.5t6.5 -77t30.5 -52t45 -31t66 -16t76.5 -6t93.5 -1q56 0 83 0.5t72.5 4t68 11.5t57.5 22t54 36t45.5 54.5t44 76t36.5 100.5t35 129z" />
    <glyph glyph-name="uogonek" unicode="&#x173;" horiz-adv-x="1353" 
d="M1118 0q-219 -167 -235 -233q-8 -31 19.5 -47.5t90.5 -16.5q42 0 117 10q-3 -18 -6 -45t-6 -57t-4 -41q-180 -3 -267.5 43.5t-64.5 132.5q28 110 235 254h-34l53 172q-36 -54 -76 -92t-76.5 -59t-84.5 -32.5t-86.5 -14.5t-94.5 -3q-51 0 -88.5 3.5t-73 12.5t-58.5 25
t-41.5 41t-26.5 60t-10 82.5t5.5 108.5t22.5 138l137 678h156l-95 -512q-10 -53 -14.5 -93.5t-3 -69t5.5 -47t16.5 -29.5t24 -16t33 -6t39 0t47.5 3t53 2q282 0 387 293l148 475h184l-258 -1120h-70z" />
    <glyph glyph-name="Wcircumflex" unicode="&#x174;" horiz-adv-x="2240" 
d="M1532 1878h98l47 -131l201 -268h-113l-245 202l-349 -202h-112l346 268zM502 0l63 1493h197l18 -1071l543 690h178l137 -711l639 1092h197l-778 -1493h-297l-62 807l-516 -807h-319z" />
    <glyph glyph-name="wcircumflex" unicode="&#x175;" horiz-adv-x="1849" 
d="M1284 1669h98l48 -131l200 -268h-112l-246 203l-348 -203h-113l346 268zM461 0l45 1147h186v-741l402 460h127l153 -460l424 743h187l-596 -1149h-261l-100 387l-317 -387h-250z" />
    <glyph glyph-name="Ycircumflex" unicode="&#x176;" horiz-adv-x="1581" 
d="M1237 1993h98l47 -131l201 -269h-113l-245 203l-348 -203h-113l346 269zM786 512l-221 981h219l203 -764l608 764h220l-754 -981l-137 -512h-275z" />
    <glyph glyph-name="ycircumflex" unicode="&#x177;" horiz-adv-x="1431" 
d="M1139 1819h98l47 -131l201 -269h-113l-246 203l-348 -203h-112l346 269zM1567 1149l-635 -1278q-26 -51 -59 -94t-66 -74t-76 -55t-77.5 -39.5t-81.5 -26.5t-78.5 -16.5t-77.5 -8t-68.5 -3t-61.5 -0.5h-7h-170l65 243h129q74 0 149.5 18.5t143.5 54.5t111 98.5t43 140.5
l-285 1040h197l278 -844l430 844h197z" />
    <glyph glyph-name="Ydieresis" unicode="&#x178;" horiz-adv-x="1581" 
d="M913 1898h209l-55 -206h-209zM1477 1898h209l-56 -206h-209zM786 512l-221 981h219l203 -764l608 764h220l-754 -981l-137 -512h-275z" />
    <glyph glyph-name="Zacute" unicode="&#x179;" horiz-adv-x="1665" 
d="M1382 1929h107l-191 -315h-157zM739 1237l834 -12l-1331 -940l-76 -285l1292 12l-20 287h-938l1333 942l41 154h-1186z" />
    <glyph glyph-name="zacute" unicode="&#x17a;" horiz-adv-x="1388" 
d="M1178 1556h106l-190 -315h-158zM614 987l37 137h846l-10 -137l-926 -739h590l51 -248h-1036l121 268l975 719h-648z" />
    <glyph glyph-name="Zdotaccent" unicode="&#x17b;" horiz-adv-x="1665" 
d="M1214 1866h209l-55 -207h-209zM739 1237l834 -12l-1331 -940l-76 -285l1292 12l-20 287h-938l1333 942l41 154h-1186z" />
    <glyph glyph-name="zdotaccent" unicode="&#x17c;" horiz-adv-x="1388" 
d="M1010 1493h209l-56 -207h-209zM614 987l37 137h846l-10 -137l-926 -739h590l51 -248h-1036l121 268l975 719h-648z" />
    <glyph glyph-name="Zcaron" unicode="&#x17d;" horiz-adv-x="1665" 
d="M1149 1608l-57 131l-203 268h112l240 -203l354 203h113l-344 -268l-117 -131h-98zM739 1237l834 -12l-1331 -940l-76 -285l1292 12l-20 287h-938l1333 942l41 154h-1186z" />
    <glyph glyph-name="zcaron" unicode="&#x17e;" horiz-adv-x="1388" 
d="M944 1235l-57 131l-203 268h113l239 -202l355 202h112l-344 -268l-117 -131h-98zM614 987l37 137h846l-10 -137l-926 -739h590l51 -248h-1036l121 268l975 719h-648z" />
    <glyph glyph-name="uni0181" unicode="&#x181;" horiz-adv-x="1421" 
d="M1405 1235q-21 -178 -97.5 -263t-222.5 -106q191 -32 261.5 -142t21.5 -306q-19 -78 -48 -139t-63.5 -104.5t-81 -75t-94 -50.5t-111 -30t-124 -15t-139.5 -4h-541l319 1227q-91 -7 -156 -63t-102 -140q-29 -65 -90 -291l-80 203q8 32 20.5 77.5t16.5 59.5
q18 68 58 135.5t97 128t136.5 102.5t167.5 52l12 47h471q22 0 65 1q90 2 133.5 -2.5t97.5 -30t70 -92.5t3 -179zM1264 1245q3 24 5 43t-1 34.5t-5 26.5t-12 20t-16 14.5t-24.5 9.5t-29.5 6t-39 3t-44.5 1h-54.5h-3.5h-3.5h-303l-129 -465h303q79 0 135.5 13t103.5 46.5
t76 94.5t42 153zM1114 709q-56 65 -225 65h-328l-110 -477h325q72 0 122 4.5t99 18.5t80 39.5t54.5 68t33.5 102.5q5 30 4.5 54t-3.5 39.5t-12.5 32t-16.5 26t-23 27.5z" />
    <glyph glyph-name="uni0186" unicode="&#x186;" horiz-adv-x="1482" 
d="M590 1520q187 41 428 34q338 -11 477 -226.5t37 -573.5q-34 -122 -90.5 -234t-120 -195t-132.5 -151.5t-132.5 -111.5t-115.5 -66t-85 -23h-643l94 353q124 -41 348 -41q62 0 111.5 4t107 16t103.5 33t94 56.5t86 84t72.5 118.5t58.5 157q25 90 28 168.5t-13 136.5
t-47 106.5t-67.5 81t-82 58.5t-83.5 40t-77 23q-52 13 -97.5 16t-99.5 -5.5t-84 -16t-104 -27.5z" />
    <glyph glyph-name="uni0187" unicode="&#x187;" horiz-adv-x="1482" 
d="M1710 1702q26 64 57 79t129 13l-22 -68q-51 0 -63.5 -5.5t-22.5 -34.5q-4 -18 -8 -25h2l-107 -313h-22l-4 -13l-39 13h-19l2 6q-52 16 -93 23.5t-96.5 6t-121.5 -15.5q-65 -14 -130.5 -37t-152.5 -71.5t-158 -112.5t-135 -166.5t-96 -226.5q-22 -88 -25.5 -157.5
t8.5 -118t41 -84t64 -56.5t85.5 -33t98 -16t109.5 -4q224 0 371 41l-94 -353h-643q-52 0 -113 50.5t-113 149.5t-64.5 245t32.5 336q91 359 346 574t598 226q185 7 342 -20l28 84v2l15 41z" />
    <glyph glyph-name="uni0188" unicode="&#x188;" horiz-adv-x="1226" 
d="M1245 1395q51 64 116.5 79t266.5 13l-47 -68q-104 0 -129 -5.5t-45 -33.5l-18 -24h2l-179 -254l-32 -125q-71 24 -211 24q-174 0 -281.5 -113.5t-165.5 -328.5q-19 -97 6 -173.5t80.5 -116t139 -39.5t174.5 46l151 -233q-204 -82 -358 -72q-156 11 -254 53.5
t-140.5 116.5t-43 178.5t37.5 239.5q73 272 272 430t464 158h18l115 166q35 49 61 82z" />
    <glyph glyph-name="uni0189" unicode="&#x189;" horiz-adv-x="1599" 
d="M1006 1534q438 0 593 -180t56 -566q-32 -124 -69 -224t-75.5 -177t-89.5 -135.5t-98 -100t-115 -69.5t-127 -44t-147.5 -24.5t-162.5 -11t-185 -2.5h-420l194 713h-227l51 186h228l174 635h420zM1503 846q74 274 -52 409.5t-441 135.5h-248l-135 -492h364l-49 -186h-367
l-90 -324h246q152 0 273.5 24t204 64.5t143 100.5t95 124t56.5 144z" />
    <glyph glyph-name="uni018A" unicode="&#x18a;" horiz-adv-x="1599" 
d="M1006 1534q438 0 593 -180t56 -566q-32 -124 -69 -224t-75.5 -177t-89.5 -135.5t-98 -100t-115 -69.5t-127 -44t-147.5 -24.5t-162.5 -11t-185 -2.5h-420l362 1323q-3 -9 -9.5 -26.5t-12.5 -33.5l-12 -32q-101 0 -173 -57t-112 -148q-29 -65 -90 -291l-80 203
q8 32 20.5 77.5t16.5 59.5q19 72 62 143.5t105 133.5t149.5 102t182.5 41l11 39h420zM1503 846q74 274 -52 409.5t-441 135.5h-248l-277 -1002h246q152 0 273.5 24t204 64.5t143 100.5t95 124t56.5 144z" />
    <glyph glyph-name="uni018E" unicode="&#x18e;" horiz-adv-x="1329" 
d="M1163 0h-999l151 309h691l118 410l-495 33l43 170l502 -23l106 422l-590 39l25 205l829 -29z" />
    <glyph glyph-name="uni018F" unicode="&#x18f;" horiz-adv-x="1357" 
d="M268 434l871 23q15 59 17 113t-21 101.5t-61.5 82.5t-104.5 54.5t-150 18.5q-55 -1 -111 -12t-93.5 -23.5t-109 -39t-118.5 -41.5l80 303q223 75 442 69q270 -11 380.5 -172.5t27.5 -423.5q-97 -274 -291.5 -426.5t-447.5 -142.5q-58 7 -104 22t-86.5 42t-66.5 66
t-43.5 94.5t-18.5 127.5t9 164zM1038 301l-651 -16q-13 -101 40 -167.5t181 -72.5q149 -6 272.5 72.5t157.5 183.5z" />
    <glyph glyph-name="uni0190" unicode="&#x190;" horiz-adv-x="1441" 
d="M731 -35q-103 0 -185.5 28.5t-138 86t-72 144t12.5 202.5q39 146 129 230t260 108q-127 50 -169.5 123.5t-10.5 191.5q46 172 203 271.5t381 99.5q31 0 65.5 -6.5t74 -21t70.5 -39t55 -60.5t28 -84.5t-11 -112.5l-139 -26q16 64 11.5 106.5t-32 68.5t-61.5 37t-76 11
q-159 0 -277.5 -58.5t-150.5 -170.5q-32 -129 40.5 -183.5t230.5 -54.5h67l-6 -154h-67q-156 1 -259.5 -61t-130.5 -162q-16 -49 -10.5 -94t27 -79.5t71 -55t121.5 -21.5q36 -3 71.5 0t68 9t61 26.5t49.5 52t33.5 85.5t13.5 126l240 21q7 -103 -15.5 -189.5t-63.5 -145
t-98.5 -105t-115.5 -72.5t-118 -43t-103 -23t-74 -6z" />
    <glyph glyph-name="uni0191" unicode="&#x191;" horiz-adv-x="1206" 
d="M1405 1425l-610 -34l-158 -402l565 37l-55 -209l-555 -37l-143 -719q23 -80 18 -100q-22 -80 -122.5 -157t-241 -125t-271.5 -48q35 122 90 265q168 0 260 157l457 1483l801 25z" />
    <glyph glyph-name="florin" unicode="&#x192;" horiz-adv-x="1542" 
d="M1827 1556q113 0 192 -36l-39 -144q-61 58 -147 58q-99 0 -175 -61.5t-132 -192.5l-121 -285l256 18l-35 -190l-303 -21l-197 -483q-55 -136 -108 -239t-95 -171.5t-93.5 -114.5t-85.5 -70t-89.5 -35.5t-87 -13t-95.5 -1.5h-17q-32 0 -78.5 12t-99.5 36.5t-99 71
t-65 105.5l293 133q86 -65 180 -65q97 0 170 69t151 234l217 518l-305 -20l37 188l352 25l129 297q79 181 207.5 279.5t282.5 98.5z" />
    <glyph glyph-name="uni0193" unicode="&#x193;" horiz-adv-x="1734" 
d="M1763 1866q41 91 94.5 112t217.5 19l-39 -96q-61 0 -84 -3.5t-34 -14t-24 -40.5q-9 -26 -14 -35h2l-164 -413l-12 -117q-162 43 -406 43q-92 0 -146.5 -3t-120.5 -14t-105.5 -34t-86 -62t-79.5 -99.5t-67.5 -144.5t-67.5 -198q-26 -112 -27 -190.5t21 -133.5t74.5 -86.5
t128.5 -45t190 -13.5q244 0 338 76l47 182l-266 47l24 162l565 -66l-18 -196l-137 24l-92 -424q-155 -68 -288 -99.5t-276 -31.5q-360 0 -489.5 198.5t-56.5 575.5q27 139 69 249t93 189.5t120 137.5t140 93.5t162 56.5t178 28.5t196 7.5q161 0 291 -14l102 256h-2
q22 56 49 117z" />
    <glyph glyph-name="uni0194" unicode="&#x194;" horiz-adv-x="1990" 
d="M1882 1638h381q-14 -13 -59 -55t-83.5 -78t-47.5 -45q-598 -587 -834 -835q42 -136 66 -218t51 -186t35 -163t12.5 -132t-9.5 -112t-39 -84.5t-68.5 -66.5t-104.5 -41.5t-141 -26.5t-183 -5q-395 4 -480 118q-72 98 58 306q108 172 430 524l86 93q-36 107 -133.5 390.5
t-159.5 465.5q-5 12 -26 70.5t-29 80.5h330q6 -15 12.5 -31t10 -24t8 -20.5t8.5 -28.5q65 -249 192 -674q367 389 662 721q13 15 19 21.5t14.5 14t21.5 21.5zM920 -150q59 -2 96.5 5t63.5 29.5t33.5 59t1 100.5t-27.5 147.5t-59 205.5q-270 -303 -291 -424q-16 -92 100 -115
q35 -7 83 -8z" />
    <glyph glyph-name="uni0196" unicode="&#x196;" horiz-adv-x="741" 
d="M489 281q-5 -50 5 -79.5t30.5 -37.5t46 -10t52.5 4q-31 -137 -39 -172h-277q-41 0 -64.5 17.5t-29.5 51t-2.5 70.5t14.5 88l19 78q79 282 115.5 415.5t88.5 340t111 462.5h164q-90 -346 -144.5 -625.5t-84.5 -602.5h-5z" />
    <glyph glyph-name="uni0197" unicode="&#x197;" horiz-adv-x="823" 
d="M942 1536q-106 -338 -201 -723h76l-29 -186h-92q-80 -363 -123 -627h-288q101 266 207 627h-197l31 186h217q136 487 174 723h225z" />
    <glyph glyph-name="uni0198" unicode="&#x198;" horiz-adv-x="1509" 
d="M1696 1642q3 -15 11.5 -47t12.5 -49l-102 -332q-1 5 -7.5 28.5t-10 36.5t-10.5 36t-12.5 37t-13 29.5t-14.5 23.5q-24 34 -77 16l-607 -710l480 -711l-484 -20l-227 632l-205 -612h-264l526 1536h191l-191 -719l594 719h39q61 67 116.5 110t97 59.5t74.5 14t53.5 -22.5
t29.5 -55z" />
    <glyph glyph-name="uni0199" unicode="&#x199;" horiz-adv-x="1366" 
d="M1208 1024l-446 -432l438 -592h-424l-221 502l-141 -502h-269l523 1624h20q19 51 40 82.5t45 51t67 28t86.5 11t122.5 1.5l-48 -174q-105 0 -131 -16l-243 -869l319 269z" />
    <glyph glyph-name="uni019D" unicode="&#x19d;" horiz-adv-x="1566" 
d="M1612 1489h188l-483 -1489h-332l-190 1262l-273 -1160q11 -47 8 -65q-15 -85 -101.5 -152t-210.5 -94.5t-243 -3.5q28 144 66 279q96 -20 162 40l135 386q1 8 3.5 20.5t4 21t2.5 15.5l6 -12l316 897h254l264 -1149z" />
    <glyph glyph-name="Ohorn" unicode="&#x1a0;" horiz-adv-x="1726" 
d="M1878 1532q-17 -66 -54.5 -129.5t-90.5 -102.5q129 -213 28 -555q-47 -162 -94 -278.5t-106 -205t-124.5 -143.5t-154.5 -89t-189.5 -46.5t-236.5 -11.5q-94 1 -166 8.5t-136.5 25t-108.5 46t-77.5 71t-48.5 100.5t-16 134.5t14.5 173t47.5 215.5q95 353 342 564t565 211
q269 0 409 -152q8 3 19 10q10 7 19.5 17.5t16.5 21t14 24.5t11.5 24t9.5 25t7 22t5.5 20.5t4.5 15.5q6 23 2 62l96 -13q-4 -54 -8 -65zM1546 745q47 191 29 331t-107 220t-235 80q-220 0 -398 -173.5t-255 -457.5q-20 -76 -21 -136t17.5 -103t51.5 -72.5t84.5 -47t111.5 -25
t137 -7.5q117 0 205.5 18t165.5 61t130.5 121t83.5 191z" />
    <glyph glyph-name="ohorn" unicode="&#x1a1;" horiz-adv-x="1370" 
d="M1487 1192l96 -12q-4 -55 -8 -66q-17 -66 -55 -130t-93 -103q-47 -33 -51 -35q15 -113 -22 -256q-69 -274 -251.5 -439t-424.5 -174q-248 -9 -346 143t-17 439q74 266 253 431t417 165q144 0 238 -56.5t133 -160.5q22 9 41 23q10 7 19.5 17.5t16.5 20.5t14 24.5t11.5 24
t9.5 25t7 22t6 20t4 15.5q6 23 2 62zM1165 592q7 48 8 99.5t-14 101t-39 88.5t-68.5 62t-101.5 22q-122 -3 -242.5 -105t-187.5 -268q-69 -164 -9.5 -239.5t251.5 -63.5q27 2 52 5t63 12t70.5 22t69.5 36t64.5 53t50.5 75.5t33 99.5z" />
    <glyph glyph-name="uni01A4" unicode="&#x1a4;" horiz-adv-x="1335" 
d="M1028 1466q92 0 166.5 -18t123.5 -50t82.5 -74t47 -90.5t14 -99t-13.5 -100.5q-60 -222 -211 -335.5t-408 -125.5l-249 -12l-109 -561h-305l407 1249q-3 -6 -9.5 -23.5t-10.5 -27.5q-101 0 -173 -57t-112 -148q-29 -65 -90 -291l-80 203q8 32 20.5 77.5t16.5 59.5
q19 72 63 144.5t107 135t151.5 101.5t184.5 39l2 4h385zM1294 1124q7 18 3 40.5t-11.5 45.5t-31 45.5t-54.5 39.5t-83 27.5t-116 10.5h-225l-129 -487l281 12q84 3 136.5 14t100 39t77.5 79.5t52 133.5z" />
    <glyph glyph-name="uni01A5" unicode="&#x1a5;" horiz-adv-x="1511" 
d="M1186 1155q102 0 178 -45.5t115 -125.5t46.5 -189t-28.5 -236q-70 -263 -242 -425.5t-378 -162.5q-113 0 -197.5 50.5t-114.5 146.5l-246 -586l-270 -16l326 727l170 588l45 209h14q12 39 37 108q14 45 27 76.5t30 58t31.5 43t40.5 29t49 19t63 10t76.5 4t96.5 0.5
l-51 -174q-42 0 -65 -0.5t-45 -5t-31 -9.5t-19.5 -19.5t-15.5 -28.5t-13 -42l-18 -63l-23 -78l-2 -82q186 219 414 219zM1331 592q17 98 16.5 166t-22.5 112.5t-57 67.5t-88 31q-145 22 -259 -80.5t-167 -296.5q-21 -80 -21 -137.5t16.5 -92t54 -54.5t81.5 -27t108 -7
q72 0 121 12t94 45t74.5 97t48.5 164z" />
    <glyph glyph-name="uni01A9" unicode="&#x1a9;" horiz-adv-x="1239" 
d="M1419 1288h-768l355 -504l2 -4l-39 -147l-2 4l-527 -426h690l-59 -223h-907l-2 -2v2l59 223l690 504l-399 569l2 4h-4l39 146h909z" />
    <glyph glyph-name="uni01AC" unicode="&#x1ac;" horiz-adv-x="1607" 
d="M565 1493h1276l-45 -170l-530 20l-318 -1343h-286l399 1343l-526 -20q-135 -16 -207 -125q-28 -40 -82 -182l-74 127q6 20 17.5 47.5t15.5 38.5q32 83 128.5 157t229.5 97z" />
    <glyph glyph-name="uni01AD" unicode="&#x1ad;" horiz-adv-x="1171" 
d="M1307 979h-422l-219 -670q315 0 352 -2l-66 -303q-78 -4 -538 -4q-24 0 -38 10.5t-16 26t-1 26t3 19.5t49 132.5t128.5 345t150.5 419.5h-223l96 158h182l56 166q6 26 16.5 64t13.5 52q11 38 33 88v2q30 64 75.5 121t105 105t136 76t158.5 28q-44 -144 -90 -264
q-111 0 -192 -74l-121 -364h430z" />
    <glyph glyph-name="uni01AE" unicode="&#x1ae;" horiz-adv-x="1607" 
d="M565 1493h1276l-45 -170l-530 20l-316 -1331q27 -118 170 -118q-23 -151 -51 -265q-131 0 -246 48t-174.5 125t-38.5 157q6 21 68 94l383 1290l-541 -20z" />
    <glyph glyph-name="Uhorn" unicode="&#x1af;" horiz-adv-x="1564" 
d="M1905 1677l96 -12q-4 -55 -8 -66q-17 -66 -55 -130t-93 -103q-9 -6 -22 -15t-18 -12.5t-14 -9.5t-16 -9.5t-16.5 -8.5t-21.5 -11l-234 -739q-40 -126 -81.5 -218.5t-77 -156.5t-90.5 -105t-93 -63.5t-114.5 -32.5t-124.5 -12t-152 -2q-75 0 -110 0.5t-93.5 4t-83.5 11.5
t-65.5 22t-54.5 36t-35 53.5t-22.5 75t-2 100t11.5 128t33 159.5l217 932h256l-233 -768q-25 -81 -38.5 -143.5t-11.5 -107.5t6.5 -77t30.5 -52t45 -31t66 -16t76.5 -6t93.5 -1q56 0 83 0.5t72.5 4t68 11.5t57.5 22t54 36t45.5 54.5t44 76t36.5 100.5t35 129l178 768h268
l-22 -68q21 9 39 21q10 7 19.5 17.5t16.5 21t14 24.5t11.5 24t9.5 25t7 22t5.5 20.5t4.5 15.5q6 22 2 61z" />
    <glyph glyph-name="uhorn" unicode="&#x1b0;" horiz-adv-x="1353" 
d="M1544 1235l96 -12q-4 -55 -8 -66q-17 -67 -54.5 -130.5t-92.5 -102.5q-68 -48 -99 -62l-198 -862h-225l53 172q-36 -54 -76 -92t-76.5 -59t-84.5 -32.5t-86.5 -14.5t-94.5 -3q-51 0 -88.5 3.5t-73 12.5t-58.5 25t-41.5 41t-26.5 60t-10 82.5t5.5 108.5t22.5 138l137 678
h156l-95 -512q-10 -53 -14.5 -93.5t-3 -69t5.5 -47t16.5 -29.5t24 -16t33 -6t39 0t47.5 3t53 2q282 0 387 293l148 475h184l-33 -139q19 7 41 23q10 7 19.5 17.5t16.5 21t14 24.5t11.5 24t9.5 25t7 22t5.5 20.5t4.5 15.5q6 22 2 61z" />
    <glyph glyph-name="uni01B1" unicode="&#x1b1;" horiz-adv-x="1775" 
d="M1774 1458q-45 -163 -52 -194q-149 -19 -286 -39q71 -55 93 -80q77 -85 67 -239q-6 -92 -40 -218q-94 -353 -340.5 -563.5t-564.5 -210.5t-451 210.5t-38 563.5q24 91 56.5 166t62.5 122t70.5 90.5t67.5 65t66.5 50.5t55.5 43q-163 19 -262 39q9 30 25.5 95t25.5 99h202
h367q-15 -64 -30.5 -110.5t-53.5 -141.5q-61 6 -122 -26.5t-109 -88t-90.5 -127.5t-71 -141.5t-45.5 -134.5q-77 -284 8 -457.5t305 -173.5q221 0 398 173t253 458q23 76 19.5 156.5t-25 149.5t-71.5 123.5t-121 78.5q21 166 47 262h338q26 0 86.5 2t102 2t57.5 -4z" />
    <glyph glyph-name="uni01B2" unicode="&#x1b2;" horiz-adv-x="1564" 
d="M1753 1350l6 -19l-28 -51l-228 -719q-40 -126 -81.5 -218.5t-77 -156.5t-90.5 -105t-93 -63.5t-114.5 -32.5t-124.5 -12t-152 -2q-75 0 -110 0.5t-93.5 4t-83.5 11.5t-65.5 22t-54.5 36t-35 53.5t-22.5 75t-2 100t11.5 128t33 159.5l217 932h256l-233 -768
q-25 -81 -38.5 -143.5t-11.5 -107.5t6.5 -77t30.5 -52t45 -31t66 -16t76.5 -6t93.5 -1q56 0 83 0.5t72.5 4t68 11.5t57.5 22t54 36t45.5 54.5t44 76t36.5 100.5t35 129l164 702q-60 88 -160 142.5t-240 54.5q-78 144 -127 264q132 0 253 -35.5t209.5 -94t151.5 -126.5
t95 -139h100z" />
    <glyph glyph-name="uni01B3" unicode="&#x1b3;" horiz-adv-x="1581" 
d="M1890 1563q2 -4 15.5 -32t21.5 -50l-80 -322q-1 3 -13 29t-18.5 39t-17.5 34.5t-21.5 35t-19.5 20.5q-30 23 -76 2l-620 -807l-137 -512h-275l137 512l-221 981h219l203 -764l397 498l-2 2q197 292 350 367q101 49 146 -12q7 -9 12 -21z" />
    <glyph glyph-name="uni01B4" unicode="&#x1b4;" horiz-adv-x="1431" 
d="M1608 1239q3 -7 16 -28.5t21 -39.5l-80 -356q-2 3 -9.5 16.5t-11.5 20.5t-12 20t-14 21.5t-14 17.5t-15 15t-14 8q-4 2 -15 2l-528 -1065q-26 -51 -59 -94t-66 -74t-76 -55t-77.5 -39.5t-81.5 -26.5t-78.5 -16.5t-77.5 -8t-68.5 -3t-61.5 -0.5h-7h-170l65 243h129
q74 0 149.5 18.5t143.5 54.5t111 98.5t43 140.5l-285 1040h197l278 -844l178 350q-2 4 -8.5 13.5t-9.5 13.5q113 221 219 365l51 102h29q53 60 96 89t70.5 28t42.5 -27z" />
    <glyph glyph-name="uni01B7" unicode="&#x1b7;" horiz-adv-x="1419" 
d="M936 643q118 -9 211 -73t135 -158.5t25 -192.5q-19 -107 -49.5 -195t-83 -171t-123 -139t-174 -90t-232.5 -34q-330 0 -522 252l319 213q63 -82 140 -117t149.5 -22t139 57t116.5 119.5t72 165.5q14 79 -46 133.5t-174.5 76t-263.5 7.5l52 191q92 68 233.5 168t235 171.5
t207.5 168.5q-354 -3 -818 0l54 192q54 0 290.5 2t427.5 2t263 -4q-4 -52 -8 -87t-6.5 -52t-10.5 -64.5t-14 -83.5q-86 -73 -157.5 -131.5t-111.5 -90t-128 -99.5t-148 -115z" />
    <glyph glyph-name="uni01C0" unicode="&#x1c0;" horiz-adv-x="530" 
d="M604 1434h144l-521 -1741h-143z" />
    <glyph glyph-name="uni01C1" unicode="&#x1c1;" horiz-adv-x="1126" 
d="M604 1434h144l-521 -1741h-143zM1202 1434h144l-521 -1741h-143z" />
    <glyph glyph-name="uni01C2" unicode="&#x1c2;" horiz-adv-x="1255" 
d="M1214 690l19 -158l-426 -16l-246 -823h-143l244 819l-361 -14l102 143l304 18l94 314l-377 -15l102 144l318 18l94 314h143l-90 -304l346 21l19 -158l-410 -14l-94 -311z" />
    <glyph glyph-name="uni01C3" unicode="&#x1c3;" horiz-adv-x="583" 
d="M563 1434h273q-198 -467 -326 -1037h-184q89 338 136.5 547t100.5 490zM258 111h186l-73 -234h-164z" />
    <glyph glyph-name="uni01C4" unicode="&#x1c4;" horiz-adv-x="3264" 
d="M2746 1608l-57 131l-203 268h113l240 -203l354 203h112l-344 -268l-116 -131h-99zM166 0l420 1534h420q438 0 593 -180t56 -566q-32 -124 -69 -224t-75.5 -177t-89.5 -135.5t-98 -100t-115 -69.5t-127 -44t-147.5 -24.5t-162.5 -11t-185 -2.5h-420zM2339 1237l833 -12
l-1331 -940l-76 -285l1293 12l-21 287h-938l1333 942l41 154h-1185zM485 389h246q152 0 273.5 24t204 64.5t143 100.5t95 124t56.5 144q74 274 -52 409.5t-441 135.5h-248z" />
    <glyph glyph-name="uni01C5" unicode="&#x1c5;" horiz-adv-x="2988" 
d="M2544 1235l-58 131l-202 268h112l240 -202l354 202h113l-344 -268l-117 -131h-98zM166 0l420 1534h420q438 0 593 -180t56 -566q-32 -124 -69 -224t-75.5 -177t-89.5 -135.5t-98 -100t-115 -69.5t-127 -44t-147.5 -24.5t-162.5 -11t-185 -2.5h-420zM485 389h246
q152 0 273.5 24t204 64.5t143 100.5t95 124t56.5 144q74 274 -52 409.5t-441 135.5h-248zM2214 987l37 137h846l-11 -137l-925 -739h589l52 -248h-1037l121 268l975 719h-647z" />
    <glyph glyph-name="uni01C6" unicode="&#x1c6;" horiz-adv-x="1378" 
d="M1233 901l231 741h187l-359 -1161l-106 -485l-195 4l45 168q-160 -188 -415 -197q-120 -4 -199 37.5t-112.5 121t-32 187t37.5 242.5q62 230 234 384.5t375 154.5q248 0 309 -197zM1964 1208l-57 131l-203 269h113l239 -203l354 203h113l-344 -269l-117 -131h-98z
M1634 961l37 137h846l-10 -137l-926 -740h590l51 -248h-1036l121 269l974 719h-647zM455 580q-37 -143 24 -209t213 -66q64 0 109 6t88.5 24t74.5 50t57 83.5t46 125.5q46 171 -1.5 271t-191.5 100q-146 0 -260 -107.5t-159 -277.5z" />
    <glyph glyph-name="uni01C7" unicode="&#x1c7;" horiz-adv-x="2295" 
d="M125 0l453 1536h202l-301 -1237l717 12l-61 -311h-1010zM1886 117q-10 -35 -27.5 -69.5t-44 -66t-57.5 -50.5t-71 -18.5t-80 26.5l-95 36l-153 -309l190 -41q91 -20 163.5 -21t129.5 19t100 54.5t79 94t63 127.5t55 164l432 1473h-286z" />
    <glyph glyph-name="uni01C8" unicode="&#x1c8;" horiz-adv-x="1300" 
d="M125 0l453 1536h202l-301 -1237l717 12l-61 -311h-1010zM1835 1450h209l-55 -207h-209zM1323 -233q146 274 436 1251h195l-367 -1129q-46 -144 -116.5 -249.5t-110.5 -131.5q-42 -26 -125.5 -44t-171.5 -15.5t-129 33.5l86 235q61 -21 113 -24t88.5 11t58 28t43.5 35z
" />
    <glyph glyph-name="uni01C9" unicode="&#x1c9;" horiz-adv-x="980" 
d="M123 0q1 4 24 91t36 135t42.5 157t54 190t59.5 197.5t68.5 216t72 210t79.5 214t82 195.5h217q-167 -442 -320.5 -910.5t-115.5 -468.5h268l-49 -227h-518zM1130 1266h209l-55 -207h-209zM618 -418q148 277 437 1252h194l-366 -1129q-46 -144 -116.5 -249.5
t-111.5 -131.5q-42 -26 -125.5 -44t-171.5 -15.5t-129 33.5l86 235q61 -21 113 -24t88.5 10.5t58 27.5t43.5 35z" />
    <glyph glyph-name="uni01CA" unicode="&#x1ca;" horiz-adv-x="2562" 
d="M1755 117q-10 -35 -27.5 -69.5t-44 -66t-57.5 -50.5t-71 -18.5t-80 26.5l-95 36l-153 -309l190 -41q91 -20 163.5 -21t129.5 19t100 54.5t79 94t63 127.5t55 164l432 1473h-287zM166 0l504 1434h254l264 -1149l424 1204h188l-483 -1489h-332l-190 1262l-297 -1262h-332z
" />
    <glyph glyph-name="uni01CB" unicode="&#x1cb;" horiz-adv-x="1775" 
d="M2150 1493h209l-55 -207h-209zM166 0l504 1434h254l264 -1149l424 1204h188l-483 -1489h-332l-190 1262l-297 -1262h-332zM1638 -190q149 278 437 1251h194l-366 -1129q-46 -144 -116.5 -249.5t-111.5 -131.5q-42 -26 -125.5 -44t-171.5 -15.5t-129 33.5l86 235
q61 -21 113 -24t88.5 11t58 28t43.5 35z" />
    <glyph glyph-name="uni01CC" unicode="&#x1cc;" horiz-adv-x="1384" 
d="M1966 1503h209l-55 -207h-209zM166 0l387 1139h178l-39 -125q7 4 49.5 28.5t54 30.5t50 23.5t63.5 23t65 11.5t83 6q80 0 137.5 -15t98.5 -49.5t60 -89.5t19 -135t-22 -186l-131 -662h-287l250 694q53 147 -0.5 220t-184.5 73q-158 0 -276 -93t-148 -251l-122 -643h-285z
M1454 -180q146 274 436 1251h195l-367 -1128q-46 -144 -116.5 -249.5t-110.5 -131.5q-69 -43 -210.5 -57.5t-215.5 30.5l86 236q61 -21 113 -24t88.5 10.5t58 27.5t43.5 35z" />
    <glyph glyph-name="uni01CD" unicode="&#x1cd;" horiz-adv-x="1712" 
d="M1260 1845l-58 131l-203 269h113l240 -203l354 203h113l-344 -269l-117 -131h-98zM1538 -2h-301v240l-623 41l-141 -281h-266l979 1538l186 -2zM1272 485v920l-535 -920h535z" />
    <glyph glyph-name="uni01CE" unicode="&#x1ce;" horiz-adv-x="1357" 
d="M987 1417l-57 131l-203 269h113l239 -203l355 203h112l-344 -269l-117 -131h-98zM1217 913l18 162h106l-149 -1075h-186l45 168q-84 -97 -201.5 -147t-245.5 -50q-120 0 -208 42t-132 114t-43 173t53 214q112 241 269 401t295 160q58 0 115 -9t112 -27t96 -50.5t56 -75.5
zM508 594q-42 -71 -62.5 -118.5t-24.5 -89.5t20.5 -65.5t80 -37t146.5 -13.5q96 0 160 4.5t113 23.5t76 36.5t51.5 64t36.5 84t34 117.5q17 63 18 113.5t-9.5 83.5t-35 57.5t-49.5 37t-62 20t-64 9t-63 1.5q-59 0 -131 -53.5t-130 -124.5t-105 -150z" />
    <glyph glyph-name="uni01CF" unicode="&#x1cf;" horiz-adv-x="620" 
d="M647 1710l-57 131l-203 268h113l239 -202l355 202h112l-344 -268l-117 -131h-98zM166 0q148 398 273 866t159 670h225q-252 -816 -368 -1536h-289z" />
    <glyph glyph-name="uni01D0" unicode="&#x1d0;" horiz-adv-x="583" 
d="M516 1274l-57 131l-203 268h113l239 -203l355 203h112l-344 -268l-117 -131h-98zM166 0q113 339 172.5 531t144.5 505h164q-89 -291 -144 -527.5t-85 -508.5h-252z" />
    <glyph glyph-name="uni01D1" unicode="&#x1d1;" horiz-adv-x="1726" 
d="M1227 1784l-58 131l-202 268h112l240 -203l354 203h113l-344 -268l-117 -131h-98zM856 -29q-94 1 -166 8.5t-136.5 25t-108.5 46t-77.5 71t-48.5 100.5t-16 134.5t14.5 173t47.5 215.5q95 353 342 564t565 211q211 0 346 -96.5t171.5 -268.5t-28.5 -410
q-47 -162 -94 -278.5t-106 -205t-124.5 -143.5t-154.5 -89t-189.5 -46.5t-236.5 -11.5zM961 354q117 0 205.5 18t165.5 61t130.5 121t83.5 191q47 191 29 331t-107 220t-235 80q-220 0 -398 -173.5t-255 -457.5q-20 -76 -21 -136t17.5 -103t51.5 -72.5t84.5 -47t111.5 -25
t137 -7.5z" />
    <glyph glyph-name="uni01D2" unicode="&#x1d2;" horiz-adv-x="1370" 
d="M936 1341l-57 132l-203 268h112l240 -203l354 203h113l-344 -268l-117 -132h-98zM678 -23q-248 -9 -346 143t-17 439q74 266 253 431t417 165q241 0 338.5 -151.5t30.5 -413.5q-69 -274 -251.5 -439t-424.5 -174zM762 289q27 2 52 5t63 12t70.5 22t69.5 36t64.5 53
t50.5 75.5t33 99.5q7 48 8 99.5t-14 101t-39 88.5t-68.5 62t-101.5 22q-122 -3 -242.5 -105t-187.5 -268q-69 -164 -9.5 -239.5t251.5 -63.5z" />
    <glyph glyph-name="uni01D3" unicode="&#x1d3;" horiz-adv-x="1564" 
d="M1120 1753l-57 131l-203 268h113l239 -202l355 202h112l-344 -268l-116 -131h-99zM348 561l217 932h256l-233 -768q-25 -81 -38.5 -143.5t-11.5 -107.5t6.5 -77t30.5 -52t45 -31t66 -16t76.5 -6t93.5 -1q56 0 83 0.5t72.5 4t68 11.5t57.5 22t54 36t45.5 54.5t44 76
t36.5 100.5t35 129l178 768h268l-295 -932q-40 -126 -81.5 -218.5t-77 -156.5t-90.5 -105t-93 -63.5t-114.5 -32.5t-124.5 -12t-152 -2q-75 0 -110 0.5t-93.5 4t-83.5 11.5t-65.5 22t-54.5 36t-35 53.5t-22.5 75t-2 100t11.5 128t33 159.5z" />
    <glyph glyph-name="uni01D4" unicode="&#x1d4;" horiz-adv-x="1353" 
d="M918 1405l-58 131l-203 268h113l240 -202l354 202h113l-344 -268l-117 -131h-98zM598 -29q-51 0 -88.5 3.5t-73 12.5t-58.5 25t-41.5 41t-26.5 60t-10 82.5t5.5 108.5t22.5 138l137 678h156l-95 -512q-10 -53 -14.5 -93.5t-3 -69t5.5 -47t16.5 -29.5t24 -16t33 -6t39 0
t47.5 3t53 2q282 0 387 293l148 475h184l-258 -1120h-225l53 172q-36 -54 -76 -92t-76.5 -59t-84.5 -32.5t-86.5 -14.5t-94.5 -3z" />
    <glyph glyph-name="uni01D5" unicode="&#x1d5;" horiz-adv-x="1564" 
d="M926 2097l811 49l18 -157l-932 -35zM852 1786h209l-55 -207h-209zM1415 1786h209l-55 -207h-209zM348 561l217 932h256l-233 -768q-25 -81 -38.5 -143.5t-11.5 -107.5t6.5 -77t30.5 -52t45 -31t66 -16t76.5 -6t93.5 -1q56 0 83 0.5t72.5 4t68 11.5t57.5 22t54 36
t45.5 54.5t44 76t36.5 100.5t35 129l178 768h268l-295 -932q-40 -126 -81.5 -218.5t-77 -156.5t-90.5 -105t-93 -63.5t-114.5 -32.5t-124.5 -12t-152 -2q-75 0 -110 0.5t-93.5 4t-83.5 11.5t-65.5 22t-54.5 36t-35 53.5t-22.5 75t-2 100t11.5 128t33 159.5z" />
    <glyph glyph-name="uni01D6" unicode="&#x1d6;" horiz-adv-x="1353" 
d="M723 1749l811 49l18 -158l-931 -34zM649 1438h209l-55 -207h-209zM1212 1438h209l-55 -207h-209zM598 -29q-51 0 -88.5 3.5t-73 12.5t-58.5 25t-41.5 41t-26.5 60t-10 82.5t5.5 108.5t22.5 138l137 678h156l-95 -512q-10 -53 -14.5 -93.5t-3 -69t5.5 -47t16.5 -29.5
t24 -16t33 -6t39 0t47.5 3t53 2q282 0 387 293l148 475h184l-258 -1120h-225l53 172q-36 -54 -76 -92t-76.5 -59t-84.5 -32.5t-86.5 -14.5t-94.5 -3z" />
    <glyph glyph-name="uni01D7" unicode="&#x1d7;" horiz-adv-x="1564" 
d="M1407 2263h106l-190 -315h-158zM852 1786h209l-55 -207h-209zM1415 1786h209l-55 -207h-209zM348 561l217 932h256l-233 -768q-25 -81 -38.5 -143.5t-11.5 -107.5t6.5 -77t30.5 -52t45 -31t66 -16t76.5 -6t93.5 -1q56 0 83 0.5t72.5 4t68 11.5t57.5 22t54 36t45.5 54.5
t44 76t36.5 100.5t35 129l178 768h268l-295 -932q-40 -126 -81.5 -218.5t-77 -156.5t-90.5 -105t-93 -63.5t-114.5 -32.5t-124.5 -12t-152 -2q-75 0 -110 0.5t-93.5 4t-83.5 11.5t-65.5 22t-54.5 36t-35 53.5t-22.5 75t-2 100t11.5 128t33 159.5z" />
    <glyph glyph-name="uni01D8" unicode="&#x1d8;" horiz-adv-x="1353" 
d="M1204 1915h107l-191 -316h-157zM649 1438h209l-55 -207h-209zM1212 1438h209l-55 -207h-209zM598 -29q-51 0 -88.5 3.5t-73 12.5t-58.5 25t-41.5 41t-26.5 60t-10 82.5t5.5 108.5t22.5 138l137 678h156l-95 -512q-10 -53 -14.5 -93.5t-3 -69t5.5 -47t16.5 -29.5t24 -16
t33 -6t39 0t47.5 3t53 2q282 0 387 293l148 475h184l-258 -1120h-225l53 172q-36 -54 -76 -92t-76.5 -59t-84.5 -32.5t-86.5 -14.5t-94.5 -3z" />
    <glyph glyph-name="uni01D9" unicode="&#x1d9;" horiz-adv-x="1564" 
d="M1174 1942l-58 131l-203 268h113l240 -203l354 203h113l-344 -268l-117 -131h-98zM852 1786h209l-55 -207h-209zM1415 1786h209l-55 -207h-209zM348 561l217 932h256l-233 -768q-25 -81 -38.5 -143.5t-11.5 -107.5t6.5 -77t30.5 -52t45 -31t66 -16t76.5 -6t93.5 -1
q56 0 83 0.5t72.5 4t68 11.5t57.5 22t54 36t45.5 54.5t44 76t36.5 100.5t35 129l178 768h268l-295 -932q-40 -126 -81.5 -218.5t-77 -156.5t-90.5 -105t-93 -63.5t-114.5 -32.5t-124.5 -12t-152 -2q-75 0 -110 0.5t-93.5 4t-83.5 11.5t-65.5 22t-54.5 36t-35 53.5t-22.5 75
t-2 100t11.5 128t33 159.5z" />
    <glyph glyph-name="uni01DA" unicode="&#x1da;" horiz-adv-x="1353" 
d="M971 1593l-58 131l-202 269h112l240 -203l354 203h113l-344 -269l-117 -131h-98zM649 1438h209l-55 -207h-209zM1212 1438h209l-55 -207h-209zM598 -29q-51 0 -88.5 3.5t-73 12.5t-58.5 25t-41.5 41t-26.5 60t-10 82.5t5.5 108.5t22.5 138l137 678h156l-95 -512
q-10 -53 -14.5 -93.5t-3 -69t5.5 -47t16.5 -29.5t24 -16t33 -6t39 0t47.5 3t53 2q282 0 387 293l148 475h184l-258 -1120h-225l53 172q-36 -54 -76 -92t-76.5 -59t-84.5 -32.5t-86.5 -14.5t-94.5 -3z" />
    <glyph glyph-name="uni01DB" unicode="&#x1db;" horiz-adv-x="1564" 
d="M1124 1890l-178 230h162l285 -260zM852 1786h209l-55 -207h-209zM1415 1786h209l-55 -207h-209zM348 561l217 932h256l-233 -768q-25 -81 -38.5 -143.5t-11.5 -107.5t6.5 -77t30.5 -52t45 -31t66 -16t76.5 -6t93.5 -1q56 0 83 0.5t72.5 4t68 11.5t57.5 22t54 36
t45.5 54.5t44 76t36.5 100.5t35 129l178 768h268l-295 -932q-40 -126 -81.5 -218.5t-77 -156.5t-90.5 -105t-93 -63.5t-114.5 -32.5t-124.5 -12t-152 -2q-75 0 -110 0.5t-93.5 4t-83.5 11.5t-65.5 22t-54.5 36t-35 53.5t-22.5 75t-2 100t11.5 128t33 159.5z" />
    <glyph glyph-name="uni01DC" unicode="&#x1dc;" horiz-adv-x="1353" 
d="M922 1542l-179 230h162l285 -261zM649 1438h209l-55 -207h-209zM1212 1438h209l-55 -207h-209zM598 -29q-51 0 -88.5 3.5t-73 12.5t-58.5 25t-41.5 41t-26.5 60t-10 82.5t5.5 108.5t22.5 138l137 678h156l-95 -512q-10 -53 -14.5 -93.5t-3 -69t5.5 -47t16.5 -29.5t24 -16
t33 -6t39 0t47.5 3t53 2q282 0 387 293l148 475h184l-258 -1120h-225l53 172q-36 -54 -76 -92t-76.5 -59t-84.5 -32.5t-86.5 -14.5t-94.5 -3z" />
    <glyph glyph-name="uni01DD" unicode="&#x1dd;" horiz-adv-x="1353" 
d="M285 451l868 53q14 59 13.5 113.5t-24.5 101t-64 80t-106.5 51.5t-150.5 14q-55 -3 -111 -16.5t-92 -27t-109 -44t-116 -47.5l70 307q229 87 438 84q270 0 386.5 -156.5t43.5 -420.5q-87 -279 -276.5 -439t-442.5 -159q-89 7 -152 35t-108.5 85t-62.5 153.5t-4 232.5z
M1059 344l-651 -39q-10 -102 45.5 -166.5t185.5 -64.5q149 0 269 82t151 188z" />
    <glyph glyph-name="uni01DE" unicode="&#x1de;" horiz-adv-x="1712" 
d="M1065 2189l811 49l18 -157l-931 -35zM991 1878h209l-55 -207h-209zM1554 1878h209l-55 -207h-209zM1538 -2h-301v240l-623 41l-141 -281h-266l979 1538l186 -2zM1272 485v920l-535 -920h535z" />
    <glyph glyph-name="uni01DF" unicode="&#x1df;" horiz-adv-x="1357" 
d="M793 1761l811 49l18 -157l-932 -35zM719 1450h209l-56 -207h-208zM1282 1450h209l-55 -207h-209zM1217 913l18 162h106l-149 -1075h-186l45 168q-84 -97 -201.5 -147t-245.5 -50q-120 0 -208 42t-132 114t-43 173t53 214q112 241 269 401t295 160q58 0 115 -9t112 -27
t96 -50.5t56 -75.5zM508 594q-42 -71 -62.5 -118.5t-24.5 -89.5t20.5 -65.5t80 -37t146.5 -13.5q96 0 160 4.5t113 23.5t76 36.5t51.5 64t36.5 84t34 117.5q17 63 18 113.5t-9.5 83.5t-35 57.5t-49.5 37t-62 20t-64 9t-63 1.5q-59 0 -131 -53.5t-130 -124.5t-105 -150z" />
    <glyph glyph-name="Gcaron" unicode="&#x1e6;" horiz-adv-x="1734" 
d="M1245 1683l-57 132l-203 268h113l239 -203l355 203h112l-344 -268l-117 -132h-98zM911 -29q-360 0 -489.5 198.5t-56.5 575.5q27 139 69 249t93 189.5t120 137.5t140 93.5t162 56.5t178 28.5t196 7.5q239 0 403 -28l-20 -201q-162 43 -406 43q-92 0 -146.5 -3t-120.5 -14
t-105.5 -34t-86 -62t-79.5 -99.5t-67.5 -144.5t-67.5 -198q-26 -112 -27 -190.5t21 -133.5t74.5 -86.5t128.5 -45t190 -13.5q244 0 338 76l47 182l-266 47l24 162l565 -66l-18 -196l-137 24l-92 -424q-155 -68 -288 -99.5t-276 -31.5z" />
    <glyph glyph-name="gcaron" unicode="&#x1e7;" horiz-adv-x="1363" 
d="M926 1235l-58 131l-202 268h112l240 -202l354 202h113l-344 -268l-117 -131h-98zM520 -535q-105 0 -229 26t-203 71l148 270q70 -44 173.5 -63t196.5 -5q66 9 189 93t166 174l53 116q-48 -50 -160 -98.5t-225 -48.5q-137 0 -229 77t-118 209t17 308q69 258 249 415.5
t388 145.5q49 -3 88 -14.5t78 -38t60 -44.5t67 -61l82 123h186l-264 -979q-92 -342 -269.5 -509t-443.5 -167zM659 299q69 -1 114 3.5t95 20.5t83.5 46t64 83.5t51.5 131.5q52 193 -8.5 296t-196.5 103q-137 0 -233 -107.5t-154 -291.5q-20 -63 -27 -109.5t0 -77.5
t21.5 -50.5t45.5 -29.5t63 -13.5t81 -4.5z" />
    <glyph glyph-name="uni01E9" unicode="&#x1e9;" horiz-adv-x="1366" 
d="M911 1767l-57 131l-203 269h113l240 -203l354 203h112l-344 -269l-116 -131h-99zM145 0l523 1624h206l-247 -885l319 269l262 16l-446 -432l438 -592h-424l-221 502l-141 -502h-269z" />
    <glyph glyph-name="uni01EE" unicode="&#x1ee;" horiz-adv-x="1419" 
d="M999 1534l-57 131l-203 268h113l240 -202l354 202h113l-345 -268l-116 -131h-99zM936 643q118 -9 211 -73t135 -158.5t25 -192.5q-19 -107 -49.5 -195t-83 -171t-123 -139t-174 -90t-232.5 -34q-330 0 -522 252l319 213q63 -82 140 -117t149.5 -22t139 57t116.5 119.5
t72 165.5q14 79 -46 133.5t-174.5 76t-263.5 7.5l52 191q92 68 233.5 168t235 171.5t207.5 168.5q-354 -3 -818 0l54 192q54 0 290.5 2t427.5 2t263 -4q-4 -52 -8 -87t-6.5 -52t-10.5 -64.5t-14 -83.5q-86 -73 -157.5 -131.5t-111.5 -90t-128 -99.5t-148 -115z" />
    <glyph glyph-name="uni01EF" unicode="&#x1ef;" horiz-adv-x="1419" 
d="M999 1534l-57 131l-203 268h113l240 -202l354 202h113l-345 -268l-116 -131h-99zM936 643q118 -9 211 -73t135 -158.5t25 -192.5q-19 -107 -49.5 -195t-83 -171t-123 -139t-174 -90t-232.5 -34q-330 0 -522 252l319 213q63 -82 140 -117t149.5 -22t139 57t116.5 119.5
t72 165.5q14 79 -46 133.5t-174.5 76t-263.5 7.5l52 191q92 68 233.5 168t235 171.5t207.5 168.5q-354 -3 -818 0l54 192q54 0 290.5 2t427.5 2t263 -4q-4 -52 -8 -87t-6.5 -52t-10.5 -64.5t-14 -83.5q-86 -73 -157.5 -131.5t-111.5 -90t-128 -99.5t-148 -115z" />
    <glyph glyph-name="uni01F1" unicode="&#x1f1;" horiz-adv-x="3264" 
d="M166 0l420 1534h420q438 0 593 -180t56 -566q-32 -124 -69 -224t-75.5 -177t-89.5 -135.5t-98 -100t-115 -69.5t-127 -44t-147.5 -24.5t-162.5 -11t-185 -2.5h-420zM2339 1237l833 -12l-1331 -940l-76 -285l1293 12l-21 287h-938l1333 942l41 154h-1185zM485 389h246
q152 0 273.5 24t204 64.5t143 100.5t95 124t56.5 144q74 274 -52 409.5t-441 135.5h-248z" />
    <glyph glyph-name="uni01F2" unicode="&#x1f2;" horiz-adv-x="2988" 
d="M166 0l420 1534h420q438 0 593 -180t56 -566q-32 -124 -69 -224t-75.5 -177t-89.5 -135.5t-98 -100t-115 -69.5t-127 -44t-147.5 -24.5t-162.5 -11t-185 -2.5h-420zM485 389h246q152 0 273.5 24t204 64.5t143 100.5t95 124t56.5 144q74 274 -52 409.5t-441 135.5h-248z
M2214 987l37 137h846l-11 -137l-925 -739h589l52 -248h-1037l121 268l975 719h-647z" />
    <glyph glyph-name="uni01F3" unicode="&#x1f3;" horiz-adv-x="1378" 
d="M1233 901l231 741h187l-359 -1161l-106 -485l-195 4l45 168q-160 -188 -415 -197q-120 -4 -199 37.5t-112.5 121t-32 187t37.5 242.5q62 230 234 384.5t375 154.5q248 0 309 -197zM1634 961l37 137h846l-10 -137l-926 -740h590l51 -248h-1036l121 269l974 719h-647z
M455 580q-37 -143 24 -209t213 -66q64 0 109 6t88.5 24t74.5 50t57 83.5t46 125.5q46 171 -1.5 271t-191.5 100q-146 0 -260 -107.5t-159 -277.5z" />
    <glyph glyph-name="uni01F4" unicode="&#x1f4;" horiz-adv-x="1734" 
d="M1479 2005h106l-190 -315h-158zM911 -29q-360 0 -489.5 198.5t-56.5 575.5q27 139 69 249t93 189.5t120 137.5t140 93.5t162 56.5t178 28.5t196 7.5q239 0 403 -28l-20 -201q-162 43 -406 43q-92 0 -146.5 -3t-120.5 -14t-105.5 -34t-86 -62t-79.5 -99.5t-67.5 -144.5
t-67.5 -198q-26 -112 -27 -190.5t21 -133.5t74.5 -86.5t128.5 -45t190 -13.5q244 0 338 76l47 182l-266 47l24 162l565 -66l-18 -196l-137 24l-92 -424q-155 -68 -288 -99.5t-276 -31.5z" />
    <glyph glyph-name="uni01F5" unicode="&#x1f5;" horiz-adv-x="1363" 
d="M1159 1556h107l-191 -315h-157zM520 -535q-105 0 -229 26t-203 71l148 270q70 -44 173.5 -63t196.5 -5q66 9 189 93t166 174l53 116q-48 -50 -160 -98.5t-225 -48.5q-137 0 -229 77t-118 209t17 308q69 258 249 415.5t388 145.5q49 -3 88 -14.5t78 -38t60 -44.5t67 -61
l82 123h186l-264 -979q-92 -342 -269.5 -509t-443.5 -167zM659 299q69 -1 114 3.5t95 20.5t83.5 46t64 83.5t51.5 131.5q52 193 -8.5 296t-196.5 103q-137 0 -233 -107.5t-154 -291.5q-20 -63 -27 -109.5t0 -77.5t21.5 -50.5t45.5 -29.5t63 -13.5t81 -4.5z" />
    <glyph glyph-name="uni01F8" unicode="&#x1f8;" horiz-adv-x="1566" 
d="M1069 1556l-178 230h162l284 -260zM166 0l504 1434h254l264 -1149l424 1204h188l-483 -1489h-332l-190 1262l-297 -1262h-332z" />
    <glyph glyph-name="uni01F9" unicode="&#x1f9;" horiz-adv-x="1384" 
d="M846 1262l-178 229h161l285 -260zM166 0l387 1139h178l-39 -125q7 4 49.5 28.5t54 30.5t50 23.5t63.5 23t65 11.5t83 6q80 0 137.5 -15t98.5 -49.5t60 -89.5t19 -135t-22 -186l-131 -662h-287l250 694q53 147 -0.5 220t-184.5 73q-158 0 -276 -93t-148 -251l-122 -643
h-285z" />
    <glyph glyph-name="Oslashacute" unicode="&#x1fe;" horiz-adv-x="1689" 
d="M1567 2105l-191 -315h-157l241 315h107zM2189 1589l-407 -405q53 -181 -21 -439q-47 -162 -94 -278.5t-106 -205t-124.5 -143.5t-154.5 -89t-189.5 -46.5t-236.5 -11.5q-151 0 -270 25l-29 -29l-524 -139l327 303q-59 87 -57.5 235.5t62.5 378.5q95 353 342 564t565 211
q270 0 414 -156l194 182zM580 745q-66 -246 79 -333l871 809q-90 155 -297 155q-220 0 -398 -173.5t-255 -457.5zM1546 745q35 131 35 240l-635 -631h15q117 0 205.5 18t165.5 61t130.5 121t83.5 191z" />
    <glyph glyph-name="oslashacute" unicode="&#x1ff;" horiz-adv-x="1370" 
d="M1276 1663l-191 -315h-157l241 315h107zM1200 1112q123 -62 163 -196t-9 -326q-69 -274 -251.5 -439t-424.5 -174q-23 -1 -88 3l-35 -66l-352 -213l200 344q-192 141 -88 514q74 266 253 431t417 165q44 0 62 -2l137 233l217 97zM520 592q-89 -215 39 -279l379 652
q-120 -9 -236 -110t-182 -263zM1165 592q18 79 0.5 173t-71.5 146l-336 -622h4q27 2 52 5t63 12t70.5 22t69.5 36t64.5 53t50.5 75.5t33 99.5z" />
    <glyph glyph-name="uni0218" unicode="&#x218;" horiz-adv-x="1572" 
d="M1255 1585h-196l190 299h-8l51 178h228zM1108 854q233 -49 345 -158t65 -284q-22 -83 -46 -145.5t-59.5 -109t-63.5 -78t-85 -52.5t-95 -32.5t-122 -16.5t-138.5 -6t-169.5 -1q-86 0 -128 1t-107.5 6.5t-100 18t-76.5 34.5t-68.5 57.5t-45.5 85.5l297 168
q48 -47 161.5 -92t196.5 -45q58 0 98.5 2.5t84.5 10t75.5 22.5t61 39t51.5 61t37 86q28 88 -47.5 145.5t-231.5 90.5l-118 24q-216 44 -292 140.5t-32 267.5q54 199 225.5 312.5t419.5 113.5q105 0 183 -9.5t186 -35.5l-127 -152q-75 21 -117.5 27t-146.5 6
q-175 0 -302.5 -59.5t-158.5 -172.5q-24 -92 55 -153t221 -92z" />
    <glyph glyph-name="uni0219" unicode="&#x219;" horiz-adv-x="1300" 
d="M1059 1212h-197l191 299h-9l52 179h227zM455 780q2 75 37.5 142t100.5 119.5t169 83t233 30.5q80 0 179 -14.5t129 -16.5l-76 -135q-205 25 -301 25q-60 0 -110 -19t-81 -49t-49 -62.5t-24 -64.5q-7 -37 5.5 -68t34.5 -50t59 -34.5t65.5 -23t66.5 -14.5
q179 -36 253.5 -109.5t76.5 -197.5q1 -63 -16.5 -114.5t-47 -87.5t-74 -63.5t-93 -43.5t-108 -26.5t-115 -14t-118.5 -3.5q-81 0 -140 7t-116.5 27.5t-92 37.5t-109.5 57l262 224q17 -7 49 -20.5t45 -19t38 -14t43.5 -11.5t45 -6t57.5 -3q228 0 258 114q5 18 -13 33.5
t-53.5 27.5t-69 20.5t-77 17.5t-61.5 14q-36 10 -70 24.5t-71 40t-63.5 58t-43 80t-14.5 102.5z" />
    <glyph glyph-name="uni021A" unicode="&#x21a;" horiz-adv-x="1607" 
d="M1282 1585h-197l191 299h-8l51 178h227zM565 1493h1276l-45 -170l-530 20l-318 -1343h-286l399 1343l-541 -20z" />
    <glyph glyph-name="uni021B" unicode="&#x21b;" horiz-adv-x="1171" 
d="M1018 1542h-197l191 299h-8l51 178h227zM1307 979h-422l-219 -670q315 0 352 -2l-66 -303q-78 -4 -538 -4q-24 0 -38 10.5t-16 26t-1 26t3 19.5t49 132.5t128.5 345t150.5 419.5h-223l96 158h182q78 231 119 372h195l-123 -372h430z" />
    <glyph glyph-name="uni0228" unicode="&#x228;" horiz-adv-x="1329" 
d="M1368 1360l-610 -39l-121 -422l514 23l-47 -170l-514 -33l-101 -410h691l-15 -309h-460l-105 -164h64q27 0 52 -4.5t50 -15t38.5 -28t17.5 -44t-13 -63.5q-34 -75 -102 -117.5t-156 -42.5h-129l51 108q45 -10 109 -10q53 0 99 23t54 49q7 19 4 33.5t-5.5 24.5t-13.5 16.5
t-19.5 10.5t-23 6t-24.5 2.5t-24 0.5q-44 0 -129 -10l137 225h-471l442 1536l844 29z" />
    <glyph glyph-name="uni0229" unicode="&#x229;" horiz-adv-x="1353" 
d="M1360 645l-868 -57q-14 -59 -13.5 -113.5t24.5 -101t64.5 -80t107 -51t150.5 -13.5q55 3 110.5 16.5t92 27.5t107.5 44.5t116 47.5l-67 -308q-226 -86 -439 -86l-86 -135h64q27 0 52 -4.5t50 -15t38.5 -28t17.5 -44t-13 -63.5q-34 -75 -102 -117.5t-156 -42.5h-129
l51 108q45 -10 109 -10q53 0 99.5 23t54.5 49q7 19 4 33.5t-6 24.5t-14 16.5t-19.5 10.5t-23 6t-24.5 2.5t-24 0.5q-44 0 -129 -10l121 198q-237 20 -335.5 174t-31.5 402q86 279 274.5 439.5t442.5 160.5q89 -7 152 -34.5t109 -84.5t63.5 -153t5.5 -232zM1004 1020
q-149 0 -269 -83t-149 -189l649 40q10 102 -45.5 167t-185.5 65z" />
    <glyph glyph-name="uni022A" unicode="&#x22a;" horiz-adv-x="1726" 
d="M1032 2128l811 49l19 -158l-932 -34zM958 1817h209l-55 -207h-209zM1522 1817h209l-56 -207h-209zM856 -29q-94 1 -166 8.5t-136.5 25t-108.5 46t-77.5 71t-48.5 100.5t-16 134.5t14.5 173t47.5 215.5q95 353 342 564t565 211q211 0 346 -96.5t171.5 -268.5t-28.5 -410
q-47 -162 -94 -278.5t-106 -205t-124.5 -143.5t-154.5 -89t-189.5 -46.5t-236.5 -11.5zM961 354q117 0 205.5 18t165.5 61t130.5 121t83.5 191q47 191 29 331t-107 220t-235 80q-220 0 -398 -173.5t-255 -457.5q-20 -76 -21 -136t17.5 -103t51.5 -72.5t84.5 -47t111.5 -25
t137 -7.5z" />
    <glyph glyph-name="uni022B" unicode="&#x22b;" horiz-adv-x="1370" 
d="M741 1686l811 49l19 -158l-932 -35zM668 1374h209l-56 -207h-209zM1231 1374h209l-56 -207h-208zM678 -23q-248 -9 -346 143t-17 439q74 266 253 431t417 165q241 0 338.5 -151.5t30.5 -413.5q-69 -274 -251.5 -439t-424.5 -174zM762 289q27 2 52 5t63 12t70.5 22
t69.5 36t64.5 53t50.5 75.5t33 99.5q7 48 8 99.5t-14 101t-39 88.5t-68.5 62t-101.5 22q-122 -3 -242.5 -105t-187.5 -268q-69 -164 -9.5 -239.5t251.5 -63.5z" />
    <glyph glyph-name="uni0237" unicode="&#x237;" horiz-adv-x="860" 
d="M391 -152q146 272 436 1252h195l-367 -1129q-46 -144 -116.5 -249.5t-110.5 -131.5q-42 -26 -125.5 -44t-171.5 -15.5t-129 33.5l86 235q61 -21 113 -24t88.5 10.5t58 27.5t43.5 35z" />
    <glyph glyph-name="uni0242" unicode="&#x242;" horiz-adv-x="989" 
d="M465 451q26 100 72.5 204t99.5 162q27 29 84.5 61t109 56t98.5 65t60 91q47 176 -80 202q-106 22 -171 -5t-91 -124h-170q15 57 49.5 103.5t78.5 76t94.5 50t100.5 28.5t93.5 8t75.5 -8q212 -51 151 -309q-17 -75 -53 -135t-77.5 -95.5t-87.5 -65t-83.5 -46.5t-64 -36.5
t-31.5 -37.5q-10 -34 -26 -118t-31 -127h-201z" />
    <glyph glyph-name="uni0243" unicode="&#x243;" horiz-adv-x="1421" 
d="M1405 1235q-21 -178 -97.5 -263t-222.5 -106q191 -32 261.5 -142t21.5 -306q-19 -78 -48 -139t-63.5 -104.5t-81 -75t-94 -50.5t-111 -30t-124 -15t-139.5 -4h-541l102 395h-182l51 187h180l248 956h471q22 0 65 1q90 2 133.5 -2.5t97.5 -30t70 -92.5t3 -179zM1264 1245
q3 24 5 43t-1 34.5t-5 26.5t-12 20t-16 14.5t-24.5 9.5t-29.5 6t-39 3t-44.5 1h-54.5h-3.5h-3.5h-303l-129 -465h303q79 0 135.5 13t103.5 46.5t76 94.5t42 153zM1114 709q-56 65 -225 65h-328l-45 -192h428l-49 -187h-422l-22 -98h325q72 0 122 4.5t99 18.5t80 39.5
t54.5 68t33.5 102.5q5 30 4.5 54t-3.5 39.5t-12.5 32t-16.5 26t-23 27.5z" />
    <glyph glyph-name="uni0244" unicode="&#x244;" horiz-adv-x="2328" 
d="M2472 1147l-72 -186h-415l-127 -400q-40 -126 -81.5 -218.5t-77.5 -156.5t-91 -105t-93 -63.5t-114.5 -32.5t-124.5 -12t-152 -2q-75 0 -110 0.5t-93.5 4t-83.5 11.5t-65.5 22t-54.5 36t-35 53.5t-22.5 75t-2 100t11.5 128t33 159.5l95 404h-375l70 186h348l80 342h256
l-105 -344h733l80 344h268l-108 -346h428zM1706 725l55 238h-747l-72 -238q-25 -81 -38.5 -143.5t-11.5 -107.5t6.5 -77t30.5 -52t45 -31t66 -16t76.5 -6t93.5 -1q56 0 83 0.5t72.5 4t68 11.5t57.5 22t54 36t45.5 54.5t44 76t36.5 100.5t35 129z" />
    <glyph glyph-name="uni0245" unicode="&#x245;" horiz-adv-x="1712" 
d="M1167 1556l891 -1493h-211l-733 1055h-98l-127 -1055h-213l69 1493h422z" />
    <glyph glyph-name="uni024B" unicode="&#x24b;" horiz-adv-x="1808" 
d="M1341 -100q58 -133 97 -250q-111 -70 -233.5 -90.5t-214 13t-116.5 112.5q-2 6 -2 28l74 207l-74 -207q0 18 12 117.5t3 132.5l37 109q-88 -54 -191 -81t-194 -20q-133 11 -204.5 92t-75.5 213.5t46 309.5q44 148 113 261t152 181t172 103t184 38q77 2 135.5 -16.5
t96 -55.5t60 -80.5t37.5 -101.5l68 205h178l-270 -739l-133 -424q27 -43 61.5 -67t82 -23.5t99.5 33.5zM467 586q-21 -67 -28 -116.5t1.5 -83t25.5 -54.5t50 -32t69.5 -15t90.5 -4q66 0 111.5 5.5t93.5 23.5t81.5 51t64 89t52.5 136q53 200 -6.5 315t-202.5 107
q-73 -4 -136.5 -37.5t-113 -91t-87.5 -131t-66 -162.5zM1022 152q0 -5 4 -13l10 29q-2 -3 -7 -8t-7 -8z" />
    <glyph glyph-name="uni024C" unicode="&#x24c;" horiz-adv-x="1417" 
d="M1026 1493q232 0 328.5 -108t38.5 -322q-49 -191 -176 -270h36l-34 -187h-25q46 -87 49 -198l8 -408h-372l120 383q15 54 13 93t-25 64t-51.5 39t-68 19t-74.5 4t-70 -6l-113 -18l-121 -578h-323l201 610h-107l33 187h137l229 696h367zM1249 1063q17 62 17.5 112.5
t-13 85t-36 59.5t-55 39t-67 20.5t-75.5 6.5h-258l-150 -557h258q119 0 236 70t143 164z" />
    <glyph glyph-name="uni0250" unicode="&#x250;" horiz-adv-x="1357" 
d="M141 233l-18 -161h-107l150 1075h186l-45 -168q84 97 201.5 147t245.5 50q120 0 207.5 -42t131.5 -114t43 -173t-53 -214q-112 -241 -268.5 -401t-294.5 -160q-79 0 -153.5 14.5t-140 52.5t-85.5 94zM850 553q42 71 62.5 118.5t24.5 89.5t-20.5 65.5t-80 37t-146.5 13.5
q-96 0 -160 -4.5t-113 -23.5t-76 -36.5t-51.5 -64t-36.5 -84t-34 -117.5q-17 -63 -18 -113.5t9.5 -84t34.5 -57.5t49.5 -36.5t62 -20t63.5 -9t63 -1.5q59 0 131.5 53.5t130.5 124.5t105 150z" />
    <glyph glyph-name="uni0251" unicode="&#x251;" horiz-adv-x="1357" 
d="M1217 913l18 162h106l-149 -1075h-186l45 168q-84 -97 -201.5 -147t-245.5 -50q-120 0 -208 42t-132 114t-43 173t53 214q112 241 269 401t295 160q58 0 115 -9t112 -27t96 -50.5t56 -75.5zM508 594q-42 -71 -62.5 -118.5t-24.5 -89.5t20.5 -65.5t80 -37t146.5 -13.5
q96 0 160 4.5t113 23.5t76 36.5t51.5 64t36.5 84t34 117.5q17 63 18 113.5t-9.5 83.5t-35 57.5t-49.5 37t-62 20t-64 9t-63 1.5q-59 0 -131 -53.5t-130 -124.5t-105 -150z" />
    <glyph glyph-name="uni0252" unicode="&#x252;" horiz-adv-x="1357" 
d="M141 233l-18 -161h-107l150 1075h186l-45 -168q84 97 201.5 147t245.5 50q120 0 207.5 -42t131.5 -114t43 -173t-53 -214q-112 -241 -268.5 -401t-294.5 -160q-79 0 -153.5 14.5t-140 52.5t-85.5 94zM850 553q42 71 62.5 118.5t24.5 89.5t-20.5 65.5t-80 37t-146.5 13.5
q-96 0 -160 -4.5t-113 -23.5t-76 -36.5t-51.5 -64t-36.5 -84t-34 -117.5q-17 -63 -18 -113.5t9.5 -84t34.5 -57.5t49.5 -36.5t62 -20t63.5 -9t63 -1.5q59 0 131.5 53.5t130.5 124.5t105 150z" />
    <glyph glyph-name="uni0253" unicode="&#x253;" horiz-adv-x="1316" 
d="M991 1130q206 8 297.5 -149.5t26.5 -421.5q-62 -255 -230.5 -422.5t-371.5 -167.5q-83 0 -165.5 27t-143.5 82t-68 125q-8 41 25 221.5t110.5 562t128.5 655.5h21q19 70 62 138t106.5 128t154.5 101t193 49q-33 -143 -70 -266q-173 -14 -262 -150h31l-134 -589
q-9 -40 -0.5 -42t37.5 22l19.5 13t22 15t26.5 16l29 14.5t34 14.5t36.5 11.5t41 8.5t43.5 4zM1186 600q58 183 14.5 270.5t-180.5 87.5q-144 0 -251.5 -99.5t-160.5 -266.5q-21 -68 -22.5 -117.5t20 -91t81.5 -63t157 -21.5q129 9 210 78t132 223z" />
    <glyph glyph-name="uni0254" unicode="&#x254;" horiz-adv-x="1226" 
d="M8 25l39 145q74 -25 211 -25q174 0 281 114t166 329q13 80 2 144t-49 107t-89.5 63.5t-121 12.5t-142.5 -45l-151 234q204 82 358 72q156 -11 253.5 -52.5t140 -118t42.5 -177t-37 -240.5q-73 -273 -271.5 -430.5t-463.5 -157.5q-98 0 -168 25z" />
    <glyph glyph-name="uni0255" unicode="&#x255;" horiz-adv-x="1419" 
d="M1270 610q121 -104 84 -235q-35 -127 -187.5 -240t-326.5 -149q-2 -2 -2 -6q-53 -261 -86 -390h-230q70 254 105 385q-128 11 -208 56.5t-112.5 123t-29.5 176t38 228.5q73 272 272 430t464 158q98 0 168 -25l-39 -145q-71 24 -211 24q-174 0 -281.5 -113.5
t-165.5 -328.5q-14 -55 -15.5 -110.5t12 -110t56 -92t111.5 -45.5l43 159q38 143 135.5 233.5t214.5 90.5q105 0 191 -74zM1153 403q7 31 -10 48q-41 38 -84 38q-45 0 -84.5 -44.5t-63.5 -133.5q-17 -66 -22 -90q104 28 177.5 81.5t86.5 100.5z" />
    <glyph glyph-name="uni0256" unicode="&#x256;" horiz-adv-x="1378" 
d="M1194 35q44 -64 147 -64q-19 -128 -53 -264q-77 0 -136.5 26t-93 68.5t-51 97.5t-17 113t15.5 115q0 1 1 4.5t1 5.5q-150 -157 -387 -166q-120 -4 -199 37.5t-112.5 121t-32 187t37.5 242.5q62 230 234 384.5t375 154.5q248 0 309 -197l231 741h187l-359 -1161zM692 305
q64 0 109 6t88.5 24t74.5 50t57 83.5t46 125.5q46 171 -1.5 271t-191.5 100q-146 0 -260 -107.5t-159 -277.5q-37 -143 24 -209t213 -66z" />
    <glyph glyph-name="uni0257" unicode="&#x257;" horiz-adv-x="1378" 
d="M1466 1642q67 135 191 228.5t280 93.5q-44 -144 -90 -264q-119 0 -205 -86l-350 -1133l-106 -485l-195 4l45 168q-160 -188 -415 -197q-120 -4 -199 37.5t-112.5 121t-32 187t37.5 242.5q62 230 234 384.5t375 154.5q248 0 309 -197l168 539q6 23 16 57.5t13 46.5
q17 57 30 84l4 14h2zM1067 594q46 171 -1.5 271t-191.5 100q-146 0 -260 -107.5t-159 -277.5q-37 -143 24 -209t213 -66q64 0 109 6t88.5 24t74.5 50t57 83.5t46 125.5z" />
    <glyph glyph-name="uni0258" unicode="&#x258;" horiz-adv-x="1353" 
d="M-6 645q-12 136 5.5 232t63.5 153t109 84.5t152 34.5q253 0 441.5 -160.5t274.5 -439.5q72 -265 -45 -421.5t-387 -156.5q-212 0 -438 86l-68 308q45 -17 116 -47.5t107.5 -44.5t92 -27.5t110.5 -16.5q84 -4 150.5 13.5t107 51t65 80t25 101t-13.5 113.5zM768 748
q-29 106 -149 189t-269 83q-130 0 -185.5 -65t-45.5 -167z" />
    <glyph glyph-name="uni0259" unicode="&#x259;" horiz-adv-x="1353" 
d="M-6 502l868 57q14 59 13.5 113.5t-25 101t-65 80t-107 51t-150.5 13.5q-55 -3 -110.5 -16.5t-92 -27.5t-107.5 -44.5t-116 -47.5l68 308q226 86 438 86q270 0 387 -156.5t45 -421.5q-86 -279 -274.5 -439.5t-441.5 -160.5q-89 7 -152 34.5t-109 84.5t-63.5 153t-5.5 232z
M768 399l-649 -41q-10 -102 45.5 -166.5t185.5 -64.5q149 0 269 83t149 189z" />
    <glyph glyph-name="uni025A" unicode="&#x25a;" horiz-adv-x="1353" 
d="M1221 528q-2 -26 -3.5 -47t12 -34t44.5 -13q-6 -61 -21 -112q-44 0 -71.5 16t-36.5 44t-8 58.5t10 65.5q2 8 7.5 28t8.5 35l-137 -14q-90 -260 -274.5 -408.5t-427.5 -148.5q-89 7 -152 34.5t-109 84.5t-63.5 153t-5.5 232l868 57q14 59 13.5 113.5t-25 101t-65 80
t-107 51t-150.5 13.5q-55 -3 -110.5 -16.5t-92 -27.5t-107.5 -44.5t-116 -47.5l68 308q226 86 438 86q258 0 377 -142t68 -387l198 17q-24 -84 -30 -136zM350 127q149 0 269 83t149 189l-649 -41q-10 -102 45.5 -166.5t185.5 -64.5z" />
    <glyph glyph-name="uni025B" unicode="&#x25b;" horiz-adv-x="1017" 
d="M516 -25q-72 0 -130 20t-97.5 60.5t-51 102t8.5 143.5q28 103 91 162.5t183 75.5q-90 35 -120 87.5t-7 135.5q32 121 143 191.5t269 70.5q27 0 57 -6.5t63 -22t54 -42t32 -65.5t-5 -93l-99 -19q24 83 -11.5 120.5t-100.5 37.5q-112 0 -195.5 -41t-105.5 -121
q-23 -91 28 -129.5t162 -38.5h47l-4 -108h-47q-110 1 -182.5 -42.5t-91.5 -115.5q-21 -76 13.5 -125.5t133.5 -50.5q39 -1 61 0.5t54 12.5t49.5 32t30.5 63t14 103l170 14q7 -99 -26 -177t-84 -120.5t-115 -70t-110.5 -36t-80.5 -8.5z" />
    <glyph glyph-name="uni025C" unicode="&#x25c;" horiz-adv-x="1017" 
d="M502 -25q-34 0 -80.5 8.5t-110.5 36t-115 70t-84 120.5t-26 177l170 -14q1 -61 14 -103t30.5 -63t49.5 -32t54 -12.5t61 -0.5q99 1 133.5 50.5t13.5 125.5q-19 72 -91.5 115.5t-182.5 42.5h-47l-4 108h47q111 0 162 38.5t28 129.5q-22 80 -105.5 121t-195.5 41
q-65 0 -100.5 -37.5t-11.5 -120.5l-99 19q-16 54 -5 93t32 65.5t54 42t63 22t57 6.5q158 0 269 -70.5t143 -191.5q23 -83 -7 -135.5t-120 -87.5q120 -16 183 -75.5t91 -162.5q20 -82 8.5 -143.5t-51 -102t-97.5 -60.5t-130 -20z" />
    <glyph glyph-name="uni025D" unicode="&#x25d;" horiz-adv-x="1017" 
d="M502 -25q-34 0 -80.5 8.5t-110.5 36t-115 70t-84 120.5t-26 177l170 -14q1 -61 14 -103t30.5 -63t49.5 -32t54 -12.5t61 -0.5q99 1 133.5 50.5t13.5 125.5q-19 72 -91.5 115.5t-182.5 42.5h-47l-4 108h47q111 0 162 38.5t28 129.5q-22 80 -105.5 121t-195.5 41
q-65 0 -100.5 -37.5t-11.5 -120.5l-99 19q-16 54 -5 93t32 65.5t54 42t63 22t57 6.5q158 0 269 -70.5t143 -191.5q23 -83 -7 -135.5t-120 -87.5q120 -16 183 -75.5t91 -162.5q20 -82 8.5 -143.5t-51 -102t-97.5 -60.5t-130 -20z" />
    <glyph glyph-name="uni025E" unicode="&#x25e;" horiz-adv-x="1200" 
d="M303 510q21 80 52 148.5t84 138t121 118t166.5 79t217.5 30.5q158 0 231.5 -70.5t41.5 -191.5q-14 -50 -25 -75.5t-37 -55.5t-71 -51t-117 -41q113 -16 144 -75.5t3 -162.5q-27 -106 -98 -182.5t-160.5 -112t-185.5 -31.5q-106 5 -184.5 36.5t-123.5 82t-66 118t-18 142
t25 156.5zM432 516q-11 -39 -11.5 -82.5t15 -93t48.5 -88.5t97.5 -64.5t153.5 -25.5q98 0 158.5 50t81.5 126q21 71 -29 115t-162 43h-45l54 108h47q235 0 278 168q22 79 -39 120.5t-174 41.5q-75 0 -143.5 -25t-120.5 -66.5t-95 -96.5t-70.5 -112.5t-43.5 -117.5z" />
    <glyph glyph-name="uni025F" unicode="&#x25f;" horiz-adv-x="1140" 
d="M1137 608l-50 -186h-286l-146 -451q-46 -144 -116.5 -249.5t-110.5 -131.5q-42 -26 -125.5 -44t-171.5 -15.5t-129 33.5l86 235q61 -21 113 -24t88.5 10.5t58 27.5t43.5 35q89 171 225 574h-337l51 186h346q46 143 151 492h195l-160 -492h275z" />
    <glyph glyph-name="uni0260" unicode="&#x260;" horiz-adv-x="1329" 
d="M1419 1413q15 39 29 67.5t27.5 52.5t31 40t33.5 28.5t41 19t47.5 10.5t60 4t70.5 -1t86 -4l-59 -170q-43 2 -64.5 2t-44.5 -3t-32 -7.5t-20 -18t-17 -27.5t-15 -42q-27 -79 -34 -98l-99 -281l-227 -844q-92 -342 -269.5 -509t-443.5 -167q-105 0 -229 26t-203 71l148 270
q70 -44 173.5 -63t196.5 -5q66 9 189 93t166 174l53 116q-48 -50 -160 -98.5t-225 -48.5q-137 0 -229 77t-118 209t17 308q69 258 249 415.5t388 145.5q49 -3 88 -14.5t78 -38t60 -44.5t67 -61l82 123h4l31 84h-3q21 59 76 209zM1067 584q52 193 -8.5 296t-196.5 103
q-137 0 -233 -107.5t-154 -291.5q-20 -63 -27 -109.5t0 -77.5t21.5 -50.5t45.5 -29.5t63 -13.5t81 -4.5q69 -1 114 3.5t95 20.5t83.5 46t64 83.5t51.5 131.5z" />
    <glyph glyph-name="uni0261" unicode="&#x261;" horiz-adv-x="1363" 
d="M520 -535q-105 0 -229 26t-203 71l148 270q70 -44 173.5 -63t196.5 -5q66 9 189 93t166 174l53 116q-48 -50 -160 -98.5t-225 -48.5q-137 0 -229 77t-118 209t17 308q69 258 249 415.5t388 145.5q49 -3 88 -14.5t78 -38t60 -44.5t67 -61l82 123h186l-264 -979
q-92 -342 -269.5 -509t-443.5 -167zM659 299q69 -1 114 3.5t95 20.5t83.5 46t64 83.5t51.5 131.5q52 193 -8.5 296t-196.5 103q-137 0 -233 -107.5t-154 -291.5q-20 -63 -27 -109.5t0 -77.5t21.5 -50.5t45.5 -29.5t63 -13.5t81 -4.5z" />
    <glyph glyph-name="uni0262" unicode="&#x262;" horiz-adv-x="1173" 
d="M616 -18q-244 0 -331.5 133.5t-38.5 388.5q25 130 71 224t102 150t135.5 88t158 43t182.5 11q163 0 272 -21l-14 -135q-105 29 -274 29q-48 0 -78 -1t-67 -5t-60.5 -11.5t-51.5 -20.5t-47.5 -32.5t-41 -47t-39 -65t-35.5 -85t-35 -107.5q-17 -76 -18 -129t14 -90
t50.5 -58.5t87 -30.5t128.5 -9q164 0 227 51l33 123l-180 33l16 108l383 -43l-12 -133l-94 16l-62 -286q-201 -88 -381 -88z" />
    <glyph glyph-name="uni0263" unicode="&#x263;" horiz-adv-x="1456" 
d="M1417 1055l119 -137q-38 -38 -47 -44q-329 -243 -524 -413q96 -198 125 -357t-10 -273t-155.5 -174.5t-306.5 -59.5q-381 4 -379 184q2 176 384 558q55 54 118 114q-122 212 -301 438q-6 6 -8.5 10.5t-6.5 13t-9 17.5l184 123q24 -46 41 -70q161 -220 254 -389
q149 136 457 397q14 11 34.5 32t30.5 30zM666 -205q56 -1 100.5 16t76 57.5t42 99.5t-8 149t-67.5 200q-317 -306 -292 -440q14 -78 149 -82z" />
    <glyph glyph-name="uni0264" unicode="&#x264;" horiz-adv-x="1439" 
d="M1292 1051q52 1 90.5 -12.5t60 -35t32.5 -54t13 -63t-2.5 -69.5t-10.5 -65t-15 -58h-135q49 234 -65 234q-60 0 -120 -62.5t-149 -195.5q13 -65 27 -121q41 -179 46 -236q12 -134 -60 -209q-115 -120 -302 -120q-96 0 -137.5 22t-72.5 98q-6 15 -6.5 33t6 40t15.5 43.5
t26.5 51.5t33 55t41 62t45.5 65.5t51.5 73t53.5 76.5q7 9 78 115q-11 97 -39.5 148t-83.5 51q-59 0 -96 -10t-63 -39t-41.5 -67t-33.5 -108h-127q18 68 29.5 104t41.5 91.5t67 84t101.5 51t149.5 22.5q71 0 117.5 -48.5t79.5 -138.5q76 96 156.5 143t197.5 48zM739 117
q44 0 69.5 19.5t34.5 57t10.5 93t-2.5 126.5q-1 30 -1 46q-146 -211 -162 -280q-15 -62 51 -62z" />
    <glyph glyph-name="uni0265" unicode="&#x265;" horiz-adv-x="1398" 
d="M29 471l137 676h285q-73 -156 -124 -283t-78.5 -214.5t-38 -155.5t-8 -107.5t17 -68t31 -41t40.5 -21.5q40 -15 83 -16.5t90 11t93.5 45t92 80.5t87.5 122t78 166t65.5 215.5t47.5 267.5h305l-559 -1643h-187l224 682q-137 -102 -208.5 -131.5t-199.5 -29.5
q-60 0 -101.5 4t-80 15.5t-61 32.5t-39 53.5t-19 80t3.5 111.5t23 149z" />
    <glyph glyph-name="uni0266" unicode="&#x266;" horiz-adv-x="1398" 
d="M1096 1122q60 0 101.5 -4t80 -15.5t61 -32.5t39 -53.5t19 -80t-3.5 -111.5t-23 -149l-137 -676h-285q73 156 124 283t78.5 214.5t38 155.5t8 107.5t-17 68t-31 41t-40.5 21.5q-40 15 -83 16.5t-90 -11t-93.5 -45t-92 -80.5t-87.5 -122t-78 -166t-65.5 -215.5
t-47.5 -267.5h-305l559 1642h4q11 39 39 130q16 51 30.5 85.5t30 62t38.5 43.5t45.5 27t62 15t76.5 5t100 1l-47 -174q-104 0 -129 -15t-45 -89l-19 -64h2l-6 -27h4l-28 -86l-152 -563q109 79 177.5 104t187.5 25z" />
    <glyph glyph-name="uni0267" unicode="&#x267;" horiz-adv-x="1398" 
d="M1096 1122q60 0 101.5 -4t80 -15.5t61 -32.5t39 -53.5t19 -80t-3.5 -111.5t-23 -149l-137 -676h-6q-13 -97 -29 -141q-35 -89 -98.5 -156t-135 -98t-147 -25.5t-133.5 53.5q44 107 166 383q45 -37 102 -8q72 154 122.5 279.5t77.5 212.5t37 154t7.5 107t-17 68t-31 40.5
t-40.5 21.5q-40 15 -83 16.5t-90 -11t-93.5 -45t-92 -80.5t-87.5 -122t-78 -166t-65.5 -215.5t-47.5 -267.5h-305l559 1642h4q11 39 39 130q16 51 30.5 85.5t30 62t38.5 43.5t45.5 27t62 15t76.5 5t100 1l-47 -174q-104 0 -129 -15t-45 -89l-19 -64h2l-6 -27h4l-28 -86
l-152 -563q109 79 177.5 104t187.5 25z" />
    <glyph glyph-name="uni0268" unicode="&#x268;" horiz-adv-x="583" 
d="M786 1556l-51 -233h-186l74 233h163zM903 676l-49 -187h-354q-53 -239 -82 -489h-273q97 274 162 489h-262l51 187h266q48 162 101 360h184q-60 -197 -102 -360h358z" />
    <glyph glyph-name="uni0269" unicode="&#x269;" horiz-adv-x="690" 
d="M510 0q-219 0 -259 9q-36 8 -47 35q-3 5 -14 46q73 201 121 370t88 345t54 231h165q-32 -105 -122 -449t-113 -425q31 -17 55 -23.5t37.5 -6.5t39.5 2.5t46 2.5z" />
    <glyph glyph-name="uni026A" unicode="&#x26a;" horiz-adv-x="425" 
d="M115 0q102 273 187.5 594t109.5 463h155q-174 -558 -254 -1057h-198z" />
    <glyph glyph-name="uni026B" unicode="&#x26b;" horiz-adv-x="806" 
d="M547 670q-13 0 -17 2q-67 -207 -97 -326t-11 -119h268l-49 -227h-518q153 573 248 870q-19 15 -31 15q-19 0 -36 -8t-30.5 -28.5t-23 -36t-20.5 -48.5t-15 -46t-14 -48h-113q61 184 115 245.5t162 61.5q21 0 36 -6q117 357 240 635h217q-169 -447 -295 -834h10q25 0 44 9
t30.5 21t22 35.5t16 41t14 49.5t13.5 49h94q-21 -74 -40.5 -126.5t-40.5 -86.5t-38.5 -53.5t-43 -28.5t-45 -11t-52.5 -1z" />
    <glyph glyph-name="uni026C" unicode="&#x26c;" horiz-adv-x="1390" 
d="M1384 594q-302 3 -456 18q-10 -38 -46.5 -173t-56.5 -208q4 -4 6 -4h269l-49 -227h-519q7 24 37 138t67.5 248t76.5 265q-127 36 -194 104t-79 179q-20 202 166 311q107 62 244 62q42 0 74 -13q59 158 127 312h217q-141 -371 -279 -785q110 0 252.5 -3t202.5 -3z
M627 1026q-11 -41 30.5 -90.5t116.5 -81.5q51 161 70 213q-26 45 -76 45q-42 0 -106 -39q-29 -19 -35 -47z" />
    <glyph glyph-name="uni026D" unicode="&#x26d;" horiz-adv-x="1148" 
d="M154 -502q-25 0 -42 10.5t-24 32t-10.5 44t1.5 57.5t9.5 61t15.5 66t17.5 61t17.5 57q147 461 315 961.5t263 757.5h176q-40 -105 -112.5 -350t-129 -451.5t-143 -527.5t-105.5 -390q-26 -94 29 -137q49 -38 125 -8q94 37 153 153q25 47 40 105l243 41
q-91 -298 -207 -414q-93 -93 -251 -117q-89 -13 -330 -12h-51z" />
    <glyph glyph-name="uni026E" unicode="&#x26e;" horiz-adv-x="1611" 
d="M1671 1210q-4 -51 -8 -86t-7 -52.5t-10.5 -64t-13.5 -83.5q-87 -74 -159 -133t-108.5 -88t-130.5 -101.5t-147 -114.5q118 -9 211 -73t135 -158.5t25 -192.5q-19 -107 -49 -195t-82.5 -170.5t-123 -138.5t-174 -90t-232.5 -34q-331 0 -523 252l320 213q63 -82 139.5 -117
t149.5 -22t139.5 57t116 119t71.5 165q14 79 -46 133.5t-174 76t-263 7.5l51 191q92 68 233.5 168t235 171.5t207.5 168.5q-350 -3 -809 0q-117 -339 -183 -565t-40 -226h12l105 -227h-416q1 4 24 91t36 135t42.5 157t54 190t59.5 197.5t68.5 216t72 210t79.5 214t82 195.5
h217q-82 -218 -145 -396q64 0 295.5 2t412.5 2t250 -4zM670 227h20l-49 -227z" />
    <glyph glyph-name="uni026F" unicode="&#x26f;" horiz-adv-x="2117" 
d="M688 242q-56 -67 -103 -112.5t-102 -81.5t-113.5 -48t-121.5 0q-68 13 -119.5 48.5t-80.5 83t-43 106t-13 117.5t14 116l160 676h278l-247 -668q-47 -161 -22 -242t138 -75q254 12 406 385l246 600h258l-338 -670q-23 -45 -24.5 -98.5t16.5 -100t60 -79.5t99 -37
q77 -6 163 37.5t152.5 115.5t94.5 150l248 682h258l-434 -1120h-187l68 153q-90 -102 -192 -145.5t-226 -34.5q-276 20 -293 242z" />
    <glyph glyph-name="uni0270" unicode="&#x270;" horiz-adv-x="2117" 
d="M688 242q-56 -67 -103 -112.5t-102 -81.5t-113.5 -48t-121.5 0q-68 13 -119.5 48.5t-80.5 83t-43 106t-13 117.5t14 116l160 676h278l-247 -668q-47 -161 -22 -242t138 -75q254 12 406 385l246 600h258l-338 -670q-23 -45 -24.5 -98.5t16.5 -100t60 -79.5t99 -37
q77 -6 163 37.5t152.5 115.5t94.5 150l248 682h258l-434 -1120h-187l68 153q-90 -102 -192 -145.5t-226 -34.5q-276 20 -293 242zM1956 1016h256l-496 -1426h-225z" />
    <glyph glyph-name="uni0271" unicode="&#x271;" horiz-adv-x="2117" 
d="M1870 1147q68 -13 119.5 -48.5t80 -83t43 -106t13 -117t-14.5 -116.5l-143 -608v-7q-66 -277 -153 -342q-48 -34 -243 -50t-249 7q11 18 78 146h96q24 0 41.5 1.5t33 7.5t25 10.5t19.5 18.5t15.5 23t13.5 33t12.5 38.5t13.5 49.5q0 6 8 10l242 654q47 161 21.5 242
t-138.5 75q-253 -12 -405 -385l-246 -600h-258l338 670q23 45 24 98.5t-17 100t-60 79.5t-99 37q-77 6 -163 -37.5t-152 -115.5t-94 -150l-248 -682h-258l434 1120h186l-67 -153q90 102 192 145.5t226 34.5q276 -20 293 -242q56 67 103 112.5t102 81.5t113.5 48t121.5 0z
" />
    <glyph glyph-name="uni0272" unicode="&#x272;" horiz-adv-x="1554" 
d="M1227 1137q80 0 137.5 -15t98.5 -49.5t60 -89.5t19 -135t-22 -186l-131 -662h-287l250 694q53 147 -0.5 220t-184.5 73q-158 0 -276 -93t-148 -251l-122 -643h-13q-66 -246 -95 -311q-36 -79 -86 -92q-12 -3 -26 -3h-344l60 222q41 0 66.5 1.5t47 11t32.5 18t23.5 34.5
t19 48t20.5 71h10l387 1139h178l-39 -125q7 4 49.5 28.5t54 30.5t50 23.5t63.5 23t65 11.5t83 6z" />
    <glyph glyph-name="uni0273" unicode="&#x273;" horiz-adv-x="1531" 
d="M1219 0h-11q-9 -34 -14 -53t-8.5 -40.5t-2.5 -32t6.5 -22t15 -15.5t26.5 -8.5t37 -5.5t51 -1l-59 -221h-345q-54 0 -61 52q-7 55 45 251l27 102h8l248 688q53 147 -0.5 220t-184.5 73q-158 0 -276 -93t-148 -251l-122 -643h-285l387 1139h178l-39 -125q7 4 49.5 28.5
t54 30.5t50 23.5t63.5 23t65 11.5t83 6q80 0 137.5 -15t98.5 -49.5t60 -89.5t19 -135t-22 -186z" />
    <glyph glyph-name="uni0274" unicode="&#x274;" horiz-adv-x="1081" 
d="M115 0l348 989h174l182 -792l293 831h131l-334 -1028h-229l-131 870l-205 -870h-229z" />
    <glyph glyph-name="uni0275" unicode="&#x275;" horiz-adv-x="1335" 
d="M985 1155q241 0 338.5 -151.5t30.5 -413.5q-69 -274 -251.5 -439t-424.5 -174q-248 -9 -346 143t-17 439q74 266 253 431t417 165zM950 965q-109 -3 -219 -86.5t-182 -223.5l625 33q-1 74 -22.5 135t-73.5 102.5t-128 39.5zM762 289q26 2 50 4.5t61.5 11t69 20.5t68 33.5
t64 49.5t51 70t35.5 93l-657 -22q-48 -142 15 -206t243 -54z" />
    <glyph glyph-name="uni0276" unicode="&#x276;" horiz-adv-x="1691" 
d="M1298 883l-77 -275q0 -2 -1 -6t-1 -6l348 16l-33 -116l-346 -23q-2 -5 -5 -16.5t-5 -16.5l-62 -245h469l-8 -209h-680l14 51q-111 -57 -329 -57q-86 1 -146.5 10.5t-110 32t-76 61t-38 96.5t-2 139t38.5 189q64 239 232.5 382.5t383.5 143.5q205 0 299 -127l35 121
l574 21l-58 -140zM653 242q145 0 237.5 44.5t139.5 157.5l33 117q34 171 -25.5 273t-199.5 102q-150 0 -271 -117.5t-174 -310.5q-39 -150 28.5 -208t231.5 -58z" />
    <glyph glyph-name="uni0278" unicode="&#x278;" horiz-adv-x="1726" 
d="M1272 1520q211 0 346 -96.5t171.5 -268.5t-28.5 -410q-47 -162 -94 -278.5t-106 -205t-124 -143.5t-154 -89t-189 -46.5t-236 -11.5l-100 -467h-144l101 473q-116 10 -194.5 37.5t-133 82t-73 141t-7 212t57.5 295.5q76 284 255 480t418 262l97 452h143l-90 -423
q54 4 84 4zM1546 745q47 191 29 331t-107 220t-235 80q-39 0 -76 -6l-217 -1016h21q117 0 205.5 18t165.5 61t130.5 121t83.5 191zM580 745q-47 -178 9.5 -266t209.5 -114l205 958q-147 -71 -258 -222t-166 -356z" />
    <glyph glyph-name="uni0279" unicode="&#x279;" horiz-adv-x="1058" 
d="M-106 23v184q215 21 278 37q99 25 154 93q43 55 88 167q14 34 22.5 117t19.5 249.5t21 276.5h416q-136 -282 -213 -507t-180 -609l-191 6l31 115q-111 -70 -192.5 -95t-253.5 -34z" />
    <glyph glyph-name="uni027A" unicode="&#x27a;" horiz-adv-x="1093" 
d="M1108 1638l-217 -614h-55q-106 -234 -174 -439t-162 -554l-191 6l31 115q-111 -70 -192.5 -95t-253.5 -34v184q215 21 278 37q99 25 154 93q43 55 88 167q14 34 22.5 117t19.5 249.5t21 276.5h88l78 491h465z" />
    <glyph glyph-name="uni027B" unicode="&#x27b;" horiz-adv-x="1058" 
d="M-106 23v184q215 21 278 37q99 25 154 93q43 55 88 167q14 34 22.5 117t19.5 249.5t21 276.5h416q-136 -282 -213 -507t-180 -609l-191 6l31 115q-111 -70 -192.5 -95t-253.5 -34zM819 340q-3 -14 -16 -64.5t-21 -83t-16.5 -75t-11.5 -68.5q-8 -91 33.5 -148t142.5 -57
q-19 -128 -53 -264q-77 0 -136.5 26t-93.5 68.5t-51.5 97.5t-17 113t15.5 115q36 142 92 340h133z" />
    <glyph glyph-name="uni027D" unicode="&#x27d;" horiz-adv-x="1058" 
d="M719 995q111 70 192.5 95t253.5 34v-184q-215 -21 -278 -37q-99 -25 -154 -93q-43 -54 -88 -167q-14 -34 -22.5 -117t-19.5 -249.5t-21 -276.5h-56q44 -70 150 -70q-22 -149 -51 -264q-131 0 -246 48t-174.5 125t-38.5 157q0 2 2 4h-2q136 282 213 507t180 609l191 -6z
" />
    <glyph glyph-name="uni027E" unicode="&#x27e;" horiz-adv-x="653" 
d="M416 920q16 51 30.5 85.5t30 62t38.5 43.5t45.5 27t62 15t76.5 5t100 1l-47 -174q-104 0 -129 -15t-45 -89l-19 -64h2l-217 -809h-176l188 699h-2q24 88 62 213z" />
    <glyph glyph-name="uni0280" unicode="&#x280;" horiz-adv-x="978" 
d="M745 512q43 -26 77.5 -89.5t35.5 -141.5l6 -281h-258l84 264q13 43 6.5 75t-28 47t-50.5 24t-60 7t-58 -5l-78 -13l-84 -399h-223l340 1030h254q160 0 225.5 -75t26.5 -222q-26 -99 -82.5 -154.5t-133.5 -66.5zM705 956h-179l-104 -385h178q81 0 162.5 48.5t99.5 113.5
q16 52 12 90.5t-17 64t-38.5 40.5t-53 21.5t-60.5 6.5z" />
    <glyph glyph-name="uni0281" unicode="&#x281;" horiz-adv-x="978" 
d="M233 635q-42 26 -76.5 89.5t-35.5 141.5l-6 281h258l-84 -264q-13 -43 -6.5 -75t28 -47t50.5 -24t60 -7t58 5l78 13l84 399h223l-340 -1030h-254q-160 0 -225.5 75t-26.5 222q26 99 82 154.5t133 66.5zM274 190h179l104 385h-178q-82 0 -163 -48.5t-99 -112.5
q-15 -66 -10 -109t32 -69t60 -36t75 -10z" />
    <glyph glyph-name="uni0282" unicode="&#x282;" horiz-adv-x="1300" 
d="M926 1014q-60 0 -110 -19t-81 -49t-49 -62.5t-24 -64.5q-7 -37 5.5 -68t34.5 -50t59 -34.5t65.5 -23t66.5 -14.5q179 -36 253.5 -109.5t76.5 -197.5q1 -63 -16.5 -114.5t-47 -87.5t-74 -63.5t-93 -43.5t-108 -26.5t-115 -14t-118.5 -3.5q-105 0 -176.5 14t-138.5 44
q-31 -85 -41 -142q-8 -66 33.5 -106.5t142.5 -40.5q-19 -92 -53 -193q-77 0 -136.5 19t-93.5 49.5t-51.5 70.5t-17 82t15.5 84q1 4 20.5 55.5t38 101.5t27.5 75q-5 3 -15 8.5t-13 7.5l262 224q17 -7 49 -20.5t45 -19t38 -14t43.5 -11.5t45 -6t57.5 -3q228 0 258 114
q5 18 -13 33.5t-53.5 27.5t-69 20.5t-77 17.5t-61.5 14q-36 10 -70 24.5t-71 40t-63.5 58t-43 80t-14.5 102.5q2 75 37.5 142t100.5 119.5t169 83t233 30.5q80 0 179 -14.5t129 -16.5l-76 -135q-205 25 -301 25z" />
    <glyph glyph-name="uni0283" unicode="&#x283;" horiz-adv-x="1777" 
d="M2019 1520l-39 -144q-61 58 -147 58q-99 0 -175 -61.5t-132 -192.5l-203 -475l-197 -486q-55 -136 -108 -239t-95 -171.5t-93.5 -114.5t-85.5 -70t-89.5 -35.5t-87 -13t-95.5 -1.5h-17q-32 0 -78.5 12t-99.5 36.5t-99 71t-65 105.5l293 133q86 -65 180 -65q97 0 170 69
t151 234l223 535l207 473q79 181 207.5 279.5t282.5 98.5q113 0 192 -36z" />
    <glyph glyph-name="uni0284" unicode="&#x284;" horiz-adv-x="1019" 
d="M836 1239q19 55 34.5 89.5t39.5 60.5t46 39t64.5 21t83 9.5t113.5 1.5l-48 -160q-56 0 -81.5 -1.5t-45.5 -13t-27.5 -27t-19.5 -52.5l-18 -59h2l-14 -47h30l-186 -588h154l-37 -186h-176l-113 -355q-45 -144 -113 -250t-108 -131q-67 -43 -204.5 -57t-209.5 31l84 235
q60 -21 110 -24t86 11t56.5 27.5t42.5 34.5q75 150 186 478h-256l39 186h266l158 535q24 78 62 192z" />
    <glyph glyph-name="uni0288" unicode="&#x288;" horiz-adv-x="1171" 
d="M936 1122l-346 -1099q234 0 289 -3l-66 -303q-78 -4 -477 -4q-24 0 -37.5 13.5t-15 33.5t-0.5 33.5t4 22.5q5 21 72.5 225.5t173 517.5t192.5 563h-258l96 138h211q50 141 90 249h195l-78 -249h324l2 -138h-371z" />
    <glyph glyph-name="uni0289" unicode="&#x289;" horiz-adv-x="1318" 
d="M1501 709l-151 -2l-162 -707h-225l53 172q-36 -54 -76 -92t-76.5 -59t-84.5 -32.5t-86.5 -14.5t-94.5 -3q-51 0 -88.5 3.5t-73 12.5t-58.5 25t-41.5 41t-26.5 60t-10 82.5t5.5 108.5t22.5 138l49 244l-236 -4l150 106l108 5l66 327h156l-60 -323l606 18l95 305h184
l-70 -297l97 2zM1114 645l19 55l-592 -10l-15 -82q-10 -53 -14.5 -93.5t-3 -69t5.5 -47t16.5 -29.5t24 -16t33 -6t39 0t47.5 3t53 2q282 0 387 293z" />
    <glyph glyph-name="uni028A" unicode="&#x28a;" horiz-adv-x="1775" 
d="M2089 340q95 -353 -38.5 -563.5t-451.5 -210.5t-564.5 210.5t-340.5 563.5q-24 91 -31.5 166t-3 122t21.5 90.5t32.5 65t39.5 51t33 42.5q-182 20 -284 38q-6 25 -23.5 90t-27.5 105q22 1 51 1t74 -0.5t77 -0.5h367q19 -65 28 -111.5t21 -140.5q-64 6 -107 -26.5
t-61.5 -88t-22.5 -127t5 -141.5t26 -135q75 -284 253.5 -457.5t398.5 -173.5q221 0 305.5 173t7.5 458q-44 163 -175.5 312t-295.5 196q-68 173 -92 262h338q26 0 84.5 2t100 2t60.5 -4l52 -195q-186 -25 -265 -38q113 -62 153 -93q127 -95 201 -278q30 -74 54 -166z" />
    <glyph glyph-name="uni028B" unicode="&#x28b;" horiz-adv-x="1159" 
d="M285 442l180 678h176l-137 -512q-18 -68 -25 -119t-7.5 -85t14.5 -57t27.5 -35t45.5 -17.5t54.5 -6.5t66.5 -1h2q30 0 55 3t47.5 12t39.5 18t33.5 29t28.5 35.5t25.5 47.5t23 56t22.5 68.5t22 77.5t25 91q3 10 10 35.5t11 39t9 38t6 39t1 35.5t-5 33.5t-14 27.5t-24 22.5
t-37 13t-50 5.5l41 153q76 0 129.5 -10.5t86.5 -32t48.5 -54t17.5 -76t-7 -98t-25.5 -120t-37.5 -143.5q-19 -68 -29 -105q-4 -15 -12 -46q-15 -60 -24.5 -94t-32.5 -96t-47 -99.5t-65 -85.5t-88.5 -75t-116.5 -46t-151 -19t-141.5 12t-108.5 44t-72 84.5t-22 137t31 197.5z
" />
    <glyph glyph-name="uni028C" unicode="&#x28c;" horiz-adv-x="1712" 
d="M1055 1491h422l69 -1493h-213l-127 1055h-98l-733 -1055h-211z" />
    <glyph glyph-name="uni028D" unicode="&#x28d;" horiz-adv-x="1849" 
d="M760 1024h250l110 -387l307 387h261l-21 -1149h-186l-25 743l-401 -460h-127l-154 460l-397 -741h-187z" />
    <glyph glyph-name="uni028E" unicode="&#x28e;" horiz-adv-x="1431" 
d="M166 -23l635 1278q26 52 60 95.5t67 74.5t77.5 55.5t79 39.5t83.5 26t78.5 16t78 8t68 3h61.5h170l-65 -244h-129q-74 0 -149.5 -18.5t-143.5 -54t-111 -98t-43 -140.5l285 -1041h-197l-278 844l-431 -844h-196z" />
    <glyph glyph-name="uni028F" unicode="&#x28f;" horiz-adv-x="1083" 
d="M539 350l-152 672h150l139 -522l416 522h151l-516 -672l-94 -350h-189z" />
    <glyph glyph-name="uni0290" unicode="&#x290;" horiz-adv-x="1404" 
d="M1497 1124l-10 -137l-926 -739h744l-66 -248h-283q0 -3 -1 -7.5t-1 -6.5q-2 -26 -3 -47t12.5 -34.5t44.5 -13.5q-6 -61 -21 -112q-44 0 -71.5 16t-36.5 44t-8 58.5t10 65.5q1 5 10 37h-725l121 268l975 719h-648l37 137h846z" />
    <glyph glyph-name="uni0291" unicode="&#x291;" horiz-adv-x="1501" 
d="M1487 987l-926 -739h344q89 184 187.5 247t224.5 27q109 -30 112 -138q2 -100 -81 -211q-86 -115 -201 -156q-48 -17 -94 -17h-47q-60 -186 -115 -395h-205q65 242 119 395h-639l121 268l975 719h-648l37 137h846zM1221 346q-8 8 -16 11.5t-19.5 0.5t-23.5 -14
t-27.5 -34.5t-32.5 -59.5q41 3 69.5 12t40 20.5t16 24.5t1.5 23t-8 16z" />
    <glyph glyph-name="uni0292" unicode="&#x292;" horiz-adv-x="1419" 
d="M936 643q118 -9 211 -73t135 -158.5t25 -192.5q-19 -107 -49.5 -195t-83 -171t-123 -139t-174 -90t-232.5 -34q-330 0 -522 252l319 213q63 -82 140 -117t149.5 -22t139 57t116.5 119.5t72 165.5q14 79 -46 133.5t-174.5 76t-263.5 7.5l52 191q92 68 233.5 168t235 171.5
t207.5 168.5q-354 -3 -818 0l54 192q54 0 290.5 2t427.5 2t263 -4q-4 -52 -8 -87t-6.5 -52t-10.5 -64.5t-14 -83.5q-86 -73 -157.5 -131.5t-111.5 -90t-128 -99.5t-148 -115z" />
    <glyph glyph-name="uni0294" unicode="&#x294;" horiz-adv-x="989" 
d="M373 66q10 41 69.5 254t65.5 237q23 88 43.5 127t77.5 102q27 29 84.5 61t109 56t98.5 65t60 91q47 177 -80 203q-105 23 -170.5 -4t-91.5 -125h-170q15 57 49.5 103.5t78.5 76t94.5 50t100.5 28.5t93.5 8t75.5 -8q213 -51 151 -310q-17 -75 -53 -135t-77.5 -95.5
t-87.5 -65t-83.5 -46.5t-64 -36t-31.5 -37l-148 -541q-1 -2 -4.5 -5t-11 -5.5t-16 -5.5t-21 -6.5t-23.5 -6.5l-27.5 -7.5t-29 -7.5t-31 -7.5t-30.5 -7.5z" />
    <glyph glyph-name="uni0295" unicode="&#x295;" horiz-adv-x="989" 
d="M258 66q-138 40 -155 50q-8 5 -7 9q2 8 37 139t65.5 248.5t39.5 153.5q6 18 -11 37t-45 36.5t-58.5 45.5t-53 65.5t-27 95.5t19.5 135q79 259 318 310q44 10 97 8t107 -17t93.5 -46.5t57 -81.5t-2.5 -121h-170q26 98 -24 125t-168 4q-142 -26 -189 -203q-11 -41 3 -75
t43.5 -58t61 -45t61 -46t38.5 -49q23 -65 22.5 -102.5t-24.5 -126.5z" />
    <glyph glyph-name="uni0298" unicode="&#x298;" horiz-adv-x="1726" 
d="M856 -29q-94 1 -166 8.5t-136.5 25t-108.5 46t-77.5 71t-48.5 100.5t-16 134.5t14.5 173t47.5 215.5q95 353 342 564t565 211q211 0 346 -96.5t171.5 -268.5t-28.5 -410q-47 -162 -94 -278.5t-106 -205t-124.5 -143.5t-154.5 -89t-189.5 -46.5t-236.5 -11.5zM961 354
q117 0 205.5 18t165.5 61t130.5 121t83.5 191q47 191 29 331t-107 220t-235 80q-220 0 -398 -173.5t-255 -457.5q-20 -76 -21 -136t17.5 -103t51.5 -72.5t84.5 -47t111.5 -25t137 -7.5zM723 -147h209l-55 -207h-209z" />
    <glyph glyph-name="uni0299" unicode="&#x299;" horiz-adv-x="966" 
d="M113 0l272 1047h320q14 0 42 1q103 2 142 -14q80 -33 67 -174l-2 -20q-13 -121 -65 -179.5t-152 -70.5q131 -23 179 -97.5t14 -207.5q-18 -73 -49 -125.5t-68.5 -83t-92.5 -48t-109 -23t-130 -5.5h-368zM705 954h-207l-86 -317h204q109 0 167.5 44t74.5 165
q2 17 3.5 29.5t-0.5 23.5t-3 18.5t-8.5 13.5t-11 10t-17 6.5t-20.5 4t-27 2t-31 0.5h-38zM604 526h-223l-74 -323h221q49 0 82.5 3t66.5 12.5t54.5 26.5t38 45.5t23.5 69.5q1 30 2.5 44t-6.5 31t-13 24t-18 22q-39 45 -154 45z" />
    <glyph glyph-name="uni029B" unicode="&#x29b;" horiz-adv-x="1280" 
d="M1071 1157q14 45 25.5 76.5t27.5 58t30 43t37.5 29t45 19t58.5 10t70.5 4t88.5 0.5l-47 -174q-39 0 -60 -0.5t-41 -5t-28.5 -9.5t-18 -19.5t-14 -28.5t-12.5 -42q-5 -22 -16 -59.5t-15 -54.5q3 -1 7.5 -2t7 -2t4.5 -1l-15 -135q-105 29 -274 29q-48 0 -78 -1t-67 -5
t-60.5 -11.5t-51.5 -20.5t-47.5 -32.5t-41 -47t-39 -65t-35.5 -85t-35 -107.5q-17 -76 -18 -129t14 -90t50.5 -58.5t87 -30.5t128.5 -9q165 0 228 51l32 123l-180 33l17 108l383 -43l-13 -133l-94 16l-61 -286q-201 -88 -381 -88q-244 0 -332 133.5t-39 388.5q25 130 71 224
t102 150t135.5 88t158 43t182.5 11q55 0 82 -2q13 49 41 139z" />
    <glyph glyph-name="uni029C" unicode="&#x29c;" horiz-adv-x="1253" 
d="M1063 1053h147l-229 -1053h-227l77 262h-444l-59 -262h-213l301 1053h147l-131 -586h459z" />
    <glyph glyph-name="uni029D" unicode="&#x29d;" horiz-adv-x="1435" 
d="M1255 -51q-162 0 -424 16q-29 -89 -69 -164q-29 -72 -55 -117t-53.5 -74.5t-66.5 -43.5t-80.5 -19t-109.5 -6q-61 -6 -114 0q-34 0 -53.5 0.5t-44.5 3.5t-37 10.5t-26 20t-18 32t-6.5 47t3.5 65t16 85.5t26 109q31 115 141 187.5t255 72.5h168q123 333 301 934h194
l-303 -934h418zM537 -18q-46 0 -88 -14.5t-68.5 -36.5t-45.5 -48t-20 -50t9 -42q74 -13 133 0q98 59 172 189q-29 2 -92 2z" />
    <glyph glyph-name="uni029E" unicode="&#x29e;" horiz-adv-x="1366" 
d="M1497 1032l-522 -1624h-207l248 885l-320 -268l-262 -17l447 432l-439 592h424l221 -502l142 502h268z" />
    <glyph glyph-name="uni029F" unicode="&#x29f;" horiz-adv-x="892" 
d="M86 0l309 1053h140l-207 -848l493 8l-43 -213h-692z" />
    <glyph glyph-name="uni02A0" unicode="&#x2a0;" horiz-adv-x="1556" 
d="M1434 1360q26 58 46.5 94t48.5 62t52.5 37.5t70.5 15.5t88.5 1t119.5 -11l-68 -168q-41 4 -62.5 5.5t-43.5 -0.5t-31.5 -6.5t-21 -17t-18 -26.5t-16.5 -41q-6 -12 -26 -62h2l-309 -768l-35 -94l-164 -524l156 41l194 61l-80 -246l-516 -139l215 594q-85 -98 -227.5 -153
t-269.5 -44q-133 11 -204.5 92t-75.5 213.5t46 309.5q44 148 113 261t152 181t172 103t184 38q76 2 134 -16t95.5 -54t60 -78.5t37.5 -98.5l19 47l51 151h10l15 35q36 92 86 205zM676 281q66 0 111.5 5.5t93.5 23.5t81.5 51t64 89t52.5 136q53 200 -6.5 315t-202.5 107
q-73 -4 -136.5 -37.5t-113 -91t-87.5 -131t-66 -162.5q-21 -67 -28 -116.5t1.5 -83t25.5 -54.5t50 -32t69.5 -15t90.5 -4z" />
    <glyph glyph-name="uni02A1" unicode="&#x2a1;" horiz-adv-x="989" 
d="M961 1391q213 -51 151 -310q-17 -75 -53 -135t-77.5 -95.5t-87.5 -65t-83.5 -46.5t-64 -36t-31.5 -37l-37 -134h125l-33 -159h-135l-68 -248q-1 -2 -4.5 -5t-11 -5.5t-16 -5.5t-21 -6.5t-23.5 -6.5l-27.5 -7.5t-29 -7.5t-31 -7.5t-30.5 -7.5q42 152 84 307h-217l32 159
h230l6 25q23 88 43.5 127t77.5 102q27 29 84.5 61t109 56t98.5 65t60 91q47 177 -80 203q-105 23 -170.5 -4t-91.5 -125h-170q15 57 49.5 103.5t78.5 76t94.5 50t100.5 28.5t93.5 8t75.5 -8z" />
    <glyph glyph-name="uni02A2" unicode="&#x2a2;" horiz-adv-x="989" 
d="M750 373h-218q42 -155 84 -307q-12 3 -30.5 7.5t-31 7.5t-29 7.5l-27.5 7.5t-23.5 6.5t-21 6.5t-16 5.5t-11 5.5t-4.5 5l-68 248h-135l-33 159h125l-37 134q-5 18 -31.5 37t-64 36t-83.5 46.5t-87.5 65t-77.5 95.5t-53 135q-62 259 152 310q32 8 75.5 8t93 -8t100 -28.5
t94.5 -50t78.5 -76t49.5 -103.5h-170q-26 98 -91.5 125t-170.5 4q-127 -26 -80 -203q13 -50 60 -91t98.5 -65t109 -56t84.5 -61q57 -63 77.5 -102t43.5 -127l6 -25h230z" />
    <glyph glyph-name="uni02A3" unicode="&#x2a3;" horiz-adv-x="2414" 
d="M2515 1098l-10 -137l-926 -740h590l51 -248h-1036l121 269l974 719h-839l-148 -480l-106 -485l-195 4l45 168q-160 -188 -415 -197q-120 -4 -199 37.5t-112.5 121t-32 187t37.5 242.5q62 230 234 384.5t375 154.5q248 0 309 -197l231 741h187l-168 -544h1032zM1067 594
q46 171 -1.5 271t-191.5 100q-146 0 -260 -107.5t-159 -277.5q-37 -143 24 -209t213 -66q64 0 109 6t88.5 24t74.5 50t57 83.5t46 125.5z" />
    <glyph glyph-name="uni02A4" unicode="&#x2a4;" horiz-adv-x="1378" 
d="M2427 1321q-4 -52 -8 -87t-6.5 -52t-10.5 -64.5t-14 -83.5q-86 -73 -157.5 -131.5t-111.5 -90t-128 -99.5t-148 -115q118 -9 211 -73t135 -158.5t25 -192.5q-19 -107 -49.5 -195t-83 -171t-123 -139t-174 -90t-232.5 -34q-330 0 -522 252l320 213q53 -69 116 -104.5
t123.5 -37t121 23t110.5 70.5t88 111t57 140q14 79 -46 133.5t-174 76t-263 7.5l51 191q95 70 234 168.5t234 170t208 168.5q-315 -3 -719 0l-199 -647l-106 -485l-195 4l45 168q-160 -188 -415 -197q-120 -4 -199 37.5t-112.5 121t-32 187t37.5 242.5q62 230 234 384.5
t375 154.5q248 0 309 -197l231 741h187l-99 -321q742 6 875 0zM1067 594q46 171 -1.5 271t-191.5 100q-146 0 -260 -107.5t-159 -277.5q-37 -143 24 -209t213 -66q64 0 109 6t88.5 24t74.5 50t57 83.5t46 125.5z" />
    <glyph glyph-name="uni02A5" unicode="&#x2a5;" horiz-adv-x="2541" 
d="M2527 985l-925 -739h344q89 184 187 247t224 27q109 -30 112 -138q2 -100 -81 -211q-86 -115 -201 -156q-48 -17 -94 -17h-47q-60 -186 -115 -395h-205q65 242 119 395h-639l121 268l975 719h-854l-156 -504l-106 -485l-195 4l45 168q-160 -188 -415 -197
q-120 -4 -199 37.5t-112.5 121t-32 187t37.5 242.5q62 230 234 384.5t375 154.5q248 0 309 -197l231 741h187l-160 -520h1046zM1067 594q46 171 -1.5 271t-191.5 100q-146 0 -260 -107.5t-159 -277.5q-37 -143 24 -209t213 -66q64 0 109 6t88.5 24t74.5 50t57 83.5t46 125.5
zM2261 344q-8 8 -16 11.5t-19.5 0.5t-23.5 -14t-27.5 -34.5t-32.5 -59.5q41 3 69.5 12t40 20.5t16 24.5t1.5 23t-8 16z" />
    <glyph glyph-name="uni02A6" unicode="&#x2a6;" horiz-adv-x="2039" 
d="M1673 1102q-60 0 -110 -20t-81 -51.5t-49 -65.5t-24 -68q-7 -40 5.5 -72.5t35 -52.5t59 -36.5t65.5 -24.5t66 -15q179 -39 253.5 -116.5t76.5 -208.5q1 -92 -32.5 -160.5t-87 -108t-132 -64t-153.5 -32.5t-166 -8q-81 0 -140.5 7.5t-116.5 29t-93 40t-109 60.5l262 236
q17 -8 48.5 -22t45 -19.5t39 -14.5t44 -12.5t45 -6.5t57.5 -3q227 0 258 121q5 19 -13 35.5t-54 29t-69.5 21t-77.5 18t-61 14.5q-36 10 -70 25.5t-71 43t-63.5 61.5t-43 84.5t-14.5 109.5q3 158 131 268h-55l-51 -145h-391l-205 -670q292 0 327 -2l-61 -303q-72 -4 -502 -4
q-23 0 -35.5 10.5t-14 26t-1 26t3.5 19.5q2 9 45.5 133t119.5 344.5t140 419.5h-209l91 158h170q76 249 110 372h182l-114 -372h114l33 123l739 -7v-2q71 -1 164.5 -15.5t116.5 -16.5l-76 -142q-205 25 -301 25z" />
    <glyph glyph-name="uni02A7" unicode="&#x2a7;" horiz-adv-x="1904" 
d="M1874 1790q106 23 197 8l-7 -149q-72 42 -155 22q-98 -22 -158 -98.5t-86 -216.5l-90 -508l-82 -518q-32 -201 -75.5 -341t-80 -215.5t-104.5 -124.5t-106 -62t-129 -34q-10 -3 -15 -4q-24 -5 -59.5 -6t-81.5 6t-89.5 22.5t-85 47t-67.5 74.5l254 194q97 -43 190 -22
q96 22 152 105.5t94 262.5l96 570l97 508q37 195 139.5 320t251.5 159zM989 307l-76 -303q-78 -4 -538 -4q-24 0 -37.5 10t-15 26.5t-0.5 26.5t4 19t54 133t140 344.5t166 419.5h-223l100 158h182q94 255 134 372h194l-135 -372h186l33 123h309l-34 -136h-70l-59 -145h-422
l-244 -670q315 0 352 -2z" />
    <glyph glyph-name="uni02A8" unicode="&#x2a8;" horiz-adv-x="1171" 
d="M1948 866q121 -104 84 -235q-35 -127 -187.5 -240t-326.5 -149q-2 -2 -2 -6q-53 -261 -86 -390h-230q70 254 105 385q-128 11 -208 56.5t-112.5 123t-29.5 176t38 228.5q25 88 62 164h-170l-219 -670q315 0 352 -2l-66 -303q-78 -4 -538 -4q-24 0 -38 10.5t-16 26t-1 26
t3 19.5t49 132.5t128.5 345t150.5 419.5h-223l96 158h182q78 231 119 372h195l-123 -372h219q105 128 253 197t321 69q97 0 167 -25l-38 -145q-71 24 -211 24q-175 0 -289 -120h8l-59 -158h-50q-30 -63 -57 -164q-14 -55 -15.5 -110.5t12 -110t56 -92t111.5 -45.5l43 159
q38 143 135.5 233.5t214.5 90.5q105 0 191 -74zM1831 659q7 31 -10 48q-41 38 -84 38q-45 0 -84.5 -44.5t-63.5 -133.5q-17 -66 -22 -90q104 28 177.5 81.5t86.5 100.5z" />
    <glyph glyph-name="uni02A9" unicode="&#x2a9;" horiz-adv-x="1925" 
d="M1595 1124q100 0 165.5 -24t105.5 -80t43 -147t-21 -224l-114 -577v-4q-1 -2 -2.5 -7.5t-2.5 -7.5l-12 -65h-4q-59 -214 -135 -271q-48 -36 -244.5 -52t-251.5 7l80 150h96q27 0 47 3t35.5 7.5t27.5 17t20 23t17 35t14.5 43.5t15.5 57q0 6 8 10l237 664q53 147 -0.5 220
t-183.5 73q-158 0 -276 -93t-148 -251l-123 -643h-284l331 979h-245l-220 -969h-270l283 969l-166 -2l47 182l168 2q18 65 36 119.5t38.5 97t39 77t42 60t43 44.5t46 32t47.5 21.5t51.5 14t53 8t57.5 5.5l166 14l-41 -167h-143q-46 0 -94 -40t-82 -95t-55.5 -109.5
t-22.5 -85.5l322 4l-7 -23h140l-39 -125q8 5 49 28.5t54 30.5t50.5 23.5t63 22.5t65 12t82.5 6z" />
    <glyph glyph-name="uni02AA" unicode="&#x2aa;" horiz-adv-x="1775" 
d="M1405 1032q-60 0 -110 -18.5t-81 -48.5t-49 -62.5t-24 -64.5q-7 -38 5.5 -68.5t35 -49.5t59 -34.5t65 -23.5t66.5 -15q179 -36 253.5 -109.5t76.5 -197.5q1 -73 -21.5 -130.5t-65 -95t-94.5 -63.5t-120.5 -39t-132 -18.5t-138.5 -5.5q-96 0 -167 12h-840q1 4 24 91
t36 135t42.5 157t54 190t59.5 197.5t68.5 216t72 210t79.5 214t82 195.5h217q-162 -430 -313 -887.5t-127 -489.5h387l129 111q17 -7 49 -20.5t45 -19t38 -14t43.5 -11.5t45 -6t57.5 -3q227 0 258 115q5 18 -13 33.5t-53.5 27.5t-69 20.5t-77 17.5t-61.5 14q-36 10 -70 24.5
t-71 40t-63.5 58t-43 80t-14.5 102.5q2 75 37.5 142t101 119.5t169.5 83t233 30.5q80 0 178.5 -14.5t128.5 -16.5l-76 -135q-197 24 -301 24z" />
    <glyph glyph-name="uni02AB" unicode="&#x2ab;" horiz-adv-x="1775" 
d="M1884 1122l-10 -137l-926 -739h590l51 -248h-1036v2h-10l102 227h10l19 39l975 719h-648v2h-366q-112 -326 -175 -543t-38 -217h84l-37 -227h-346q1 4 24 91t36 135t42.5 157t54 190t59.5 197.5t68.5 216t72 210t79.5 214t82 195.5h217q-72 -190 -176 -482h385v-2h817z
" />
    <glyph glyph-name="uni02AC" unicode="&#x2ac;" horiz-adv-x="1263" 
d="M557 786l29 705h112v-457l248 285h78l94 -285l260 457h115l-367 -705h-159l-62 238l-194 -238h-154zM346 0l29 705h112v-455l248 282h78l94 -282l260 455h115l-367 -705h-159l-62 238l-194 -238h-154z" />
    <glyph glyph-name="uni02AD" unicode="&#x2ad;" horiz-adv-x="917" 
d="M1028 1032l-84 -315h-143l53 192h-303l-51 -192h-144l84 315h588zM842 332l-84 -316h-144l54 193h-303l-52 -193h-143l84 316h588z" />
    <glyph glyph-name="uni02B0" unicode="&#x2b0;" horiz-adv-x="1398" 
d="M1370 676l-137 -676h-285q73 156 124 283t78.5 214.5t38 155.5t8 107.5t-17 68t-31 41t-40.5 21.5q-40 15 -83 16.5t-90 -11t-93.5 -45t-92 -80.5t-87.5 -122t-78 -166t-65.5 -215.5t-47.5 -267.5h-305l559 1642h186l-223 -681q137 102 208.5 131.5t199.5 29.5
q60 0 101.5 -4t80 -15.5t61 -32.5t39 -53.5t19 -80t-3.5 -111.5t-23 -149z" />
    <glyph glyph-name="uni02B2" unicode="&#x2b2;" horiz-adv-x="856" 
d="M893 1532h209l-55 -207h-209zM381 -152q146 272 436 1252h195l-367 -1129q-46 -144 -116.5 -249.5t-110.5 -131.5q-42 -26 -125.5 -44t-171.5 -15.5t-129 33.5l86 235q61 -21 113 -24t88.5 10.5t58 27.5t43.5 35z" />
    <glyph glyph-name="uni02B7" unicode="&#x2b7;" horiz-adv-x="1241" 
d="M549 770l26 686h111v-442l242 274h76l92 -274l254 444h110l-356 -688h-156l-59 231l-191 -231h-149z" />
    <glyph glyph-name="uni02B9" unicode="&#x2b9;" horiz-adv-x="698" 
d="M-131 1200q-15 -3 -24 6.5t-5 22.5l105 360q9 19 30 10l131 -59q27 -13 17 -33l-139 -272q-5 -12 -23 -16z" />
    <glyph glyph-name="uni02BA" unicode="&#x2ba;" horiz-adv-x="1241" 
d="M999 1477l-264 -478h-196l190 299h-8l51 179h227zM1425 1477l-264 -478h-196l190 299h-8l51 179h227z" />
    <glyph glyph-name="uni02BC" unicode="&#x2bc;" horiz-adv-x="847" 
d="M-43 1221l-268 -41l284 348h162z" />
    <glyph glyph-name="uni02C1" unicode="&#x2c1;" horiz-adv-x="720" 
d="M928 1470q-75 11 -111 11q-77 0 -103 -32q-14 -17 1 -32q2 -2 11 -10.5t13.5 -12.5t14.5 -14.5t15 -18.5t13.5 -22.5t13 -27t9.5 -31t7 -37.5t2 -42.5t-3 -49.5q-27 -2 -121 -2q3 57 -12.5 107t-36.5 78t-46 59t-32 45q-22 44 36 86t165.5 67t224.5 23q-33 -72 -61 -144z
" />
    <glyph glyph-name="circumflex" unicode="&#x2c6;" horiz-adv-x="1138" 
d="M637 1538h98l47 -131l201 -268h-113l-245 202l-349 -202h-112l346 268z" />
    <glyph glyph-name="caron" unicode="&#x2c7;" horiz-adv-x="1150" 
d="M530 1139l-57 131l-203 268h113l240 -203l354 203h113l-345 -268l-116 -131h-99z" />
    <glyph glyph-name="uni02C8" unicode="&#x2c8;" horiz-adv-x="528" 
d="M614 1530h158l-131 -488h-197z" />
    <glyph glyph-name="uni02CC" unicode="&#x2cc;" horiz-adv-x="528" 
d="M262 217h158l-131 -487h-197z" />
    <glyph glyph-name="uni02D0" unicode="&#x2d0;" horiz-adv-x="913" 
d="M467 1126h584l-404 -417zM770 4l180 418l404 -418h-584z" />
    <glyph glyph-name="uni02D1" unicode="&#x2d1;" horiz-adv-x="913" 
d="M467 1124h584l-404 -417z" />
    <glyph glyph-name="breve" unicode="&#x2d8;" horiz-adv-x="1144" 
d="M1243 1487h133q-33 -122 -116 -215.5t-189.5 -141t-218.5 -47.5q-171 0 -255 110t-34 294h135q-12 -44 -13.5 -77.5t9 -56.5t28 -38t46.5 -23t61 -11t76 -3q78 0 128.5 7.5t93.5 30t70.5 64t45.5 107.5z" />
    <glyph glyph-name="dotaccent" unicode="&#x2d9;" horiz-adv-x="540" 
d="M553 1442h209l-55 -207h-209z" />
    <glyph glyph-name="ring" unicode="&#x2da;" horiz-adv-x="702" 
d="M655 1135q-77 0 -116 57t-17 139q22 80 92 137.5t146 57.5q78 0 117.5 -57.5t17.5 -137.5q-22 -82 -92 -139t-148 -57zM686 1247q27 0 42 2.5t35 12t34 33.5t24 63q12 44 -10.5 76t-65.5 32q-44 0 -83.5 -32t-51.5 -76q-8 -32 -8 -53.5t5 -32.5t19.5 -17t26 -7t33.5 -1z
" />
    <glyph glyph-name="ogonek" unicode="&#x2db;" horiz-adv-x="708" 
d="M442 -297q-3 -18 -6 -45t-6 -57t-4 -41q-180 -3 -267.5 43.5t-64.5 132.5q32 123 287 289q88 0 115 -2q-260 -189 -281 -267q-8 -31 19.5 -47t91.5 -16q41 0 116 10z" />
    <glyph glyph-name="tilde" unicode="&#x2dc;" horiz-adv-x="968" 
d="M135 1186q61 184 115 245.5t162 61.5q38 0 65 -21t42 -51.5t27.5 -60.5t31 -51t43.5 -21t44 9t30.5 21t22 35.5t15.5 41t13.5 49.5t13.5 49h94q-21 -74 -40.5 -126.5t-40.5 -86.5t-38.5 -53.5t-43 -28.5t-45 -11t-52.5 -1q-41 1 -70 23t-45 53.5t-28 62.5t-27.5 53
t-36.5 23q-19 0 -36 -8t-30.5 -28.5t-23 -36t-20.5 -48.5t-15 -46t-14 -48h-113z" />
    <glyph glyph-name="hungarumlaut" unicode="&#x2dd;" horiz-adv-x="1226" 
d="M88 1276l-268 -31l284 260h162zM467 1276l-268 -31l284 260h162z" />
    <glyph glyph-name="uni02DE" unicode="&#x2de;" horiz-adv-x="776" 
d="M494 524q-2 -8 -10 -39.5t-13 -55.5t-6 -40q-2 -26 -1.5 -47t14 -34t40.5 -13q22 0 42 5t43.5 25t31.5 54q21 82 12 113l103 30l-33 -127q-26 -94 -83 -153.5t-136 -59.5q-45 0 -73 16.5t-37.5 44.5t-8.5 58.5t10 65.5q3 9 19 63l-134 -22l25 94z" />
    <glyph glyph-name="uni02E0" unicode="&#x2e0;" horiz-adv-x="909" 
d="M1110 1364q-10 -8 -25 -23q-165 -121 -270 -213q66 -136 71.5 -235t-57.5 -154t-192 -53q-196 2 -195 94q1 103 258 346q-74 126 -153 226q-3 2 -15 20l97 64q16 -32 20 -37q73 -100 129 -201q46 42 236 205q6 5 17.5 16.5t17.5 16.5zM662 788q50 -1 80 25.5t34 86.5
t-41 157q-179 -174 -146 -239q15 -29 73 -30z" />
    <glyph glyph-name="uni02E1" unicode="&#x2e1;" horiz-adv-x="806" 
d="M123 0q1 4 24 91t36 135t42.5 157t54 190t59.5 197.5t68.5 216t72 210t79.5 214t82 195.5h217q-167 -442 -320.5 -910.5t-115.5 -468.5h268l-49 -227h-518z" />
    <glyph glyph-name="uni02E5" unicode="&#x2e5;" horiz-adv-x="1175" 
d="M1343 1268h7l-410 -1358h-229l419 1155l-679 2l55 203h837v-2z" />
    <glyph glyph-name="uni02E6" unicode="&#x2e6;" horiz-adv-x="1175" 
d="M1350 1268l-101 -330h6l-55 -205h-12l-248 -823h-229l299 823l-648 2l56 203h665l121 330h146z" />
    <glyph glyph-name="uni02E7" unicode="&#x2e7;" horiz-adv-x="1175" 
d="M1204 1268h146l-410 -1358h-229l211 577h-625l53 205h645z" />
    <glyph glyph-name="uni02E8" unicode="&#x2e8;" horiz-adv-x="1175" 
d="M1204 1268h146l-410 -1358h-229l120 330h-602l56 202l620 2z" />
    <glyph glyph-name="uni02E9" unicode="&#x2e9;" horiz-adv-x="1175" 
d="M1665 -88h-6v-2h-838l-55 203l680 2l-420 1155h229z" />
    <glyph glyph-name="uni02EC" unicode="&#x2ec;" horiz-adv-x="989" 
d="M338 -137l16 168l-65 469h104l103 -467l346 467h106l-334 -469l-71 -168h-205z" />
    <glyph glyph-name="uni02ED" unicode="&#x2ed;" horiz-adv-x="1253" 
d="M451 827l811 50l18 -158l-932 -35zM328 367l811 49l18 -158l-932 -35z" />
    <glyph glyph-name="uni02F3" unicode="&#x2f3;" horiz-adv-x="702" 
d="M199 -567q-77 0 -116 57t-17 139q22 80 91.5 137.5t145.5 57.5q78 0 117.5 -57.5t17.5 -137.5q-22 -82 -91.5 -139t-147.5 -57zM229 -455q22 0 34 1t29.5 7t29 17t23.5 32.5t20 53.5q12 44 -10.5 76t-65.5 32q-44 0 -83.5 -32t-51.5 -76q-8 -32 -8 -53.5t5 -32.5
t19.5 -17t25.5 -7t33 -1z" />
    <glyph glyph-name="gravecomb" unicode="&#x300;" 
d="M-444 1247l-179 230h162l285 -260z" />
    <glyph glyph-name="acutecomb" unicode="&#x301;" 
d="M131 1503h107l-191 -315h-158z" />
    <glyph glyph-name="uni0302" unicode="&#x302;" 
d="M-526 1518h98l47 -132l201 -268h-113l-246 203l-348 -203h-112l346 268z" />
    <glyph glyph-name="tildecomb" unicode="&#x303;" 
d="M-834 1186q61 184 115 245.5t162 61.5q38 0 65 -21t42 -51.5t27.5 -60.5t31 -51t43.5 -21t44 9t30.5 21t22 35.5t15.5 41t13.5 49.5t13.5 49h94q-21 -74 -40.5 -126.5t-40.5 -86.5t-38.5 -53.5t-43 -28.5t-45 -11t-52.5 -1q-41 1 -70 23t-45 53.5t-28 62.5t-27.5 53
t-36.5 23q-19 0 -36 -8t-30.5 -28.5t-23 -36t-20.5 -48.5t-15 -46t-14 -48h-113z" />
    <glyph glyph-name="uni0304" unicode="&#x304;" 
d="M-672 1315l811 49l19 -158l-932 -35z" />
    <glyph glyph-name="uni0305" unicode="&#x305;" 
d="M-772 1712l1073 45l25 -139l-1235 -31z" />
    <glyph glyph-name="uni0306" unicode="&#x306;" 
d="M98 1487h133q-33 -122 -116 -215.5t-189.5 -141t-218.5 -47.5q-171 0 -255 110t-34 294h136q-12 -44 -13.5 -77.5t9 -56.5t27.5 -38t46 -23t61 -11t76 -3q78 0 128.5 7.5t93.5 30t70.5 64t45.5 107.5z" />
    <glyph glyph-name="uni0307" unicode="&#x307;" 
d="M12 1442h209l-55 -207h-209z" />
    <glyph glyph-name="uni0308" unicode="&#x308;" 
d="M-547 1454h209l-55 -207h-209zM16 1454h209l-55 -207h-209z" />
    <glyph glyph-name="hookabovecomb" unicode="&#x309;" 
d="M-356 1186l-13 -43q63 26 101 26q22 0 36.5 -4.5t19.5 -11t3 -12.5q-5 -14 -33 -35l-26 -19q-7 -5 -17.5 -10.5t-16 -10t-9.5 -9.5q-7 -10 -15 -33l-2 -6h60q3 13 10 24q10 10 22 17l27 14q55 30 62 64t-21 53q-27 20 -76 20q-50 0 -112 -24z" />
    <glyph glyph-name="uni030A" unicode="&#x30a;" 
d="M-47 1135q-77 0 -116 57t-17 139q22 80 91.5 137.5t145.5 57.5q78 0 118 -57.5t18 -137.5q-22 -82 -92 -139t-148 -57zM-16 1247q27 0 42 2.5t35 12t34 33.5t24 63q12 44 -10.5 76t-65.5 32q-44 0 -83.5 -32t-51.5 -76q-8 -32 -8 -53.5t5 -32.5t19.5 -17t26 -7t33.5 -1z
" />
    <glyph glyph-name="uni030B" unicode="&#x30b;" 
d="M-729 1276l-268 -31l284 260h162zM-350 1276l-268 -31l284 260h162z" />
    <glyph glyph-name="uni030C" unicode="&#x30c;" 
d="M-621 1139l-57 131l-203 268h113l240 -203l354 203h113l-345 -268l-116 -131h-99z" />
    <glyph glyph-name="uni030F" unicode="&#x30f;" 
d="M-877 1276l-178 229h162l285 -260zM-498 1276l-178 229h162l285 -260z" />
    <glyph glyph-name="uni0312" unicode="&#x312;" 
d="M-221 1468h227l51 -178h-8l191 -299h-197z" />
    <glyph glyph-name="uni0313" unicode="&#x313;" 
d="M221 1440l-264 -477h-197l191 299h-8l51 178h227z" />
    <glyph glyph-name="uni0314" unicode="&#x314;" 
d="M-885 1440h228l51 -178h-8l190 -299h-197z" />
    <glyph glyph-name="uni0318" unicode="&#x318;" 
d="M-231 -248l-5 -14l-65 -246h-121l41 156h-188l26 104h191l41 154h121z" />
    <glyph glyph-name="uni0319" unicode="&#x319;" 
d="M-72 -352h-188l41 -156h-121l-66 246l-4 14l-41 154h121l41 -154h191z" />
    <glyph glyph-name="uni031A" unicode="&#x31a;" 
d="M242 1575l-2 -4h2l-97 -418h-188l80 311l-598 19l41 153z" />
    <glyph glyph-name="uni031B" unicode="&#x31b;" 
d="M-113 891l-20 94q26 14 59.5 29t48.5 26q10 7 19.5 17.5t16.5 21t14 24.5t11.5 24t9.5 25t7 22t5.5 20.5t4.5 15.5q7 25 3 62l96 -12q-4 -55 -8 -66q-17 -66 -55 -130t-93 -103q-10 -7 -27 -18.5t-23 -15.5t-18 -11t-23 -12.5t-28 -12.5z" />
    </font>
</defs>
</svg>
