<?xml version="1.0" encoding="UTF-8" standalone="no"?>
<!DOCTYPE svg PUBLIC "-//W3C//DTD SVG 1.1//EN"
 "http://www.w3.org/Graphics/SVG/1.1/DTD/svg11.dtd">
<!-- Generated by graphviz version 2.43.0 (0)
 -->
<!-- Title: %3 Pages: 1 -->
<svg width="673pt" height="274pt"
 viewBox="0.00 0.00 673.00 274.00" xmlns="http://www.w3.org/2000/svg" xmlns:xlink="http://www.w3.org/1999/xlink">
<g id="graph0" class="graph" transform="scale(1 1) rotate(0) translate(4 270)">
<title>%3</title>
<polygon fill="white" stroke="transparent" points="-4,4 -4,-270 669,-270 669,4 -4,4"/>
<text text-anchor="middle" x="332.5" y="-250.8" font-family="Times,serif" font-size="14.00">Scrolling through a file</text>
<!-- book -->
<g id="node1" class="node">
<title>book</title>
<polygon fill="none" stroke="black" points="0,-196.5 0,-242.5 665,-242.5 665,-196.5 0,-196.5"/>
<text text-anchor="start" x="8" y="-216.8" font-family="Times,serif" font-weight="bold" font-size="14.00">File</text>
<polyline fill="none" stroke="black" points="46,-196.5 46,-242.5 "/>
<text text-anchor="start" x="54" y="-215.8" font-family="Times,serif" font-size="14.00">Line 1</text>
<polyline fill="none" stroke="black" points="107,-196.5 107,-242.5 "/>
<text text-anchor="start" x="115" y="-227.3" font-family="Times,serif" font-size="14.00">Line 2</text>
<polyline fill="none" stroke="black" points="168,-219.5 168,-242.5 "/>
<text text-anchor="start" x="176" y="-227.3" font-family="Times,serif" font-size="14.00">Line 3</text>
<polyline fill="none" stroke="black" points="229,-219.5 229,-242.5 "/>
<text text-anchor="start" x="237" y="-227.3" font-family="Times,serif" font-size="14.00">Line 4</text>
<polyline fill="none" stroke="black" points="290,-219.5 290,-242.5 "/>
<text text-anchor="start" x="298" y="-227.3" font-family="Times,serif" font-size="14.00">Line 5</text>
<polyline fill="none" stroke="black" points="107,-219.5 351,-219.5 "/>
<text text-anchor="start" x="204" y="-204.3" font-family="Times,serif" font-size="14.00">Screen</text>
<polyline fill="none" stroke="black" points="351,-196.5 351,-242.5 "/>
<text text-anchor="start" x="359" y="-215.8" font-family="Times,serif" font-size="14.00">Line 6</text>
<polyline fill="none" stroke="black" points="412,-196.5 412,-242.5 "/>
<text text-anchor="start" x="420" y="-215.8" font-family="Times,serif" font-size="14.00">Line 7</text>
<polyline fill="none" stroke="black" points="473,-196.5 473,-242.5 "/>
<text text-anchor="start" x="481" y="-215.8" font-family="Times,serif" font-size="14.00">Line 8</text>
<polyline fill="none" stroke="black" points="534,-196.5 534,-242.5 "/>
<text text-anchor="start" x="542" y="-215.8" font-family="Times,serif" font-size="14.00">Line 9</text>
<polyline fill="none" stroke="black" points="595,-196.5 595,-242.5 "/>
<text text-anchor="start" x="603" y="-215.8" font-family="Times,serif" font-size="14.00">Line 10</text>
</g>
<!-- book2 -->
<g id="node2" class="node">
<title>book2</title>
<polygon fill="none" stroke="black" points="0,-98.5 0,-144.5 665,-144.5 665,-98.5 0,-98.5"/>
<text text-anchor="start" x="8" y="-118.8" font-family="Times,serif" font-weight="bold" font-size="14.00">File</text>
<polyline fill="none" stroke="black" points="46,-98.5 46,-144.5 "/>
<text text-anchor="start" x="54" y="-117.8" font-family="Times,serif" font-size="14.00">Line 1</text>
<polyline fill="none" stroke="black" points="107,-98.5 107,-144.5 "/>
<text text-anchor="start" x="115" y="-117.8" font-family="Times,serif" font-size="14.00">Line 2</text>
<polyline fill="none" stroke="black" points="168,-98.5 168,-144.5 "/>
<text text-anchor="start" x="176" y="-117.8" font-family="Times,serif" font-size="14.00">Line 3</text>
<polyline fill="none" stroke="black" points="229,-98.5 229,-144.5 "/>
<text text-anchor="start" x="237" y="-117.8" font-family="Times,serif" font-size="14.00">Line 4</text>
<polyline fill="none" stroke="black" points="290,-98.5 290,-144.5 "/>
<text text-anchor="start" x="298" y="-117.8" font-family="Times,serif" font-size="14.00">Line 5</text>
<polyline fill="none" stroke="black" points="351,-98.5 351,-144.5 "/>
<text text-anchor="start" x="359" y="-129.3" font-family="Times,serif" font-size="14.00">Line 6</text>
<polyline fill="none" stroke="black" points="412,-121.5 412,-144.5 "/>
<text text-anchor="start" x="420" y="-129.3" font-family="Times,serif" font-size="14.00">Line 7</text>
<polyline fill="none" stroke="black" points="473,-121.5 473,-144.5 "/>
<text text-anchor="start" x="481" y="-129.3" font-family="Times,serif" font-size="14.00">Line 8</text>
<polyline fill="none" stroke="black" points="534,-121.5 534,-144.5 "/>
<text text-anchor="start" x="542" y="-129.3" font-family="Times,serif" font-size="14.00">Line 9</text>
<polyline fill="none" stroke="black" points="351,-121.5 595,-121.5 "/>
<text text-anchor="start" x="448" y="-106.3" font-family="Times,serif" font-size="14.00">Screen</text>
<polyline fill="none" stroke="black" points="595,-98.5 595,-144.5 "/>
<text text-anchor="start" x="603" y="-117.8" font-family="Times,serif" font-size="14.00">Line 10</text>
</g>
<!-- book&#45;&gt;book2 -->
<g id="edge1" class="edge">
<title>book&#45;&gt;book2</title>
<path fill="none" stroke="black" d="M332.5,-196.23C332.5,-184 332.5,-168.59 332.5,-155.03"/>
<polygon fill="black" stroke="black" points="336,-154.64 332.5,-144.64 329,-154.64 336,-154.64"/>
<text text-anchor="middle" x="376" y="-166.8" font-family="Times,serif" font-size="14.00"> &#160;Page down</text>
</g>
<!-- book3 -->
<g id="node3" class="node">
<title>book3</title>
<polygon fill="none" stroke="black" points="0,-0.5 0,-46.5 665,-46.5 665,-0.5 0,-0.5"/>
<text text-anchor="start" x="8" y="-20.8" font-family="Times,serif" font-weight="bold" font-size="14.00">File</text>
<polyline fill="none" stroke="black" points="46,-0.5 46,-46.5 "/>
<text text-anchor="start" x="54" y="-19.8" font-family="Times,serif" font-size="14.00">Line 1</text>
<polyline fill="none" stroke="black" points="107,-0.5 107,-46.5 "/>
<text text-anchor="start" x="115" y="-19.8" font-family="Times,serif" font-size="14.00">Line 2</text>
<polyline fill="none" stroke="black" points="168,-0.5 168,-46.5 "/>
<text text-anchor="start" x="176" y="-19.8" font-family="Times,serif" font-size="14.00">Line 3</text>
<polyline fill="none" stroke="black" points="229,-0.5 229,-46.5 "/>
<text text-anchor="start" x="237" y="-31.3" font-family="Times,serif" font-size="14.00">Line 4</text>
<polyline fill="none" stroke="black" points="290,-23.5 290,-46.5 "/>
<text text-anchor="start" x="298" y="-31.3" font-family="Times,serif" font-size="14.00">Line 5</text>
<polyline fill="none" stroke="black" points="351,-23.5 351,-46.5 "/>
<text text-anchor="start" x="359" y="-31.3" font-family="Times,serif" font-size="14.00">Line 6</text>
<polyline fill="none" stroke="black" points="412,-23.5 412,-46.5 "/>
<text text-anchor="start" x="420" y="-31.3" font-family="Times,serif" font-size="14.00">Line 7</text>
<polyline fill="none" stroke="black" points="229,-23.5 473,-23.5 "/>
<text text-anchor="start" x="326" y="-8.3" font-family="Times,serif" font-size="14.00">Screen</text>
<polyline fill="none" stroke="black" points="473,-0.5 473,-46.5 "/>
<text text-anchor="start" x="481" y="-19.8" font-family="Times,serif" font-size="14.00">Line 8</text>
<polyline fill="none" stroke="black" points="534,-0.5 534,-46.5 "/>
<text text-anchor="start" x="542" y="-19.8" font-family="Times,serif" font-size="14.00">Line 9</text>
<polyline fill="none" stroke="black" points="595,-0.5 595,-46.5 "/>
<text text-anchor="start" x="603" y="-19.8" font-family="Times,serif" font-size="14.00">Line 10</text>
</g>
<!-- book2&#45;&gt;book3 -->
<g id="edge2" class="edge">
<title>book2&#45;&gt;book3</title>
<path fill="none" stroke="black" d="M332.5,-98.23C332.5,-86 332.5,-70.59 332.5,-57.03"/>
<polygon fill="black" stroke="black" points="336,-56.64 332.5,-46.64 329,-56.64 336,-56.64"/>
<text text-anchor="middle" x="377.5" y="-68.8" font-family="Times,serif" font-size="14.00"> &#160;Scroll Up 2</text>
</g>
</g>
</svg>
