<?xml version="1.0" encoding="UTF-8" standalone="no"?>
<!DOCTYPE svg PUBLIC "-//W3C//DTD SVG 1.1//EN"
 "http://www.w3.org/Graphics/SVG/1.1/DTD/svg11.dtd">
<!-- Generated by graphviz version 10.0.1 (20240210.2158)
 -->
<!-- Pages: 1 -->
<svg width="565pt" height="288pt"
 viewBox="0.00 0.00 565.00 287.50" xmlns="http://www.w3.org/2000/svg" xmlns:xlink="http://www.w3.org/1999/xlink">
<g id="graph0" class="graph" transform="scale(1 1) rotate(0) translate(4 283.5)">
<polygon fill="white" stroke="none" points="-4,4 -4,-283.5 561,-283.5 561,4 -4,4"/>
<text text-anchor="middle" x="278.5" y="-262.2" font-family="Times,serif" font-size="14.00">Scrolling through a file</text>
<!-- book -->
<g id="node1" class="node">
<title>book</title>
<polygon fill="none" stroke="black" points="0,-205.5 0,-254.5 557,-254.5 557,-205.5 0,-205.5"/>
<text text-anchor="start" x="8" y="-225.95" font-family="Times,serif" font-weight="bold" font-size="14.00">File</text>
<polyline fill="none" stroke="black" points="37.75,-205.5 37.75,-254.5"/>
<text text-anchor="start" x="45.75" y="-224.95" font-family="Times,serif" font-size="14.00">Line 1</text>
<polyline fill="none" stroke="black" points="89,-205.5 89,-254.5"/>
<text text-anchor="start" x="97" y="-237.2" font-family="Times,serif" font-size="14.00">Line 2</text>
<polyline fill="none" stroke="black" points="140.25,-230 140.25,-254.5"/>
<text text-anchor="start" x="148.25" y="-237.2" font-family="Times,serif" font-size="14.00">Line 3</text>
<polyline fill="none" stroke="black" points="191.5,-230 191.5,-254.5"/>
<text text-anchor="start" x="199.5" y="-237.2" font-family="Times,serif" font-size="14.00">Line 4</text>
<polyline fill="none" stroke="black" points="242.75,-230 242.75,-254.5"/>
<text text-anchor="start" x="250.75" y="-237.2" font-family="Times,serif" font-size="14.00">Line 5</text>
<polyline fill="none" stroke="black" points="89,-230 294,-230"/>
<text text-anchor="start" x="173.12" y="-212.7" font-family="Times,serif" font-size="14.00">Screen</text>
<polyline fill="none" stroke="black" points="294,-205.5 294,-254.5"/>
<text text-anchor="start" x="302" y="-224.95" font-family="Times,serif" font-size="14.00">Line 6</text>
<polyline fill="none" stroke="black" points="345.25,-205.5 345.25,-254.5"/>
<text text-anchor="start" x="353.25" y="-224.95" font-family="Times,serif" font-size="14.00">Line 7</text>
<polyline fill="none" stroke="black" points="396.5,-205.5 396.5,-254.5"/>
<text text-anchor="start" x="404.5" y="-224.95" font-family="Times,serif" font-size="14.00">Line 8</text>
<polyline fill="none" stroke="black" points="447.75,-205.5 447.75,-254.5"/>
<text text-anchor="start" x="455.75" y="-224.95" font-family="Times,serif" font-size="14.00">Line 9</text>
<polyline fill="none" stroke="black" points="499,-205.5 499,-254.5"/>
<text text-anchor="start" x="507" y="-224.95" font-family="Times,serif" font-size="14.00">Line 10</text>
</g>
<!-- book2 -->
<g id="node2" class="node">
<title>book2</title>
<polygon fill="none" stroke="black" points="0,-103 0,-152 557,-152 557,-103 0,-103"/>
<text text-anchor="start" x="8" y="-123.45" font-family="Times,serif" font-weight="bold" font-size="14.00">File</text>
<polyline fill="none" stroke="black" points="37.75,-103 37.75,-152"/>
<text text-anchor="start" x="45.75" y="-122.45" font-family="Times,serif" font-size="14.00">Line 1</text>
<polyline fill="none" stroke="black" points="89,-103 89,-152"/>
<text text-anchor="start" x="97" y="-122.45" font-family="Times,serif" font-size="14.00">Line 2</text>
<polyline fill="none" stroke="black" points="140.25,-103 140.25,-152"/>
<text text-anchor="start" x="148.25" y="-122.45" font-family="Times,serif" font-size="14.00">Line 3</text>
<polyline fill="none" stroke="black" points="191.5,-103 191.5,-152"/>
<text text-anchor="start" x="199.5" y="-122.45" font-family="Times,serif" font-size="14.00">Line 4</text>
<polyline fill="none" stroke="black" points="242.75,-103 242.75,-152"/>
<text text-anchor="start" x="250.75" y="-122.45" font-family="Times,serif" font-size="14.00">Line 5</text>
<polyline fill="none" stroke="black" points="294,-103 294,-152"/>
<text text-anchor="start" x="302" y="-134.7" font-family="Times,serif" font-size="14.00">Line 6</text>
<polyline fill="none" stroke="black" points="345.25,-127.5 345.25,-152"/>
<text text-anchor="start" x="353.25" y="-134.7" font-family="Times,serif" font-size="14.00">Line 7</text>
<polyline fill="none" stroke="black" points="396.5,-127.5 396.5,-152"/>
<text text-anchor="start" x="404.5" y="-134.7" font-family="Times,serif" font-size="14.00">Line 8</text>
<polyline fill="none" stroke="black" points="447.75,-127.5 447.75,-152"/>
<text text-anchor="start" x="455.75" y="-134.7" font-family="Times,serif" font-size="14.00">Line 9</text>
<polyline fill="none" stroke="black" points="294,-127.5 499,-127.5"/>
<text text-anchor="start" x="378.12" y="-110.2" font-family="Times,serif" font-size="14.00">Screen</text>
<polyline fill="none" stroke="black" points="499,-103 499,-152"/>
<text text-anchor="start" x="507" y="-122.45" font-family="Times,serif" font-size="14.00">Line 10</text>
</g>
<!-- book&#45;&gt;book2 -->
<g id="edge1" class="edge">
<title>book&#45;&gt;book2</title>
<path fill="none" stroke="black" d="M278.5,-205.18C278.5,-192.88 278.5,-177.63 278.5,-163.97"/>
<polygon fill="black" stroke="black" points="282,-164.01 278.5,-154.01 275,-164.01 282,-164.01"/>
<text text-anchor="middle" x="312.25" y="-173.7" font-family="Times,serif" font-size="14.00"> &#160;Page down</text>
</g>
<!-- book3 -->
<g id="node3" class="node">
<title>book3</title>
<polygon fill="none" stroke="black" points="0,-0.5 0,-49.5 557,-49.5 557,-0.5 0,-0.5"/>
<text text-anchor="start" x="8" y="-20.95" font-family="Times,serif" font-weight="bold" font-size="14.00">File</text>
<polyline fill="none" stroke="black" points="37.75,-0.5 37.75,-49.5"/>
<text text-anchor="start" x="45.75" y="-19.95" font-family="Times,serif" font-size="14.00">Line 1</text>
<polyline fill="none" stroke="black" points="89,-0.5 89,-49.5"/>
<text text-anchor="start" x="97" y="-19.95" font-family="Times,serif" font-size="14.00">Line 2</text>
<polyline fill="none" stroke="black" points="140.25,-0.5 140.25,-49.5"/>
<text text-anchor="start" x="148.25" y="-19.95" font-family="Times,serif" font-size="14.00">Line 3</text>
<polyline fill="none" stroke="black" points="191.5,-0.5 191.5,-49.5"/>
<text text-anchor="start" x="199.5" y="-32.2" font-family="Times,serif" font-size="14.00">Line 4</text>
<polyline fill="none" stroke="black" points="242.75,-25 242.75,-49.5"/>
<text text-anchor="start" x="250.75" y="-32.2" font-family="Times,serif" font-size="14.00">Line 5</text>
<polyline fill="none" stroke="black" points="294,-25 294,-49.5"/>
<text text-anchor="start" x="302" y="-32.2" font-family="Times,serif" font-size="14.00">Line 6</text>
<polyline fill="none" stroke="black" points="345.25,-25 345.25,-49.5"/>
<text text-anchor="start" x="353.25" y="-32.2" font-family="Times,serif" font-size="14.00">Line 7</text>
<polyline fill="none" stroke="black" points="191.5,-25 396.5,-25"/>
<text text-anchor="start" x="275.62" y="-7.7" font-family="Times,serif" font-size="14.00">Screen</text>
<polyline fill="none" stroke="black" points="396.5,-0.5 396.5,-49.5"/>
<text text-anchor="start" x="404.5" y="-19.95" font-family="Times,serif" font-size="14.00">Line 8</text>
<polyline fill="none" stroke="black" points="447.75,-0.5 447.75,-49.5"/>
<text text-anchor="start" x="455.75" y="-19.95" font-family="Times,serif" font-size="14.00">Line 9</text>
<polyline fill="none" stroke="black" points="499,-0.5 499,-49.5"/>
<text text-anchor="start" x="507" y="-19.95" font-family="Times,serif" font-size="14.00">Line 10</text>
</g>
<!-- book2&#45;&gt;book3 -->
<g id="edge2" class="edge">
<title>book2&#45;&gt;book3</title>
<path fill="none" stroke="black" d="M278.5,-102.68C278.5,-90.38 278.5,-75.13 278.5,-61.47"/>
<polygon fill="black" stroke="black" points="282,-61.51 278.5,-51.51 275,-61.51 282,-61.51"/>
<text text-anchor="middle" x="313.75" y="-71.2" font-family="Times,serif" font-size="14.00"> &#160;Scroll Up 2</text>
</g>
</g>
</svg>
