<?xml version="1.0" encoding="UTF-8" standalone="no"?>
<!DOCTYPE svg PUBLIC "-//W3C//DTD SVG 1.1//EN"
 "http://www.w3.org/Graphics/SVG/1.1/DTD/svg11.dtd">
<!-- Generated by graphviz version 6.0.1 (20220911.1526)
 -->
<!-- Pages: 1 -->
<svg width="573pt" height="274pt"
 viewBox="0.00 0.00 573.00 274.00" xmlns="http://www.w3.org/2000/svg" xmlns:xlink="http://www.w3.org/1999/xlink">
<g id="graph0" class="graph" transform="scale(1 1) rotate(0) translate(4 270)">
<polygon fill="white" stroke="none" points="-4,4 -4,-270 569,-270 569,4 -4,4"/>
<text text-anchor="middle" x="282.5" y="-250.8" font-family="Times,serif" font-size="14.00">Scrolling through a file</text>
<!-- book -->
<g id="node1" class="node">
<title>book</title>
<polygon fill="none" stroke="black" points="0,-196.5 0,-242.5 565,-242.5 565,-196.5 0,-196.5"/>
<text text-anchor="start" x="8" y="-216.8" font-family="Times,serif" font-weight="bold" font-size="14.00">File</text>
<polyline fill="none" stroke="black" points="38,-196.5 38,-242.5"/>
<text text-anchor="start" x="46" y="-215.8" font-family="Times,serif" font-size="14.00">Line 1</text>
<polyline fill="none" stroke="black" points="90,-196.5 90,-242.5"/>
<text text-anchor="start" x="98" y="-227.3" font-family="Times,serif" font-size="14.00">Line 2</text>
<polyline fill="none" stroke="black" points="142,-219.5 142,-242.5"/>
<text text-anchor="start" x="150" y="-227.3" font-family="Times,serif" font-size="14.00">Line 3</text>
<polyline fill="none" stroke="black" points="194,-219.5 194,-242.5"/>
<text text-anchor="start" x="202" y="-227.3" font-family="Times,serif" font-size="14.00">Line 4</text>
<polyline fill="none" stroke="black" points="246,-219.5 246,-242.5"/>
<text text-anchor="start" x="254" y="-227.3" font-family="Times,serif" font-size="14.00">Line 5</text>
<polyline fill="none" stroke="black" points="90,-219.5 298,-219.5"/>
<text text-anchor="start" x="175.5" y="-204.3" font-family="Times,serif" font-size="14.00">Screen</text>
<polyline fill="none" stroke="black" points="298,-196.5 298,-242.5"/>
<text text-anchor="start" x="306" y="-215.8" font-family="Times,serif" font-size="14.00">Line 6</text>
<polyline fill="none" stroke="black" points="350,-196.5 350,-242.5"/>
<text text-anchor="start" x="358" y="-215.8" font-family="Times,serif" font-size="14.00">Line 7</text>
<polyline fill="none" stroke="black" points="402,-196.5 402,-242.5"/>
<text text-anchor="start" x="410" y="-215.8" font-family="Times,serif" font-size="14.00">Line 8</text>
<polyline fill="none" stroke="black" points="454,-196.5 454,-242.5"/>
<text text-anchor="start" x="462" y="-215.8" font-family="Times,serif" font-size="14.00">Line 9</text>
<polyline fill="none" stroke="black" points="506,-196.5 506,-242.5"/>
<text text-anchor="start" x="514" y="-215.8" font-family="Times,serif" font-size="14.00">Line 10</text>
</g>
<!-- book2 -->
<g id="node2" class="node">
<title>book2</title>
<polygon fill="none" stroke="black" points="0,-98.5 0,-144.5 565,-144.5 565,-98.5 0,-98.5"/>
<text text-anchor="start" x="8" y="-118.8" font-family="Times,serif" font-weight="bold" font-size="14.00">File</text>
<polyline fill="none" stroke="black" points="38,-98.5 38,-144.5"/>
<text text-anchor="start" x="46" y="-117.8" font-family="Times,serif" font-size="14.00">Line 1</text>
<polyline fill="none" stroke="black" points="90,-98.5 90,-144.5"/>
<text text-anchor="start" x="98" y="-117.8" font-family="Times,serif" font-size="14.00">Line 2</text>
<polyline fill="none" stroke="black" points="142,-98.5 142,-144.5"/>
<text text-anchor="start" x="150" y="-117.8" font-family="Times,serif" font-size="14.00">Line 3</text>
<polyline fill="none" stroke="black" points="194,-98.5 194,-144.5"/>
<text text-anchor="start" x="202" y="-117.8" font-family="Times,serif" font-size="14.00">Line 4</text>
<polyline fill="none" stroke="black" points="246,-98.5 246,-144.5"/>
<text text-anchor="start" x="254" y="-117.8" font-family="Times,serif" font-size="14.00">Line 5</text>
<polyline fill="none" stroke="black" points="298,-98.5 298,-144.5"/>
<text text-anchor="start" x="306" y="-129.3" font-family="Times,serif" font-size="14.00">Line 6</text>
<polyline fill="none" stroke="black" points="350,-121.5 350,-144.5"/>
<text text-anchor="start" x="358" y="-129.3" font-family="Times,serif" font-size="14.00">Line 7</text>
<polyline fill="none" stroke="black" points="402,-121.5 402,-144.5"/>
<text text-anchor="start" x="410" y="-129.3" font-family="Times,serif" font-size="14.00">Line 8</text>
<polyline fill="none" stroke="black" points="454,-121.5 454,-144.5"/>
<text text-anchor="start" x="462" y="-129.3" font-family="Times,serif" font-size="14.00">Line 9</text>
<polyline fill="none" stroke="black" points="298,-121.5 506,-121.5"/>
<text text-anchor="start" x="383.5" y="-106.3" font-family="Times,serif" font-size="14.00">Screen</text>
<polyline fill="none" stroke="black" points="506,-98.5 506,-144.5"/>
<text text-anchor="start" x="514" y="-117.8" font-family="Times,serif" font-size="14.00">Line 10</text>
</g>
<!-- book&#45;&gt;book2 -->
<g id="edge1" class="edge">
<title>book&#45;&gt;book2</title>
<path fill="none" stroke="black" d="M282.5,-196.23C282.5,-184 282.5,-168.59 282.5,-155.03"/>
<polygon fill="black" stroke="black" points="286,-154.64 282.5,-144.64 279,-154.64 286,-154.64"/>
<text text-anchor="middle" x="316.5" y="-166.8" font-family="Times,serif" font-size="14.00"> &#160;Page down</text>
</g>
<!-- book3 -->
<g id="node3" class="node">
<title>book3</title>
<polygon fill="none" stroke="black" points="0,-0.5 0,-46.5 565,-46.5 565,-0.5 0,-0.5"/>
<text text-anchor="start" x="8" y="-20.8" font-family="Times,serif" font-weight="bold" font-size="14.00">File</text>
<polyline fill="none" stroke="black" points="38,-0.5 38,-46.5"/>
<text text-anchor="start" x="46" y="-19.8" font-family="Times,serif" font-size="14.00">Line 1</text>
<polyline fill="none" stroke="black" points="90,-0.5 90,-46.5"/>
<text text-anchor="start" x="98" y="-19.8" font-family="Times,serif" font-size="14.00">Line 2</text>
<polyline fill="none" stroke="black" points="142,-0.5 142,-46.5"/>
<text text-anchor="start" x="150" y="-19.8" font-family="Times,serif" font-size="14.00">Line 3</text>
<polyline fill="none" stroke="black" points="194,-0.5 194,-46.5"/>
<text text-anchor="start" x="202" y="-31.3" font-family="Times,serif" font-size="14.00">Line 4</text>
<polyline fill="none" stroke="black" points="246,-23.5 246,-46.5"/>
<text text-anchor="start" x="254" y="-31.3" font-family="Times,serif" font-size="14.00">Line 5</text>
<polyline fill="none" stroke="black" points="298,-23.5 298,-46.5"/>
<text text-anchor="start" x="306" y="-31.3" font-family="Times,serif" font-size="14.00">Line 6</text>
<polyline fill="none" stroke="black" points="350,-23.5 350,-46.5"/>
<text text-anchor="start" x="358" y="-31.3" font-family="Times,serif" font-size="14.00">Line 7</text>
<polyline fill="none" stroke="black" points="194,-23.5 402,-23.5"/>
<text text-anchor="start" x="279.5" y="-8.3" font-family="Times,serif" font-size="14.00">Screen</text>
<polyline fill="none" stroke="black" points="402,-0.5 402,-46.5"/>
<text text-anchor="start" x="410" y="-19.8" font-family="Times,serif" font-size="14.00">Line 8</text>
<polyline fill="none" stroke="black" points="454,-0.5 454,-46.5"/>
<text text-anchor="start" x="462" y="-19.8" font-family="Times,serif" font-size="14.00">Line 9</text>
<polyline fill="none" stroke="black" points="506,-0.5 506,-46.5"/>
<text text-anchor="start" x="514" y="-19.8" font-family="Times,serif" font-size="14.00">Line 10</text>
</g>
<!-- book2&#45;&gt;book3 -->
<g id="edge2" class="edge">
<title>book2&#45;&gt;book3</title>
<path fill="none" stroke="black" d="M282.5,-98.23C282.5,-86 282.5,-70.59 282.5,-57.03"/>
<polygon fill="black" stroke="black" points="286,-56.64 282.5,-46.64 279,-56.64 286,-56.64"/>
<text text-anchor="middle" x="318" y="-68.8" font-family="Times,serif" font-size="14.00"> &#160;Scroll Up 2</text>
</g>
</g>
</svg>
