<?xml version="1.0" encoding="UTF-8" standalone="no"?>
<!DOCTYPE svg PUBLIC "-//W3C//DTD SVG 1.1//EN"
 "http://www.w3.org/Graphics/SVG/1.1/DTD/svg11.dtd">
<!-- Generated by graphviz version 12.1.2 (20240928.0832)
 -->
<!-- Pages: 1 -->
<svg width="332pt" height="44pt"
 viewBox="0.00 0.00 332.00 44.00" xmlns="http://www.w3.org/2000/svg" xmlns:xlink="http://www.w3.org/1999/xlink">
<g id="graph0" class="graph" transform="scale(1 1) rotate(0) translate(4 40)">
<polygon fill="white" stroke="none" points="-4,4 -4,-40 328,-40 328,4 -4,4"/>
<!-- a -->
<g id="node1" class="node">
<title>a</title>
<ellipse fill="none" stroke="black" cx="27" cy="-18" rx="27" ry="18"/>
<text text-anchor="middle" x="27" y="-12.95" font-family="Times,serif" font-size="14.00">a</text>
</g>
<!-- b -->
<g id="node2" class="node">
<title>b</title>
<ellipse fill="none" stroke="black" cx="117" cy="-18" rx="27" ry="18"/>
<text text-anchor="middle" x="117" y="-12.95" font-family="Times,serif" font-size="14.00">b</text>
</g>
<!-- a&#45;&gt;b -->
<g id="edge1" class="edge">
<title>a&#45;&gt;b</title>
<path fill="none" stroke="black" d="M52.51,-11.88C61.02,-11.29 70.75,-11.12 80,-11.35"/>
<polygon fill="black" stroke="black" points="79.65,-14.84 89.8,-11.8 79.97,-7.85 79.65,-14.84"/>
</g>
<!-- b&#45;&gt;a -->
<g id="edge6" class="edge">
<title>b&#45;&gt;a</title>
<path fill="none" stroke="black" d="M91.31,-24.14C82.79,-24.71 73.05,-24.88 63.82,-24.65"/>
<polygon fill="black" stroke="black" points="64.18,-21.16 54.02,-24.19 63.85,-28.15 64.18,-21.16"/>
</g>
<!-- c -->
<g id="node3" class="node">
<title>c</title>
<ellipse fill="none" stroke="black" cx="207" cy="-18" rx="27" ry="18"/>
<text text-anchor="middle" x="207" y="-12.95" font-family="Times,serif" font-size="14.00">c</text>
</g>
<!-- b&#45;&gt;c -->
<g id="edge2" class="edge">
<title>b&#45;&gt;c</title>
<path fill="none" stroke="black" d="M142.51,-11.88C151.02,-11.29 160.75,-11.12 170,-11.35"/>
<polygon fill="black" stroke="black" points="169.65,-14.84 179.8,-11.8 169.97,-7.85 169.65,-14.84"/>
</g>
<!-- c&#45;&gt;b -->
<g id="edge5" class="edge">
<title>c&#45;&gt;b</title>
<path fill="none" stroke="black" d="M181.31,-24.14C172.79,-24.71 163.05,-24.88 153.82,-24.65"/>
<polygon fill="black" stroke="black" points="154.18,-21.16 144.02,-24.19 153.85,-28.15 154.18,-21.16"/>
</g>
<!-- d -->
<g id="node4" class="node">
<title>d</title>
<ellipse fill="none" stroke="black" cx="297" cy="-18" rx="27" ry="18"/>
<text text-anchor="middle" x="297" y="-12.95" font-family="Times,serif" font-size="14.00">d</text>
</g>
<!-- c&#45;&gt;d -->
<g id="edge3" class="edge">
<title>c&#45;&gt;d</title>
<path fill="none" stroke="black" d="M232.51,-11.88C241.02,-11.29 250.75,-11.12 260,-11.35"/>
<polygon fill="black" stroke="black" points="259.65,-14.84 269.8,-11.8 259.97,-7.85 259.65,-14.84"/>
</g>
<!-- d&#45;&gt;c -->
<g id="edge4" class="edge">
<title>d&#45;&gt;c</title>
<path fill="none" stroke="black" d="M271.31,-24.14C262.79,-24.71 253.05,-24.88 243.82,-24.65"/>
<polygon fill="black" stroke="black" points="244.18,-21.16 234.02,-24.19 243.85,-28.15 244.18,-21.16"/>
</g>
</g>
</svg>
