<?xml version="1.0" encoding="UTF-8" standalone="no"?>
<!DOCTYPE svg PUBLIC "-//W3C//DTD SVG 1.1//EN"
 "http://www.w3.org/Graphics/SVG/1.1/DTD/svg11.dtd">
<!-- Generated by graphviz version 8.1.0 (20230707.0739)
 -->
<!-- Pages: 1 -->
<svg width="332pt" height="44pt"
 viewBox="0.00 0.00 332.00 44.00" xmlns="http://www.w3.org/2000/svg" xmlns:xlink="http://www.w3.org/1999/xlink">
<g id="graph0" class="graph" transform="scale(1 1) rotate(0) translate(4 40)">
<polygon fill="white" stroke="none" points="-4,4 -4,-40 328,-40 328,4 -4,4"/>
<!-- a -->
<g id="node1" class="node">
<title>a</title>
<ellipse fill="none" stroke="black" cx="27" cy="-18" rx="27" ry="18"/>
<text text-anchor="middle" x="27" y="-12.95" font-family="Times,serif" font-size="14.00">a</text>
</g>
<!-- b -->
<g id="node2" class="node">
<title>b</title>
<ellipse fill="none" stroke="black" cx="117" cy="-18" rx="27" ry="18"/>
<text text-anchor="middle" x="117" y="-12.95" font-family="Times,serif" font-size="14.00">b</text>
</g>
<!-- a&#45;&gt;b -->
<g id="edge1" class="edge">
<title>a&#45;&gt;b</title>
<path fill="none" stroke="black" d="M52.51,-11.88C61.21,-11.28 71.19,-11.11 80.61,-11.37"/>
<polygon fill="black" stroke="black" points="80.16,-14.9 90.31,-11.86 80.49,-7.9 80.16,-14.9"/>
</g>
<!-- b&#45;&gt;a -->
<g id="edge6" class="edge">
<title>b&#45;&gt;a</title>
<path fill="none" stroke="black" d="M91.31,-24.14C82.6,-24.73 72.62,-24.89 63.2,-24.63"/>
<polygon fill="black" stroke="black" points="63.67,-21.1 53.51,-24.12 63.34,-28.09 63.67,-21.1"/>
</g>
<!-- c -->
<g id="node3" class="node">
<title>c</title>
<ellipse fill="none" stroke="black" cx="207" cy="-18" rx="27" ry="18"/>
<text text-anchor="middle" x="207" y="-12.95" font-family="Times,serif" font-size="14.00">c</text>
</g>
<!-- b&#45;&gt;c -->
<g id="edge2" class="edge">
<title>b&#45;&gt;c</title>
<path fill="none" stroke="black" d="M142.51,-11.88C151.21,-11.28 161.19,-11.11 170.61,-11.37"/>
<polygon fill="black" stroke="black" points="170.16,-14.9 180.31,-11.86 170.49,-7.9 170.16,-14.9"/>
</g>
<!-- c&#45;&gt;b -->
<g id="edge5" class="edge">
<title>c&#45;&gt;b</title>
<path fill="none" stroke="black" d="M181.31,-24.14C172.6,-24.73 162.62,-24.89 153.2,-24.63"/>
<polygon fill="black" stroke="black" points="153.67,-21.1 143.51,-24.12 153.34,-28.09 153.67,-21.1"/>
</g>
<!-- d -->
<g id="node4" class="node">
<title>d</title>
<ellipse fill="none" stroke="black" cx="297" cy="-18" rx="27" ry="18"/>
<text text-anchor="middle" x="297" y="-12.95" font-family="Times,serif" font-size="14.00">d</text>
</g>
<!-- c&#45;&gt;d -->
<g id="edge3" class="edge">
<title>c&#45;&gt;d</title>
<path fill="none" stroke="black" d="M232.51,-11.88C241.21,-11.28 251.19,-11.11 260.61,-11.37"/>
<polygon fill="black" stroke="black" points="260.16,-14.9 270.31,-11.86 260.49,-7.9 260.16,-14.9"/>
</g>
<!-- d&#45;&gt;c -->
<g id="edge4" class="edge">
<title>d&#45;&gt;c</title>
<path fill="none" stroke="black" d="M271.31,-24.14C262.6,-24.73 252.62,-24.89 243.2,-24.63"/>
<polygon fill="black" stroke="black" points="243.67,-21.1 233.51,-24.12 243.34,-28.09 243.67,-21.1"/>
</g>
</g>
</svg>
