<?xml version="1.0" encoding="UTF-8" standalone="no"?>
<!DOCTYPE svg PUBLIC "-//W3C//DTD SVG 1.1//EN"
 "http://www.w3.org/Graphics/SVG/1.1/DTD/svg11.dtd">
<!-- Generated by graphviz version 8.1.0 (20230707.0739)
 -->
<!-- Pages: 1 -->
<svg width="173pt" height="206pt"
 viewBox="0.00 0.00 173.24 206.00" xmlns="http://www.w3.org/2000/svg" xmlns:xlink="http://www.w3.org/1999/xlink">
<g id="graph0" class="graph" transform="scale(1 1) rotate(0) translate(4 202)">
<polygon fill="white" stroke="none" points="-4,4 -4,-202 169.24,-202 169.24,4 -4,4"/>
<!-- ID:2 -->
<g id="node1" class="node">
<title>ID:2</title>
<polygon fill="none" stroke="black" points="56.12,-144 1.12,-144 1.12,-108 56.12,-108 56.12,-144"/>
<text text-anchor="middle" x="28.62" y="-120.95" font-family="Times,serif" font-size="14.00">ID F32</text>
</g>
<!-- ID:3 -->
<g id="node2" class="node">
<title>ID:3</title>
<polygon fill="none" stroke="black" points="57.25,-90 0,-90 0,-54 57.25,-54 57.25,-90"/>
<text text-anchor="middle" x="28.62" y="-66.95" font-family="Times,serif" font-size="14.00">ID G99</text>
</g>
<!-- ID:2&#45;&gt;ID:3 -->
<g id="edge11" class="edge">
<title>ID:2&#45;&gt;ID:3</title>
<path fill="none" stroke="black" d="M9.29,-107.51C8.16,-105.25 7.47,-102.99 7.24,-100.73"/>
<polygon fill="black" stroke="black" points="10.84,-101.65 9.47,-91.14 3.99,-100.21 10.84,-101.65"/>
</g>
<!-- ID:1 -->
<g id="node4" class="node">
<title>ID:1</title>
<polygon fill="none" stroke="black" points="57.25,-198 0,-198 0,-162 57.25,-162 57.25,-198"/>
<text text-anchor="middle" x="28.62" y="-174.95" font-family="Times,serif" font-size="14.00">ID G72</text>
</g>
<!-- ID:2&#45;&gt;ID:1 -->
<g id="edge9" class="edge">
<title>ID:2&#45;&gt;ID:1</title>
<path fill="none" stroke="black" d="M47.03,-144.14C48.16,-146.4 48.86,-148.66 49.13,-150.93"/>
<polygon fill="black" stroke="black" points="45.55,-150.04 47.2,-160.51 52.44,-151.3 45.55,-150.04"/>
</g>
<!-- Page 2 -->
<g id="node7" class="node">
<title>Page 2</title>
<ellipse fill="none" stroke="black" cx="129.25" cy="-126" rx="36" ry="18"/>
<text text-anchor="middle" x="129.25" y="-120.95" font-family="Times,serif" font-size="14.00">Page 2</text>
</g>
<!-- ID:2&#45;&gt;Page 2 -->
<g id="edge14" class="edge">
<title>ID:2&#45;&gt;Page 2</title>
<path fill="none" stroke="black" d="M56.57,-126C64.43,-126 73.25,-126 81.95,-126"/>
<polygon fill="black" stroke="black" points="81.82,-129.5 91.82,-126 81.82,-122.5 81.82,-129.5"/>
</g>
<!-- ID:3&#45;&gt;ID:2 -->
<g id="edge8" class="edge">
<title>ID:3&#45;&gt;ID:2</title>
<path fill="none" stroke="black" d="M47.78,-90.14C48.96,-92.4 49.69,-94.66 49.97,-96.93"/>
<polygon fill="black" stroke="black" points="46.38,-96.03 47.96,-106.51 53.26,-97.34 46.38,-96.03"/>
</g>
<!-- ID:4 -->
<g id="node3" class="node">
<title>ID:4</title>
<polygon fill="none" stroke="black" points="57.25,-36 0,-36 0,0 57.25,0 57.25,-36"/>
<text text-anchor="middle" x="28.62" y="-12.95" font-family="Times,serif" font-size="14.00">ID D42</text>
</g>
<!-- ID:3&#45;&gt;ID:4 -->
<g id="edge12" class="edge">
<title>ID:3&#45;&gt;ID:4</title>
<path fill="none" stroke="black" d="M9.29,-53.51C8.16,-51.25 7.47,-48.99 7.24,-46.73"/>
<polygon fill="black" stroke="black" points="10.84,-47.65 9.47,-37.14 3.99,-46.21 10.84,-47.65"/>
</g>
<!-- Page 3 -->
<g id="node6" class="node">
<title>Page 3</title>
<ellipse fill="none" stroke="black" cx="129.25" cy="-72" rx="36" ry="18"/>
<text text-anchor="middle" x="129.25" y="-66.95" font-family="Times,serif" font-size="14.00">Page 3</text>
</g>
<!-- ID:3&#45;&gt;Page 3 -->
<g id="edge15" class="edge">
<title>ID:3&#45;&gt;Page 3</title>
<path fill="none" stroke="black" d="M57.62,-72C65.22,-72 73.66,-72 81.99,-72"/>
<polygon fill="black" stroke="black" points="81.78,-75.5 91.78,-72 81.78,-68.5 81.78,-75.5"/>
</g>
<!-- ID:4&#45;&gt;ID:3 -->
<g id="edge7" class="edge">
<title>ID:4&#45;&gt;ID:3</title>
<path fill="none" stroke="black" d="M47.78,-36.14C48.96,-38.4 49.69,-40.66 49.97,-42.93"/>
<polygon fill="black" stroke="black" points="46.38,-42.03 47.96,-52.51 53.26,-43.34 46.38,-42.03"/>
</g>
<!-- Page 4 -->
<g id="node5" class="node">
<title>Page 4</title>
<ellipse fill="none" stroke="black" cx="129.25" cy="-18" rx="36" ry="18"/>
<text text-anchor="middle" x="129.25" y="-12.95" font-family="Times,serif" font-size="14.00">Page 4</text>
</g>
<!-- ID:4&#45;&gt;Page 4 -->
<g id="edge16" class="edge">
<title>ID:4&#45;&gt;Page 4</title>
<path fill="none" stroke="black" d="M57.62,-18C65.22,-18 73.66,-18 81.99,-18"/>
<polygon fill="black" stroke="black" points="81.78,-21.5 91.78,-18 81.78,-14.5 81.78,-21.5"/>
</g>
<!-- ID:1&#45;&gt;ID:2 -->
<g id="edge10" class="edge">
<title>ID:1&#45;&gt;ID:2</title>
<path fill="none" stroke="black" d="M10.05,-161.51C8.96,-159.25 8.3,-156.99 8.08,-154.73"/>
<polygon fill="black" stroke="black" points="11.67,-155.64 10.22,-145.14 4.81,-154.25 11.67,-155.64"/>
</g>
<!-- Page 1 -->
<g id="node8" class="node">
<title>Page 1</title>
<ellipse fill="none" stroke="black" cx="129.25" cy="-180" rx="36" ry="18"/>
<text text-anchor="middle" x="129.25" y="-174.95" font-family="Times,serif" font-size="14.00">Page 1</text>
</g>
<!-- ID:1&#45;&gt;Page 1 -->
<g id="edge13" class="edge">
<title>ID:1&#45;&gt;Page 1</title>
<path fill="none" stroke="black" d="M57.62,-180C65.22,-180 73.66,-180 81.99,-180"/>
<polygon fill="black" stroke="black" points="81.78,-183.5 91.78,-180 81.78,-176.5 81.78,-183.5"/>
</g>
<!-- Page 4&#45;&gt;Page 3 -->
<g id="edge1" class="edge">
<title>Page 4&#45;&gt;Page 3</title>
</g>
<!-- Page 3&#45;&gt;Page 4 -->
<g id="edge6" class="edge">
<title>Page 3&#45;&gt;Page 4</title>
</g>
<!-- Page 3&#45;&gt;Page 2 -->
<g id="edge2" class="edge">
<title>Page 3&#45;&gt;Page 2</title>
</g>
<!-- Page 2&#45;&gt;Page 3 -->
<g id="edge5" class="edge">
<title>Page 2&#45;&gt;Page 3</title>
</g>
<!-- Page 2&#45;&gt;Page 1 -->
<g id="edge3" class="edge">
<title>Page 2&#45;&gt;Page 1</title>
</g>
<!-- Page 1&#45;&gt;Page 2 -->
<g id="edge4" class="edge">
<title>Page 1&#45;&gt;Page 2</title>
</g>
</g>
</svg>
