<?xml version="1.0" encoding="UTF-8" standalone="no"?>
<!DOCTYPE svg PUBLIC "-//W3C//DTD SVG 1.1//EN"
 "http://www.w3.org/Graphics/SVG/1.1/DTD/svg11.dtd">
<!-- Generated by graphviz version 10.0.1 (20240210.2158)
 -->
<!-- Pages: 1 -->
<svg width="173pt" height="206pt"
 viewBox="0.00 0.00 173.24 206.00" xmlns="http://www.w3.org/2000/svg" xmlns:xlink="http://www.w3.org/1999/xlink">
<g id="graph0" class="graph" transform="scale(1 1) rotate(0) translate(4 202)">
<polygon fill="white" stroke="none" points="-4,4 -4,-202 169.24,-202 169.24,4 -4,4"/>
<!-- ID:2 -->
<g id="node1" class="node">
<title>ID:2</title>
<polygon fill="none" stroke="black" points="56.12,-144 1.12,-144 1.12,-108 56.12,-108 56.12,-144"/>
<text text-anchor="middle" x="28.62" y="-120.95" font-family="Times,serif" font-size="14.00">ID F32</text>
</g>
<!-- ID:3 -->
<g id="node2" class="node">
<title>ID:3</title>
<polygon fill="none" stroke="black" points="57.25,-90 0,-90 0,-54 57.25,-54 57.25,-90"/>
<text text-anchor="middle" x="28.62" y="-66.95" font-family="Times,serif" font-size="14.00">ID G99</text>
</g>
<!-- ID:2&#45;&gt;ID:3 -->
<g id="edge11" class="edge">
<title>ID:2&#45;&gt;ID:3</title>
<path fill="none" stroke="black" d="M9.29,-107.51C8.25,-105.43 7.59,-103.35 7.31,-101.27"/>
<polygon fill="black" stroke="black" points="10.71,-102.11 9.18,-91.63 3.84,-100.78 10.71,-102.11"/>
</g>
<!-- ID:1 -->
<g id="node4" class="node">
<title>ID:1</title>
<polygon fill="none" stroke="black" points="57.25,-198 0,-198 0,-162 57.25,-162 57.25,-198"/>
<text text-anchor="middle" x="28.62" y="-174.95" font-family="Times,serif" font-size="14.00">ID G72</text>
</g>
<!-- ID:2&#45;&gt;ID:1 -->
<g id="edge9" class="edge">
<title>ID:2&#45;&gt;ID:1</title>
<path fill="none" stroke="black" d="M47.03,-144.14C48.07,-146.22 48.75,-148.3 49.06,-150.38"/>
<polygon fill="black" stroke="black" points="45.64,-149.58 47.45,-160.02 52.55,-150.73 45.64,-149.58"/>
</g>
<!-- Page 2 -->
<g id="node7" class="node">
<title>Page 2</title>
<ellipse fill="none" stroke="black" cx="129.25" cy="-126" rx="36" ry="18"/>
<text text-anchor="middle" x="129.25" y="-120.95" font-family="Times,serif" font-size="14.00">Page 2</text>
</g>
<!-- ID:2&#45;&gt;Page 2 -->
<g id="edge14" class="edge">
<title>ID:2&#45;&gt;Page 2</title>
<path fill="none" stroke="black" d="M56.57,-126C64.26,-126 72.86,-126 81.37,-126"/>
<polygon fill="black" stroke="black" points="81.3,-129.5 91.3,-126 81.3,-122.5 81.3,-129.5"/>
</g>
<!-- ID:3&#45;&gt;ID:2 -->
<g id="edge8" class="edge">
<title>ID:3&#45;&gt;ID:2</title>
<path fill="none" stroke="black" d="M47.78,-90.14C48.87,-92.22 49.57,-94.3 49.89,-96.38"/>
<polygon fill="black" stroke="black" points="46.48,-95.57 48.22,-106.02 53.38,-96.76 46.48,-95.57"/>
</g>
<!-- ID:4 -->
<g id="node3" class="node">
<title>ID:4</title>
<polygon fill="none" stroke="black" points="57.25,-36 0,-36 0,0 57.25,0 57.25,-36"/>
<text text-anchor="middle" x="28.62" y="-12.95" font-family="Times,serif" font-size="14.00">ID D42</text>
</g>
<!-- ID:3&#45;&gt;ID:4 -->
<g id="edge12" class="edge">
<title>ID:3&#45;&gt;ID:4</title>
<path fill="none" stroke="black" d="M9.29,-53.51C8.25,-51.43 7.59,-49.35 7.31,-47.27"/>
<polygon fill="black" stroke="black" points="10.71,-48.11 9.18,-37.63 3.84,-46.78 10.71,-48.11"/>
</g>
<!-- Page 3 -->
<g id="node6" class="node">
<title>Page 3</title>
<ellipse fill="none" stroke="black" cx="129.25" cy="-72" rx="36" ry="18"/>
<text text-anchor="middle" x="129.25" y="-66.95" font-family="Times,serif" font-size="14.00">Page 3</text>
</g>
<!-- ID:3&#45;&gt;Page 3 -->
<g id="edge15" class="edge">
<title>ID:3&#45;&gt;Page 3</title>
<path fill="none" stroke="black" d="M57.62,-72C65.05,-72 73.29,-72 81.43,-72"/>
<polygon fill="black" stroke="black" points="81.27,-75.5 91.27,-72 81.27,-68.5 81.27,-75.5"/>
</g>
<!-- ID:4&#45;&gt;ID:3 -->
<g id="edge7" class="edge">
<title>ID:4&#45;&gt;ID:3</title>
<path fill="none" stroke="black" d="M47.78,-36.14C48.87,-38.22 49.57,-40.3 49.89,-42.38"/>
<polygon fill="black" stroke="black" points="46.48,-41.57 48.22,-52.02 53.38,-42.76 46.48,-41.57"/>
</g>
<!-- Page 4 -->
<g id="node5" class="node">
<title>Page 4</title>
<ellipse fill="none" stroke="black" cx="129.25" cy="-18" rx="36" ry="18"/>
<text text-anchor="middle" x="129.25" y="-12.95" font-family="Times,serif" font-size="14.00">Page 4</text>
</g>
<!-- ID:4&#45;&gt;Page 4 -->
<g id="edge16" class="edge">
<title>ID:4&#45;&gt;Page 4</title>
<path fill="none" stroke="black" d="M57.62,-18C65.05,-18 73.29,-18 81.43,-18"/>
<polygon fill="black" stroke="black" points="81.27,-21.5 91.27,-18 81.27,-14.5 81.27,-21.5"/>
</g>
<!-- ID:1&#45;&gt;ID:2 -->
<g id="edge10" class="edge">
<title>ID:1&#45;&gt;ID:2</title>
<path fill="none" stroke="black" d="M10.05,-161.51C9.05,-159.43 8.41,-157.35 8.15,-155.27"/>
<polygon fill="black" stroke="black" points="11.55,-156.1 9.94,-145.63 4.67,-154.82 11.55,-156.1"/>
</g>
<!-- Page 1 -->
<g id="node8" class="node">
<title>Page 1</title>
<ellipse fill="none" stroke="black" cx="129.25" cy="-180" rx="36" ry="18"/>
<text text-anchor="middle" x="129.25" y="-174.95" font-family="Times,serif" font-size="14.00">Page 1</text>
</g>
<!-- ID:1&#45;&gt;Page 1 -->
<g id="edge13" class="edge">
<title>ID:1&#45;&gt;Page 1</title>
<path fill="none" stroke="black" d="M57.62,-180C65.05,-180 73.29,-180 81.43,-180"/>
<polygon fill="black" stroke="black" points="81.27,-183.5 91.27,-180 81.27,-176.5 81.27,-183.5"/>
</g>
<!-- Page 4&#45;&gt;Page 3 -->
<g id="edge1" class="edge">
<title>Page 4&#45;&gt;Page 3</title>
</g>
<!-- Page 3&#45;&gt;Page 4 -->
<g id="edge6" class="edge">
<title>Page 3&#45;&gt;Page 4</title>
</g>
<!-- Page 3&#45;&gt;Page 2 -->
<g id="edge2" class="edge">
<title>Page 3&#45;&gt;Page 2</title>
</g>
<!-- Page 2&#45;&gt;Page 3 -->
<g id="edge5" class="edge">
<title>Page 2&#45;&gt;Page 3</title>
</g>
<!-- Page 2&#45;&gt;Page 1 -->
<g id="edge3" class="edge">
<title>Page 2&#45;&gt;Page 1</title>
</g>
<!-- Page 1&#45;&gt;Page 2 -->
<g id="edge4" class="edge">
<title>Page 1&#45;&gt;Page 2</title>
</g>
</g>
</svg>
