<?xml version="1.0" encoding="UTF-8" standalone="no"?>
<!DOCTYPE svg PUBLIC "-//W3C//DTD SVG 1.1//EN"
 "http://www.w3.org/Graphics/SVG/1.1/DTD/svg11.dtd">
<!-- Generated by graphviz version 6.0.1 (20220911.1526)
 -->
<!-- Pages: 1 -->
<svg width="171pt" height="206pt"
 viewBox="0.00 0.00 170.89 206.00" xmlns="http://www.w3.org/2000/svg" xmlns:xlink="http://www.w3.org/1999/xlink">
<g id="graph0" class="graph" transform="scale(1 1) rotate(0) translate(4 202)">
<polygon fill="white" stroke="none" points="-4,4 -4,-202 166.89,-202 166.89,4 -4,4"/>
<!-- ID:2 -->
<g id="node1" class="node">
<title>ID:2</title>
<polygon fill="none" stroke="black" points="57,-144 1,-144 1,-108 57,-108 57,-144"/>
<text text-anchor="middle" x="29" y="-122.3" font-family="Times,serif" font-size="14.00">ID F32</text>
</g>
<!-- ID:3 -->
<g id="node2" class="node">
<title>ID:3</title>
<polygon fill="none" stroke="black" points="58,-90 0,-90 0,-54 58,-54 58,-90"/>
<text text-anchor="middle" x="29" y="-68.3" font-family="Times,serif" font-size="14.00">ID G99</text>
</g>
<!-- ID:2&#45;&gt;ID:3 -->
<g id="edge11" class="edge">
<title>ID:2&#45;&gt;ID:3</title>
<path fill="none" stroke="black" d="M9.56,-107.79C8.21,-105.22 7.45,-102.64 7.28,-100.07"/>
<polygon fill="black" stroke="black" points="10.74,-100.67 9.59,-90.14 3.92,-99.09 10.74,-100.67"/>
</g>
<!-- ID:1 -->
<g id="node4" class="node">
<title>ID:1</title>
<polygon fill="none" stroke="black" points="58,-198 0,-198 0,-162 58,-162 58,-198"/>
<text text-anchor="middle" x="29" y="-176.3" font-family="Times,serif" font-size="14.00">ID G72</text>
</g>
<!-- ID:2&#45;&gt;ID:1 -->
<g id="edge9" class="edge">
<title>ID:2&#45;&gt;ID:1</title>
<path fill="none" stroke="black" d="M47.74,-144.14C49.05,-146.71 49.79,-149.29 49.96,-151.86"/>
<polygon fill="black" stroke="black" points="46.51,-151.27 47.77,-161.79 53.34,-152.78 46.51,-151.27"/>
</g>
<!-- Page 2 -->
<g id="node7" class="node">
<title>Page 2</title>
<ellipse fill="none" stroke="black" cx="128.45" cy="-126" rx="34.39" ry="18"/>
<text text-anchor="middle" x="128.45" y="-122.3" font-family="Times,serif" font-size="14.00">Page 2</text>
</g>
<!-- ID:2&#45;&gt;Page 2 -->
<g id="edge14" class="edge">
<title>ID:2&#45;&gt;Page 2</title>
<path fill="none" stroke="black" d="M57.14,-126C65.41,-126 74.71,-126 83.78,-126"/>
<polygon fill="black" stroke="black" points="83.85,-129.5 93.85,-126 83.85,-122.5 83.85,-129.5"/>
</g>
<!-- ID:3&#45;&gt;ID:2 -->
<g id="edge8" class="edge">
<title>ID:3&#45;&gt;ID:2</title>
<path fill="none" stroke="black" d="M48.41,-90.14C49.77,-92.71 50.54,-95.29 50.71,-97.86"/>
<polygon fill="black" stroke="black" points="47.26,-97.26 48.44,-107.79 54.08,-98.82 47.26,-97.26"/>
</g>
<!-- ID:4 -->
<g id="node3" class="node">
<title>ID:4</title>
<polygon fill="none" stroke="black" points="58,-36 0,-36 0,0 58,0 58,-36"/>
<text text-anchor="middle" x="29" y="-14.3" font-family="Times,serif" font-size="14.00">ID D42</text>
</g>
<!-- ID:3&#45;&gt;ID:4 -->
<g id="edge12" class="edge">
<title>ID:3&#45;&gt;ID:4</title>
<path fill="none" stroke="black" d="M9.56,-53.79C8.21,-51.22 7.45,-48.64 7.28,-46.07"/>
<polygon fill="black" stroke="black" points="10.74,-46.67 9.59,-36.14 3.92,-45.09 10.74,-46.67"/>
</g>
<!-- Page 3 -->
<g id="node6" class="node">
<title>Page 3</title>
<ellipse fill="none" stroke="black" cx="128.45" cy="-72" rx="34.39" ry="18"/>
<text text-anchor="middle" x="128.45" y="-68.3" font-family="Times,serif" font-size="14.00">Page 3</text>
</g>
<!-- ID:3&#45;&gt;Page 3 -->
<g id="edge15" class="edge">
<title>ID:3&#45;&gt;Page 3</title>
<path fill="none" stroke="black" d="M58.19,-72C66.19,-72 75.09,-72 83.78,-72"/>
<polygon fill="black" stroke="black" points="83.81,-75.5 93.81,-72 83.81,-68.5 83.81,-75.5"/>
</g>
<!-- ID:4&#45;&gt;ID:3 -->
<g id="edge7" class="edge">
<title>ID:4&#45;&gt;ID:3</title>
<path fill="none" stroke="black" d="M48.41,-36.14C49.77,-38.71 50.54,-41.29 50.71,-43.86"/>
<polygon fill="black" stroke="black" points="47.26,-43.26 48.44,-53.79 54.08,-44.82 47.26,-43.26"/>
</g>
<!-- Page 4 -->
<g id="node5" class="node">
<title>Page 4</title>
<ellipse fill="none" stroke="black" cx="128.45" cy="-18" rx="34.39" ry="18"/>
<text text-anchor="middle" x="128.45" y="-14.3" font-family="Times,serif" font-size="14.00">Page 4</text>
</g>
<!-- ID:4&#45;&gt;Page 4 -->
<g id="edge16" class="edge">
<title>ID:4&#45;&gt;Page 4</title>
<path fill="none" stroke="black" d="M58.19,-18C66.19,-18 75.09,-18 83.78,-18"/>
<polygon fill="black" stroke="black" points="83.81,-21.5 93.81,-18 83.81,-14.5 83.81,-21.5"/>
</g>
<!-- ID:1&#45;&gt;ID:2 -->
<g id="edge10" class="edge">
<title>ID:1&#45;&gt;ID:2</title>
<path fill="none" stroke="black" d="M10.23,-161.79C8.92,-159.22 8.19,-156.64 8.03,-154.07"/>
<polygon fill="black" stroke="black" points="11.49,-154.66 10.26,-144.14 4.66,-153.13 11.49,-154.66"/>
</g>
<!-- Page 1 -->
<g id="node8" class="node">
<title>Page 1</title>
<ellipse fill="none" stroke="black" cx="128.45" cy="-180" rx="34.39" ry="18"/>
<text text-anchor="middle" x="128.45" y="-176.3" font-family="Times,serif" font-size="14.00">Page 1</text>
</g>
<!-- ID:1&#45;&gt;Page 1 -->
<g id="edge13" class="edge">
<title>ID:1&#45;&gt;Page 1</title>
<path fill="none" stroke="black" d="M58.19,-180C66.19,-180 75.09,-180 83.78,-180"/>
<polygon fill="black" stroke="black" points="83.81,-183.5 93.81,-180 83.81,-176.5 83.81,-183.5"/>
</g>
<!-- Page 4&#45;&gt;Page 3 -->
<g id="edge1" class="edge">
<title>Page 4&#45;&gt;Page 3</title>
</g>
<!-- Page 3&#45;&gt;Page 4 -->
<g id="edge6" class="edge">
<title>Page 3&#45;&gt;Page 4</title>
</g>
<!-- Page 3&#45;&gt;Page 2 -->
<g id="edge2" class="edge">
<title>Page 3&#45;&gt;Page 2</title>
</g>
<!-- Page 2&#45;&gt;Page 3 -->
<g id="edge5" class="edge">
<title>Page 2&#45;&gt;Page 3</title>
</g>
<!-- Page 2&#45;&gt;Page 1 -->
<g id="edge3" class="edge">
<title>Page 2&#45;&gt;Page 1</title>
</g>
<!-- Page 1&#45;&gt;Page 2 -->
<g id="edge4" class="edge">
<title>Page 1&#45;&gt;Page 2</title>
</g>
</g>
</svg>
