<?xml version="1.0" encoding="UTF-8" standalone="no"?>
<!DOCTYPE svg PUBLIC "-//W3C//DTD SVG 1.1//EN"
 "http://www.w3.org/Graphics/SVG/1.1/DTD/svg11.dtd">
<!-- Generated by graphviz version 2.43.0 (0)
 -->
<!-- Title: %3 Pages: 1 -->
<svg width="195pt" height="206pt"
 viewBox="0.00 0.00 195.49 206.00" xmlns="http://www.w3.org/2000/svg" xmlns:xlink="http://www.w3.org/1999/xlink">
<g id="graph0" class="graph" transform="scale(1 1) rotate(0) translate(4 202)">
<title>%3</title>
<polygon fill="white" stroke="transparent" points="-4,4 -4,-202 191.49,-202 191.49,4 -4,4"/>
<!-- ID:2 -->
<g id="node1" class="node">
<title>ID:2</title>
<polygon fill="none" stroke="black" points="66,-144 1,-144 1,-108 66,-108 66,-144"/>
<text text-anchor="middle" x="33.5" y="-122.3" font-family="Times,serif" font-size="14.00">ID F32</text>
</g>
<!-- ID:3 -->
<g id="node2" class="node">
<title>ID:3</title>
<polygon fill="none" stroke="black" points="67,-90 0,-90 0,-54 67,-54 67,-90"/>
<text text-anchor="middle" x="33.5" y="-68.3" font-family="Times,serif" font-size="14.00">ID G99</text>
</g>
<!-- ID:2&#45;&gt;ID:3 -->
<g id="edge11" class="edge">
<title>ID:2&#45;&gt;ID:3</title>
<path fill="none" stroke="black" d="M11.04,-107.79C9.42,-105.12 8.54,-102.46 8.4,-99.79"/>
<polygon fill="black" stroke="black" points="11.77,-100.71 11.08,-90.14 5.03,-98.84 11.77,-100.71"/>
</g>
<!-- ID:1 -->
<g id="node4" class="node">
<title>ID:1</title>
<polygon fill="none" stroke="black" points="67,-198 0,-198 0,-162 67,-162 67,-198"/>
<text text-anchor="middle" x="33.5" y="-176.3" font-family="Times,serif" font-size="14.00">ID G72</text>
</g>
<!-- ID:2&#45;&gt;ID:1 -->
<g id="edge9" class="edge">
<title>ID:2&#45;&gt;ID:1</title>
<path fill="none" stroke="black" d="M55.25,-144.14C56.78,-146.71 57.64,-149.29 57.83,-151.86"/>
<polygon fill="black" stroke="black" points="54.38,-151.23 55.29,-161.79 61.16,-152.97 54.38,-151.23"/>
</g>
<!-- Page 2 -->
<g id="node7" class="node">
<title>Page 2</title>
<ellipse fill="none" stroke="black" cx="145.25" cy="-126" rx="42.49" ry="18"/>
<text text-anchor="middle" x="145.25" y="-122.3" font-family="Times,serif" font-size="14.00">Page 2</text>
</g>
<!-- ID:2&#45;&gt;Page 2 -->
<g id="edge14" class="edge">
<title>ID:2&#45;&gt;Page 2</title>
<path fill="none" stroke="black" d="M66.24,-126C74.52,-126 83.66,-126 92.68,-126"/>
<polygon fill="black" stroke="black" points="92.76,-129.5 102.76,-126 92.76,-122.5 92.76,-129.5"/>
</g>
<!-- ID:3&#45;&gt;ID:2 -->
<g id="edge8" class="edge">
<title>ID:3&#45;&gt;ID:2</title>
<path fill="none" stroke="black" d="M55.92,-90.14C57.55,-92.81 58.44,-95.47 58.6,-98.14"/>
<polygon fill="black" stroke="black" points="55.22,-97.22 55.96,-107.79 61.97,-99.07 55.22,-97.22"/>
</g>
<!-- ID:4 -->
<g id="node3" class="node">
<title>ID:4</title>
<polygon fill="none" stroke="black" points="67,-36 0,-36 0,0 67,0 67,-36"/>
<text text-anchor="middle" x="33.5" y="-14.3" font-family="Times,serif" font-size="14.00">ID D42</text>
</g>
<!-- ID:3&#45;&gt;ID:4 -->
<g id="edge12" class="edge">
<title>ID:3&#45;&gt;ID:4</title>
<path fill="none" stroke="black" d="M11.04,-53.79C9.42,-51.12 8.54,-48.46 8.4,-45.79"/>
<polygon fill="black" stroke="black" points="11.77,-46.71 11.08,-36.14 5.03,-44.84 11.77,-46.71"/>
</g>
<!-- Page 3 -->
<g id="node6" class="node">
<title>Page 3</title>
<ellipse fill="none" stroke="black" cx="145.25" cy="-72" rx="42.49" ry="18"/>
<text text-anchor="middle" x="145.25" y="-68.3" font-family="Times,serif" font-size="14.00">Page 3</text>
</g>
<!-- ID:3&#45;&gt;Page 3 -->
<g id="edge15" class="edge">
<title>ID:3&#45;&gt;Page 3</title>
<path fill="none" stroke="black" d="M67.13,-72C75.21,-72 84.07,-72 92.81,-72"/>
<polygon fill="black" stroke="black" points="92.97,-75.5 102.97,-72 92.97,-68.5 92.97,-75.5"/>
</g>
<!-- ID:4&#45;&gt;ID:3 -->
<g id="edge7" class="edge">
<title>ID:4&#45;&gt;ID:3</title>
<path fill="none" stroke="black" d="M55.92,-36.14C57.55,-38.81 58.44,-41.47 58.6,-44.14"/>
<polygon fill="black" stroke="black" points="55.22,-43.22 55.96,-53.79 61.97,-45.07 55.22,-43.22"/>
</g>
<!-- Page 4 -->
<g id="node5" class="node">
<title>Page 4</title>
<ellipse fill="none" stroke="black" cx="145.25" cy="-18" rx="42.49" ry="18"/>
<text text-anchor="middle" x="145.25" y="-14.3" font-family="Times,serif" font-size="14.00">Page 4</text>
</g>
<!-- ID:4&#45;&gt;Page 4 -->
<g id="edge16" class="edge">
<title>ID:4&#45;&gt;Page 4</title>
<path fill="none" stroke="black" d="M67.13,-18C75.21,-18 84.07,-18 92.81,-18"/>
<polygon fill="black" stroke="black" points="92.97,-21.5 102.97,-18 92.97,-14.5 92.97,-21.5"/>
</g>
<!-- ID:1&#45;&gt;ID:2 -->
<g id="edge10" class="edge">
<title>ID:1&#45;&gt;ID:2</title>
<path fill="none" stroke="black" d="M11.71,-161.79C10.2,-159.22 9.35,-156.64 9.16,-154.07"/>
<polygon fill="black" stroke="black" points="12.62,-154.7 11.75,-144.14 5.84,-152.94 12.62,-154.7"/>
</g>
<!-- Page 1 -->
<g id="node8" class="node">
<title>Page 1</title>
<ellipse fill="none" stroke="black" cx="145.25" cy="-180" rx="42.49" ry="18"/>
<text text-anchor="middle" x="145.25" y="-176.3" font-family="Times,serif" font-size="14.00">Page 1</text>
</g>
<!-- ID:1&#45;&gt;Page 1 -->
<g id="edge13" class="edge">
<title>ID:1&#45;&gt;Page 1</title>
<path fill="none" stroke="black" d="M67.13,-180C75.21,-180 84.07,-180 92.81,-180"/>
<polygon fill="black" stroke="black" points="92.97,-183.5 102.97,-180 92.97,-176.5 92.97,-183.5"/>
</g>
<!-- Page 4&#45;&gt;Page 3 -->
<g id="edge1" class="edge">
<title>Page 4&#45;&gt;Page 3</title>
</g>
<!-- Page 3&#45;&gt;Page 4 -->
<g id="edge6" class="edge">
<title>Page 3&#45;&gt;Page 4</title>
</g>
<!-- Page 3&#45;&gt;Page 2 -->
<g id="edge2" class="edge">
<title>Page 3&#45;&gt;Page 2</title>
</g>
<!-- Page 2&#45;&gt;Page 3 -->
<g id="edge5" class="edge">
<title>Page 2&#45;&gt;Page 3</title>
</g>
<!-- Page 2&#45;&gt;Page 1 -->
<g id="edge3" class="edge">
<title>Page 2&#45;&gt;Page 1</title>
</g>
<!-- Page 1&#45;&gt;Page 2 -->
<g id="edge4" class="edge">
<title>Page 1&#45;&gt;Page 2</title>
</g>
</g>
</svg>
