<svg aria-hidden="true" width="1.5em" height="1.5em" viewBox="0 0 60 60" clip-rule="evenodd" fill-rule="evenodd" stroke-linejoin="round" stroke-miterlimit="2" version="1.1" xml:space="preserve" xmlns="http://www.w3.org/2000/svg"><path style="fill:currentColor" d="m31.621 8.748c-1.22-0.027-1.695-0.795-1.805-2.01-0.043-0.478-0.09-0.997-0.136-1.507-0.07-0.773-0.466-1.479-1.09-1.941s-1.415-0.635-2.175-0.476c-1.09 0.228-2.32 0.485-3.398 0.71-0.737 0.155-1.377 0.608-1.768 1.251-0.39 0.644-0.497 1.421-0.293 2.146 0.143 0.508 0.288 1.027 0.422 1.502 0.319 1.139 0.362 2.014-0.736 2.452-1.764 0.704-3.842 2.242-4.811 3.253-0.794 0.83-1.56 0.387-2.478-0.303-0.433-0.324-0.913-0.684-1.379-1.034-0.594-0.446-1.345-0.629-2.078-0.507s-1.385 0.538-1.803 1.153c-0.557 0.819-1.182 1.739-1.742 2.563-0.424 0.623-0.57 1.394-0.404 2.129 0.167 0.735 0.631 1.368 1.282 1.748 0.488 0.285 0.988 0.577 1.44 0.841 0.999 0.583 1.564 1.238 1.2 2.335-0.465 1.398-1.137 4.077-1.143 5.527-4e-3 1.133-0.745 1.545-1.861 1.734-0.6 0.102-1.279 0.217-1.93 0.328-0.722 0.122-1.364 0.531-1.781 1.133s-0.573 1.348-0.433 2.067c0.192 0.989 0.41 2.108 0.605 3.11 0.144 0.743 0.592 1.392 1.235 1.791 0.644 0.399 1.425 0.512 2.155 0.312 0.575-0.159 1.168-0.322 1.704-0.469 1.141-0.314 2-0.251 2.474 0.834 0.598 1.369 1.928 3.374 2.918 4.473 0.746 0.828 0.621 1.718-0.024 2.627-0.317 0.446-0.67 0.944-1.012 1.426-0.42 0.591-0.586 1.326-0.461 2.041 0.125 0.714 0.53 1.349 1.125 1.764 0.866 0.603 1.859 1.294 2.738 1.907 0.62 0.432 1.391 0.586 2.129 0.426 0.738-0.159 1.377-0.619 1.763-1.268 0.297-0.499 0.601-1.012 0.876-1.474 0.59-0.993 1.345-1.492 2.422-1.074 1.289 0.501 3.589 0.98 5.001 0.991 1.162 8e-3 1.733 0.828 1.885 1.98 0.068 0.519 0.144 1.092 0.218 1.652 0.099 0.752 0.508 1.429 1.128 1.866 0.62 0.438 1.395 0.596 2.137 0.437 1.061-0.227 2.259-0.483 3.307-0.708 0.72-0.154 1.347-0.593 1.737-1.217 0.39-0.625 0.51-1.38 0.333-2.095-0.13-0.526-0.264-1.066-0.385-1.557-0.275-1.11 0.103-2.146 1.115-2.68 1.237-0.652 2.679-1.618 3.781-2.516 0.885-0.721 2.087-0.786 3.01-0.114 0.44 0.321 0.93 0.677 1.403 1.022 0.591 0.43 1.33 0.605 2.05 0.484 0.721-0.121 1.362-0.526 1.781-1.125 0.64-0.918 1.38-1.977 2.029-2.906 0.432-0.619 0.587-1.389 0.429-2.127s-0.616-1.377-1.264-1.764c-0.562-0.336-1.144-0.683-1.662-0.993-1.003-0.599-1.471-1.395-1.087-2.498 0.44-1.267 0.853-3.505 0.927-4.849 0.061-1.106 0.913-1.675 2.004-1.863 0.568-0.098 1.207-0.208 1.824-0.315 0.722-0.124 1.362-0.534 1.778-1.137 0.415-0.603 0.569-1.347 0.429-2.066-0.202-1.025-0.43-2.19-0.632-3.22-0.143-0.727-0.576-1.364-1.2-1.765-0.624-0.4-1.384-0.528-2.104-0.355-0.541 0.13-1.094 0.263-1.593 0.383-1.082 0.26-2.354-0.081-2.856-1.075-0.6-1.186-1.695-2.777-2.583-3.895-0.676-0.851-0.751-1.946-0.184-2.873 0.363-0.593 0.786-1.284 1.181-1.929 0.756-1.235 0.412-2.845-0.782-3.663-0.79-0.541-1.694-1.16-2.518-1.725-0.644-0.442-1.448-0.585-2.206-0.392-0.757 0.192-1.396 0.701-1.751 1.397-0.256 0.5-0.517 1.01-0.754 1.473-0.547 1.07-1.481 1.612-2.615 1.216-1.261-0.439-3.668-0.969-5.058-0.999zm-1.621 8.538c7.017 0 12.714 5.697 12.714 12.714s-5.697 12.714-12.714 12.714-12.714-5.697-12.714-12.714 5.697-12.714 12.714-12.714z"/></svg>