<?xml version="1.0" encoding="UTF-8" standalone="no"?>
<!DOCTYPE svg PUBLIC "-//W3C//DTD SVG 1.1//EN"
 "http://www.w3.org/Graphics/SVG/1.1/DTD/svg11.dtd">
<!-- Generated by graphviz version 6.0.1 (20220911.1526)
 -->
<!-- Pages: 1 -->
<svg width="332pt" height="44pt"
 viewBox="0.00 0.00 332.00 44.00" xmlns="http://www.w3.org/2000/svg" xmlns:xlink="http://www.w3.org/1999/xlink">
<g id="graph0" class="graph" transform="scale(1 1) rotate(0) translate(4 40)">
<polygon fill="white" stroke="none" points="-4,4 -4,-40 328,-40 328,4 -4,4"/>
<!-- a -->
<g id="node1" class="node">
<title>a</title>
<ellipse fill="none" stroke="black" cx="27" cy="-18" rx="27" ry="18"/>
<text text-anchor="middle" x="27" y="-14.3" font-family="Times,serif" font-size="14.00">a</text>
</g>
<!-- b -->
<g id="node2" class="node">
<title>b</title>
<ellipse fill="none" stroke="black" cx="117" cy="-18" rx="27" ry="18"/>
<text text-anchor="middle" x="117" y="-14.3" font-family="Times,serif" font-size="14.00">b</text>
</g>
<!-- a&#45;&gt;b -->
<g id="edge1" class="edge">
<title>a&#45;&gt;b</title>
<path fill="none" stroke="black" d="M52.51,-11.88C61.4,-11.27 71.62,-11.1 81.22,-11.38"/>
<polygon fill="black" stroke="black" points="81.16,-14.88 91.31,-11.86 81.49,-7.89 81.16,-14.88"/>
</g>
<!-- b&#45;&gt;a -->
<g id="edge6" class="edge">
<title>b&#45;&gt;a</title>
<path fill="none" stroke="black" d="M91.31,-24.14C82.41,-24.74 72.18,-24.9 62.59,-24.61"/>
<polygon fill="black" stroke="black" points="62.67,-21.11 52.51,-24.12 62.33,-28.1 62.67,-21.11"/>
</g>
<!-- c -->
<g id="node3" class="node">
<title>c</title>
<ellipse fill="none" stroke="black" cx="207" cy="-18" rx="27" ry="18"/>
<text text-anchor="middle" x="207" y="-14.3" font-family="Times,serif" font-size="14.00">c</text>
</g>
<!-- b&#45;&gt;c -->
<g id="edge2" class="edge">
<title>b&#45;&gt;c</title>
<path fill="none" stroke="black" d="M142.51,-11.88C151.4,-11.27 161.62,-11.1 171.22,-11.38"/>
<polygon fill="black" stroke="black" points="171.16,-14.88 181.31,-11.86 171.49,-7.89 171.16,-14.88"/>
</g>
<!-- c&#45;&gt;b -->
<g id="edge5" class="edge">
<title>c&#45;&gt;b</title>
<path fill="none" stroke="black" d="M181.31,-24.14C172.41,-24.74 162.18,-24.9 152.59,-24.61"/>
<polygon fill="black" stroke="black" points="152.67,-21.11 142.51,-24.12 152.33,-28.1 152.67,-21.11"/>
</g>
<!-- d -->
<g id="node4" class="node">
<title>d</title>
<ellipse fill="none" stroke="black" cx="297" cy="-18" rx="27" ry="18"/>
<text text-anchor="middle" x="297" y="-14.3" font-family="Times,serif" font-size="14.00">d</text>
</g>
<!-- c&#45;&gt;d -->
<g id="edge3" class="edge">
<title>c&#45;&gt;d</title>
<path fill="none" stroke="black" d="M232.51,-11.88C241.4,-11.27 251.62,-11.1 261.22,-11.38"/>
<polygon fill="black" stroke="black" points="261.16,-14.88 271.31,-11.86 261.49,-7.89 261.16,-14.88"/>
</g>
<!-- d&#45;&gt;c -->
<g id="edge4" class="edge">
<title>d&#45;&gt;c</title>
<path fill="none" stroke="black" d="M271.31,-24.14C262.41,-24.74 252.18,-24.9 242.59,-24.61"/>
<polygon fill="black" stroke="black" points="242.67,-21.11 232.51,-24.12 242.33,-28.1 242.67,-21.11"/>
</g>
</g>
</svg>
