<?xml version="1.0" encoding="UTF-8" standalone="no"?>
<!DOCTYPE svg PUBLIC "-//W3C//DTD SVG 1.1//EN" "http://www.w3.org/Graphics/SVG/1.1/DTD/svg11.dtd">
<svg width="100%" height="100%" viewBox="0 0 600 800" version="1.1" xmlns="http://www.w3.org/2000/svg" xmlns:xlink="http://www.w3.org/1999/xlink" xml:space="preserve" xmlns:serif="http://www.serif.com/" style="fill-rule:evenodd;clip-rule:evenodd;stroke-linecap:round;stroke-linejoin:round;stroke-miterlimit:1.5;">
    <g transform="matrix(1.28087,0,0,1.20419,-84.4643,-78.2342)">
        <rect x="65.943" y="64.969" width="468.433" height="664.349" style="fill:white;"/>
    </g>
    <path d="M71.695,87.626L71.695,113.174C71.695,127.378 291.34,372.651 291.34,395.29C291.34,417.928 70.322,675.543 70.322,686.269C70.322,696.995 70.116,710.924 70.116,710.924L529.899,710.924C529.899,710.924 529.816,703.199 529.662,688.792C529.508,674.384 305.606,422.191 305.606,395.171C305.606,368.151 528.225,127.569 528.225,112.787C528.225,98.004 527.936,90.1 527.936,90.1" style="fill:none;stroke:black;stroke-width:1px;"/>
    <path d="M551.951,67.826L551.951,90.1L534.216,90.1L534.216,112.148C534.216,133.915 314.806,373.552 314.776,396.811C314.746,420.07 534.112,669.061 534.216,686.872C534.341,708.148 534.216,710.924 534.216,710.924L551.999,710.924L551.924,732.174L48.12,732.174L48.12,710.457L65.784,710.457C65.784,710.457 65.876,710.391 65.784,687.291C65.691,664.192 284.264,414.506 284.264,396.054C284.264,377.601 65.784,131.447 65.784,112.415L65.784,87.626L48.14,87.626L48.14,67.826L551.951,67.826Z" style="fill:none;stroke:black;stroke-width:1px;"/>
    <path d="M65.784,710.457L534.216,710.924" style="fill:none;stroke:black;stroke-width:1px;"/>
    <path d="M534.216,90.1L65.784,87.626" style="fill:none;stroke:black;stroke-width:1px;"/>
    <g transform="matrix(0.31753,0.948248,-0.948248,0.31753,577.822,-17.327)">
        <path d="M297.636,388.39L299.941,390.064L299.06,392.774L296.212,392.774L295.331,390.064L297.636,388.39Z" style="fill:rgb(19,0,0);"/>
    </g>
    <g transform="matrix(0.866025,0.5,-0.5,0.866025,234.876,-94.0762)">
        <path d="M292.986,388.908L295.21,390.523L294.361,393.138L291.612,393.138L290.763,390.523L292.986,388.908Z" style="fill:rgb(19,0,0);"/>
    </g>
    <g transform="matrix(0.665933,0.746012,-0.746012,0.665933,393.109,-83.7553)">
        <path d="M292.986,388.908L295.21,390.523L294.361,393.138L291.612,393.138L290.763,390.523L292.986,388.908Z" style="fill:rgb(19,0,0);"/>
    </g>
    <g transform="matrix(0.866025,0.5,-0.5,0.866025,229.129,-105.285)">
        <path d="M292.986,388.908L295.21,390.523L294.361,393.138L291.612,393.138L290.763,390.523L292.986,388.908Z" style="fill:rgb(19,0,0);"/>
    </g>
    <g transform="matrix(0.866025,0.5,-0.5,0.866025,250.592,-104.114)">
        <path d="M292.986,388.908L295.21,390.523L294.361,393.138L291.612,393.138L290.763,390.523L292.986,388.908Z" style="fill:rgb(19,0,0);"/>
    </g>
    <g transform="matrix(-0.998851,0.0479337,-0.0479337,-0.998851,620.638,766.454)">
        <path d="M302.919,387.848L304.222,388.795L303.724,390.327L302.114,390.327L301.616,388.795L302.919,387.848Z" style="fill:rgb(19,0,0);"/>
    </g>
    <g transform="matrix(-0.998851,0.0479337,-0.0479337,-0.998851,628.684,758.93)">
        <path d="M302.919,387.848L304.222,388.795L303.724,390.327L302.114,390.327L301.616,388.795L302.919,387.848Z" style="fill:rgb(19,0,0);"/>
    </g>
    <g transform="matrix(-0.998851,0.0479337,-0.0479337,-0.998851,623.241,768.968)">
        <path d="M302.919,387.848L304.222,388.795L303.724,390.327L302.114,390.327L301.616,388.795L302.919,387.848Z" style="fill:rgb(19,0,0);"/>
    </g>
    <g transform="matrix(0.965926,-0.258819,0.258819,0.965926,-93.6272,91.1988)">
        <path d="M299.548,400L300.674,400.818L300.244,402.142L298.852,402.142L298.422,400.818L299.548,400Z" style="fill:rgb(19,0,0);"/>
    </g>
    <g transform="matrix(-0.258819,0.965926,-0.965926,-0.258819,765.5,223.085)">
        <path d="M297.16,404.268L298.082,404.937L297.73,406.021L296.591,406.021L296.238,404.937L297.16,404.268Z" style="fill:rgb(19,0,0);"/>
    </g>
    <g transform="matrix(0.866025,0.5,-0.5,0.866025,245.813,-95.0263)">
        <path d="M300.228,409.374L301.945,410.622L301.289,412.641L299.166,412.641L298.511,410.622L300.228,409.374Z" style="fill:rgb(19,0,0);"/>
    </g>
    <g transform="matrix(0.965926,-0.258819,0.258819,0.965926,-98.041,90.6098)">
        <path d="M295.104,416.566L296.138,417.317L295.743,418.532L294.466,418.532L294.071,417.317L295.104,416.566Z" style="fill:rgb(19,0,0);"/>
    </g>
    <g transform="matrix(-0.707107,-0.707107,0.707107,-0.707107,207.644,939.285)">
        <path d="M298.354,425.444L299.49,426.269L299.056,427.604L297.652,427.604L297.219,426.269L298.354,425.444Z" style="fill:rgb(19,0,0);"/>
    </g>
    <g transform="matrix(0.161223,0.986918,-0.986918,0.161223,677.351,74.0619)">
        <path d="M295.104,434.488L296.087,435.202L295.712,436.358L294.497,436.358L294.121,435.202L295.104,434.488Z" style="fill:rgb(19,0,0);"/>
    </g>
    <path d="M300.973,438.201L301.898,438.873L301.544,439.96L300.401,439.96L300.048,438.873L300.973,438.201Z" style="fill:rgb(19,0,0);"/>
    <path d="M298.354,441.41L299.434,442.195L299.022,443.464L297.687,443.464L297.274,442.195L298.354,441.41Z" style="fill:rgb(19,0,0);"/>
    <g transform="matrix(0.708318,0.705893,-0.705893,0.708318,401.973,-78.2715)">
        <path d="M295.698,445.691L297.197,446.78L296.624,448.542L294.771,448.542L294.199,446.78L295.698,445.691Z" style="fill:rgb(19,0,0);"/>
    </g>
    <g transform="matrix(-0.209682,-0.97777,0.97777,-0.209682,-73.0516,840.792)">
        <path d="M303.275,448.542L304.584,449.494L304.084,451.033L302.465,451.033L301.965,449.494L303.275,448.542Z" style="fill:rgb(19,0,0);"/>
    </g>
    <g transform="matrix(-0.631333,0.775512,-0.775512,-0.631333,839.955,511.682)">
        <path d="M298.354,454.413L299.381,455.159L298.989,456.366L297.719,456.366L297.327,455.159L298.354,454.413Z" style="fill:rgb(19,0,0);"/>
    </g>
    <g transform="matrix(0.696389,-0.717665,0.717665,0.696389,-242.925,350.01)">
        <path d="M292.208,461.236L293.042,461.842L292.723,462.823L291.692,462.823L291.373,461.842L292.208,461.236Z" style="fill:rgb(19,0,0);"/>
    </g>
    <g transform="matrix(0.86561,0.500718,-0.500718,0.86561,272.798,-88.1802)">
        <path d="M300.673,462.823L301.902,463.716L301.432,465.16L299.914,465.16L299.445,463.716L300.673,462.823Z" style="fill:rgb(19,0,0);"/>
    </g>
    <g transform="matrix(0.813253,-0.58191,0.58191,0.813253,-216.778,266.442)">
        <path d="M306.733,470.053L307.601,470.684L307.269,471.704L306.196,471.704L305.864,470.684L306.733,470.053Z" style="fill:rgb(19,0,0);"/>
    </g>
    <g transform="matrix(0.957307,0.289074,-0.289074,0.957307,149.318,-65.4517)">
        <path d="M296.244,471.704L297.274,472.453L296.881,473.663L295.608,473.663L295.215,472.453L296.244,471.704Z" style="fill:rgb(19,0,0);"/>
    </g>
    <path d="M301.287,487.397L301.872,487.822L301.648,488.509L300.926,488.509L300.703,487.822L301.287,487.397Z" style="fill:rgb(19,0,0);"/>
    <g transform="matrix(-0.968988,0.247107,-0.247107,-0.968988,731.43,902.169)">
        <path d="M309.104,495.478L310.534,496.517L309.988,498.198L308.221,498.198L307.674,496.517L309.104,495.478Z" style="fill:rgb(19,0,0);"/>
    </g>
    <g transform="matrix(0.836693,-0.547673,0.547673,0.836693,-216.547,239.035)">
        <path d="M292.544,481.819L293.312,482.377L293.019,483.28L292.069,483.28L291.775,482.377L292.544,481.819Z" style="fill:rgb(19,0,0);"/>
    </g>
    <g transform="matrix(0.824743,-0.565508,0.565508,0.824743,-230.217,253.5)">
        <path d="M293.879,496.838L295.149,497.761L294.664,499.254L293.094,499.254L292.609,497.761L293.879,496.838Z" style="fill:rgb(19,0,0);"/>
    </g>
    <g transform="matrix(0.104032,0.994574,-0.994574,0.104032,780.042,160.506)">
        <path d="M300.936,512.262L301.826,512.909L301.486,513.955L300.386,513.955L300.046,512.909L300.936,512.262Z" style="fill:rgb(19,0,0);"/>
    </g>
    <path d="M296.8,519.808L298.369,520.949L297.77,522.794L295.83,522.794L295.23,520.949L296.8,519.808Z" style="fill:rgb(19,0,0);"/>
    <path d="M308.389,528.203L309.069,528.697L308.81,529.496L307.969,529.496L307.709,528.697L308.389,528.203Z" style="fill:rgb(19,0,0);"/>
    <g transform="matrix(0.49875,-0.866746,0.866746,0.49875,-315.454,529.531)">
        <path d="M300.098,535.774L301.741,536.968L301.113,538.9L299.082,538.9L298.454,536.968L300.098,535.774Z" style="fill:rgb(19,0,0);"/>
    </g>
    <g transform="matrix(-0.0176727,0.999844,-0.999844,-0.0176727,845.446,262.2)">
        <path d="M293.92,545.107L295.166,546.012L294.69,547.478L293.149,547.478L292.673,546.012L293.92,545.107Z" style="fill:rgb(19,0,0);"/>
    </g>
    <g transform="matrix(-0.990216,-0.139546,0.139546,-0.990216,531.84,1147.37)">
        <path d="M306.144,553.473L307.633,554.554L307.064,556.304L305.225,556.304L304.656,554.554L306.144,553.473Z" style="fill:rgb(19,0,0);"/>
    </g>
    <g transform="matrix(0.731626,0.681706,-0.681706,0.731626,462.314,-52.9444)">
        <path d="M298.4,559.097L299.922,560.203L299.34,561.992L297.459,561.992L296.878,560.203L298.4,559.097Z" style="fill:rgb(19,0,0);"/>
    </g>
    <path d="M293.952,567.67L295.167,568.553L294.703,569.982L293.2,569.982L292.736,568.553L293.952,567.67Z" style="fill:rgb(19,0,0);"/>
    <path d="M305.4,575.406L306.108,575.92L305.838,576.753L304.963,576.753L304.692,575.92L305.4,575.406Z" style="fill:rgb(19,0,0);"/>
    <g transform="matrix(0.962748,-0.270401,0.270401,0.962748,-146.147,102.364)">
        <path d="M298.439,580.036L299.924,581.115L299.357,582.86L297.521,582.86L296.954,581.115L298.439,580.036Z" style="fill:rgb(19,0,0);"/>
    </g>
    <g transform="matrix(1,0,0,1,-3.52671,2.34303)">
        <path d="M300.422,386.433L301.8,387.434L301.274,389.053L299.571,389.053L299.045,387.434L300.422,386.433Z" style="fill:rgb(19,0,0);"/>
    </g>
    <g transform="matrix(0.997382,0.0723106,-0.0723106,0.997382,27.8399,-18.7446)">
        <path d="M305.662,387.743L307.015,388.725L306.498,390.315L304.827,390.315L304.31,388.725L305.662,387.743Z" style="fill:rgb(19,0,0);"/>
    </g>
    <g transform="matrix(0.997382,0.0723106,-0.0723106,0.997382,12.7742,-25.9617)">
        <path d="M305.662,387.743L307.015,388.725L306.498,390.315L304.827,390.315L304.31,388.725L305.662,387.743Z" style="fill:rgb(19,0,0);"/>
    </g>
    <g transform="matrix(0.258819,0.965926,-0.965926,0.258819,603.509,2.4277)">
        <path d="M294.575,385.158L296.416,386.495L295.713,388.659L293.437,388.659L292.734,386.495L294.575,385.158Z" style="fill:rgb(19,0,0);"/>
    </g>
    <g transform="matrix(1,0,0,1,-8.79517,2.33245)">
        <path d="M303.731,383.567L305.568,384.901L304.866,387.061L302.596,387.061L301.894,384.901L303.731,383.567Z" style="fill:rgb(19,0,0);"/>
    </g>
    <g transform="matrix(-0.652342,0.757925,-0.757925,-0.652342,785.536,413.159)">
        <path d="M298.948,383.567L300.934,385.01L300.175,387.344L297.72,387.344L296.962,385.01L298.948,383.567Z" style="fill:rgb(19,0,0);"/>
    </g>
    <path d="M291.24,385.314L293.15,386.701L292.42,388.946L290.06,388.946L289.33,386.701L291.24,385.314Z" style="fill:rgb(19,0,0);"/>
    <g transform="matrix(0.597754,0,0,0.606102,119.002,154.59)">
        <path d="M289.33,382.942C279.579,367.841 140.743,187.753 120.293,172.318C110.509,164.934 263.805,138.215 293.15,139.176C322.495,140.137 489.833,166.083 480.819,171.684C465.336,181.305 312.429,370.075 308.747,380.574C305.972,388.487 294.167,390.432 289.33,382.942Z" style="fill:rgb(19,0,0);stroke:black;stroke-width:1.66px;"/>
    </g>
    <g transform="matrix(1,0,0,1,0.127623,-0.467032)">
        <path d="M73.633,710.457L526.127,710.924C526.127,710.924 320.283,587.815 300.007,588.198C279.732,588.581 73.633,710.457 73.633,710.457Z" style="fill:rgb(19,0,0);stroke:black;stroke-width:1px;"/>
    </g>
    <g transform="matrix(1,0,0,1,-3.15373,-0.624737)">
        <path d="M306.398,383.567L308.384,385.01L307.625,387.344L305.171,387.344L304.412,385.01L306.398,383.567Z" style="fill:rgb(19,0,0);"/>
    </g>
</svg>
