<?xml version="1.0" encoding="UTF-8" standalone="no"?>
<!DOCTYPE svg PUBLIC "-//W3C//DTD SVG 1.1//EN" "http://www.w3.org/Graphics/SVG/1.1/DTD/svg11.dtd">
<svg width="100%" height="100%" viewBox="0 0 800 250" version="1.1" xmlns="http://www.w3.org/2000/svg" xmlns:xlink="http://www.w3.org/1999/xlink" xml:space="preserve" xmlns:serif="http://www.serif.com/" style="fill-rule:evenodd;clip-rule:evenodd;stroke-linecap:round;stroke-linejoin:round;stroke-miterlimit:1.5;background-color: #ffffff;fill: #ffffff;">
    <g>
        <path d="M618.968,161.176C610.889,166.411 601.255,169.453 590.917,169.453C580.579,169.453 570.945,166.411 562.865,161.176L618.968,161.176ZM548.095,88.824C557.394,75.101 573.11,66.077 590.917,66.077C608.724,66.077 624.44,75.101 633.739,88.824L548.095,88.824Z" style="fill:none;stroke:rgb(8,0,0);stroke-width:1.5px;"/>
    </g>
    <path d="M228.878,88.824C233.122,100.079 235.445,112.27 235.445,125C235.445,137.73 233.122,149.921 228.878,161.176L40.203,161.176L40.203,88.824L228.878,88.824ZM241.829,88.824L754.357,88.824L754.357,161.176L241.829,161.176C245.599,149.796 247.639,137.634 247.639,125C247.639,112.366 245.599,100.204 241.829,88.824Z" style="fill:none;stroke:rgb(8,0,0);stroke-width:1.5px;"/>
    <path d="M132.546,9.907C196.068,9.907 247.639,61.479 247.639,125C247.639,188.521 196.068,240.093 132.546,240.093C69.025,240.093 17.453,188.521 17.453,125C17.453,61.479 69.025,9.907 132.546,9.907ZM132.8,22.355C189.451,22.355 235.445,68.349 235.445,125C235.445,181.651 189.451,227.645 132.8,227.645C76.149,227.645 30.155,181.651 30.155,125C30.155,68.349 76.149,22.355 132.8,22.355Z" style="fill:none;stroke:rgb(8,0,0);stroke-width:1.5px;"/>
    <g transform="matrix(1,0,0,1,17.209,-139.063)">
        <circle cx="115.337" cy="264.063" r="17.209" style="fill:none;stroke:rgb(8,0,0);stroke-width:1.5px;"/>
    </g>
    <g transform="matrix(0.955489,-0.295027,0.295027,0.955489,390.535,-89.2423)">
        <path d="M131.754,227.818C129.427,227.592 127.084,227.592 124.757,227.818L123.605,233.429C121.374,233.77 119.188,234.356 117.086,235.175L113.283,230.893C111.154,231.86 109.125,233.032 107.223,234.391L109.03,239.827C107.269,241.237 105.669,242.838 104.258,244.599L98.823,242.791C97.464,244.693 96.292,246.723 95.324,248.851L99.607,252.655C98.787,254.757 98.202,256.943 97.86,259.173L92.25,260.326C92.024,262.653 92.024,264.996 92.25,267.323L97.86,268.475C98.202,270.706 98.787,272.892 99.607,274.994L95.324,278.797C96.292,280.926 97.464,282.955 98.823,284.857L104.258,283.05C105.669,284.811 107.269,286.411 109.03,287.822L107.223,293.257C109.125,294.616 111.154,295.788 113.283,296.756L117.086,292.473C119.188,293.293 121.374,293.879 123.605,294.22L124.757,299.83C127.084,300.057 129.427,300.057 131.754,299.83L132.907,294.22C135.137,293.879 137.323,293.293 139.426,292.473L143.229,296.756C145.357,295.788 147.387,294.616 149.289,293.257L147.482,287.822C149.242,286.411 150.843,284.811 152.253,283.05L157.689,284.857C159.048,282.955 160.22,280.926 161.187,278.797L156.905,274.994C157.724,272.892 158.31,270.706 158.651,268.475L164.262,267.323C164.488,264.996 164.488,262.653 164.262,260.326L158.651,259.173C158.31,256.943 157.724,254.757 156.905,252.655L161.187,248.851C160.22,246.723 159.048,244.693 157.689,242.791L152.253,244.599C150.843,242.838 149.242,241.237 147.482,239.827L149.289,234.391C147.387,233.032 145.357,231.86 143.229,230.893L139.426,235.175C137.323,234.356 135.137,233.77 132.907,233.429L131.754,227.818ZM128.256,256.589C132.249,256.589 135.491,259.831 135.491,263.824C135.491,267.818 132.249,271.059 128.256,271.059C124.263,271.059 121.021,267.818 121.021,263.824C121.021,259.831 124.263,256.589 128.256,256.589Z" style="fill:none;stroke:rgb(8,0,0);stroke-width:1.5px;"/>
    </g>
    <g transform="matrix(1,0,0,1,475.58,-139.063)">
        <circle cx="115.337" cy="264.063" r="17.209" style="fill:none;stroke:rgb(8,0,0);stroke-width:1.5px;"/>
    </g>
    <g>
        <path d="M136.166,93.569L135.308,107.791L129.451,107.791L128.732,93.931L126.404,89.35C124.1,89.746 121.84,90.366 119.656,91.199L120.027,96.915C117.966,97.833 116.013,98.976 114.202,100.322L109.402,97.197C107.605,98.692 105.957,100.359 104.482,102.173L107.661,106.937C106.336,108.763 105.216,110.729 104.32,112.8L98.601,112.494C97.793,114.688 97.199,116.955 96.828,119.263L101.53,121.585L115.337,122.418L115.337,128.275L101.083,129.015L96.896,131.142C97.293,133.446 97.912,135.706 98.745,137.891L104.461,137.519C105.379,139.58 106.522,141.533 107.868,143.344L104.743,148.144C106.239,149.941 107.905,151.589 109.719,153.064L114.483,149.885C116.309,151.21 118.275,152.33 120.346,153.226L120.04,158.945C122.234,159.753 124.501,160.347 126.809,160.718L129.336,155.601L130.144,142.209L136.001,142.209L136.761,156.858L138.688,160.65C140.992,160.254 143.252,159.634 145.437,158.801L145.065,153.085C147.126,152.167 149.08,151.024 150.89,149.678L155.69,152.803C157.487,151.308 159.135,149.641 160.61,147.827L157.431,143.063C158.756,141.237 159.877,139.271 160.772,137.2L166.491,137.506C167.3,135.312 167.893,133.045 168.264,130.737L163.41,128.34L150.848,127.582L150.848,121.725L163.885,121.049L168.197,118.858C167.8,116.554 167.18,114.294 166.347,112.109L160.632,112.481C159.713,110.42 158.57,108.467 157.224,106.656L160.349,101.856C158.854,100.059 157.187,98.411 155.373,96.936L150.609,100.115C148.783,98.79 146.817,97.67 144.746,96.774L145.052,91.055C142.858,90.247 140.592,89.653 138.283,89.282L136.166,93.569ZM134.379,118.001C138.242,119.013 140.557,122.97 139.545,126.833C138.534,130.696 134.576,133.011 130.713,131.999C126.85,130.987 124.535,127.03 125.547,123.167C126.559,119.304 130.516,116.989 134.379,118.001Z" style="fill:none;stroke:rgb(8,0,0);stroke-width:1.5px;"/>
        <path d="M140.463,228.198L136.001,142.209L130.144,142.209L124.989,227.683L140.463,228.198ZM29.348,132.737L115.337,128.275L115.337,122.418L29.863,117.263L29.348,132.737ZM236.836,117.263L150.848,121.725L150.848,127.582L236.322,132.737L236.836,117.263ZM124.989,21.802L129.451,107.791L135.308,107.791L140.463,22.317L124.989,21.802Z" style="fill:none;stroke:rgb(8,0,0);stroke-width:1.5px;"/>
    </g>
</svg>
