<?xml version="1.0" encoding="UTF-8" standalone="no"?>
<!DOCTYPE svg PUBLIC "-//W3C//DTD SVG 1.1//EN" "http://www.w3.org/Graphics/SVG/1.1/DTD/svg11.dtd">
<svg width="100%" height="100%" viewBox="0 0 800 250" version="1.1" xmlns="http://www.w3.org/2000/svg" xmlns:xlink="http://www.w3.org/1999/xlink" xml:space="preserve" xmlns:serif="http://www.serif.com/" style="fill-rule:evenodd;clip-rule:evenodd;stroke-linecap:round;stroke-linejoin:round;stroke-miterlimit:1.5;background-color: #ffffff;fill: #ffffff;">
    <g id="Bucket" transform="matrix(1,0,0,1,-16.8881,25.3625)">
        <ellipse cx="102.155" cy="77.007" rx="53.636" ry="23.817" style="fill:none;stroke:currentColor;stroke-width:1.5px;"/>
        <g transform="matrix(1,0,0,0.711479,0,23.1092)">
            <path d="M155.343,80.095L137.68,201.885C137.68,207.319 121.762,211.732 102.155,211.732C82.549,211.732 66.631,207.319 66.631,201.885L48.967,80.095C52.381,91.783 67.641,109.23 102.155,109.23C136.669,109.23 151.93,91.783 155.343,80.095Z" style="fill:none;stroke:currentColor;stroke-width:1.73px;"/>
        </g>
    </g>
    <g id="Bucket1" serif:id="Bucket" transform="matrix(1,0,0,1,110.128,25.3625)">
        <ellipse cx="102.155" cy="77.007" rx="53.636" ry="23.817" style="fill:none;stroke:currentColor;stroke-width:1.5px;"/>
        <g transform="matrix(1,0,0,0.711479,0,23.1092)">
            <path d="M155.343,80.095L137.68,201.885C137.68,207.319 121.762,211.732 102.155,211.732C82.549,211.732 66.631,207.319 66.631,201.885L48.967,80.095C52.381,91.783 67.641,109.23 102.155,109.23C136.669,109.23 151.93,91.783 155.343,80.095Z" style="fill:none;stroke:currentColor;stroke-width:1.73px;"/>
        </g>
    </g>
    <g id="Bucket2" serif:id="Bucket" transform="matrix(1,0,0,1,228.854,25.3625)">
        <ellipse cx="102.155" cy="77.007" rx="53.636" ry="23.817" style="fill:none;stroke:currentColor;stroke-width:1.5px;"/>
        <g transform="matrix(1,0,0,0.711479,0,23.1092)">
            <path d="M155.343,80.095L137.68,201.885C137.68,207.319 121.762,211.732 102.155,211.732C82.549,211.732 66.631,207.319 66.631,201.885L48.967,80.095C52.381,91.783 67.641,109.23 102.155,109.23C136.669,109.23 151.93,91.783 155.343,80.095Z" style="fill:none;stroke:currentColor;stroke-width:1.73px;"/>
        </g>
    </g>
    <g id="Bucket3" serif:id="Bucket" transform="matrix(1,0,0,1,348.02,25.3625)">
        <ellipse cx="102.155" cy="77.007" rx="53.636" ry="23.817" style="fill:none;stroke:currentColor;stroke-width:1.5px;"/>
        <g transform="matrix(1,0,0,0.711479,0,23.1092)">
            <path d="M155.343,80.095L137.68,201.885C137.68,207.319 121.762,211.732 102.155,211.732C82.549,211.732 66.631,207.319 66.631,201.885L48.967,80.095C52.381,91.783 67.641,109.23 102.155,109.23C136.669,109.23 151.93,91.783 155.343,80.095Z" style="fill:none;stroke:currentColor;stroke-width:1.73px;"/>
        </g>
    </g>
    <g id="Bucket4" serif:id="Bucket" transform="matrix(1,0,0,1,475.036,25.3625)">
        <ellipse cx="102.155" cy="77.007" rx="53.636" ry="23.817" style="fill:none;stroke:currentColor;stroke-width:1.5px;"/>
        <g transform="matrix(1,0,0,0.711479,0,23.1092)">
            <path d="M155.343,80.095L137.68,201.885C137.68,207.319 121.762,211.732 102.155,211.732C82.549,211.732 66.631,207.319 66.631,201.885L48.967,80.095C52.381,91.783 67.641,109.23 102.155,109.23C136.669,109.23 151.93,91.783 155.343,80.095Z" style="fill:none;stroke:currentColor;stroke-width:1.73px;"/>
        </g>
    </g>
    <g id="Bucket5" serif:id="Bucket" transform="matrix(1,0,0,1,593.762,25.3625)">
        <ellipse cx="102.155" cy="77.007" rx="53.636" ry="23.817" style="fill:none;stroke:currentColor;stroke-width:1.5px;"/>
        <g transform="matrix(1,0,0,0.711479,0,23.1092)">
            <path d="M155.343,80.095L137.68,201.885C137.68,207.319 121.762,211.732 102.155,211.732C82.549,211.732 66.631,207.319 66.631,201.885L48.967,80.095C52.381,91.783 67.641,109.23 102.155,109.23C136.669,109.23 151.93,91.783 155.343,80.095Z" style="fill:none;stroke:currentColor;stroke-width:1.73px;"/>
        </g>
    </g>
    <g id="ground-sand" transform="matrix(1,0,0,1,-0.707909,-37.9675)">
        <g transform="matrix(0.763562,0,0,0.498256,11.9799,115.828)">
            <path d="M50.668,231.104C41.62,229.313 37.247,237.63 32.787,237.082C28.327,236.534 26.379,231.183 20.742,232.176" style="fill:none;stroke:currentColor;stroke-width:2.33px;"/>
        </g>
        <g transform="matrix(0.763562,0,0,0.498256,105.585,115.828)">
            <path d="M50.668,231.104C41.62,229.313 37.247,237.63 32.787,237.082C28.327,236.534 26.379,231.183 20.742,232.176" style="fill:none;stroke:currentColor;stroke-width:2.33px;"/>
        </g>
    </g>
    <g id="ground-sand1" serif:id="ground-sand" transform="matrix(1,0,0,1,126.364,-37.9675)">
        <g transform="matrix(0.763562,0,0,0.498256,11.9799,115.828)">
            <path d="M50.668,231.104C41.62,229.313 37.247,237.63 32.787,237.082C28.327,236.534 26.379,231.183 20.742,232.176" style="fill:none;stroke:currentColor;stroke-width:2.33px;"/>
        </g>
        <g transform="matrix(0.763562,0,0,0.498256,105.585,115.828)">
            <path d="M50.668,231.104C41.62,229.313 37.247,237.63 32.787,237.082C28.327,236.534 26.379,231.183 20.742,232.176" style="fill:none;stroke:currentColor;stroke-width:2.33px;"/>
        </g>
    </g>
    <g id="ground-sand2" serif:id="ground-sand" transform="matrix(1,0,0,1,245.386,-37.9675)">
        <g transform="matrix(0.763562,0,0,0.498256,11.9799,115.828)">
            <path d="M50.668,231.104C41.62,229.313 37.247,237.63 32.787,237.082C28.327,236.534 26.379,231.183 20.742,232.176" style="fill:none;stroke:currentColor;stroke-width:2.33px;"/>
        </g>
        <g transform="matrix(0.763562,0,0,0.498256,105.585,115.828)">
            <path d="M50.668,231.104C41.62,229.313 37.247,237.63 32.787,237.082C28.327,236.534 26.379,231.183 20.742,232.176" style="fill:none;stroke:currentColor;stroke-width:2.33px;"/>
        </g>
    </g>
    <g id="ground-sand3" serif:id="ground-sand" transform="matrix(1,0,0,1,364.018,-37.9675)">
        <g transform="matrix(0.763562,0,0,0.498256,11.9799,115.828)">
            <path d="M50.668,231.104C41.62,229.313 37.247,237.63 32.787,237.082C28.327,236.534 26.379,231.183 20.742,232.176" style="fill:none;stroke:currentColor;stroke-width:2.33px;"/>
        </g>
        <g transform="matrix(0.763562,0,0,0.498256,105.585,115.828)">
            <path d="M50.668,231.104C41.62,229.313 37.247,237.63 32.787,237.082C28.327,236.534 26.379,231.183 20.742,232.176" style="fill:none;stroke:currentColor;stroke-width:2.33px;"/>
        </g>
    </g>
    <g id="ground-sand4" serif:id="ground-sand" transform="matrix(1,0,0,1,490.517,-37.9675)">
        <g transform="matrix(0.763562,0,0,0.498256,11.9799,115.828)">
            <path d="M50.668,231.104C41.62,229.313 37.247,237.63 32.787,237.082C28.327,236.534 26.379,231.183 20.742,232.176" style="fill:none;stroke:currentColor;stroke-width:2.33px;"/>
        </g>
        <g transform="matrix(0.763562,0,0,0.498256,105.585,115.828)">
            <path d="M50.668,231.104C41.62,229.313 37.247,237.63 32.787,237.082C28.327,236.534 26.379,231.183 20.742,232.176" style="fill:none;stroke:currentColor;stroke-width:2.33px;"/>
        </g>
    </g>
    <g id="ground-sand5" serif:id="ground-sand" transform="matrix(1,0,0,1,609.871,-37.9675)">
        <g transform="matrix(0.763562,0,0,0.498256,11.9799,115.828)">
            <path d="M50.668,231.104C41.62,229.313 37.247,237.63 32.787,237.082C28.327,236.534 26.379,231.183 20.742,232.176" style="fill:none;stroke:currentColor;stroke-width:2.33px;"/>
        </g>
        <g transform="matrix(0.763562,0,0,0.498256,105.585,115.828)">
            <path d="M50.668,231.104C41.62,229.313 37.247,237.63 32.787,237.082C28.327,236.534 26.379,231.183 20.742,232.176" style="fill:none;stroke:currentColor;stroke-width:2.33px;"/>
        </g>
    </g>
    <g transform="matrix(1,0,0,1,1.54768,-1.42286)">
        <path d="M32.079,108.002C44.074,106.414 49.938,101.304 59.544,101.766C69.15,102.228 71.361,98.61 80.441,98.391C89.521,98.173 96.718,103.221 103.107,103.638C109.496,104.055 114.037,104.062 123.452,105.458C132.895,106.858 135.36,112.078 135.36,112.078" style="fill:none;stroke:currentColor;stroke-width:1.5px;"/>
    </g>
    <g transform="matrix(1,0,0,1,1.54768,-1.42286)">
        <path d="M32.079,108.002C44.074,106.414 49.938,101.304 59.544,101.766C69.15,102.228 71.361,98.61 80.441,98.391C89.521,98.173 96.718,103.221 103.107,103.638C109.496,104.055 114.037,104.062 123.452,105.458C132.895,106.858 135.36,112.078 135.36,112.078" style="fill:none;stroke:currentColor;stroke-width:1.5px;"/>
    </g>
    <g transform="matrix(1,0,0,1,127.86,-1.42286)">
        <path d="M32.079,108.002C44.074,106.414 49.938,101.304 59.544,101.766C69.15,102.228 71.361,98.61 80.441,98.391C89.521,98.173 96.718,103.221 103.107,103.638C109.496,104.055 114.037,104.062 123.452,105.458C132.895,106.858 135.36,112.078 135.36,112.078" style="fill:none;stroke:currentColor;stroke-width:1.5px;"/>
    </g>
    <g transform="matrix(1,0,0,1,247.79,-1.42286)">
        <path d="M32.079,108.002C44.074,106.414 49.938,101.304 59.544,101.766C69.15,102.228 71.361,98.61 80.441,98.391C89.521,98.173 96.718,103.221 103.107,103.638C109.496,104.055 114.037,104.062 123.452,105.458C132.895,106.858 135.36,112.078 135.36,112.078" style="fill:none;stroke:currentColor;stroke-width:1.5px;"/>
    </g>
    <g transform="matrix(1,0,0,1,365.824,-1.42286)">
        <path d="M32.079,108.002C44.074,106.414 49.938,101.304 59.544,101.766C69.15,102.228 71.361,98.61 80.441,98.391C89.521,98.173 96.718,103.221 103.107,103.638C109.496,104.055 114.037,104.062 123.452,105.458C132.895,106.858 135.36,112.078 135.36,112.078" style="fill:none;stroke:currentColor;stroke-width:1.5px;"/>
    </g>
</svg>
